<?xml version="1.0" encoding="UTF-8" standalone="no"?>
<svg width="420px" height="210px" viewBox="0 0 420 210" version="1.1" xmlns="http://www.w3.org/2000/svg" xmlns:xlink="http://www.w3.org/1999/xlink" xmlns:sketch="http://www.bohemiancoding.com/sketch/ns">
    <!-- Generator: Sketch 3.1.1 (8761) - http://www.bohemiancoding.com/sketch -->
    <title>safari-logo-lockup-sunshine</title>
    <desc>Created with Sketch.</desc>
    <defs>
        <linearGradient x1="2.16433913%" y1="99.9654494%" x2="74.1434652%" y2="19.2715707%" id="linearGradient-1">
            <stop stop-color="#FED100" offset="0%"></stop>
            <stop stop-color="#FDCF00" offset="35.89%"></stop>
            <stop stop-color="#FBC700" offset="55.3%"></stop>
            <stop stop-color="#F8B900" offset="70.77%"></stop>
            <stop stop-color="#F2A600" offset="84.17%"></stop>
            <stop stop-color="#EC8D00" offset="96.1%"></stop>
            <stop stop-color="#E98300" offset="100%"></stop>
        </linearGradient>
        <linearGradient x1="100%" y1="0%" x2="0%" y2="100%" id="linearGradient-2">
            <stop stop-color="#FED100" offset="0%"></stop>
            <stop stop-color="#E98300" offset="100%"></stop>
        </linearGradient>
    </defs>
    <g id="Logo" stroke="none" stroke-width="1" fill="none" fill-rule="evenodd" sketch:type="MSPage">
        <g id="How-to-use-the-new-Safari-logo" sketch:type="MSArtboardGroup" transform="translate(-1036.000000, -739.000000)"></g>
        <g id="safari-logo-lockup-sunshine" sketch:type="MSArtboardGroup">
            <g id="Logo-mark-+-Logotype-+-clearspace" sketch:type="MSLayerGroup">
                <g id="Logo-mark" transform="translate(45.000000, 44.000000)" sketch:type="MSShapeGroup">
                    <path d="M-0.156422018,-0.140041515 L-0.156422018,43.8863912 L25.5734862,58.7307917 L63.8302752,36.7593863 L63.8302752,36.7170716 L-0.156422018,-0.140041515 Z" id="Shape" fill="#B2B4B6"></path>
                    <path d="M25.5734862,58.7307917 L3.71275229,71.2851609 C1.56926606,72.5203472 -0.163486239,75.5166311 -0.156422018,77.9678614 L-0.0565137615,112.97421 C-0.0494495413,115.424433 1.69440367,116.416813 3.83788991,115.181627 L50.953211,88.0075282 L63.8312844,95.4156236 L50.953211,73.3726862 L25.5734862,58.7307917 L25.5734862,58.7307917 Z" id="Shape" fill="url(#linearGradient-1)"></path>
                    <path d="M50.953211,73.3726862 L63.8302752,95.4156236 L63.8302752,36.7593863 L25.5734862,58.7307917 L50.953211,73.3726862 Z" id="Shape" fill="#BB650E"></path>
                </g>
                <path d="M268.192018,63.5070777 L269.032661,63.7005164 L269.032661,69.9177551 C269.032661,69.9177551 265.393578,69.22863 262.395321,69.22863 C255.868991,69.22863 254.511651,72.42742 254.511651,77.9525111 L254.511651,82.0922995 L267.965963,82.0922995 L267.965963,88.3095382 L254.511651,88.3095382 L254.511651,139.796456 L247.002385,139.796456 L247.002385,88.3095382 L239.634404,88.3095382 L239.634404,82.0922995 L247.002385,82.0922995 L247.002385,77.6321283 C247.002385,68.1365077 252.146147,62.6910085 261.114679,62.6910085 C264.887982,62.692016 267.321101,63.3065866 268.192018,63.5070777 L268.192018,63.5070777 Z M233.262477,98.2071486 L233.262477,139.798471 L230.683028,139.798471 C226.637248,139.798471 225.809725,137.839905 225.756239,133.731349 C221.81844,137.346233 216.66055,140.330427 207.832294,140.330427 C196.276239,140.330427 188.808349,133.587277 188.808349,123.150658 C188.808349,112.097453 197.33789,105.7573 212.210092,105.7573 C217.191376,105.7573 221.535872,106.208657 225.753211,107.169805 L225.753211,98.5265238 C225.753211,91.3652642 221.637798,87.8833687 213.170826,87.8833687 C204.337523,87.8833687 199.254312,90.4232583 196.544679,92.5551133 L196.248991,92.7878442 L192.545321,92.7878442 L192.545321,86.6925121 L193.10945,86.3842193 C199.176606,83.0665451 205.808899,81.4545564 213.384771,81.4545564 C226.574679,81.453549 233.262477,87.0904718 233.262477,98.2071486 L233.262477,98.2071486 Z M225.753211,113.25607 C221.002018,112.238502 216.778624,111.762966 212.53,111.762966 C206.515321,111.762966 196.424587,113.187561 196.424587,122.725496 C196.424587,127.872777 198.533761,134.007402 208.580092,134.007402 C216.848257,134.007402 221.463211,130.6726 225.75422,125.634128 L225.75422,113.25607 L225.753211,113.25607 Z M158.457431,96.4128037 C148.300092,93.7449625 142.075505,91.6312423 142.075505,82.2172286 C142.075505,73.9104495 147.795505,69.3364317 158.181927,69.3364317 C165.292569,69.3364317 170.214312,71.068312 174.638532,75.1264935 L174.950367,75.4126215 L179.127339,75.4126215 L179.127339,68.9878392 L178.690367,68.662419 C173.109633,64.5165856 166.559083,62.5852217 158.074954,62.5852217 C143.729541,62.5852217 134.460275,70.4587788 134.460275,82.6433981 C134.460275,95.377101 142.469083,99.9783211 156.299817,103.62343 L156.803394,103.757427 C167.326055,106.563295 174.928165,108.590371 174.928165,118.566565 C174.928165,130.887196 165.007982,133.472423 156.68633,133.472423 C145.508716,133.472423 140.130826,129.395099 137.058899,126.328291 L136.741009,126.01093 L132.643761,126.01093 L132.643761,132.632174 L133.06055,132.957594 C139.31844,137.846957 147.081009,140.223633 156.793303,140.223633 C173.225688,140.223633 182.650367,132.174772 182.650367,118.140396 C182.650367,103.855154 172.623211,100.124408 158.457431,96.4128037 L158.457431,96.4128037 Z M369.674587,75.7319967 C372.318624,75.7319967 374.390459,73.6646213 374.390459,71.0239823 C374.390459,68.4720028 372.230826,66.315968 369.674587,66.315968 C367.118349,66.315968 364.958716,68.4720028 364.958716,71.0239823 C364.959725,73.6646213 367.03055,75.7319967 369.674587,75.7319967 L369.674587,75.7319967 Z M353.658991,81.6671375 C347.51211,81.6671375 341.745688,84.4437879 336.484862,89.9295868 L336.484862,89.2525516 C336.484862,84.1647124 336.125596,82.093307 332.516789,82.093307 L328.975596,82.093307 L328.975596,139.797463 L336.484862,139.797463 L336.484862,98.1829687 C340.491284,93.5696587 346.061927,88.41734 353.871927,88.41734 C354.779174,88.41734 356.124404,88.5190967 356.137523,88.5211117 L357.305138,88.6107786 L357.305138,82.4005923 L356.704679,82.1013669 C356.194037,81.8454637 354.940642,81.6671375 353.658991,81.6671375 L353.658991,81.6671375 Z M316.197431,98.2071486 L316.197431,139.798471 L313.617982,139.798471 C309.572202,139.798471 308.744679,137.839905 308.691193,133.731349 C304.753394,137.346233 299.595505,140.330427 290.767248,140.330427 C279.211193,140.330427 271.743303,133.587277 271.743303,123.150658 C271.743303,112.097453 280.272844,105.7573 295.145046,105.7573 C300.12633,105.7573 304.470826,106.208657 308.688165,107.169805 L308.688165,98.5265238 C308.688165,91.3652642 304.572752,87.8833687 296.10578,87.8833687 C287.272477,87.8833687 282.189266,90.4232583 279.479633,92.5551133 L279.183945,92.7878442 L275.480275,92.7878442 L275.480275,86.6925121 L276.044404,86.3842193 C282.112569,83.0665451 288.743853,81.4545564 296.319725,81.4545564 C309.509633,81.453549 316.197431,87.0904718 316.197431,98.2071486 L316.197431,98.2071486 Z M308.688165,113.25607 C303.936972,112.238502 299.713578,111.762966 295.464954,111.762966 C289.450275,111.762966 279.358532,113.187561 279.358532,122.725496 C279.358532,127.872777 281.467706,134.007402 291.514037,134.007402 C299.781193,134.007402 304.397156,130.6726 308.688165,125.634128 L308.688165,113.25607 L308.688165,113.25607 Z M368.606881,82.093307 L365.813486,82.093307 L365.813486,139.797463 L373.322752,139.797463 L373.322752,88.9321688 C373.322752,83.8664945 372.936239,82.093307 368.606881,82.093307 Z M387.560799,67.7664994 C385.766821,67.7664994 384.224878,67.1193471 382.934923,65.8250229 C381.644968,64.5306987 381,62.9868385 381,61.1933958 C381,59.3773941 381.649239,57.8278942 382.947737,56.5448495 C384.246235,55.2618049 385.809535,54.6202922 387.637683,54.6202922 C389.465831,54.6202922 391.029131,55.2618049 392.327629,56.5448495 C393.626127,57.8278942 394.275366,59.3717545 394.275366,61.1764766 C394.275366,63.0150373 393.624703,64.5729968 392.323357,65.8504017 C391.022012,67.1278066 389.434508,67.7664994 387.560799,67.7664994 Z M387.560799,66.8274846 C389.417423,66.8274846 390.892449,66.1535438 391.98592,64.8056419 C392.880062,63.7058894 393.327125,62.4989995 393.327125,61.1849362 C393.327125,59.8821524 392.880062,58.6809022 391.98592,57.5811497 C390.892449,56.2332478 389.443051,55.559307 387.637683,55.559307 C385.832315,55.559307 384.382917,56.2332478 383.289445,57.5811497 C382.395304,58.6809022 381.94824,59.8849722 381.94824,61.1933958 C381.94824,62.7274096 382.500663,64.0499128 383.605525,65.1609448 C384.716083,66.2719769 386.034494,66.8274846 387.560799,66.8274846 Z M385.45075,64.7718036 L385.45075,57.6657456 L387.714567,57.6657456 C388.437853,57.6657456 388.98031,57.8109672 389.341953,58.1014146 C389.703596,58.3918621 389.884415,58.8275268 389.884415,59.4084217 C389.884415,59.8370432 389.779056,60.2233608 389.568335,60.5673859 C389.357613,60.9114111 389.044384,61.2103137 388.628637,61.4641028 L390.789942,64.7718036 L389.448737,64.7718036 L387.509542,61.8109461 L386.604015,61.8109461 L386.604015,64.7718036 L385.45075,64.7718036 Z M386.527131,60.9226888 L386.860297,60.9226888 C387.49246,60.9226888 387.966576,60.8056656 388.282657,60.5716157 C388.598739,60.3375658 388.756777,59.9864962 388.756777,59.5183964 C388.756777,59.1461725 388.624367,58.8670087 388.359542,58.6808967 C388.094716,58.4947848 387.697484,58.4017302 387.167834,58.4017302 L386.527131,58.4017302 L386.527131,60.9226888 Z" id="Logotype" fill="url(#linearGradient-2)" sketch:type="MSShapeGroup"></path>
                <path d="M0,0 L0,210 L420,210 L420,0 L0,0 Z M45,45 L45,163 L375,163 L375,45 L45,45 Z" id="clearspace" sketch:type="MSShapeGroup"></path>
            </g>
        </g>
    </g>
</svg>