<?xml version="1.0" encoding="utf-8"?>
<!-- Generator: Adobe Illustrator 19.2.0, SVG Export Plug-In . SVG Version: 6.00 Build 0)  -->
<svg version="1.1" id="Layer_1" xmlns="http://www.w3.org/2000/svg" xmlns:xlink="http://www.w3.org/1999/xlink" x="0px" y="0px"
	 viewBox="0 0 835.5 137.2" style="enable-background:new 0 0 835.5 137.2;" xml:space="preserve">
<style type="text/css">
	.st0{fill:#4A78B1;}
</style>
<g>
	<path class="st0" d="M521.7,41.8h-55.1c-1.4,0-2.6,1.2-2.6,2.6v83c0,1.4,1.2,2.6,2.6,2.6h12.5c1.4,0,2.6-1.2,2.6-2.6l0-66.7
		c0-0.7,0.6-1.2,1.3-1.2l38.8,0c3.6,0,6.6,1.2,9.1,3.8c2.5,2.6,3.8,5.5,3.8,9.1l0,55.1c0,1.4,1.2,2.6,2.6,2.6h12.5
		c1.4,0,2.6-1.2,2.6-2.6V72.4c0-8.4-3-15.7-8.9-21.6C537.4,44.8,530.1,41.8,521.7,41.8z M437,50.8C443,56.7,446,64,446,72.4l0,52.6
		c0,2.8-2.4,5-5.2,5h-56c-14.9,0-26.9-12.1-26.9-27c0-14.9,12-25.9,26.9-25.9l42.3,0c0.7,0,1.3-0.5,1.3-1.2v-3.6
		c0-3.5-1.3-6.5-3.8-9c-2.6-2.6-5.5-3.8-9.1-3.8h-45.7c-1.4,0-2.6-1.2-2.6-2.6V44.4c0-1.4,1.2-2.6,2.6-2.6l45.7,0
		C423.8,41.8,431.1,44.8,437,50.8z M428.4,96c0-0.7-0.6-1.3-1.3-1.3h-42.8c-5,0-9,4.1-8.8,9.1c0.1,4.9,4.4,8.6,9.2,8.6l42.4,0
		c0.7,0,1.3-0.5,1.3-1.2V96z M702.6,6.5h-12.5c-1.4,0-2.6,1.2-2.6,2.6v118.3c0,1.4,1.2,2.6,2.6,2.6h12.5c1.4,0,2.6-1.2,2.6-2.6V9.1
		C705.2,7.7,704,6.5,702.6,6.5z M827,55.4v25.7c0,31.6-17.3,48.9-48.7,48.9l-49.5,0c-1.4,0-2.6-1.2-2.6-2.6V9.1
		c0-1.4,1.2-2.6,2.6-2.6l49.2,0C809.1,6.5,827,24.3,827,55.4z M808.9,54.1c0-19.4-10.7-30-30-30l-33.8,0c-0.7,0-1.3,0.6-1.3,1.3V111
		c0,0.7,0.6,1.3,1.3,1.3h33.8c19.7,0,30-10.3,30-29.8V54.1z M336.3,50.8c5.9,5.9,9,13.2,9,21.6v27.1c0,8.4-3,15.8-9,21.8
		c-5.9,5.9-13.2,8.8-21.6,8.8l-55.1,0.1c-1.4,0-2.6-1.2-2.6-2.6l0-118.4c0-1.4,1.2-2.6,2.6-2.6h12.5c1.4,0,2.6,1.2,2.6,2.6v31.4
		c0,0.7,0.6,1.3,1.3,1.3h38.7C323.1,41.8,330.4,44.8,336.3,50.8z M327.6,72.4c0-3.6-1.2-6.5-3.8-9.1c-2.5-2.5-5.5-3.8-9.1-3.8
		l-38.6,0c-0.7,0-1.3,0.5-1.3,1.2l0,50.7c0,0.7,0.6,1.2,1.3,1.2l38.6-0.1c3.6,0,6.6-1.2,9.1-3.8c2.5-2.6,3.8-5.6,3.8-9.1V72.4z"/>
</g>
<path class="st0" d="M590.4,79.1L590.4,79.1c-0.4,0.4-1,0.5-1.5,0.3c-0.5-0.2-0.9-0.7-0.9-1.3V9.1c0-1.4-1.2-2.6-2.6-2.6h-12.5
	c-1.4,0-2.6,1.2-2.6,2.6v118.3c0,1.4,1.2,2.6,2.6,2.6h12.5c1.4,0,2.6-1.2,2.6-2.6V94.9c0-0.5,0.3-1,0.9-1.2c0.5-0.2,1.2-0.1,1.5,0.3
	l0,0l40.8,35.4c0.5,0.4,1.1,0.6,1.8,0.6l19.1,0c1.4,0,2.6-1.2,2.6-2.6c0-0.7-0.3-1.4-0.8-1.9l-44.1-38.1v0c-0.2-0.2-0.4-0.6-0.4-1
	c0-0.4,0.1-0.7,0.4-0.9l45.3-39.2c0.5-0.5,0.8-1.1,0.8-1.9c0-1.4-1.2-2.6-2.6-2.6l-19.1,0c-0.6,0-1.3,0.2-1.8,0.6L590.4,79.1z"/>
<g>
	<path class="st0" d="M130.1,41.5H81.8c-1.5,0-2.7,1.2-2.7,2.7v12.9c0,1.5,1.2,2.7,2.7,2.7h48.2c1.5,0,2.7-1.2,2.7-2.7V44.2
		C132.8,42.7,131.5,41.5,130.1,41.5z"/>
	<path class="st0" d="M130.1,76.8H81.8c-1.5,0-2.7,1.2-2.7,2.7v12.9c0,1.5,1.2,2.7,2.7,2.7h48.2c1.5,0,2.7-1.2,2.7-2.7V79.5
		C132.8,78,131.5,76.8,130.1,76.8z"/>
	<path class="st0" d="M200.6,112.1h-48.2c-1.5,0-2.7,1.2-2.7,2.7v12.9c0,1.5,1.2,2.7,2.7,2.7h48.2c1.5,0,2.7-1.2,2.7-2.7v-12.9
		C203.3,113.3,202.1,112.1,200.6,112.1z"/>
	<path class="st0" d="M59.5,112.1H11.2c-1.5,0-2.7,1.2-2.7,2.7v12.9c0,1.5,1.2,2.7,2.7,2.7h48.2c1.5,0,2.7-1.2,2.7-2.7v-12.9
		C62.2,113.3,61,112.1,59.5,112.1z"/>
	<path class="st0" d="M200.6,41.5h-48.2c-1.5,0-2.7,1.2-2.7,2.7v12.9c0,1.5,1.2,2.7,2.7,2.7h48.2c1.5,0,2.7-1.2,2.7-2.7V44.2
		C203.3,42.7,202.1,41.5,200.6,41.5z"/>
	<path class="st0" d="M59.5,76.8H11.2c-1.5,0-2.7,1.2-2.7,2.7v12.9c0,1.5,1.2,2.7,2.7,2.7h48.2c1.5,0,2.7-1.2,2.7-2.7V79.5
		C62.2,78,61,76.8,59.5,76.8z"/>
	<path class="st0" d="M59.5,6.2H11.2c-1.5,0-2.7,1.2-2.7,2.7v12.9c0,1.5,1.2,2.7,2.7,2.7h48.2c1.5,0,2.7-1.2,2.7-2.7V8.9
		C62.2,7.4,61,6.2,59.5,6.2z"/>
	<path class="st0" d="M200.6,6.2h-48.2c-1.5,0-2.7,1.2-2.7,2.7v12.9c0,1.5,1.2,2.7,2.7,2.7h48.2c1.5,0,2.7-1.2,2.7-2.7V8.9
		C203.3,7.4,202.1,6.2,200.6,6.2z"/>
</g>
</svg>
