<?xml version="1.0" encoding="UTF-8"?>
<svg width="215px" height="210px" viewBox="0 0 215 210" version="1.1" xmlns="http://www.w3.org/2000/svg" xmlns:xlink="http://www.w3.org/1999/xlink">
    <!-- Generator: Sketch 51.1 (57501) - http://www.bohemiancoding.com/sketch -->
    <title>Rules</title>
    <desc>Created with Sketch.</desc>
    <defs>
        <polygon id="path-1" points="0 210 215 210 215 0 0 0"></polygon>
    </defs>
    <g id="Banners" stroke="none" stroke-width="1" fill="none" fill-rule="evenodd">
        <g id="Docs/Rules" transform="translate(-909.000000, -1680.000000)">
            <g id="Rules" transform="translate(909.000000, 1680.000000)">
                <path d="M148.562232,121.578947 C148.562232,144.978289 129.558262,163.947368 106.11588,163.947368 C82.6734979,163.947368 63.6695279,144.978289 63.6695279,121.578947 C63.6695279,98.1796053 82.6734979,79.2105263 106.11588,79.2105263 C129.558262,79.2105263 148.562232,98.1796053 148.562232,121.578947 Z" id="Stroke-1" stroke="#3445DC" stroke-width="1.84210526" stroke-linecap="round" stroke-linejoin="round" stroke-dasharray="5.526315789473684,4.605263157894736"></path>
                <path d="M82.855279,168.683974 C74.0818026,164.343974 66.6915236,157.637789 61.5241416,149.399895" id="Stroke-3" stroke="#3445DC" stroke-width="1.84210526" stroke-linecap="round" stroke-linejoin="round" stroke-dasharray="5.526315789473684,4.605263157894736"></path>
                <path d="M128.228491,73.6913947 C146.353084,82.0121842 158.935659,100.296921 158.935659,121.515211 C158.935659,145.900079 142.316067,166.410079 119.765058,172.375737" id="Stroke-5" stroke="#3445DC" stroke-width="1.84210526" stroke-linecap="round" stroke-linejoin="round" stroke-dasharray="5.526315789473684,4.605263157894736"></path>
                <path d="M53.6319807,124.985184 C53.5572382,123.838474 53.5194056,122.680711 53.5194056,121.514658 C53.5194056,109.453474 57.5850279,98.3400526 64.4235043,89.4666316" id="Stroke-7" stroke="#3445DC" stroke-width="1.84210526" stroke-linecap="round" stroke-linejoin="round" stroke-dasharray="5.526315789473684,4.605263157894736"></path>
                <path d="M106.11588,79.2105263 L106.11588,41.4473684" id="Stroke-9" stroke="#3445DC" stroke-width="1.84210526" stroke-linecap="round" stroke-linejoin="round" stroke-dasharray="5.526315789473684,4.605263157894736"></path>
                <path d="M74.5433605,149.894132 L39.6782961,176.842289" id="Stroke-11" stroke="#3445DC" stroke-width="1.84210526" stroke-linecap="round" stroke-linejoin="round" stroke-dasharray="5.526315789473684,4.605263157894736"></path>
                <path d="M71.5543069,96.9785526 L47.9485987,76.4096053" id="Stroke-13" stroke="#3445DC" stroke-width="1.84210526" stroke-linecap="round" stroke-linejoin="round" stroke-dasharray="5.526315789473684,4.605263157894736"></path>
                <path d="M152.993077,147.368421 L177.158893,163.368026" id="Stroke-15" stroke="#3445DC" stroke-width="1.84210526" stroke-linecap="round" stroke-linejoin="round" stroke-dasharray="5.526315789473684,4.605263157894736"></path>
                <path d="M139.748339,95.7400132 L159.635378,76.4098816" id="Stroke-17" stroke="#3445DC" stroke-width="1.84210526" stroke-linecap="round" stroke-linejoin="round" stroke-dasharray="5.526315789473684,4.605263157894736"></path>
                <path d="M95.9656652,163.368118 L89.5064378,181.447461" id="Stroke-19" stroke="#3445DC" stroke-width="1.84210526" stroke-linecap="round" stroke-linejoin="round" stroke-dasharray="5.526315789473684,4.605263157894736"></path>
                <path d="M129.483704,122.5 L82.7484249,122.5 C80.8743262,122.5 79.3564077,120.983947 79.3564077,119.114211 L79.3564077,111.148947 C79.3564077,109.279211 80.8743262,107.763158 82.7484249,107.763158 L129.483704,107.763158 C131.35688,107.763158 132.875721,109.279211 132.875721,111.148947 L132.875721,119.114211 C132.875721,120.983947 131.35688,122.5 129.483704,122.5" id="Fill-21" fill="#FFFFFF"></path>
                <path d="M129.483704,122.5 L82.7484249,122.5 C80.8743262,122.5 79.3564077,120.983947 79.3564077,119.114211 L79.3564077,111.148947 C79.3564077,109.279211 80.8743262,107.763158 82.7484249,107.763158 L129.483704,107.763158 C131.35688,107.763158 132.875721,109.279211 132.875721,111.148947 L132.875721,119.114211 C132.875721,120.983947 131.35688,122.5 129.483704,122.5 Z" id="Stroke-23" stroke="#000000" stroke-width="1.84210526" stroke-linecap="round" stroke-linejoin="round"></path>
                <mask id="mask-2" fill="white">
                    <use xlink:href="#path-1"></use>
                </mask>
                <g id="Clip-26"></g>
                <polygon id="Fill-25" fill="#FFFFFF" mask="url(#mask-2)" points="102.424893 128.026316 109.806867 128.026316 109.806867 122.5 102.424893 122.5"></polygon>
                <polygon id="Stroke-27" stroke="#000000" stroke-width="1.84210526" stroke-linecap="round" stroke-linejoin="round" mask="url(#mask-2)" points="102.424893 128.026316 109.806867 128.026316 109.806867 122.5 102.424893 122.5"></polygon>
                <path d="M90.4291845,115.131579 C90.4291845,116.657763 89.1899356,117.894737 87.6609442,117.894737 C86.1319528,117.894737 84.8927039,116.657763 84.8927039,115.131579 C84.8927039,113.605395 86.1319528,112.368421 87.6609442,112.368421 C89.1899356,112.368421 90.4291845,113.605395 90.4291845,115.131579 Z" id="Stroke-28" stroke="#000000" stroke-width="1.84210526" stroke-linecap="round" stroke-linejoin="round" mask="url(#mask-2)"></path>
                <path d="M104.270386,115.131579 C104.270386,116.657763 103.031137,117.894737 101.502146,117.894737 C99.9731545,117.894737 98.7339056,116.657763 98.7339056,115.131579 C98.7339056,113.605395 99.9731545,112.368421 101.502146,112.368421 C103.031137,112.368421 104.270386,113.605395 104.270386,115.131579 Z" id="Stroke-29" stroke="#000000" stroke-width="1.84210526" stroke-linecap="round" stroke-linejoin="round" mask="url(#mask-2)"></path>
                <path d="M112.575107,115.131579 C112.575107,116.657763 111.335858,117.894737 109.806867,117.894737 C108.277876,117.894737 107.038627,116.657763 107.038627,115.131579 C107.038627,113.605395 108.277876,112.368421 109.806867,112.368421 C111.335858,112.368421 112.575107,113.605395 112.575107,115.131579 Z" id="Stroke-30" stroke="#000000" stroke-width="1.84210526" stroke-linecap="round" stroke-linejoin="round" mask="url(#mask-2)"></path>
                <path d="M95.9656652,115.592105 C95.9656652,116.354737 95.3455794,116.973684 94.5815451,116.973684 C93.8175107,116.973684 93.1974249,116.354737 93.1974249,115.592105 C93.1974249,114.829474 93.8175107,114.210526 94.5815451,114.210526 C95.3455794,114.210526 95.9656652,114.829474 95.9656652,115.592105" id="Fill-31" fill="#000000" mask="url(#mask-2)"></path>
                <path d="M118.773936,138.157895 L93.4574549,138.157895 C92.8041502,138.157895 92.2744936,137.629211 92.2744936,136.977105 L92.2744936,135.654474 C92.2744936,135.002368 92.8041502,134.473684 93.4574549,134.473684 L118.773936,134.473684 C119.42724,134.473684 119.956897,135.002368 119.956897,135.654474 L119.956897,136.977105 C119.956897,137.629211 119.42724,138.157895 118.773936,138.157895" id="Fill-32" fill="#FFFFFF" mask="url(#mask-2)"></path>
                <path d="M118.773936,138.157895 L93.4574549,138.157895 C92.8041502,138.157895 92.2744936,137.629211 92.2744936,136.977105 L92.2744936,135.654474 C92.2744936,135.002368 92.8041502,134.473684 93.4574549,134.473684 L118.773936,134.473684 C119.42724,134.473684 119.956897,135.002368 119.956897,135.654474 L119.956897,136.977105 C119.956897,137.629211 119.42724,138.157895 118.773936,138.157895 Z" id="Stroke-33" stroke="#000000" stroke-width="1.84210526" stroke-linecap="round" stroke-linejoin="round" mask="url(#mask-2)"></path>
                <polygon id="Fill-34" fill="#FFFFFF" mask="url(#mask-2)" points="92.2746781 134.473684 98.7339056 128.026316 113.497854 128.026316 119.957082 134.473684"></polygon>
                <polygon id="Stroke-35" stroke="#000000" stroke-width="1.84210526" stroke-linecap="round" stroke-linejoin="round" mask="url(#mask-2)" points="92.2746781 134.473684 98.7339056 128.026316 113.497854 128.026316 119.957082 134.473684"></polygon>
                <path d="M126.416309,21.1842105 C126.416309,32.375 117.327253,41.4473684 106.11588,41.4473684 C94.9045064,41.4473684 85.8154506,32.375 85.8154506,21.1842105 C85.8154506,9.99342105 94.9045064,0.921052632 106.11588,0.921052632 C117.327253,0.921052632 126.416309,9.99342105 126.416309,21.1842105" id="Fill-36" fill="#FFFFFF" mask="url(#mask-2)"></path>
                <path d="M126.416309,21.1842105 C126.416309,32.375 117.327253,41.4473684 106.11588,41.4473684 C94.9045064,41.4473684 85.8154506,32.375 85.8154506,21.1842105 C85.8154506,9.99342105 94.9045064,0.921052632 106.11588,0.921052632 C117.327253,0.921052632 126.416309,9.99342105 126.416309,21.1842105 Z" id="Stroke-37" stroke="#3445DC" stroke-width="1.84210526" stroke-linecap="round" stroke-linejoin="round" mask="url(#mask-2)"></path>
                <path d="M98.2977232,13.5396579 C97.4921652,12.4067632 97.7597618,10.8345263 98.8956631,10.0304474 C100.031564,9.22544737 101.60577,9.49347368 102.412251,10.6282105 C103.217809,11.7611053 102.94929,13.3324211 101.814311,14.1365 C100.677487,14.9405789 99.1032811,14.6734737 98.2977232,13.5396579" id="Fill-38" fill="#E0EAFD" mask="url(#mask-2)"></path>
                <path d="M98.2977232,13.5396579 C97.4921652,12.4067632 97.7597618,10.8345263 98.8956631,10.0304474 C100.031564,9.22544737 101.60577,9.49347368 102.412251,10.6282105 C103.217809,11.7611053 102.94929,13.3324211 101.814311,14.1365 C100.677487,14.9405789 99.1032811,14.6734737 98.2977232,13.5396579 Z" id="Stroke-39" stroke="#3445DC" stroke-width="1.84210526" stroke-linecap="round" stroke-linejoin="round" mask="url(#mask-2)"></path>
                <path d="M110.452052,31.8293684 C111.537202,33.0423947 113.374391,33.2873947 114.735442,32.3248947 C116.094648,31.3614737 116.471129,29.5488421 115.683103,28.1258158 L110.452052,31.8293684 Z" id="Fill-40" fill="#3445DC" mask="url(#mask-2)"></path>
                <path d="M99.8521824,11.9988289 C97.5010236,13.6631711 95.0538991,18.9223816 98.5603369,22.6121184 C102.064929,26.3027763 102.064929,26.3027763 102.727461,28.4801447 C103.390916,30.6556711 102.707161,34.6659342 102.707161,34.6659342 L112.110873,28.0094868 L111.523084,28.4258026 L120.927719,21.7684342 C120.927719,21.7684342 116.909157,21.0859342 115.071045,19.7421184 C113.232933,18.3983026 113.232933,18.3983026 110.902998,13.8750132 C108.573062,9.35264474 102.792054,9.91817105 100.439972,11.5825132 L99.8521824,11.9988289 Z" id="Fill-41" fill="#E0EAFD" mask="url(#mask-2)"></path>
                <path d="M99.8521824,11.9988289 C97.5010236,13.6631711 95.0538991,18.9223816 98.5603369,22.6121184 C102.064929,26.3027763 102.064929,26.3027763 102.727461,28.4801447 C103.390916,30.6556711 102.707161,34.6659342 102.707161,34.6659342 L112.110873,28.0094868 L111.523084,28.4258026 L120.927719,21.7684342 C120.927719,21.7684342 116.909157,21.0859342 115.071045,19.7421184 C113.232933,18.3983026 113.232933,18.3983026 110.902998,13.8750132 C108.573062,9.35264474 102.792054,9.91817105 100.439972,11.5825132 L99.8521824,11.9988289 Z" id="Stroke-42" stroke="#3445DC" stroke-width="1.84210526" stroke-linecap="round" stroke-linejoin="round" mask="url(#mask-2)"></path>
                <g id="Group-45" mask="url(#mask-2)">
                    <g transform="translate(107.961373, 20.263158)">
                        <path d="M0.301830472,6.06153947 L8.51796781,0.246013158" id="Fill-43" stroke="none" fill="#E0EAFD" fill-rule="evenodd"></path>
                        <path d="M0.301830472,6.06153947 L8.51796781,0.246013158" id="Stroke-44" stroke="#3445DC" stroke-width="1.84210526" fill="none" stroke-linecap="round" stroke-linejoin="round"></path>
                    </g>
                </g>
                <path d="M95.0096073,24.6840263 C94.5556159,24.3008684 94.1431481,23.8550789 93.7823541,23.3494211 C91.8418176,20.6185 92.080809,16.9996842 94.1468391,14.5542895 C94.5325472,14.0983684 94.9819249,13.6829737 95.4912811,13.321" id="Stroke-46" stroke="#3445DC" stroke-width="1.84210526" stroke-linecap="round" stroke-linejoin="round" mask="url(#mask-2)"></path>
                <path d="M114.035815,11.2163026 C113.823584,10.6618289 113.538455,10.1248553 113.178584,9.61919737 C111.23897,6.88827632 107.739914,5.91656579 104.743755,7.05314474 C104.184571,7.26590789 103.642918,7.55143421 103.133562,7.91248684" id="Stroke-47" stroke="#3445DC" stroke-width="1.84210526" stroke-linecap="round" stroke-linejoin="round" mask="url(#mask-2)"></path>
                <path d="M42.4463519,188.355263 C42.4463519,199.801184 33.1515236,209.078947 21.6845494,209.078947 C10.2175751,209.078947 0.922746781,199.801184 0.922746781,188.355263 C0.922746781,176.909342 10.2175751,167.631579 21.6845494,167.631579 C33.1515236,167.631579 42.4463519,176.909342 42.4463519,188.355263" id="Fill-48" fill="#FFFFFF" mask="url(#mask-2)"></path>
                <path d="M42.4463519,188.355263 C42.4463519,199.801184 33.1515236,209.078947 21.6845494,209.078947 C10.2175751,209.078947 0.922746781,199.801184 0.922746781,188.355263 C0.922746781,176.909342 10.2175751,167.631579 21.6845494,167.631579 C33.1515236,167.631579 42.4463519,176.909342 42.4463519,188.355263 Z" id="Stroke-49" stroke="#3445DC" stroke-width="1.84210526" stroke-linecap="round" stroke-linejoin="round" mask="url(#mask-2)"></path>
                <path d="M29.7793455,197.105263 L18.2034871,197.105263 C17.3231867,197.105263 16.6099034,196.393289 16.6099034,195.513684 L16.6099034,178.433684 C16.6099034,177.554079 17.3231867,176.842105 18.2034871,176.842105 L29.7793455,176.842105 C30.6596459,176.842105 31.3738519,177.554079 31.3738519,178.433684 L31.3738519,195.513684 C31.3738519,196.393289 30.6596459,197.105263 29.7793455,197.105263" id="Fill-50" fill="#FFFFFF" mask="url(#mask-2)"></path>
                <path d="M29.7793455,197.105263 L18.2034871,197.105263 C17.3231867,197.105263 16.6099034,196.393289 16.6099034,195.513684 L16.6099034,178.433684 C16.6099034,177.554079 17.3231867,176.842105 18.2034871,176.842105 L29.7793455,176.842105 C30.6596459,176.842105 31.3738519,177.554079 31.3738519,178.433684 L31.3738519,195.513684 C31.3738519,196.393289 30.6596459,197.105263 29.7793455,197.105263 Z" id="Stroke-51" stroke="#3445DC" stroke-width="1.84210526" stroke-linecap="round" stroke-linejoin="round" mask="url(#mask-2)"></path>
                <path d="M28.6051502,197.105263 L28.6051502,199.197895 C28.6051502,200.0775 27.8466524,200.789474 26.9109871,200.789474 L14.612618,200.789474 C13.6769528,200.789474 12.9184549,200.0775 12.9184549,199.197895 L12.9184549,181.196842 C12.9184549,180.317237 13.6769528,179.605263 14.612618,179.605263 L15.614721,179.605263" id="Stroke-52" stroke="#3445DC" stroke-width="1.84210526" stroke-linecap="round" stroke-linejoin="round" mask="url(#mask-2)"></path>
                <g id="Group-55" mask="url(#mask-2)">
                    <g transform="translate(20.300429, 192.500000)">
                        <path d="M0,0 L7.38197425,0" id="Fill-53" stroke="none" fill="#FFFFFF" fill-rule="evenodd"></path>
                        <path d="M0,0 L7.38197425,0" id="Stroke-54" stroke="#E0EAFD" stroke-width="1.84210526" fill="none" stroke-linecap="round" stroke-linejoin="round"></path>
                    </g>
                </g>
                <g id="Group-58" mask="url(#mask-2)">
                    <g transform="translate(20.300429, 188.815789)">
                        <path d="M0,0 L7.38197425,0" id="Fill-56" stroke="none" fill="#FFFFFF" fill-rule="evenodd"></path>
                        <path d="M0,0 L7.38197425,0" id="Stroke-57" stroke="#E0EAFD" stroke-width="1.84210526" fill="none" stroke-linecap="round" stroke-linejoin="round"></path>
                    </g>
                </g>
                <g id="Group-61" mask="url(#mask-2)">
                    <g transform="translate(20.300429, 185.131579)">
                        <path d="M0,0 L7.38197425,0" id="Fill-59" stroke="none" fill="#FFFFFF" fill-rule="evenodd"></path>
                        <path d="M0,0 L7.38197425,0" id="Stroke-60" stroke="#E0EAFD" stroke-width="1.84210526" fill="none" stroke-linecap="round" stroke-linejoin="round"></path>
                    </g>
                </g>
                <g id="Group-64" mask="url(#mask-2)">
                    <g transform="translate(20.300429, 181.447368)">
                        <path d="M0,0 L7.38197425,0" id="Fill-62" stroke="none" fill="#FFFFFF" fill-rule="evenodd"></path>
                        <path d="M0,0 L7.38197425,0" id="Stroke-63" stroke="#E0EAFD" stroke-width="1.84210526" fill="none" stroke-linecap="round" stroke-linejoin="round"></path>
                    </g>
                </g>
                <path d="M214.077253,175 C214.077253,186.190789 204.988197,195.263158 193.776824,195.263158 C182.565451,195.263158 173.476395,186.190789 173.476395,175 C173.476395,163.809211 182.565451,154.736842 193.776824,154.736842 C204.988197,154.736842 214.077253,163.809211 214.077253,175" id="Fill-65" fill="#FFFFFF" mask="url(#mask-2)"></path>
                <path d="M214.077253,175 C214.077253,186.190789 204.988197,195.263158 193.776824,195.263158 C182.565451,195.263158 173.476395,186.190789 173.476395,175 C173.476395,163.809211 182.565451,154.736842 193.776824,154.736842 C204.988197,154.736842 214.077253,163.809211 214.077253,175 Z" id="Stroke-66" stroke="#3445DC" stroke-width="1.84210526" stroke-linecap="round" stroke-linejoin="round" mask="url(#mask-2)"></path>
                <path d="M203.330483,184.210526 L184.223165,184.210526 C183.384388,184.210526 182.703401,183.531711 182.703401,182.694474 L182.703401,170.989737 C182.703401,170.1525 183.384388,169.473684 184.223165,169.473684 L203.330483,169.473684 C204.16926,169.473684 204.849324,170.1525 204.849324,170.989737 L204.849324,182.694474 C204.849324,183.531711 204.16926,184.210526 203.330483,184.210526" id="Fill-67" fill="#E0EAFD" mask="url(#mask-2)"></path>
                <path d="M203.330483,184.210526 L184.223165,184.210526 C183.384388,184.210526 182.703401,183.531711 182.703401,182.694474 L182.703401,170.989737 C182.703401,170.1525 183.384388,169.473684 184.223165,169.473684 L203.330483,169.473684 C204.16926,169.473684 204.849324,170.1525 204.849324,170.989737 L204.849324,182.694474 C204.849324,183.531711 204.16926,184.210526 203.330483,184.210526 Z" id="Stroke-68" stroke="#3445DC" stroke-width="1.84210526" stroke-linecap="round" stroke-linejoin="round" mask="url(#mask-2)"></path>
                <polyline id="Stroke-69" stroke="#3445DC" stroke-width="1.84210526" stroke-linecap="round" stroke-linejoin="round" mask="url(#mask-2)" points="187.426665 175.162842 193.915421 179.009158 200.198403 175.162842"></polyline>
                <path d="M206.695279,169.934211 C206.695279,172.223026 204.835944,174.078947 202.542918,174.078947 C200.249893,174.078947 198.390558,172.223026 198.390558,169.934211 C198.390558,167.645395 200.249893,165.789474 202.542918,165.789474 C204.835944,165.789474 206.695279,167.645395 206.695279,169.934211" id="Fill-70" fill="#3445DC" mask="url(#mask-2)"></path>
                <path d="M174.080148,69.9451053 C174.080148,74.4923421 170.379011,78.1783947 165.81326,78.1783947 C161.248431,78.1783947 157.547294,74.4923421 157.547294,69.9451053 C157.547294,65.3978684 161.248431,61.7108947 165.81326,61.7108947 C170.379011,61.7108947 174.080148,65.3978684 174.080148,69.9451053" id="Fill-71" fill="#FFFFFF" mask="url(#mask-2)"></path>
                <path d="M174.080148,69.9451053 C174.080148,74.4923421 170.379011,78.1783947 165.81326,78.1783947 C161.248431,78.1783947 157.547294,74.4923421 157.547294,69.9451053 C157.547294,65.3978684 161.248431,61.7108947 165.81326,61.7108947 C170.379011,61.7108947 174.080148,65.3978684 174.080148,69.9451053 Z" id="Stroke-72" stroke="#000000" stroke-width="1.84210526" stroke-linecap="round" stroke-linejoin="round" mask="url(#mask-2)"></path>
                <g id="Group-75" mask="url(#mask-2)">
                    <g transform="translate(161.480687, 67.236842)">
                        <polyline id="Fill-73" stroke="none" fill="#FFFFFF" fill-rule="evenodd" points="0.587512876 2.82164474 4.44643991 5.89059211 8.30444421 0.519934211"></polyline>
                        <polyline id="Stroke-74" stroke="#000000" stroke-width="1.84210526" fill="none" stroke-linecap="round" stroke-linejoin="round" points="0.587512876 2.82164474 4.44643991 5.89059211 8.30444421 0.519934211"></polyline>
                    </g>
                </g>
                <path d="M95.9656652,190.882724 C95.9656652,195.452066 92.2479185,199.155618 87.6609442,199.155618 C83.07397,199.155618 79.3562232,195.452066 79.3562232,190.882724 C79.3562232,186.314303 83.07397,182.611671 87.6609442,182.611671 C92.2479185,182.611671 95.9656652,186.314303 95.9656652,190.882724" id="Fill-76" fill="#FFFFFF" mask="url(#mask-2)"></path>
                <path d="M95.9656652,190.882724 C95.9656652,195.452066 92.2479185,199.155618 87.6609442,199.155618 C83.07397,199.155618 79.3562232,195.452066 79.3562232,190.882724 C79.3562232,186.314303 83.07397,182.611671 87.6609442,182.611671 C92.2479185,182.611671 95.9656652,186.314303 95.9656652,190.882724 Z" id="Stroke-77" stroke="#000000" stroke-width="1.84210526" stroke-linecap="round" stroke-linejoin="round" mask="url(#mask-2)"></path>
                <path d="M83.9699571,190.657895 L91.3519313,190.657895" id="Stroke-78" stroke="#000000" stroke-width="1.84210526" stroke-linecap="round" stroke-linejoin="round" mask="url(#mask-2)"></path>
                <path d="M50.751073,70.22575 C50.751073,74.7941711 47.0333262,78.4968026 42.4463519,78.4968026 C37.8593777,78.4968026 34.1416309,74.7941711 34.1416309,70.22575 C34.1416309,65.6564079 37.8593777,61.9537763 42.4463519,61.9537763 C47.0333262,61.9537763 50.751073,65.6564079 50.751073,70.22575" id="Fill-79" fill="#FFFFFF" mask="url(#mask-2)"></path>
                <path d="M50.751073,70.22575 C50.751073,74.7941711 47.0333262,78.4968026 42.4463519,78.4968026 C37.8593777,78.4968026 34.1416309,74.7941711 34.1416309,70.22575 C34.1416309,65.6564079 37.8593777,61.9537763 42.4463519,61.9537763 C47.0333262,61.9537763 50.751073,65.6564079 50.751073,70.22575 Z" id="Stroke-80" stroke="#000000" stroke-width="1.84210526" stroke-linecap="round" stroke-linejoin="round" mask="url(#mask-2)"></path>
                <path d="M44.2918455,70 C44.2918455,71.0168421 43.4650644,71.8421053 42.4463519,71.8421053 C41.4276395,71.8421053 40.6008584,71.0168421 40.6008584,70 C40.6008584,68.9831579 41.4276395,68.1578947 42.4463519,68.1578947 C43.4650644,68.1578947 44.2918455,68.9831579 44.2918455,70" id="Fill-81" fill="#000000" mask="url(#mask-2)"></path>
                <path d="M151.730575,175 L109.406948,175 C107.079781,175 105.192764,173.116447 105.192764,170.794474 L105.192764,138.679211 C105.192764,136.357237 107.079781,134.473684 109.406948,134.473684 L151.730575,134.473684 C154.05682,134.473684 155.943837,136.357237 155.943837,138.679211 L155.943837,170.794474 C155.943837,173.116447 154.05682,175 151.730575,175" id="Fill-82" fill="#FFFFFF" mask="url(#mask-2)"></path>
                <path d="M151.730575,175 L109.406948,175 C107.079781,175 105.192764,173.116447 105.192764,170.794474 L105.192764,138.679211 C105.192764,136.357237 107.079781,134.473684 109.406948,134.473684 L151.730575,134.473684 C154.05682,134.473684 155.943837,136.357237 155.943837,138.679211 L155.943837,170.794474 C155.943837,173.116447 154.05682,175 151.730575,175 Z" id="Stroke-83" stroke="#3445DC" stroke-width="1.84210526" stroke-linecap="round" stroke-linejoin="round" mask="url(#mask-2)"></path>
                <polyline id="Stroke-84" stroke="#000000" stroke-width="1.84210526" stroke-linecap="round" stroke-linejoin="round" mask="url(#mask-2)" points="121.802575 150.131579 113.497854 158.421053 121.802575 167.631579"></polyline>
                <polyline id="Stroke-85" stroke="#000000" stroke-width="1.84210526" stroke-linecap="round" stroke-linejoin="round" mask="url(#mask-2)" points="139.334764 167.631579 147.639485 159.342105 139.334764 150.131579"></polyline>
                <path d="M126.416309,167.631579 L134.72103,150.131579" id="Stroke-86" stroke="#000000" stroke-width="1.84210526" stroke-linecap="round" stroke-linejoin="round" mask="url(#mask-2)"></path>
                <path d="M105.193133,142.763158 L105.193133,138.679211 C105.193133,136.357237 107.08015,134.473684 109.406395,134.473684 L151.730944,134.473684 C154.057189,134.473684 155.944206,136.357237 155.944206,138.679211 L155.944206,142.763158 L105.193133,142.763158 Z" id="Fill-87" fill="#E0EAFD" mask="url(#mask-2)"></path>
                <path d="M105.193133,142.763158 L105.193133,138.679211 C105.193133,136.357237 107.08015,134.473684 109.406395,134.473684 L151.730944,134.473684 C154.057189,134.473684 155.944206,136.357237 155.944206,138.679211 L155.944206,142.763158 L105.193133,142.763158 Z" id="Stroke-88" stroke="#3445DC" stroke-width="1.84210526" stroke-linecap="round" stroke-linejoin="round" mask="url(#mask-2)"></path>
                <path d="M111.652361,138.618421 C111.652361,139.381053 111.032275,140 110.26824,140 C109.504206,140 108.88412,139.381053 108.88412,138.618421 C108.88412,137.855789 109.504206,137.236842 110.26824,137.236842 C111.032275,137.236842 111.652361,137.855789 111.652361,138.618421" id="Fill-89" fill="#3445DC" mask="url(#mask-2)"></path>
                <path d="M117.188841,138.618421 C117.188841,139.381053 116.568755,140 115.804721,140 C115.040687,140 114.420601,139.381053 114.420601,138.618421 C114.420601,137.855789 115.040687,137.236842 115.804721,137.236842 C116.568755,137.236842 117.188841,137.855789 117.188841,138.618421" id="Fill-90" fill="#3445DC" mask="url(#mask-2)"></path>
                <path d="M122.725322,138.618421 C122.725322,139.381053 122.105236,140 121.341202,140 C120.577167,140 119.957082,139.381053 119.957082,138.618421 C119.957082,137.855789 120.577167,137.236842 121.341202,137.236842 C122.105236,137.236842 122.725322,137.855789 122.725322,138.618421" id="Fill-91" fill="#3445DC" mask="url(#mask-2)"></path>
            </g>
        </g>
    </g>
</svg>