<?xml version="1.0" encoding="UTF-8" standalone="no"?>
<svg width="143px" height="43px" viewBox="0 0 143 43" version="1.1" xmlns="http://www.w3.org/2000/svg" xmlns:xlink="http://www.w3.org/1999/xlink" xmlns:sketch="http://www.bohemiancoding.com/sketch/ns">
    <!-- Generator: Sketch 3.0.2 (7799) - http://www.bohemiancoding.com/sketch -->
    <title>logo full</title>
    <description>Created with Sketch.</description>
    <defs></defs>
    <g id="Page-1" stroke="none" stroke-width="1" fill="none" fill-rule="evenodd" sketch:type="MSPage">
        <g id="logo" sketch:type="MSLayerGroup">
            <path d="M0,0 L43,0 L43,43 L0,43 L0,0 L0,0 Z" id="Shape" fill="#FFFFFF" sketch:type="MSShapeGroup"></path>
            <path d="M16.2,1.24 C21.62,-0.15 27.61,0.66 32.39,3.61 C38.41,7.21 42.34,14.02 42.44,21.03 C42.66,28.11 38.97,35.13 33.04,38.98 C26.44,43.42 17.31,43.59 10.57,39.37 C3.7,35.27 -0.31,27 0.72,19.06 C1.55,10.67 8.03,3.27 16.2,1.24 L16.2,1.24 Z" id="Shape" fill="#010101" sketch:type="MSShapeGroup"></path>
            <path d="M15.37,4.67 C25.61,0.57 38.17,8.14 39.23,19.12 C40.88,29 32.68,39.04 22.67,39.33 C13.15,40.28 3.95,32.21 3.68,22.65 C2.97,14.91 8.07,7.23 15.37,4.67 L15.37,4.67 Z" id="Shape" fill="#FFFFFF" sketch:type="MSShapeGroup"></path>
            <path d="M16.4,20.44 C20.99,16.69 25.48,12.81 30.17,9.17 C27.71,12.95 25.18,16.68 22.72,20.46 C20.61,20.47 18.5,20.47 16.4,20.44 L16.4,20.44 Z" id="Shape" fill="#010101" sketch:type="MSShapeGroup"></path>
            <path d="M20.28,22.53 C22.4,22.53 24.51,22.53 26.62,22.56 C22,26.29 17.53,30.2 12.83,33.83 C15.29,30.05 17.82,26.31 20.28,22.53 L20.28,22.53 Z" id="Shape" fill="#010101" sketch:type="MSShapeGroup"></path>
        </g>
        <path d="M59.864,28.424 C60.728,28.904 62,29.24 63.416,29.24 C66.512,29.24 68.168,27.704 68.168,25.592 C68.144,23.864 67.16,22.784 65.048,22.016 C63.56,21.488 63.008,21.128 63.008,20.384 C63.008,19.664 63.584,19.16 64.64,19.16 C65.672,19.16 66.608,19.544 67.112,19.832 L67.688,17.744 C67.016,17.384 65.888,17.048 64.592,17.048 C61.88,17.048 60.176,18.656 60.176,20.72 C60.152,22.088 61.112,23.336 63.392,24.128 C64.832,24.632 65.312,25.04 65.312,25.832 C65.312,26.6 64.736,27.128 63.44,27.128 C62.384,27.128 61.112,26.696 60.44,26.288 L59.864,28.424 Z M74.896,17.048 C71.368,17.048 68.848,19.4 68.848,23.24 C68.848,26.984 71.392,29.264 74.704,29.264 C77.68,29.264 80.704,27.344 80.704,23.048 C80.704,19.496 78.376,17.048 74.896,17.048 Z M74.824,19.208 C76.84,19.208 77.656,21.296 77.656,23.12 C77.656,25.472 76.48,27.128 74.8,27.128 C73,27.128 71.896,25.424 71.896,23.168 C71.896,21.224 72.736,19.208 74.824,19.208 Z M90.312,26.456 C89.736,26.696 89.016,26.912 87.984,26.912 C85.968,26.912 84.408,25.544 84.408,23.144 C84.384,21.008 85.728,19.352 87.984,19.352 C89.04,19.352 89.736,19.592 90.216,19.808 L90.744,17.6 C90.072,17.288 88.968,17.048 87.888,17.048 C83.784,17.048 81.384,19.784 81.384,23.288 C81.384,26.912 83.76,29.24 87.408,29.24 C88.872,29.24 90.096,28.928 90.72,28.64 L90.312,26.456 Z M94.856,11.96 L91.904,11.96 L91.904,29 L94.856,29 L94.856,25.016 L95.864,23.84 L99.224,29 L102.848,29 L97.904,22.088 L102.224,17.312 L98.672,17.312 L95.84,21.08 C95.528,21.488 95.192,21.992 94.904,22.448 L94.856,22.448 L94.856,11.96 Z M112.864,23.984 C112.912,23.72 112.96,23.288 112.96,22.736 C112.96,20.168 111.712,17.048 107.92,17.048 C104.176,17.048 102.208,20.096 102.208,23.336 C102.208,26.912 104.44,29.24 108.232,29.24 C109.912,29.24 111.304,28.928 112.312,28.52 L111.88,26.48 C110.992,26.816 110.008,27.008 108.64,27.008 C106.768,27.008 105.112,26.096 105.04,23.984 L112.864,23.984 Z M105.04,21.92 C105.16,20.72 105.928,19.064 107.752,19.064 C109.72,19.064 110.2,20.84 110.176,21.92 L105.04,21.92 Z M114.84,14.672 L114.84,17.312 L113.16,17.312 L113.16,19.52 L114.84,19.52 L114.84,25.016 C114.84,26.552 115.128,27.608 115.752,28.28 C116.304,28.88 117.216,29.24 118.296,29.24 C119.232,29.24 120,29.12 120.432,28.952 L120.384,26.696 C120.12,26.768 119.736,26.84 119.232,26.84 C118.104,26.84 117.72,26.096 117.72,24.68 L117.72,19.52 L120.528,19.52 L120.528,17.312 L117.72,17.312 L117.72,13.976 L114.84,14.672 Z M123.08,29.264 C124.184,29.264 124.904,28.448 124.904,27.368 C124.904,26.24 124.16,25.472 123.08,25.472 C122.024,25.472 121.256,26.264 121.256,27.368 C121.256,28.448 122,29.264 123.08,29.264 Z M129.256,29 L129.256,17.312 L126.28,17.312 L126.28,29 L129.256,29 Z M127.768,12.44 C126.784,12.44 126.112,13.136 126.112,14.048 C126.112,14.936 126.76,15.632 127.744,15.632 C128.776,15.632 129.424,14.936 129.424,14.048 C129.4,13.136 128.776,12.44 127.768,12.44 Z M136.728,17.048 C133.2,17.048 130.68,19.4 130.68,23.24 C130.68,26.984 133.224,29.264 136.536,29.264 C139.512,29.264 142.536,27.344 142.536,23.048 C142.536,19.496 140.208,17.048 136.728,17.048 Z M136.656,19.208 C138.672,19.208 139.488,21.296 139.488,23.12 C139.488,25.472 138.312,27.128 136.632,27.128 C134.832,27.128 133.728,25.424 133.728,23.168 C133.728,21.224 134.568,19.208 136.656,19.208 Z" id="socket.io" fill="#000000" sketch:type="MSShapeGroup"></path>
    </g>
</svg>