<?xml version="1.0" encoding="UTF-8"?>
<svg width="202px" height="212px" viewBox="0 0 202 212" version="1.1" xmlns="http://www.w3.org/2000/svg" xmlns:xlink="http://www.w3.org/1999/xlink">
    <!-- Generator: Sketch 51.1 (57501) - http://www.bohemiancoding.com/sketch -->
    <title>Hooks</title>
    <desc>Created with Sketch.</desc>
    <defs></defs>
    <g id="Banners" stroke="none" stroke-width="1" fill="none" fill-rule="evenodd">
        <g id="Docs/Hooks" transform="translate(-915.000000, -825.000000)">
            <g id="Group-3" transform="translate(421.000000, 826.000000)">
                <g id="Hooks" transform="translate(495.000000, 0.000000)">
                    <g id="Group-3" transform="translate(32.286996, 95.128205)">
                        <path d="M34.6784753,0 L-0.000448430493,49.3589744" id="Fill-1" fill="#FFFFFF"></path>
                        <path d="M34.6784753,0 L-0.000448430493,49.3589744" id="Stroke-2" stroke="#3445DC" stroke-width="1.79487179" stroke-linecap="round" stroke-linejoin="round" stroke-dasharray="5.384615384615385,4.487179487179487"></path>
                    </g>
                    <g id="Group-6" transform="translate(72.645740, 95.128205)">
                        <path d="M0.224215247,35.9158333 L10.9865471,-0.000448717949" id="Fill-4" fill="#FFFFFF"></path>
                        <path d="M0.224215247,35.9158333 L10.9865471,-0.000448717949" id="Stroke-5" stroke="#3445DC" stroke-width="1.79487179" stroke-linecap="round" stroke-linejoin="round" stroke-dasharray="5.384615384615385,4.487179487179487"></path>
                    </g>
                    <path d="M98.6544395,171.410167 L99.10287,95.1281154 L98.6544395,171.410167 Z" id="Fill-7" fill="#FFFFFF"></path>
                    <path d="M98.6547085,171.410256 L99.103139,95.1282051" id="Stroke-8" stroke="#3445DC" stroke-width="1.79487179" stroke-linecap="round" stroke-linejoin="round" stroke-dasharray="5.384615384615385,4.487179487179487"></path>
                    <g id="Group-11" transform="translate(113.004484, 95.128205)">
                        <path d="M17.264574,55.3421795 L0.448430493,0" id="Fill-9" fill="#FFFFFF"></path>
                        <path d="M17.264574,55.3421795 L0.448430493,0" id="Stroke-10" stroke="#3445DC" stroke-width="1.79487179" stroke-linecap="round" stroke-linejoin="round" stroke-dasharray="5.384615384615385,4.487179487179487"></path>
                    </g>
                    <g id="Group-14" transform="translate(132.735426, 95.128205)">
                        <path d="M34.529148,49.3589744 L0.704932735,0" id="Fill-12" fill="#FFFFFF"></path>
                        <path d="M34.529148,49.3589744 L0.704932735,0" id="Stroke-13" stroke="#3445DC" stroke-width="1.79487179" stroke-linecap="round" stroke-linejoin="round" stroke-dasharray="5.384615384615385,4.487179487179487"></path>
                    </g>
                    <path d="M62.7802691,66.4102564 L62.7802691,28.7179487" id="Stroke-15" stroke="#3445DC" stroke-width="1.79487179" stroke-linecap="round" stroke-linejoin="round"></path>
                    <path d="M131.838565,66.4102564 L131.838565,28.7179487" id="Stroke-16" stroke="#3445DC" stroke-width="1.79487179" stroke-linecap="round" stroke-linejoin="round"></path>
                    <g id="Group-135">
                        <path d="M144.359552,28.7179487 L63.5272646,28.7179487 L51.1559641,28.7179487 C48.66,28.7179487 46.6366816,26.6933333 46.6366816,24.1957692 L46.6366816,4.52217949 C46.6366816,2.02461538 48.66,0 51.1559641,0 L144.359552,0 C146.855516,0 148.878834,2.02461538 148.878834,4.52217949 L148.878834,24.1957692 C148.878834,26.6933333 146.855516,28.7179487 144.359552,28.7179487" id="Fill-17" fill="#FFFFFF"></path>
                        <path d="M144.359552,28.7179487 L63.5272646,28.7179487 L51.1559641,28.7179487 C48.66,28.7179487 46.6366816,26.6933333 46.6366816,24.1957692 L46.6366816,4.52217949 C46.6366816,2.02461538 48.66,0 51.1559641,0 L144.359552,0 C146.855516,0 148.878834,2.02461538 148.878834,4.52217949 L148.878834,24.1957692 C148.878834,26.6933333 146.855516,28.7179487 144.359552,28.7179487 Z" id="Stroke-19" stroke="#3445DC" stroke-width="1.79487179" stroke-linecap="round" stroke-linejoin="round"></path>
                        <path d="M64.573991,14.3589744 C64.573991,17.3321795 62.1641256,19.7435897 59.1928251,19.7435897 C56.2215247,19.7435897 53.8116592,17.3321795 53.8116592,14.3589744 C53.8116592,11.3857692 56.2215247,8.97435897 59.1928251,8.97435897 C62.1641256,8.97435897 64.573991,11.3857692 64.573991,14.3589744" id="Fill-21" fill="#E0EAFD"></path>
                        <path d="M64.573991,14.3589744 C64.573991,17.3321795 62.1641256,19.7435897 59.1928251,19.7435897 C56.2215247,19.7435897 53.8116592,17.3321795 53.8116592,14.3589744 C53.8116592,11.3857692 56.2215247,8.97435897 59.1928251,8.97435897 C62.1641256,8.97435897 64.573991,11.3857692 64.573991,14.3589744 Z" id="Stroke-23" stroke="#3445DC" stroke-width="1.79487179" stroke-linecap="round" stroke-linejoin="round"></path>
                        <path d="M77.9577578,14.3589744 C77.9577578,16.4176923 76.2904933,18.0869231 74.2321973,18.0869231 C72.1747982,18.0869231 70.5066368,16.4176923 70.5066368,14.3589744 C70.5066368,12.3002564 72.1747982,10.6310256 74.2321973,10.6310256 C76.2904933,10.6310256 77.9577578,12.3002564 77.9577578,14.3589744" id="Fill-25" fill="#E0EAFD"></path>
                        <path d="M77.9577578,14.3589744 C77.9577578,16.4176923 76.2904933,18.0869231 74.2321973,18.0869231 C72.1747982,18.0869231 70.5066368,16.4176923 70.5066368,14.3589744 C70.5066368,12.3002564 72.1747982,10.6310256 74.2321973,10.6310256 C76.2904933,10.6310256 77.9577578,12.3002564 77.9577578,14.3589744 Z" id="Stroke-27" stroke="#3445DC" stroke-width="1.79487179" stroke-linecap="round" stroke-linejoin="round"></path>
                        <path d="M84.3049327,10.7692308 L139.013453,10.7692308" id="Stroke-29" stroke="#231F20" stroke-width="1.79487179" stroke-linecap="round" stroke-linejoin="round"></path>
                        <path d="M84.3049327,17.9487179 L139.013453,17.9487179" id="Stroke-31" stroke="#231F20" stroke-width="1.79487179" stroke-linecap="round" stroke-linejoin="round"></path>
                        <path d="M144.359552,61.9230769 L51.1559641,61.9230769 C48.66,61.9230769 46.6366816,59.8984615 46.6366816,57.4008974 L46.6366816,37.7273077 C46.6366816,35.2297436 48.66,33.2051282 51.1559641,33.2051282 L144.359552,33.2051282 C146.855516,33.2051282 148.878834,35.2297436 148.878834,37.7273077 L148.878834,57.4008974 C148.878834,59.8984615 146.855516,61.9230769 144.359552,61.9230769" id="Fill-33" fill="#FFFFFF"></path>
                        <path d="M144.359552,61.9230769 L51.1559641,61.9230769 C48.66,61.9230769 46.6366816,59.8984615 46.6366816,57.4008974 L46.6366816,37.7273077 C46.6366816,35.2297436 48.66,33.2051282 51.1559641,33.2051282 L144.359552,33.2051282 C146.855516,33.2051282 148.878834,35.2297436 148.878834,37.7273077 L148.878834,57.4008974 C148.878834,59.8984615 146.855516,61.9230769 144.359552,61.9230769 Z" id="Stroke-35" stroke="#3445DC" stroke-width="1.79487179" stroke-linecap="round" stroke-linejoin="round"></path>
                        <path d="M64.573991,47.5641026 C64.573991,50.5373077 62.1641256,52.9487179 59.1928251,52.9487179 C56.2215247,52.9487179 53.8116592,50.5373077 53.8116592,47.5641026 C53.8116592,44.5908974 56.2215247,42.1794872 59.1928251,42.1794872 C62.1641256,42.1794872 64.573991,44.5908974 64.573991,47.5641026" id="Fill-37" fill="#E0EAFD"></path>
                        <path d="M64.573991,47.5641026 C64.573991,50.5373077 62.1641256,52.9487179 59.1928251,52.9487179 C56.2215247,52.9487179 53.8116592,50.5373077 53.8116592,47.5641026 C53.8116592,44.5908974 56.2215247,42.1794872 59.1928251,42.1794872 C62.1641256,42.1794872 64.573991,44.5908974 64.573991,47.5641026 Z" id="Stroke-39" stroke="#3445DC" stroke-width="1.79487179" stroke-linecap="round" stroke-linejoin="round"></path>
                        <path d="M77.9577578,47.5641026 C77.9577578,49.6228205 76.2904933,51.2920513 74.2321973,51.2920513 C72.1747982,51.2920513 70.5066368,49.6228205 70.5066368,47.5641026 C70.5066368,45.5053846 72.1747982,43.8361538 74.2321973,43.8361538 C76.2904933,43.8361538 77.9577578,45.5053846 77.9577578,47.5641026" id="Fill-41" fill="#E0EAFD"></path>
                        <path d="M77.9577578,47.5641026 C77.9577578,49.6228205 76.2904933,51.2920513 74.2321973,51.2920513 C72.1747982,51.2920513 70.5066368,49.6228205 70.5066368,47.5641026 C70.5066368,45.5053846 72.1747982,43.8361538 74.2321973,43.8361538 C76.2904933,43.8361538 77.9577578,45.5053846 77.9577578,47.5641026 Z" id="Stroke-43" stroke="#3445DC" stroke-width="1.79487179" stroke-linecap="round" stroke-linejoin="round"></path>
                        <path d="M84.3049327,43.974359 L139.013453,43.974359" id="Stroke-45" stroke="#231F20" stroke-width="1.79487179" stroke-linecap="round" stroke-linejoin="round"></path>
                        <path d="M84.3049327,51.1538462 L139.013453,51.1538462" id="Stroke-47" stroke="#231F20" stroke-width="1.79487179" stroke-linecap="round" stroke-linejoin="round"></path>
                        <path d="M144.359552,95.1282051 L51.1559641,95.1282051 C48.66,95.1282051 46.6366816,93.1035897 46.6366816,90.6060256 L46.6366816,70.9324359 C46.6366816,68.4348718 48.66,66.4102564 51.1559641,66.4102564 L144.359552,66.4102564 C146.855516,66.4102564 148.878834,68.4348718 148.878834,70.9324359 L148.878834,90.6060256 C148.878834,93.1035897 146.855516,95.1282051 144.359552,95.1282051" id="Fill-49" fill="#FFFFFF"></path>
                        <path d="M144.359552,95.1282051 L51.1559641,95.1282051 C48.66,95.1282051 46.6366816,93.1035897 46.6366816,90.6060256 L46.6366816,70.9324359 C46.6366816,68.4348718 48.66,66.4102564 51.1559641,66.4102564 L144.359552,66.4102564 C146.855516,66.4102564 148.878834,68.4348718 148.878834,70.9324359 L148.878834,90.6060256 C148.878834,93.1035897 146.855516,95.1282051 144.359552,95.1282051 Z" id="Stroke-51" stroke="#3445DC" stroke-width="1.79487179" stroke-linecap="round" stroke-linejoin="round"></path>
                        <path d="M64.573991,80.7692308 C64.573991,83.7424359 62.1641256,86.1538462 59.1928251,86.1538462 C56.2215247,86.1538462 53.8116592,83.7424359 53.8116592,80.7692308 C53.8116592,77.7960256 56.2215247,75.3846154 59.1928251,75.3846154 C62.1641256,75.3846154 64.573991,77.7960256 64.573991,80.7692308" id="Fill-53" fill="#E0EAFD"></path>
                        <path d="M64.573991,80.7692308 C64.573991,83.7424359 62.1641256,86.1538462 59.1928251,86.1538462 C56.2215247,86.1538462 53.8116592,83.7424359 53.8116592,80.7692308 C53.8116592,77.7960256 56.2215247,75.3846154 59.1928251,75.3846154 C62.1641256,75.3846154 64.573991,77.7960256 64.573991,80.7692308 Z" id="Stroke-55" stroke="#3445DC" stroke-width="1.79487179" stroke-linecap="round" stroke-linejoin="round"></path>
                        <path d="M77.9577578,80.7692308 C77.9577578,82.8279487 76.2904933,84.4971795 74.2321973,84.4971795 C72.1747982,84.4971795 70.5066368,82.8279487 70.5066368,80.7692308 C70.5066368,78.7105128 72.1747982,77.0412821 74.2321973,77.0412821 C76.2904933,77.0412821 77.9577578,78.7105128 77.9577578,80.7692308" id="Fill-57" fill="#E0EAFD"></path>
                        <path d="M77.9577578,80.7692308 C77.9577578,82.8279487 76.2904933,84.4971795 74.2321973,84.4971795 C72.1747982,84.4971795 70.5066368,82.8279487 70.5066368,80.7692308 C70.5066368,78.7105128 72.1747982,77.0412821 74.2321973,77.0412821 C76.2904933,77.0412821 77.9577578,78.7105128 77.9577578,80.7692308 Z" id="Stroke-59" stroke="#3445DC" stroke-width="1.79487179" stroke-linecap="round" stroke-linejoin="round"></path>
                        <path d="M84.3049327,77.1794872 L139.013453,77.1794872" id="Stroke-61" stroke="#231F20" stroke-width="1.79487179" stroke-linecap="round" stroke-linejoin="round"></path>
                        <path d="M84.3049327,84.3589744 L139.013453,84.3589744" id="Stroke-63" stroke="#231F20" stroke-width="1.79487179" stroke-linecap="round" stroke-linejoin="round"></path>
                        <path d="M118.38565,190.705128 C118.38565,201.361282 109.752466,210 99.103139,210 C88.4538117,210 79.8206278,201.361282 79.8206278,190.705128 C79.8206278,180.048974 88.4538117,171.410256 99.103139,171.410256 C109.752466,171.410256 118.38565,180.048974 118.38565,190.705128" id="Fill-65" fill="#FFFFFF"></path>
                        <path d="M118.38565,190.705128 C118.38565,201.361282 109.752466,210 99.103139,210 C88.4538117,210 79.8206278,201.361282 79.8206278,190.705128 C79.8206278,180.048974 88.4538117,171.410256 99.103139,171.410256 C109.752466,171.410256 118.38565,180.048974 118.38565,190.705128 Z" id="Stroke-67" stroke="#3445DC" stroke-width="1.79487179" stroke-linecap="round" stroke-linejoin="round"></path>
                        <path d="M88.7139013,198.368423 L90.5273543,196.543936 C89.6950673,195.337782 89.1434978,193.995218 88.8735426,192.609577 L86.2376682,192.609577 L86.2053812,192.375346 C86.1345291,191.828808 86.0986547,191.2715 86.0986547,190.705218 C86.0986547,190.093167 86.1408072,189.491885 86.2224215,188.903167 L86.2430493,188.765859 L88.8412556,188.765859 C89.0860987,187.378423 89.6116592,186.030474 90.4188341,184.813551 L88.4780269,182.8715 L88.7183857,182.870603 C89.4188341,181.942654 90.2412556,181.111628 91.161435,180.399962 L91.2484305,180.291372 L93.1318386,182.064705 C94.3748879,181.216628 95.7605381,180.665603 97.1883408,180.413423 L97.1883408,177.833295 L97.3067265,177.816244 C97.8932735,177.734577 98.4932735,177.692397 99.103139,177.692397 L101.006278,177.8315 L101.006278,180.442141 C102.399103,180.710474 103.748879,181.263295 104.960538,182.1015 L106.784753,180.286885 C106.784753,180.286885 107.667265,180.865731 108.301345,181.501115 C108.935426,182.135603 109.452915,182.955859 109.452915,182.955859 L107.643946,184.789321 C108.486099,186.009833 109.039462,187.370346 109.304036,188.774833 L111.965022,188.774833 L111.989238,188.939962 C112.067265,189.517013 112.107623,190.106628 112.107623,190.705218 C112.107623,191.311885 112.066368,191.908679 111.98565,192.49291 L111.96861,192.609577 L109.316592,192.609577 C109.055605,194.046372 108.493274,195.437397 107.630493,196.683936 L109.447534,198.502141 L109.570404,198.640346 L109.320179,198.757013 C108.611659,199.656244 107.786547,200.459449 106.868161,201.14509 L106.773094,201.179192 L104.928251,199.332269 C103.720179,200.134577 102.38296,200.659577 101.006278,200.906372 L101.019731,203.578038 L100.825112,203.604962 C100.260987,203.679449 99.6869955,203.718038 99.103139,203.718038 C98.5820628,203.718038 98.0690583,203.687526 97.5641256,203.627397 C97.4591928,203.615731 97.355157,203.601372 97.2511211,203.587013 L97.1883408,203.578038 L97.1390135,200.878551 C95.7560538,200.609321 94.4170404,200.06009 93.2143498,199.229064 L91.3820628,201.039192 L91.2,201.040987 C90.3076233,200.356244 89.5067265,199.558423 88.8179372,198.669064 L88.7139013,198.368423 Z" id="Fill-69" fill="#E0EAFD"></path>
                        <path d="M88.7139013,198.368423 L90.5273543,196.543936 C89.6950673,195.337782 89.1434978,193.995218 88.8735426,192.609577 L86.2376682,192.609577 L86.2053812,192.375346 C86.1345291,191.828808 86.0986547,191.2715 86.0986547,190.705218 C86.0986547,190.093167 86.1408072,189.491885 86.2224215,188.903167 L86.2430493,188.765859 L88.8412556,188.765859 C89.0860987,187.378423 89.6116592,186.030474 90.4188341,184.813551 L88.4780269,182.8715 L88.7183857,182.870603 C89.4188341,181.942654 90.2412556,181.111628 91.161435,180.399962 L91.2484305,180.291372 L93.1318386,182.064705 C94.3748879,181.216628 95.7605381,180.665603 97.1883408,180.413423 L97.1883408,177.833295 L97.3067265,177.816244 C97.8932735,177.734577 98.4932735,177.692397 99.103139,177.692397 L101.006278,177.8315 L101.006278,180.442141 C102.399103,180.710474 103.748879,181.263295 104.960538,182.1015 L106.784753,180.286885 C106.784753,180.286885 107.667265,180.865731 108.301345,181.501115 C108.935426,182.135603 109.452915,182.955859 109.452915,182.955859 L107.643946,184.789321 C108.486099,186.009833 109.039462,187.370346 109.304036,188.774833 L111.965022,188.774833 L111.989238,188.939962 C112.067265,189.517013 112.107623,190.106628 112.107623,190.705218 C112.107623,191.311885 112.066368,191.908679 111.98565,192.49291 L111.96861,192.609577 L109.316592,192.609577 C109.055605,194.046372 108.493274,195.437397 107.630493,196.683936 L109.447534,198.502141 L109.570404,198.640346 L109.320179,198.757013 C108.611659,199.656244 107.786547,200.459449 106.868161,201.14509 L106.773094,201.179192 L104.928251,199.332269 C103.720179,200.134577 102.38296,200.659577 101.006278,200.906372 L101.019731,203.578038 L100.825112,203.604962 C100.260987,203.679449 99.6869955,203.718038 99.103139,203.718038 C98.5820628,203.718038 98.0690583,203.687526 97.5641256,203.627397 C97.4591928,203.615731 97.355157,203.601372 97.2511211,203.587013 L97.1883408,203.578038 L97.1390135,200.878551 C95.7560538,200.609321 94.4170404,200.06009 93.2143498,199.229064 L91.3820628,201.039192 L91.2,201.040987 C90.3076233,200.356244 89.5067265,199.558423 88.8179372,198.669064 L88.7139013,198.368423 Z" id="Stroke-71" stroke="#3445DC" stroke-width="1.79487179" stroke-linecap="round" stroke-linejoin="round"></path>
                        <path d="M103.438117,190.705128 C103.438117,193.100385 101.497309,195.042436 99.1035874,195.042436 C96.7089686,195.042436 94.7681614,193.100385 94.7681614,190.705128 C94.7681614,188.309872 96.7089686,186.367821 99.1035874,186.367821 C101.497309,186.367821 103.438117,188.309872 103.438117,190.705128" id="Fill-73" fill="#FFFFFF"></path>
                        <path d="M103.438117,190.705128 C103.438117,193.100385 101.497309,195.042436 99.1035874,195.042436 C96.7089686,195.042436 94.7681614,193.100385 94.7681614,190.705128 C94.7681614,188.309872 96.7089686,186.367821 99.1035874,186.367821 C101.497309,186.367821 103.438117,188.309872 103.438117,190.705128 Z" id="Stroke-75" stroke="#3445DC" stroke-width="1.79487179" stroke-linecap="round" stroke-linejoin="round"></path>
                        <path d="M200,159.294872 C200,169.951026 191.366816,178.589744 180.717489,178.589744 C170.068161,178.589744 161.434978,169.951026 161.434978,159.294872 C161.434978,148.638718 170.068161,140 180.717489,140 C191.366816,140 200,148.638718 200,159.294872" id="Fill-77" fill="#FFFFFF"></path>
                        <path d="M200,159.294872 C200,169.951026 191.366816,178.589744 180.717489,178.589744 C170.068161,178.589744 161.434978,169.951026 161.434978,159.294872 C161.434978,148.638718 170.068161,140 180.717489,140 C191.366816,140 200,148.638718 200,159.294872 Z" id="Stroke-79" stroke="#3445DC" stroke-width="1.79487179" stroke-linecap="round" stroke-linejoin="round"></path>
                        <g id="Group-84" transform="translate(168.609865, 147.179487)">
                            <path d="M19.5334529,7.54761538 C21.6473543,7.69569231 23.3182063,9.56325641 23.3182063,11.8463333 C23.3182063,14.2245385 21.5029596,16.1540256 19.2626009,16.1540256 L4.05542601,16.1540256 C1.81596413,16.1540256 -0.000179372197,14.2245385 -0.000179372197,11.8463333 C-0.000179372197,9.46723077 1.81596413,7.53864103 4.05542601,7.53864103 C4.42134529,7.53864103 4.7773991,7.59069231 5.11461883,7.68671795 L5.11192825,7.66517949 C5.08412556,7.448 5.06977578,7.22633333 5.06977578,7.00017949 C5.06977578,4.32312821 7.11192825,2.15402564 9.63121076,2.15402564 C10.3549776,2.15402564 11.0392825,2.33261538 11.6473543,2.65120513 L11.6581166,2.62697436 C12.4150673,1.06633333 13.9478027,0.000179487179 15.7146188,0.000179487179 C18.2339013,0.000179487179 20.2769507,2.17017949 20.2769507,4.84633333 C20.2769507,5.84966667 19.9899552,6.78210256 19.4975785,7.55569231" id="Fill-81" fill="#E0EAFD"></path>
                            <path d="M19.5334529,7.54761538 C21.6473543,7.69569231 23.3182063,9.56325641 23.3182063,11.8463333 C23.3182063,14.2245385 21.5029596,16.1540256 19.2626009,16.1540256 L4.05542601,16.1540256 C1.81596413,16.1540256 -0.000179372197,14.2245385 -0.000179372197,11.8463333 C-0.000179372197,9.46723077 1.81596413,7.53864103 4.05542601,7.53864103 C4.42134529,7.53864103 4.7773991,7.59069231 5.11461883,7.68671795 L5.11192825,7.66517949 C5.08412556,7.448 5.06977578,7.22633333 5.06977578,7.00017949 C5.06977578,4.32312821 7.11192825,2.15402564 9.63121076,2.15402564 C10.3549776,2.15402564 11.0392825,2.33261538 11.6473543,2.65120513 L11.6581166,2.62697436 C12.4150673,1.06633333 13.9478027,0.000179487179 15.7146188,0.000179487179 C18.2339013,0.000179487179 20.2769507,2.17017949 20.2769507,4.84633333 C20.2769507,5.84966667 19.9899552,6.78210256 19.4975785,7.55569231" id="Stroke-83" stroke="#3445DC" stroke-width="1.79487179" stroke-linecap="round" stroke-linejoin="round"></path>
                        </g>
                        <g id="Group-88" transform="translate(176.681614, 157.948718)">
                            <path d="M0,0 L0,10.7692308" id="Fill-85" fill="#FFFFFF"></path>
                            <path d="M0,0 L0,10.7692308" id="Stroke-87" stroke="#3445DC" stroke-width="1.79487179" stroke-linecap="round" stroke-linejoin="round"></path>
                        </g>
                        <polyline id="Stroke-89" stroke="#3445DC" stroke-width="1.79487179" stroke-linecap="round" stroke-linejoin="round" points="173.897758 166.997564 176.681614 169.596538 179.353363 166.923077"></polyline>
                        <g id="Group-94" transform="translate(184.753363, 158.846154)">
                            <path d="M0,10.7692308 L0,0" id="Fill-91" fill="#FFFFFF"></path>
                            <path d="M0,10.7692308 L0,0" id="Stroke-93" stroke="#3445DC" stroke-width="1.79487179" stroke-linecap="round" stroke-linejoin="round"></path>
                        </g>
                        <polyline id="Stroke-95" stroke="#3445DC" stroke-width="1.79487179" stroke-linecap="round" stroke-linejoin="round" points="187.443946 160.641026 184.753363 157.948718 182.06278 160.641026"></polyline>
                        <path d="M174.887892,81.6666667 C174.887892,95.5446154 163.644843,106.794872 149.775785,106.794872 C135.906726,106.794872 124.663677,95.5446154 124.663677,81.6666667 C124.663677,67.7887179 135.906726,56.5384615 149.775785,56.5384615 C163.644843,56.5384615 174.887892,67.7887179 174.887892,81.6666667" id="Fill-97" fill="#FFFFFF"></path>
                        <path d="M174.887892,81.6666667 C174.887892,95.5446154 163.644843,106.794872 149.775785,106.794872 C135.906726,106.794872 124.663677,95.5446154 124.663677,81.6666667 C124.663677,67.7887179 135.906726,56.5384615 149.775785,56.5384615 C163.644843,56.5384615 174.887892,67.7887179 174.887892,81.6666667 Z" id="Stroke-99" stroke="#3445DC" stroke-width="1.79487179" stroke-linecap="round" stroke-linejoin="round"></path>
                        <path d="M161.118834,92.4358974 L138.432735,92.4358974 C135.781614,92.4358974 133.632735,91.1579487 133.632735,88.5051282 C133.632735,85.2564103 140.534978,75.1871795 146.267713,66.5188462 C147.351121,64.8801282 151.648879,64.8128205 152.841704,66.4246154 C159.230942,75.0525641 165.919731,85.2564103 165.919731,88.5051282 C165.919731,91.1579487 163.769955,92.4358974 161.118834,92.4358974" id="Fill-101" fill="#E0EAFD"></path>
                        <path d="M161.118834,92.4358974 L138.432735,92.4358974 C135.781614,92.4358974 133.632735,91.1579487 133.632735,88.5051282 C133.632735,85.2564103 140.534978,75.1871795 146.267713,66.5188462 C147.351121,64.8801282 151.648879,64.8128205 152.841704,66.4246154 C159.230942,75.0525641 165.919731,85.2564103 165.919731,88.5051282 C165.919731,91.1579487 163.769955,92.4358974 161.118834,92.4358974 Z" id="Stroke-103" stroke="#3445DC" stroke-width="1.79487179" stroke-linecap="round" stroke-linejoin="round"></path>
                        <path d="M147.982063,86.1538462 C147.982063,85.1630769 148.78565,84.3589744 149.775785,84.3589744 C150.765919,84.3589744 151.569507,85.1630769 151.569507,86.1538462 C151.569507,87.1446154 150.765919,87.9487179 149.775785,87.9487179 C148.78565,87.9487179 147.982063,87.1446154 147.982063,86.1538462" id="Fill-105" fill="#3445DC"></path>
                        <path d="M149.775785,80.7692308 L149.775785,73.5897436" id="Stroke-107" stroke="#3445DC" stroke-width="3.58974359" stroke-linecap="round" stroke-linejoin="round"></path>
                        <path d="M38.5650224,158.397436 C38.5650224,169.05359 29.9318386,177.692308 19.2825112,177.692308 C8.63318386,177.692308 0,169.05359 0,158.397436 C0,147.741282 8.63318386,139.102564 19.2825112,139.102564 C24.4511211,139.102564 29.1452915,141.137949 32.6071749,144.450385 C36.2789238,147.962949 38.5650224,152.913205 38.5650224,158.397436" id="Fill-109" fill="#FFFFFF"></path>
                        <path d="M38.5650224,158.397436 C38.5650224,169.05359 29.9318386,177.692308 19.2825112,177.692308 C8.63318386,177.692308 0,169.05359 0,158.397436 C0,147.741282 8.63318386,139.102564 19.2825112,139.102564 C24.4511211,139.102564 29.1452915,141.137949 32.6071749,144.450385 C36.2789238,147.962949 38.5650224,152.913205 38.5650224,158.397436 Z" id="Stroke-111" stroke="#3445DC" stroke-width="1.79487179" stroke-linecap="round" stroke-linejoin="round"></path>
                        <path d="M29.0165919,166.025641 L9.54843049,166.025641 C8.73318386,166.025641 8.07130045,165.364231 8.07130045,164.548462 L8.07130045,152.24641 C8.07130045,151.430641 8.73318386,150.769231 9.54843049,150.769231 L29.0165919,150.769231 C29.8318386,150.769231 30.4928251,151.430641 30.4928251,152.24641 L30.4928251,164.548462 C30.4928251,165.364231 29.8318386,166.025641 29.0165919,166.025641" id="Fill-113" fill="#E0EAFD"></path>
                        <path d="M29.0165919,166.025641 L9.54843049,166.025641 C8.73318386,166.025641 8.07130045,165.364231 8.07130045,164.548462 L8.07130045,152.24641 C8.07130045,151.430641 8.73318386,150.769231 9.54843049,150.769231 L29.0165919,150.769231 C29.8318386,150.769231 30.4928251,151.430641 30.4928251,152.24641 L30.4928251,164.548462 C30.4928251,165.364231 29.8318386,166.025641 29.0165919,166.025641 Z" id="Stroke-115" stroke="#3445DC" stroke-width="1.79487179" stroke-linecap="round" stroke-linejoin="round"></path>
                        <polyline id="Stroke-117" stroke="#3445DC" stroke-width="1.79487179" stroke-linecap="round" stroke-linejoin="round" points="12.8533632 156.658654 19.42287 160.640577 25.7834081 156.658654"></polyline>
                        <path d="M142.664843,159.246679 C142.664843,164.093731 138.729417,168.022705 133.875605,168.022705 C129.021794,168.022705 125.086368,164.093731 125.086368,159.246679 C125.086368,154.399628 129.021794,150.470654 133.875605,150.470654 C138.729417,150.470654 142.664843,154.399628 142.664843,159.246679" id="Fill-119" fill="#FFFFFF"></path>
                        <path d="M142.664843,159.246679 C142.664843,164.093731 138.729417,168.022705 133.875605,168.022705 C129.021794,168.022705 125.086368,164.093731 125.086368,159.246679 C125.086368,154.399628 129.021794,150.470654 133.875605,150.470654 C138.729417,150.470654 142.664843,154.399628 142.664843,159.246679 Z" id="Stroke-121" stroke="#000000" stroke-width="1.79487179" stroke-linecap="round" stroke-linejoin="round"></path>
                        <g id="Group-126" transform="translate(129.147982, 156.153846)">
                            <polyline id="Fill-123" fill="#FFFFFF" points="0.115156951 2.67480769 4.29183857 6.01865385 8.46852018 0.167371795"></polyline>
                            <polyline id="Stroke-125" stroke="#000000" stroke-width="1.79487179" stroke-linecap="round" stroke-linejoin="round" points="0.115156951 2.67480769 4.29183857 6.01865385 8.46852018 0.167371795"></polyline>
                        </g>
                        <path d="M78.7074439,139.9895 C78.7074439,144.929885 74.7056502,148.935141 69.7675336,148.935141 C64.8303139,148.935141 60.8285202,144.929885 60.8285202,139.9895 C60.8285202,135.049115 64.8303139,131.043859 69.7675336,131.043859 C74.7056502,131.043859 78.7074439,135.049115 78.7074439,139.9895" id="Fill-127" fill="#FFFFFF"></path>
                        <path d="M78.7074439,139.9895 C78.7074439,144.929885 74.7056502,148.935141 69.7675336,148.935141 C64.8303139,148.935141 60.8285202,144.929885 60.8285202,139.9895 C60.8285202,135.049115 64.8303139,131.043859 69.7675336,131.043859 C74.7056502,131.043859 78.7074439,135.049115 78.7074439,139.9895 Z" id="Stroke-129" stroke="#000000" stroke-width="1.79487179" stroke-linecap="round" stroke-linejoin="round"></path>
                        <path d="M67.264574,138.368103 L67.264574,136.899897 C67.264574,136.409897 67.7533632,135.919897 68.2430493,135.919897 L71.6672646,135.919897 C72.1569507,135.919897 72.6457399,136.409897 72.6457399,136.899897 L72.6457399,139.347205 C72.6457399,139.837205 71.6672646,140.081308 71.1784753,140.326308 C70.6887892,140.571308 69.7103139,140.816308 69.7103139,141.304513 L69.7103139,141.794513" id="Stroke-131" stroke="#000000" stroke-width="1.79487179" stroke-linecap="round" stroke-linejoin="round"></path>
                        <path d="M70.8520179,144.487179 C70.8520179,144.983462 70.4502242,145.384615 69.955157,145.384615 C69.4600897,145.384615 69.058296,144.983462 69.058296,144.487179 C69.058296,143.990897 69.4600897,143.589744 69.955157,143.589744 C70.4502242,143.589744 70.8520179,143.990897 70.8520179,144.487179" id="Fill-133" fill="#000000"></path>
                    </g>
                </g>
            </g>
        </g>
    </g>
</svg>