<?xml version="1.0" encoding="UTF-8"?>
<svg width="224px" height="211px" viewBox="0 0 224 211" version="1.1" xmlns="http://www.w3.org/2000/svg" xmlns:xlink="http://www.w3.org/1999/xlink">
    <!-- Generator: Sketch 51.1 (57501) - http://www.bohemiancoding.com/sketch -->
    <title>Extensibility</title>
    <desc>Created with Sketch.</desc>
    <defs></defs>
    <g id="Banners" stroke="none" stroke-width="1" fill="none" fill-rule="evenodd">
        <g id="Docs/Extensibility" transform="translate(-906.000000, -1857.000000)">
            <g id="Group-3" transform="translate(423.000000, 1858.000000)">
                <g id="Extensibility" transform="translate(484.000000, 0.000000)">
                    <path d="M36.362069,89.4782609 L39.2298879,89.4782609" id="Stroke-1" stroke="#3445DC" stroke-width="1.91304348" stroke-linecap="round" stroke-linejoin="round"></path>
                    <path d="M44.3976078,89.4782609 L50.7159957,89.4782609 C64.1125474,89.4782609 71.7677198,99.0434783 71.7677198,110.521739 L71.7677198,113.679217" id="Stroke-2" stroke="#3445DC" stroke-width="1.91304348" stroke-linecap="round" stroke-linejoin="round" stroke-dasharray="6.199217340220576,5.166173934936523"></path>
                    <path d="M71.7672414,116.2646 L71.7672414,119.130339" id="Stroke-4" stroke="#3445DC" stroke-width="1.91304348" stroke-linecap="round" stroke-linejoin="round"></path>
                    <path d="M84.2068966,64.6086957 L84.2068966,119.130435" id="Stroke-6" stroke="#3445DC" stroke-width="1.91304348" stroke-linecap="round" stroke-linejoin="round" stroke-dasharray="5.739130434782609,4.782608695652174"></path>
                    <path d="M111.956897,80.8695652 L111.956897,119.130435" id="Stroke-8" stroke="#3445DC" stroke-width="1.91304348" stroke-linecap="round" stroke-linejoin="round" stroke-dasharray="5.739130434782609,4.782608695652174"></path>
                    <path d="M135.87931,39.5 L135.87931,119.130435" id="Stroke-10" stroke="#3445DC" stroke-width="1.91304348" stroke-linecap="round" stroke-linejoin="round" stroke-dasharray="5.739130434782609,4.782608695652174"></path>
                    <path d="M37.3189655,151.652174 L52.6293103,151.652174" id="Stroke-12" stroke="#3445DC" stroke-width="1.91304348" stroke-linecap="round" stroke-linejoin="round" stroke-dasharray="5.739130434782609,4.782608695652174"></path>
                    <path d="M186.594828,148.782609 L163.62931,148.782609" id="Stroke-14" stroke="#3445DC" stroke-width="1.91304348" stroke-linecap="round" stroke-linejoin="round" stroke-dasharray="5.739130434782609,4.782608695652174"></path>
                    <path d="M187.551724,78 L170.327586,78 C161.715517,78 151.189655,86.6086957 151.189655,99.0434783 L151.189655,119.130435" id="Stroke-16" stroke="#3445DC" stroke-width="1.91304348" stroke-linecap="round" stroke-linejoin="round" stroke-dasharray="5.739130434782609,4.782608695652174"></path>
                    <path d="M160.046594,189.913043 L57.1687319,189.913043 C55.1898698,189.913043 53.5861112,188.308957 53.5861112,186.331826 L53.5861112,122.711652 C53.5861112,120.734522 55.1898698,119.130435 57.1687319,119.130435 L160.046594,119.130435 C162.025456,119.130435 163.629215,120.734522 163.629215,122.711652 L163.629215,186.331826 C163.629215,188.308957 162.025456,189.913043 160.046594,189.913043" id="Fill-18" fill="#FFFFFF"></path>
                    <path d="M160.046594,189.913043 L57.1687319,189.913043 C55.1898698,189.913043 53.5861112,188.308957 53.5861112,186.331826 L53.5861112,122.711652 C53.5861112,120.734522 55.1898698,119.130435 57.1687319,119.130435 L160.046594,119.130435 C162.025456,119.130435 163.629215,120.734522 163.629215,122.711652 L163.629215,186.331826 C163.629215,188.308957 162.025456,189.913043 160.046594,189.913043 Z" id="Stroke-20" stroke="#3445DC" stroke-width="1.91304348" stroke-linecap="round" stroke-linejoin="round"></path>
                    <path d="M53.5862069,131.565217 L53.5862069,122.711652 C53.5862069,120.734522 55.1899655,119.130435 57.1688276,119.130435 L160.04669,119.130435 C162.025552,119.130435 163.62931,120.734522 163.62931,122.711652 L163.62931,132.521739 L53.5862069,131.565217 Z" id="Fill-22" fill="#E0EAFD"></path>
                    <path d="M53.5862069,131.565217 L53.5862069,122.711652 C53.5862069,120.734522 55.1899655,119.130435 57.1688276,119.130435 L160.04669,119.130435 C162.025552,119.130435 163.62931,120.734522 163.62931,122.711652 L163.62931,132.521739 L53.5862069,131.565217 Z" id="Stroke-24" stroke="#3445DC" stroke-width="1.91304348" stroke-linecap="round" stroke-linejoin="round"></path>
                    <g id="Group-29" transform="translate(53.586207, 131.565217)">
                        <path d="M0,0 L110.043103,0" id="Fill-26" fill="#FFFFFF"></path>
                        <path d="M0,0 L110.043103,0" id="Stroke-28" stroke="#3445DC" stroke-width="1.91304348" stroke-linecap="round" stroke-linejoin="round"></path>
                    </g>
                    <g id="Group-33" transform="translate(84.206897, 131.565217)">
                        <path d="M0,0 L0,58.3478261" id="Fill-30" fill="#FFFFFF"></path>
                        <path d="M0,0 L0,58.3478261" id="Stroke-32" stroke="#3445DC" stroke-width="1.91304348" stroke-linecap="round" stroke-linejoin="round"></path>
                    </g>
                    <path d="M62.1982759,125.826087 C62.1982759,126.882087 61.3408966,127.73913 60.2844828,127.73913 C59.228069,127.73913 58.3706897,126.882087 58.3706897,125.826087 C58.3706897,124.770087 59.228069,123.913043 60.2844828,123.913043 C61.3408966,123.913043 62.1982759,124.770087 62.1982759,125.826087" id="Fill-34" fill="#3445DC"></path>
                    <path d="M68.8965517,125.826087 C68.8965517,126.882087 68.0391724,127.73913 66.9827586,127.73913 C65.9263448,127.73913 65.0689655,126.882087 65.0689655,125.826087 C65.0689655,124.770087 65.9263448,123.913043 66.9827586,123.913043 C68.0391724,123.913043 68.8965517,124.770087 68.8965517,125.826087" id="Fill-36" fill="#3445DC"></path>
                    <path d="M75.5948276,125.826087 C75.5948276,126.882087 74.7374483,127.73913 73.6810345,127.73913 C72.6246207,127.73913 71.7672414,126.882087 71.7672414,125.826087 C71.7672414,124.770087 72.6246207,123.913043 73.6810345,123.913043 C74.7374483,123.913043 75.5948276,124.770087 75.5948276,125.826087" id="Fill-38" fill="#3445DC"></path>
                    <path d="M59.3275862,143.043478 L78.4655172,143.043478" id="Stroke-40" stroke="#3445DC" stroke-width="1.91304348" stroke-linecap="round" stroke-linejoin="round"></path>
                    <path d="M59.3275862,151.652174 L71.1749224,151.652174" id="Stroke-42" stroke="#3445DC" stroke-width="1.91304348" stroke-linecap="round" stroke-linejoin="round"></path>
                    <path d="M59.3275862,160.26087 L78.4655172,160.26087" id="Stroke-44" stroke="#3445DC" stroke-width="1.91304348" stroke-linecap="round" stroke-linejoin="round"></path>
                    <path d="M90.9051724,143.043478 L115.784483,143.043478" id="Stroke-46" stroke="#E0EAFD" stroke-width="1.91304348" stroke-linecap="round" stroke-linejoin="round"></path>
                    <path d="M103.344828,151.652174 L138.75,151.652174" id="Stroke-48" stroke="#E0EAFD" stroke-width="1.91304348" stroke-linecap="round" stroke-linejoin="round"></path>
                    <path d="M118.655172,168.869565 L154.060345,168.869565" id="Stroke-50" stroke="#E0EAFD" stroke-width="1.91304348" stroke-linecap="round" stroke-linejoin="round"></path>
                    <path d="M103.344828,177.478261 L138.75,177.478261" id="Stroke-52" stroke="#E0EAFD" stroke-width="1.91304348" stroke-linecap="round" stroke-linejoin="round"></path>
                    <path d="M112.913793,160.26087 L154.060345,160.26087" id="Stroke-54" stroke="#E0EAFD" stroke-width="1.91304348" stroke-linecap="round" stroke-linejoin="round"></path>
                    <path d="M36.362069,89.4782609 C36.362069,99.5150435 28.2227069,107.652174 18.1810345,107.652174 C8.13936207,107.652174 0,99.5150435 0,89.4782609 C0,79.4414783 8.13936207,71.3043478 18.1810345,71.3043478 C28.2227069,71.3043478 36.362069,79.4414783 36.362069,89.4782609" id="Fill-56" fill="#FFFFFF"></path>
                    <path d="M36.362069,89.4782609 C36.362069,99.5150435 28.2227069,107.652174 18.1810345,107.652174 C8.13936207,107.652174 0,99.5150435 0,89.4782609 C0,79.4414783 8.13936207,71.3043478 18.1810345,71.3043478 C28.2227069,71.3043478 36.362069,79.4414783 36.362069,89.4782609 Z" id="Stroke-58" stroke="#3445DC" stroke-width="1.91304348" stroke-linecap="round" stroke-linejoin="round"></path>
                    <path d="M9.00784138,96.2383826 L10.6087293,94.6276 C9.87383276,93.5639478 9.38677241,92.3807304 9.14850517,91.1573391 L6.82133276,91.1573391 L6.79262586,90.9526435 C6.73042759,90.4696 6.6978931,89.9779478 6.6978931,89.4786435 C6.6978931,88.9391652 6.73521207,88.4082957 6.80793621,87.8889043 L6.82516034,87.7683826 L9.11979828,87.7683826 C9.3360569,86.5430783 9.80110862,85.3550783 10.5130397,84.2818609 L8.79923793,82.5687304 L9.01071207,82.5687304 C9.62982414,81.7499478 10.3561086,81.0153391 11.1685138,80.3888174 L11.2450655,80.2931652 L12.9081517,81.8570783 C14.006669,81.1090783 15.2295828,80.6231652 16.4898155,80.4002957 L16.4898155,78.1247304 L16.5941172,78.1084696 C17.1127552,78.037687 17.6428759,78.0003826 18.1806517,78.0003826 L19.8609621,78.1228174 L19.8609621,80.4261217 C21.091531,80.6623826 22.2828672,81.1502087 23.3536345,81.8896 L24.9640914,80.2883826 C24.9640914,80.2883826 25.7430052,80.7991652 26.3027897,81.3587304 C26.863531,81.9192522 27.3199707,82.6433391 27.3199707,82.6433391 L25.7229103,84.2608174 C26.466419,85.3378609 26.9544362,86.5363826 27.1888759,87.7750783 L29.5380569,87.7750783 L29.5591086,87.9214261 C29.6280052,88.4302957 29.6634103,88.9506435 29.6634103,89.4786435 C29.6634103,90.0133391 29.6270483,90.5394261 29.5562379,91.0549913 L29.5409276,91.1573391 L27.1994017,91.1573391 C26.9697466,92.4247304 26.4721603,93.6529043 25.7104707,94.7519478 L27.3151862,96.3560348 L27.4233155,96.477513 L27.2022724,96.5798609 C26.5764621,97.3737739 25.8482638,98.0825565 25.0368155,98.6870783 L24.9535655,98.7167304 L23.3239707,97.0887304 C22.2579879,97.7956 21.0771776,98.2585565 19.8609621,98.4766435 L19.8734017,100.832557 L19.7011603,100.85647 C19.2035741,100.92247 18.696419,100.956904 18.1806517,100.956904 C17.7213414,100.956904 17.2677724,100.929165 16.8218586,100.877513 C16.7290397,100.866035 16.6371776,100.8536 16.5453155,100.841165 L16.4898155,100.832557 L16.4467552,98.4517739 C15.2257552,98.2145565 14.0439879,97.7296 12.9808759,96.9969043 L11.3637207,98.5933391 L11.2029621,98.5952522 C10.4144793,97.9907304 9.70733276,97.287687 9.09874655,96.5023826 L9.00784138,96.2383826 Z" id="Fill-60" fill="#E0EAFD"></path>
                    <path d="M9.00784138,96.2383826 L10.6087293,94.6276 C9.87383276,93.5639478 9.38677241,92.3807304 9.14850517,91.1573391 L6.82133276,91.1573391 L6.79262586,90.9526435 C6.73042759,90.4696 6.6978931,89.9779478 6.6978931,89.4786435 C6.6978931,88.9391652 6.73521207,88.4082957 6.80793621,87.8889043 L6.82516034,87.7683826 L9.11979828,87.7683826 C9.3360569,86.5430783 9.80110862,85.3550783 10.5130397,84.2818609 L8.79923793,82.5687304 L9.01071207,82.5687304 C9.62982414,81.7499478 10.3561086,81.0153391 11.1685138,80.3888174 L11.2450655,80.2931652 L12.9081517,81.8570783 C14.006669,81.1090783 15.2295828,80.6231652 16.4898155,80.4002957 L16.4898155,78.1247304 L16.5941172,78.1084696 C17.1127552,78.037687 17.6428759,78.0003826 18.1806517,78.0003826 L19.8609621,78.1228174 L19.8609621,80.4261217 C21.091531,80.6623826 22.2828672,81.1502087 23.3536345,81.8896 L24.9640914,80.2883826 C24.9640914,80.2883826 25.7430052,80.7991652 26.3027897,81.3587304 C26.863531,81.9192522 27.3199707,82.6433391 27.3199707,82.6433391 L25.7229103,84.2608174 C26.466419,85.3378609 26.9544362,86.5363826 27.1888759,87.7750783 L29.5380569,87.7750783 L29.5591086,87.9214261 C29.6280052,88.4302957 29.6634103,88.9506435 29.6634103,89.4786435 C29.6634103,90.0133391 29.6270483,90.5394261 29.5562379,91.0549913 L29.5409276,91.1573391 L27.1994017,91.1573391 C26.9697466,92.4247304 26.4721603,93.6529043 25.7104707,94.7519478 L27.3151862,96.3560348 L27.4233155,96.477513 L27.2022724,96.5798609 C26.5764621,97.3737739 25.8482638,98.0825565 25.0368155,98.6870783 L24.9535655,98.7167304 L23.3239707,97.0887304 C22.2579879,97.7956 21.0771776,98.2585565 19.8609621,98.4766435 L19.8734017,100.832557 L19.7011603,100.85647 C19.2035741,100.92247 18.696419,100.956904 18.1806517,100.956904 C17.7213414,100.956904 17.2677724,100.929165 16.8218586,100.877513 C16.7290397,100.866035 16.6371776,100.8536 16.5453155,100.841165 L16.4898155,100.832557 L16.4467552,98.4517739 C15.2257552,98.2145565 14.0439879,97.7296 12.9808759,96.9969043 L11.3637207,98.5933391 L11.2029621,98.5952522 C10.4144793,97.9907304 9.70733276,97.287687 9.09874655,96.5023826 L9.00784138,96.2383826 Z" id="Stroke-62" stroke="#3445DC" stroke-width="1.91304348" stroke-linecap="round" stroke-linejoin="round"></path>
                    <path d="M22.0086207,89.4782609 C22.0086207,91.5912174 20.294819,93.3043478 18.1810345,93.3043478 C16.06725,93.3043478 14.3534483,91.5912174 14.3534483,89.4782609 C14.3534483,87.3653043 16.06725,85.6521739 18.1810345,85.6521739 C20.294819,85.6521739 22.0086207,87.3653043 22.0086207,89.4782609" id="Fill-64" fill="#FFFFFF"></path>
                    <path d="M22.0086207,89.4782609 C22.0086207,91.5912174 20.294819,93.3043478 18.1810345,93.3043478 C16.06725,93.3043478 14.3534483,91.5912174 14.3534483,89.4782609 C14.3534483,87.3653043 16.06725,85.6521739 18.1810345,85.6521739 C20.294819,85.6521739 22.0086207,87.3653043 22.0086207,89.4782609 Z" id="Stroke-66" stroke="#3445DC" stroke-width="1.91304348" stroke-linecap="round" stroke-linejoin="round"></path>
                    <path d="M204.775862,148.782609 C204.775862,153.537478 200.920526,157.391304 196.163793,157.391304 C191.40706,157.391304 187.551724,153.537478 187.551724,148.782609 C187.551724,144.027739 191.40706,140.173913 196.163793,140.173913 C200.920526,140.173913 204.775862,144.027739 204.775862,148.782609" id="Fill-68" fill="#FFFFFF"></path>
                    <path d="M204.775862,148.782609 C204.775862,153.537478 200.920526,157.391304 196.163793,157.391304 C191.40706,157.391304 187.551724,153.537478 187.551724,148.782609 C187.551724,144.027739 191.40706,140.173913 196.163793,140.173913 C200.920526,140.173913 204.775862,144.027739 204.775862,148.782609 Z" id="Stroke-70" stroke="#3445DC" stroke-width="1.91304348" stroke-linecap="round" stroke-linejoin="round"></path>
                    <g id="Group-75" transform="translate(194.250000, 144.956522)">
                        <path d="M3.82758621,2.07278261 C3.82758621,1.43478261 3.18933621,0.796782609 1.9137931,0.796782609 C0.63825,0.796782609 0,1.43478261 0,2.70982609 C0,4.62286957 3.82758621,3.98582609 3.82758621,5.89886957 C3.82758621,7.17391304 3.18933621,7.81191304 1.9137931,7.81191304 C0.63825,7.81191304 0,7.17391304 0,6.53591304" id="Fill-72" fill="#FFFFFF"></path>
                        <path d="M3.82758621,2.07278261 C3.82758621,1.43478261 3.18933621,0.796782609 1.9137931,0.796782609 C0.63825,0.796782609 0,1.43478261 0,2.70982609 C0,4.62286957 3.82758621,3.98582609 3.82758621,5.89886957 C3.82758621,7.17391304 3.18933621,7.81191304 1.9137931,7.81191304 C0.63825,7.81191304 0,7.17391304 0,6.53591304" id="Stroke-74" stroke="#3445DC" stroke-width="1.91304348" stroke-linecap="round" stroke-linejoin="round"></path>
                    </g>
                    <g id="Group-79" transform="translate(196.163793, 144.956522)">
                        <path d="M0,0.15973913 L0,0.796782609" id="Fill-76" fill="#FFFFFF"></path>
                        <path d="M0,0.15973913 L0,0.796782609" id="Stroke-78" stroke="#3445DC" stroke-width="1.91304348" stroke-linecap="round" stroke-linejoin="round"></path>
                    </g>
                    <g id="Group-83" transform="translate(196.163793, 152.608696)">
                        <path d="M0,0.15973913 L0,0.796782609" id="Fill-80" fill="#FFFFFF"></path>
                        <path d="M0,0.15973913 L0,0.796782609" id="Stroke-82" stroke="#3445DC" stroke-width="1.91304348" stroke-linecap="round" stroke-linejoin="round"></path>
                    </g>
                    <path d="M155.974138,19.6086957 C155.974138,30.4384348 147.191741,39.2173913 136.357759,39.2173913 C125.523776,39.2173913 116.741379,30.4384348 116.741379,19.6086957 C116.741379,8.77895652 125.523776,0 136.357759,0 C147.191741,0 155.974138,8.77895652 155.974138,19.6086957" id="Fill-84" fill="#FFFFFF"></path>
                    <path d="M155.974138,19.6086957 C155.974138,30.4384348 147.191741,39.2173913 136.357759,39.2173913 C125.523776,39.2173913 116.741379,30.4384348 116.741379,19.6086957 C116.741379,8.77895652 125.523776,0 136.357759,0 C147.191741,0 155.974138,8.77895652 155.974138,19.6086957 Z" id="Stroke-86" stroke="#3445DC" stroke-width="1.91304348" stroke-linecap="round" stroke-linejoin="round"></path>
                    <path d="M144.491379,15.3043478 C144.491379,20.0592174 136.836207,31.5652174 135.87931,31.5652174 C134.922414,31.5652174 127.267241,20.0592174 127.267241,15.3043478 C127.267241,10.5494783 131.122578,6.69565217 135.87931,6.69565217 C140.636043,6.69565217 144.491379,10.5494783 144.491379,15.3043478" id="Fill-88" fill="#E0EAFD"></path>
                    <path d="M144.491379,15.3043478 C144.491379,20.0592174 136.836207,31.5652174 135.87931,31.5652174 C134.922414,31.5652174 127.267241,20.0592174 127.267241,15.3043478 C127.267241,10.5494783 131.122578,6.69565217 135.87931,6.69565217 C140.636043,6.69565217 144.491379,10.5494783 144.491379,15.3043478 Z" id="Stroke-90" stroke="#3445DC" stroke-width="1.91304348" stroke-linecap="round" stroke-linejoin="round"></path>
                    <path d="M139.706897,15.3043478 C139.706897,17.4173043 137.993095,19.1304348 135.87931,19.1304348 C133.765526,19.1304348 132.051724,17.4173043 132.051724,15.3043478 C132.051724,13.1913913 133.765526,11.4782609 135.87931,11.4782609 C137.993095,11.4782609 139.706897,13.1913913 139.706897,15.3043478" id="Fill-92" fill="#FFFFFF"></path>
                    <path d="M139.706897,15.3043478 C139.706897,17.4173043 137.993095,19.1304348 135.87931,19.1304348 C133.765526,19.1304348 132.051724,17.4173043 132.051724,15.3043478 C132.051724,13.1913913 133.765526,11.4782609 135.87931,11.4782609 C137.993095,11.4782609 139.706897,13.1913913 139.706897,15.3043478 Z" id="Stroke-94" stroke="#3445DC" stroke-width="1.91304348" stroke-linecap="round" stroke-linejoin="round"></path>
                    <path d="M222,78 C222,87.5087826 214.288371,95.2173913 204.775862,95.2173913 C195.263353,95.2173913 187.551724,87.5087826 187.551724,78 C187.551724,68.4912174 195.263353,60.7826087 204.775862,60.7826087 C214.288371,60.7826087 222,68.4912174 222,78" id="Fill-96" fill="#FFFFFF"></path>
                    <path d="M222,78 C222,87.5087826 214.288371,95.2173913 204.775862,95.2173913 C195.263353,95.2173913 187.551724,87.5087826 187.551724,78 C187.551724,68.4912174 195.263353,60.7826087 204.775862,60.7826087 C214.288371,60.7826087 222,68.4912174 222,78 Z" id="Stroke-98" stroke="#3445DC" stroke-width="1.91304348" stroke-linecap="round" stroke-linejoin="round"></path>
                    <g id="Group-103" transform="translate(194.250000, 69.391304)">
                        <path d="M3.57199914,6.70406957 C1.57782672,6.83606957 -9.56896552e-05,8.49467826 -9.56896552e-05,10.5215478 C-9.56896552e-05,12.6345043 1.71370603,14.3476348 3.82749052,14.3476348 L18.1809388,14.3476348 C20.2947233,14.3476348 22.008525,12.6345043 22.008525,10.5215478 C22.008525,8.4085913 20.2947233,6.69546087 18.1809388,6.69546087 C17.8354991,6.69546087 17.4996284,6.74137391 17.1809819,6.82746087 L17.1838526,6.80833043 C17.2106457,6.61511304 17.2240422,6.41806957 17.2240422,6.2172 C17.2240422,3.84024348 15.2958957,1.91285217 12.9180078,1.91285217 C12.2357405,1.91285217 11.5898353,2.07163478 11.0156974,2.35476522 L11.0061284,2.33372174 C10.2903698,0.946765217 8.84449914,-0.000191304348 7.17662845,-0.000191304348 C4.79874052,-0.000191304348 2.87059397,1.9272 2.87059397,4.30415652 C2.87059397,5.19563478 3.14139569,6.02398261 3.60644741,6.71076522" id="Fill-100" fill="#E0EAFD"></path>
                        <path d="M3.57199914,6.70406957 C1.57782672,6.83606957 -9.56896552e-05,8.49467826 -9.56896552e-05,10.5215478 C-9.56896552e-05,12.6345043 1.71370603,14.3476348 3.82749052,14.3476348 L18.1809388,14.3476348 C20.2947233,14.3476348 22.008525,12.6345043 22.008525,10.5215478 C22.008525,8.4085913 20.2947233,6.69546087 18.1809388,6.69546087 C17.8354991,6.69546087 17.4996284,6.74137391 17.1809819,6.82746087 L17.1838526,6.80833043 C17.2106457,6.61511304 17.2240422,6.41806957 17.2240422,6.2172 C17.2240422,3.84024348 15.2958957,1.91285217 12.9180078,1.91285217 C12.2357405,1.91285217 11.5898353,2.07163478 11.0156974,2.35476522 L11.0061284,2.33372174 C10.2903698,0.946765217 8.84449914,-0.000191304348 7.17662845,-0.000191304348 C4.79874052,-0.000191304348 2.87059397,1.9272 2.87059397,4.30415652 C2.87059397,5.19563478 3.14139569,6.02398261 3.60644741,6.71076522" id="Stroke-102" stroke="#3445DC" stroke-width="1.91304348" stroke-linecap="round" stroke-linejoin="round"></path>
                    </g>
                    <path d="M118.655172,74.173913 C118.655172,77.8718261 115.656259,80.8695652 111.956897,80.8695652 C108.257534,80.8695652 105.258621,77.8718261 105.258621,74.173913 C105.258621,70.476 108.257534,67.4782609 111.956897,67.4782609 C115.656259,67.4782609 118.655172,70.476 118.655172,74.173913" id="Fill-104" fill="#FFFFFF"></path>
                    <path d="M118.655172,74.173913 C118.655172,77.8718261 115.656259,80.8695652 111.956897,80.8695652 C108.257534,80.8695652 105.258621,77.8718261 105.258621,74.173913 C105.258621,70.476 108.257534,67.4782609 111.956897,67.4782609 C115.656259,67.4782609 118.655172,70.476 118.655172,74.173913 Z" id="Stroke-106" stroke="#000000" stroke-width="1.91304348" stroke-linecap="round" stroke-linejoin="round"></path>
                    <path d="M113.87069,74.173913 C113.87069,75.229913 113.01331,76.0869565 111.956897,76.0869565 C110.900483,76.0869565 110.043103,75.229913 110.043103,74.173913 C110.043103,73.117913 110.900483,72.2608696 111.956897,72.2608696 C113.01331,72.2608696 113.87069,73.117913 113.87069,74.173913" id="Fill-108" fill="#000000"></path>
                    <path d="M97.6034483,50.7391304 C97.6034483,58.3989565 91.3912759,64.6086957 83.7284483,64.6086957 C76.0656207,64.6086957 69.8534483,58.3989565 69.8534483,50.7391304 C69.8534483,43.0793043 76.0656207,36.8695652 83.7284483,36.8695652 C91.3912759,36.8695652 97.6034483,43.0793043 97.6034483,50.7391304" id="Fill-110" fill="#FFFFFF"></path>
                    <path d="M96.8339121,55.3059478 C94.9449983,60.7217739 89.7911534,64.6090783 83.7282569,64.6090783 C76.0654293,64.6090783 69.8532569,58.3983826 69.8532569,50.739513 C69.8532569,43.079687 76.0654293,36.8699478 83.7282569,36.8699478 C91.3920414,36.8699478 97.6032569,43.079687 97.6032569,50.739513 C97.6032569,50.9193391 97.6003862,51.0991652 97.592731,51.2770783" id="Stroke-112" stroke="#3445DC" stroke-width="1.91304348" stroke-linecap="round" stroke-linejoin="round"></path>
                    <polyline id="Stroke-114" stroke="#3445DC" stroke-width="1.91304348" stroke-linecap="round" stroke-linejoin="round" points="92.8189655 47.3913043 97.6034483 51.2173913 100.474138 45.4782609"></polyline>
                    <path d="M83.2336371,54.7614 C83.2336371,55.3640087 82.8795853,55.665313 82.1714819,55.665313 L76.8319991,55.665313 C76.5353612,55.665313 76.2980509,55.577313 76.121025,55.4003565 C75.9439991,55.2224435 75.8559647,55.0005304 75.8559647,54.7327043 C75.8559647,54.3874 75.9947147,54.0717478 76.2722147,53.7857478 L79.4299733,50.4417478 C80.1380767,49.6966174 80.4921284,49.0069652 80.4921284,48.3756609 C80.4921284,47.9844435 80.3820853,47.6860087 80.1619991,47.4794 C79.9419129,47.2737478 79.6213526,47.1704435 79.2003181,47.1704435 C78.8366974,47.1704435 78.5017836,47.2335739 78.1955767,47.3579217 C77.8893698,47.4832261 77.5353181,47.6640087 77.1334216,47.9031391 C76.9707491,47.9987913 76.8463526,48.0657478 76.7602319,48.1040087 C76.6741112,48.1422696 76.5736371,48.1614 76.4588095,48.1614 C76.2578612,48.1614 76.0856198,48.0676609 75.9420853,47.8811391 C75.7985509,47.6946174 75.7267836,47.477487 75.7267836,47.2287913 C75.7267836,47.0480087 75.7574043,46.8959217 75.8196026,46.7763565 C75.8818009,46.6567913 75.9851457,46.5496609 76.1286802,46.4530522 C76.5592836,46.1374 77.0539991,45.8877478 77.6137836,45.7002696 C78.1735681,45.5137478 78.7362233,45.4200087 79.3007922,45.4200087 C79.9801888,45.4200087 80.5753784,45.5357478 81.0873181,45.765313 C81.5992578,45.9948783 81.994456,46.3229652 82.271956,46.7486174 C82.549456,47.173313 82.688206,47.6640087 82.688206,48.2187913 C82.688206,48.8022696 82.5657233,49.3427043 82.3217147,49.8400957 C82.077706,50.337487 81.6691112,50.8922696 81.0949733,51.5044435 L78.8414819,53.8718348 L82.1714819,53.8718348 C82.8795853,53.8718348 83.2336371,54.1683565 83.2336371,54.7614" id="Fill-116" fill="#000000"></path>
                    <path d="M86.2907302,52.1066696 L88.4868078,52.1066696 L88.4868078,48.9501478 L86.2907302,52.1066696 Z M92.2474112,52.9531913 C92.2474112,53.5271043 91.898144,53.8140609 91.1996095,53.8140609 L90.6685319,53.8140609 L90.6685319,54.6328435 C90.6685319,54.9963217 90.5680578,55.273713 90.3671095,55.4640609 C90.1661612,55.6563217 89.9030147,55.7519739 89.5776698,55.7519739 C89.252325,55.7519739 88.9891784,55.6563217 88.7882302,55.4640609 C88.5872819,55.273713 88.4868078,54.9963217 88.4868078,54.6328435 L88.4868078,53.8140609 L84.9989198,53.8140609 C84.7022819,53.8140609 84.4678422,53.7260609 84.2956009,53.5491043 C84.1233595,53.3711913 84.0372388,53.1492783 84.0372388,52.8824087 C84.0372388,52.6136261 84.128144,52.3458 84.3099543,52.0789304 L88.5872819,45.9658 C88.7021095,45.8031913 88.845644,45.681713 89.0178853,45.5994522 C89.1901267,45.5191043 89.3719371,45.4779739 89.5633164,45.4779739 C89.8599543,45.4779739 90.1183164,45.5764957 90.3384026,45.7725826 C90.5584888,45.9686696 90.6685319,46.2384087 90.6685319,46.5827565 L90.6685319,52.1066696 L91.1996095,52.1066696 C91.898144,52.1066696 92.2474112,52.3888435 92.2474112,52.9531913 Z" id="Fill-118" fill="#000000"></path>
                    <path d="M37.3189655,151.652174 C37.3189655,156.407043 33.4636293,160.26087 28.7068966,160.26087 C23.9501638,160.26087 20.0948276,156.407043 20.0948276,151.652174 C20.0948276,146.897304 23.9501638,143.043478 28.7068966,143.043478 C33.4636293,143.043478 37.3189655,146.897304 37.3189655,151.652174" id="Fill-120" fill="#FFFFFF"></path>
                    <path d="M37.3189655,151.652174 C37.3189655,156.407043 33.4636293,160.26087 28.7068966,160.26087 C23.9501638,160.26087 20.0948276,156.407043 20.0948276,151.652174 C20.0948276,146.897304 23.9501638,143.043478 28.7068966,143.043478 C33.4636293,143.043478 37.3189655,146.897304 37.3189655,151.652174 Z" id="Stroke-122" stroke="#000000" stroke-width="1.91304348" stroke-linecap="round" stroke-linejoin="round"></path>
                    <path d="M32.4284586,148.410809 L25.1187259,155.717678" id="Stroke-124" stroke="#000000" stroke-width="1.91304348" stroke-linecap="round" stroke-linejoin="round"></path>
                    <path d="M26.3725474,150.275261 C25.8127629,150.835783 24.9027543,150.835783 24.3429698,150.275261 C23.7822284,149.714739 23.7822284,148.807 24.3429698,148.246478 C24.9027543,147.685957 25.8127629,147.685957 26.3725474,148.246478 C26.9332888,148.807 26.9332888,149.714739 26.3725474,150.275261" id="Fill-126" fill="#000000"></path>
                    <path d="M33.0708233,156.014391 C32.5110388,156.574913 31.6010302,156.574913 31.0412457,156.014391 C30.4805043,155.45387 30.4805043,154.54613 31.0412457,153.985609 C31.6010302,153.425087 32.5110388,153.425087 33.0708233,153.985609 C33.6315647,154.54613 33.6315647,155.45387 33.0708233,156.014391" id="Fill-128" fill="#000000"></path>
                    <path d="M135.906869,172.901113 L135.906869,172.900157 C132.609403,183.046939 136.43699,193.798243 144.629938,199.745896 L144.630895,199.74207 L150.023007,183.153113 L135.91261,172.904939 L153.353964,172.904939 L158.747033,156.315983 L158.748947,156.3112 L141.298024,156.3112 L135.906869,172.901113 Z M144.632809,199.743983 L144.628024,199.746852 L158.745119,209.999809 L172.866041,199.743983 L158.749903,189.491983 L144.632809,199.743983 Z M172.866041,199.743983 L167.474886,183.155026 L181.588153,172.904939 L164.142016,172.904939 L158.749903,156.315983 L158.748947,156.3112 L176.196998,156.3112 L181.591024,172.903026 L181.595809,172.900157 C184.727731,182.526591 181.501076,193.473026 172.866041,199.743983 Z" id="Fill-130" fill="#000000"></path>
                    <polygon id="Fill-132" fill="#FFFFFF" points="153.103448 172.695652 135.87931 172.695652 149.275862 183.217391 144.491379 199.478261 158.844828 189.913043 172.499741 199.478261 167.456897 183.217391 181.810345 172.695652 164.586207 172.695652 158.844828 156.992435"></polygon>
                </g>
            </g>
        </g>
    </g>
</svg>