<?xml version="1.0" encoding="UTF-8"?>
<svg width="107px" height="132px" viewBox="0 0 107 132" version="1.1" xmlns="http://www.w3.org/2000/svg" xmlns:xlink="http://www.w3.org/1999/xlink">
    <!-- Generator: Sketch 52.6 (67491) - http://www.bohemiancoding.com/sketch -->
    <title>Artboard Copy 2</title>
    <desc>Created with Sketch.</desc>
    <g id="Artboard-Copy-2" stroke="none" stroke-width="1" fill="none" fill-rule="evenodd">
        <path d="M103.560285,45.1738238 C102.942088,45.5553679 89.19908,53.5677934 89.3575922,70.2444488 C89.5478069,90.1642289 106.793934,96.7935571 107,96.8730454 C106.841488,97.3499755 104.226037,106.332159 97.917251,115.632296 C92.4327289,123.660619 86.7579921,131.657147 77.8020529,131.832021 C69.0046258,131.990998 66.1672574,126.58579 56.117584,126.58579 C46.0679106,126.58579 42.929369,131.657147 34.5916273,131.990998 C25.9368612,132.324849 19.3744562,123.31087 13.8423804,115.314342 C2.54046062,98.9556402 -6.08260302,69.0680213 5.48878753,48.9415715 C11.2427804,38.9260397 21.5302221,32.5828695 32.6894809,32.4238928 C41.1698836,32.2490184 49.1747497,38.1470538 54.3739498,38.1470538 C59.57315,38.1470538 69.305799,31.0566932 79.5298359,32.1059394 C83.8096652,32.2808137 95.8248899,33.8387854 103.560285,45.1738238 Z M79.5653432,0 C80.4081189,7.71802643 77.3073402,15.4519336 72.6959256,21.0260638 C68.1004125,26.5843133 60.5313321,30.9197478 53.1689703,30.3480422 C52.1512788,22.7888229 55.8881147,14.9119893 60.1496978,9.98896836 C64.9042252,4.41483816 72.9344471,0.269972118 79.5653432,0 Z" id="Path-2" fill="#000000"></path>
    </g>
</svg>