<?xml version="1.0" encoding="UTF-8" standalone="no"?>
<svg width="2340px" height="581px" viewBox="0 0 2340 581" version="1.1" xmlns="http://www.w3.org/2000/svg" xmlns:xlink="http://www.w3.org/1999/xlink" xmlns:sketch="http://www.bohemiancoding.com/sketch/ns">
    <!-- Generator: Sketch 3.2 (9961) - http://www.bohemiancoding.com/sketch -->
    <title>evernote_logo_4c</title>
    <desc>Created with Sketch.</desc>
    <defs>
        <path id="path-1" d="M0,0.847 L2339.35,0.847 L2339.35,580.94 L0,580.94 L0,0.847 Z"></path>
    </defs>
    <g id="Page-1" stroke="none" stroke-width="1" fill="none" fill-rule="evenodd" sketch:type="MSPage">
        <g id="evernote_logo_4c" sketch:type="MSLayerGroup">
            <g id="Group-3">
                <mask id="mask-2" sketch:name="Clip 2" fill="white">
                    <use xlink:href="#path-1"></use>
                </mask>
                <g id="Clip-2"></g>
                <path d="M361.525,275.265 C353.685,274.991 346.144,275.486 339.112,276.616 C341.091,260.633 347.688,241.021 371.058,241.842 C396.928,242.732 400.553,267.183 400.646,283.745 C389.737,278.882 376.233,275.782 361.525,275.265 L361.525,275.265 Z M472.148,101.79 C467.823,78.637 454.058,67.228 441.613,62.742 C428.186,57.889 400.96,52.862 366.752,48.83 C339.231,45.589 306.884,45.847 287.345,46.451 C285,30.389 273.734,15.716 261.128,10.636 C227.542,-2.883 175.648,0.383 162.325,4.117 C151.737,7.076 140.019,13.141 133.497,22.485 C129.123,28.727 126.293,36.724 126.271,47.896 C126.271,54.219 126.447,69.114 126.608,82.347 C126.768,95.623 126.942,107.496 126.942,107.576 C126.936,119.395 117.357,129.014 105.486,129.029 L51.03,129.029 C39.415,129.029 30.539,130.981 23.76,134.061 C16.97,137.144 12.161,141.301 8.507,146.218 C1.233,155.981 -0.029,168.031 0.001,180.327 C0.001,180.327 0.108,190.375 2.529,209.823 C4.541,224.871 20.86,329.993 36.361,361.964 C42.37,374.403 46.374,379.584 58.181,385.066 C84.488,396.329 144.577,408.859 172.74,412.447 C200.852,416.044 218.496,423.605 229.011,401.558 C229.046,401.504 231.118,396.073 233.966,388.107 C243.095,360.444 244.366,335.899 244.366,318.138 C244.366,316.332 247.016,316.249 247.016,318.138 C247.016,330.678 244.621,375.053 278.142,386.958 C291.375,391.651 318.826,395.835 346.719,399.104 C371.94,402.003 390.243,411.928 390.243,476.634 C390.243,516.001 381.975,521.398 338.749,521.398 C303.708,521.398 290.354,522.305 290.354,494.468 C290.354,471.969 312.606,474.327 329.098,474.327 C336.464,474.327 331.118,468.847 331.118,454.967 C331.118,441.159 339.753,433.177 331.585,432.974 C274.558,431.405 241.003,432.909 241.003,504.23 C241.003,568.977 265.781,581 346.719,581 C410.179,581 432.549,578.922 458.752,497.619 C463.939,481.569 476.478,432.588 484.067,350.348 C488.863,298.348 479.542,141.402 472.148,101.79 L472.148,101.79 Z M48.479,113.213 L48.515,113.213 L102.962,113.213 C106.082,113.213 108.591,110.672 108.598,107.576 C108.598,107.556 107.937,60.891 107.937,47.914 L107.937,47.761 C107.937,37.103 110.173,27.81 114.07,20.024 L115.932,16.527 C115.724,16.562 115.515,16.664 115.308,16.871 L9.516,121.78 C9.309,121.95 9.18,122.171 9.12,122.397 C11.309,121.314 14.3,119.834 14.723,119.649 C23.936,115.492 35.107,113.213 48.479,113.213 L48.479,113.213 Z" id="Fill-1" fill="#979797" sketch:type="MSShapeGroup" mask="url(#mask-2)"></path>
            </g>
            <path d="M2316.91,194.548 L2321.46,194.548 C2324.77,194.548 2325.8,193.417 2325.8,191.472 C2325.8,189.546 2324.17,188.856 2321.46,188.856 L2316.91,188.856 L2316.91,194.548 L2316.91,194.548 Z M2313.49,185.672 L2321.46,185.672 C2326.59,185.672 2329.25,187.462 2329.25,191.645 C2329.25,195.429 2326.84,197.006 2323.89,197.551 L2329.47,206.417 L2325.57,206.417 L2320.12,197.718 L2316.91,197.718 L2316.91,206.417 L2313.49,206.417 L2313.49,185.672 L2313.49,185.672 Z M2321.23,211.018 C2329.33,211.018 2335.96,204.405 2335.96,196.04 C2335.96,187.682 2329.33,181.083 2321.23,181.083 C2313.11,181.083 2306.48,187.682 2306.48,196.04 C2306.48,204.405 2313.11,211.018 2321.23,211.018 L2321.23,211.018 Z M2321.23,177.915 C2331.27,177.915 2339.35,186.049 2339.35,196.04 C2339.35,206.065 2331.27,214.22 2321.23,214.22 C2311.17,214.22 2303.08,206.065 2303.08,196.04 C2303.08,186.049 2311.17,177.915 2321.23,177.915 L2321.23,177.915 Z" id="Fill-4" fill="#74B943" sketch:type="MSShapeGroup"></path>
            <path d="M559.5,363.673 L583.879,363.673 L585.055,207.909 L559.5,207.909 L559.5,178.024 L721.138,178.024 L723.108,238.595 L691.25,238.595 L688.501,207.909 L627.531,207.909 L627.136,268.869 L688.892,268.869 L688.892,298.771 L626.748,298.771 L626.36,363.673 L687.714,363.673 L691.651,329.043 L726.259,329.043 L722.327,393.555 L559.5,393.555 L559.5,363.673" id="Fill-5" fill="#74B943" sketch:type="MSShapeGroup"></path>
            <path d="M980.329,207.909 L959.882,207.909 L883.171,393.555 L839.132,393.555 L762.037,207.909 L740.403,207.909 L740.403,178.024 L832.453,178.024 L832.453,207.909 L810.817,207.909 L863.909,354.23 L864.689,354.23 L917.397,207.909 L891.449,207.909 L891.449,178.024 L980.329,178.024 L980.329,207.909" id="Fill-6" fill="#74B943" sketch:type="MSShapeGroup"></path>
            <path d="M1001.56,363.673 L1025.94,363.673 L1027.13,207.909 L1001.56,207.909 L1001.56,178.024 L1163.2,178.024 L1165.17,238.595 L1133.32,238.595 L1130.56,207.909 L1069.59,207.909 L1069.2,268.869 L1130.96,268.869 L1130.96,298.771 L1068.82,298.771 L1068.42,363.673 L1129.77,363.673 L1133.71,329.043 L1168.32,329.043 L1164.38,393.555 L1001.56,393.555 L1001.56,363.673" id="Fill-7" fill="#74B943" sketch:type="MSShapeGroup"></path>
            <path d="M1276.89,272.017 L1293.79,272.017 C1316.99,272.017 1332.71,259.437 1332.71,239.385 C1332.71,219.716 1322.9,207.909 1303.22,207.909 L1277.25,207.909 L1276.89,272.017 L1276.89,272.017 Z M1208.83,363.673 L1233.21,363.673 L1234.39,207.909 L1208.83,207.909 L1208.83,178.024 L1308.34,178.024 C1358.3,178.024 1374.41,206.738 1374.41,234.657 C1374.41,259.437 1362.23,281.859 1323.67,291.689 L1323.67,292.473 C1343.73,297.974 1348.86,303.095 1368.91,337.709 C1382.27,360.133 1386.99,363.673 1394.48,363.673 C1397.62,363.673 1400.76,362.879 1403.52,362.493 L1403.52,393.555 L1381.49,393.555 C1352.38,393.555 1348.86,390.027 1326.05,344.781 C1305.58,304.667 1300.86,301.92 1285.13,301.92 L1276.49,301.92 L1276.09,363.673 L1301.64,363.673 L1301.64,393.555 L1208.83,393.555 L1208.83,363.673 L1208.83,363.673 Z" id="Fill-8" fill="#74B943" sketch:type="MSShapeGroup"></path>
            <path d="M1601.36,207.909 L1575.78,207.909 L1575.78,178.024 L1660.34,178.024 L1660.34,207.909 L1635.95,207.909 L1634.77,393.555 L1602.52,393.555 L1487.28,240.165 L1486.5,240.165 L1485.31,363.673 L1510.89,363.673 L1510.89,393.555 L1426.33,393.555 L1426.33,363.673 L1450.71,363.673 L1451.89,207.909 L1426.33,207.909 L1426.33,178.024 L1490.04,178.024 L1599.38,323.945 L1600.17,323.945 L1601.36,207.909" id="Fill-9" fill="#74B943" sketch:type="MSShapeGroup"></path>
            <path d="M1782.65,363.272 C1822.76,363.272 1845.57,329.043 1845.57,285.388 C1845.57,236.24 1818.85,208.312 1782.65,208.312 C1742.53,208.312 1719.73,242.525 1719.73,286.972 C1719.73,335.351 1746.47,363.272 1782.65,363.272 L1782.65,363.272 Z M1782.65,173.682 C1857,173.682 1889.64,222.849 1889.64,282.646 C1889.64,350.686 1849.12,397.873 1782.65,397.873 C1708.32,397.873 1675.67,348.716 1675.67,288.553 C1675.67,220.905 1716.17,173.682 1782.65,173.682 L1782.65,173.682 Z" id="Fill-10" fill="#74B943" sketch:type="MSShapeGroup"></path>
            <path d="M1957.28,363.673 L1981.65,363.673 L1982.82,207.909 L1939.58,207.909 L1937.98,238.595 L1905.36,238.595 L1907.7,178.024 L2100.84,178.024 L2103.2,238.595 L2070.54,238.595 L2068.97,207.909 L2025.7,207.909 L2024.52,363.673 L2050.07,363.673 L2050.07,393.555 L1957.28,393.555 L1957.28,363.673" id="Fill-11" fill="#74B943" sketch:type="MSShapeGroup"></path>
            <path d="M2127.16,363.673 L2151.55,363.673 L2152.74,207.909 L2127.16,207.909 L2127.16,178.024 L2288.83,178.024 L2290.78,238.595 L2258.94,238.595 L2256.19,207.909 L2195.22,207.909 L2194.83,268.869 L2256.56,268.869 L2256.56,298.771 L2194.43,298.771 L2194.03,363.673 L2255.38,363.673 L2259.34,329.043 L2293.93,329.043 L2290.01,393.555 L2127.16,393.555 L2127.16,363.673" id="Fill-12" fill="#74B943" sketch:type="MSShapeGroup"></path>
        </g>
    </g>
</svg>