<?xml version="1.0" encoding="utf-8"?>
<!-- Generator: Adobe Illustrator 21.0.0, SVG Export Plug-In . SVG Version: 6.00 Build 0)  -->
<svg version="1.1" id="Layer_1" xmlns:sketch="http://www.bohemiancoding.com/sketch/ns"
	 xmlns="http://www.w3.org/2000/svg" xmlns:xlink="http://www.w3.org/1999/xlink" x="0px" y="0px" viewBox="0 0 582 581"
	 style="enable-background:new 0 0 582 581;" xml:space="preserve">
<style type="text/css">
	.st0{filter:url(#Adobe_OpacityMaskFilter);}
	.st1{fill:#FFFFFF;}
	.st2{mask:url(#mask-2);fill:#979797;}
</style>
<title>evernote_logo_4c</title>
<desc>Created with Sketch.</desc>
<g id="Page-1" sketch:type="MSPage">
	<g id="evernote_logo_4c" sketch:type="MSLayerGroup">
		<g id="Group-3">
			<g id="Clip-2">
			</g>
			<defs>
				<filter id="Adobe_OpacityMaskFilter" filterUnits="userSpaceOnUse" x="48.3" y="0.8" width="485.4" height="580.2">
					<feColorMatrix  type="matrix" values="1 0 0 0 0  0 1 0 0 0  0 0 1 0 0  0 0 0 1 0"/>
				</filter>
			</defs>
			<mask maskUnits="userSpaceOnUse" x="48.3" y="0.8" width="485.4" height="580.2" id="mask-2">
				<g class="st0">
					<path id="path-1" class="st1" d="M48.3,0.8h2339.4v580.1H48.3V0.8z"/>
				</g>
			</mask>
			<path id="Fill-1" sketch:type="MSShapeGroup" class="st2" d="M409.8,275.3c-7.8-0.3-15.4,0.2-22.4,1.4c2-16,8.6-35.6,31.9-34.8
				c25.9,0.9,29.5,25.3,29.6,41.9C438,278.9,424.5,275.8,409.8,275.3L409.8,275.3z M520.4,101.8c-4.3-23.2-18.1-34.6-30.5-39
				c-13.4-4.9-40.7-9.9-74.9-13.9c-27.5-3.2-59.9-3-79.4-2.4c-2.3-16.1-13.6-30.7-26.2-35.8c-33.6-13.5-85.5-10.3-98.8-6.5
				c-10.6,3-22.3,9-28.8,18.4c-4.4,6.2-7.2,14.2-7.2,25.4c0,6.3,0.2,21.2,0.3,34.5c0.2,13.3,0.3,25.1,0.3,25.2
				c0,11.8-9.6,21.4-21.5,21.5H99.3c-11.6,0-20.5,2-27.3,5c-6.8,3.1-11.6,7.2-15.3,12.2c-7.3,9.8-8.5,21.8-8.5,34.1
				c0,0,0.1,10,2.5,29.5c2,15,18.3,120.2,33.8,152.1c6,12.4,10,17.6,21.8,23.1c26.3,11.3,86.4,23.8,114.6,27.4
				c28.1,3.6,45.8,11.2,56.3-10.9c0-0.1,2.1-5.5,5-13.5c9.1-27.7,10.4-52.2,10.4-70c0-1.8,2.7-1.9,2.7,0c0,12.5-2.4,56.9,31.1,68.8
				c13.2,4.7,40.7,8.9,68.6,12.1c25.2,2.9,43.5,12.8,43.5,77.5c0,39.4-8.3,44.8-51.5,44.8c-35,0-48.4,0.9-48.4-26.9
				c0-22.5,22.3-20.1,38.7-20.1c7.4,0,2-5.5,2-19.4c0-13.8,8.6-21.8,0.5-22c-57-1.6-90.6-0.1-90.6,71.3c0,64.7,24.8,76.8,105.7,76.8
				c63.5,0,85.8-2.1,112-83.4c5.2-16,17.7-65,25.3-147.3C537.1,298.3,527.8,141.4,520.4,101.8L520.4,101.8z M96.8,113.2L96.8,113.2
				h54.5c3.1,0,5.6-2.5,5.6-5.6c0,0-0.7-46.7-0.7-59.7v-0.2c0-10.7,2.2-20,6.1-27.7l1.9-3.5c-0.2,0-0.4,0.1-0.6,0.3L57.8,121.8
				c-0.2,0.2-0.3,0.4-0.4,0.6c2.2-1.1,5.2-2.6,5.6-2.7C72.2,115.5,83.4,113.2,96.8,113.2L96.8,113.2z"/>
		</g>
	</g>
</g>
</svg>
