<?xml version="1.0" encoding="UTF-8"?>
<!-- Generator: Adobe Illustrator 15.0.0, SVG Export Plug-In . SVG Version: 6.00 Build 0)  -->
<!DOCTYPE svg PUBLIC "-//W3C//DTD SVG 1.1//EN" "http://www.w3.org/Graphics/SVG/1.1/DTD/svg11.dtd">
<svg version="1.1" id="Layer_1" xmlns="http://www.w3.org/2000/svg" xmlns:xlink="http://www.w3.org/1999/xlink" x="0px" y="0px" width="543.306px" height="188.531px" viewBox="0 0 543.306 188.531" enable-background="new 0 0 543.306 188.531" xml:space="preserve">
<g id="layer1" transform="translate(4636.4128,-2865.2086)">
	
		<linearGradient id="path4423_1_" gradientUnits="userSpaceOnUse" x1="-9206.4736" y1="200.2085" x2="-9206.4736" y2="99.9961" gradientTransform="matrix(1.3509 0 0 -1.3509 7866.9971 3136.7144)">
		<stop offset="0" style="stop-color:#196EEF"/>
		<stop offset="0.5" style="stop-color:#186DEE"/>
		<stop offset="1" style="stop-color:#1065E7"/>
	</linearGradient>
	<path id="path4423" fill="url(#path4423_1_)" d="M-4552.399,2957.072h23.364v32.817c-7.29,2.342-16.495,3.626-26.063,3.626   c-38.779,0-61.57-33.209-61.57-65.64c0-31.808,20.615-54.122,49.376-54.122c18.2,0,28.791,6.166,38.265,14.755v10.707   l17.764-17.765c-11.236-7.602-27.506-14.826-50.762-14.826c-51.052,0-74.388,36.523-74.388,66.539   c0,42.725,31.119,68.462,70.225,68.462c18.961,0,35.797-2.894,55.245-8.306v-33.904c0-1.734,0.761-2.925,1.9-3.968l6.137-6.137   h-41.674L-4552.399,2957.072z"/>
	
		<linearGradient id="path4425_1_" gradientUnits="userSpaceOnUse" x1="-9117.9443" y1="166.1377" x2="-9117.9443" y2="101.34" gradientTransform="matrix(1.3509 0 0 -1.3509 7866.9971 3136.7144)">
		<stop offset="0" style="stop-color:#DE5744"/>
		<stop offset="0.5" style="stop-color:#DB4632"/>
		<stop offset="1" style="stop-color:#D13D29"/>
	</linearGradient>
	<path id="path4425" fill="url(#path4425_1_)" d="M-4447.733,2912.476c-29.386,0-47.592,21.471-47.592,44.263   c0,19.673,14.667,43.028,44.386,43.028c28.587,0,46.128-21.514,46.128-44.704c0-21.603-17.141-42.581-42.921-42.581V2912.476z    M-4452.607,2918.735c20.716,0,29.943,26.992,29.943,46.245c0,28.629-21.478,29.195-24.046,29.195   c-9.829,0-16.698-5.941-21.841-13.73c-4.527-7.182-8.952-20.522-8.952-33.557c0-12.984,4.251-19.324,10.939-23.989   c5.469-3.496,10.59-4.164,13.949-4.164H-4452.607z"/>
	
		<linearGradient id="path4429_1_" gradientUnits="userSpaceOnUse" x1="-8977.9863" y1="166.1372" x2="-8977.9863" y2="62.0951" gradientTransform="matrix(1.3509 0 0 -1.3509 7866.9971 3136.7144)">
		<stop offset="0" style="stop-color:#1A6FEF"/>
		<stop offset="0.25" style="stop-color:#1E72EF"/>
		<stop offset="0.5" style="stop-color:#166BEC"/>
		<stop offset="0.75" style="stop-color:#1267E9"/>
		<stop offset="1" style="stop-color:#1063E5;stop-opacity:0.87"/>
	</linearGradient>
	<path id="path4429" fill="url(#path4429_1_)" d="M-4255.644,2912.468c-25.665,0-39.548,16.249-39.548,34.391   c0,13.811,9.895,29.393,30.307,29.393h5.164c0,0-1.406,3.417-1.414,6.717c0,4.868,1.747,7.602,5.462,11.811   c-35.123,2.139-49.24,16.305-49.24,31.531c0,13.333,12.768,26.455,39.598,26.455c31.766,0,48.218-17.635,48.218-34.941   c0-12.201-6.078-18.891-21.473-30.423c-4.525-3.519-5.403-5.761-5.403-8.393c0-3.772,2.256-6.269,3.083-7.21   c1.459-1.539,3.981-3.295,4.926-4.135c5.171-4.381,12.476-10.867,12.476-23.808c0-8.878-3.691-16.517-12.106-23.669h10.271   l7.718-7.718h-38.032L-4255.644,2912.468z M-4262.724,2918.242c4.657,0,8.545,1.646,12.651,5.063   c4.555,4.105,11.831,15.139,11.831,28.791c0,14.732-11.447,18.765-17.641,18.765c-3.033,0-6.668-0.848-9.742-2.952   c-6.833-4.431-13.617-16.227-13.617-30.262C-4279.241,2924.981-4271.697,2918.242-4262.724,2918.242z M-4252.561,3000.371   c1.958,0,3.365,0.16,3.365,0.16s4.621,3.299,7.85,5.766c7.515,5.941,12.201,10.481,12.201,18.569   c0,11.12-10.315,19.841-27.021,19.841c-18.338,0-32.354-8.539-32.354-22.48C-4288.519,3010.679-4278.915,3000.74-4252.561,3000.371   L-4252.561,3000.371z"/>
	
		<linearGradient id="path4433_1_" gradientUnits="userSpaceOnUse" x1="-8928.0762" y1="198.3877" x2="-8928.0762" y2="103.1597" gradientTransform="matrix(1.3509 0 0 -1.3509 7866.9971 3136.7144)">
		<stop offset="0" style="stop-color:#0AA561"/>
		<stop offset="0.5" style="stop-color:#009B58"/>
		<stop offset="1" style="stop-color:#00914B"/>
	</linearGradient>
	<path id="path4433" fill="url(#path4433_1_)" d="M-4212.048,2997.222h35.232l5.367-5.368l-10.104-1.262   c-2.721-0.333-4.338-2.684-4.338-4.962v-106.421c0-2.096,0.972-3.17,1.684-3.852l6.354-6.354h-30.046l-7.82,7.819h11.68v110.237   c0,1.566-0.494,2.632-1.553,3.729L-4212.048,2997.222z"/>
	
		<linearGradient id="path4435_1_" gradientUnits="userSpaceOnUse" x1="-8882.0273" y1="166.1377" x2="-8882.0273" y2="101.5186" gradientTransform="matrix(1.3509 0 0 -1.3509 7866.9971 3136.7144)">
		<stop offset="0" style="stop-color:#DE5644"/>
		<stop offset="0.5" style="stop-color:#DA4531"/>
		<stop offset="1" style="stop-color:#CE3A28"/>
	</linearGradient>
	<path id="path4435" fill="url(#path4435_1_)" d="M-4129.079,2912.476c-19.671,0-40.57,14.994-40.57,41.914   c0,22.232,14.994,45.378,43.008,45.378c6.985,0,12.738-0.898,18.129-3.372c5.779-2.662,11.344-6.985,15.406-12.418   c-7.668,3.865-13.921,6.404-22.226,6.404c-15.784,0-31.003-11.388-36.328-32.322l55.762-22.539   c-3.222-11.483-12.303-23.045-33.173-23.045H-4129.079z M-4132.721,2918.634c10.556,0,18.187,8.683,18.187,15.479   c0,2.198-1.378,3.359-4.105,4.433l-34.275,13.862c0,0-0.928-4.316-0.928-8.98   C-4153.843,2923.865-4139.698,2918.635-4132.721,2918.634L-4132.721,2918.634z"/>
	
		<linearGradient id="path4439_1_" gradientUnits="userSpaceOnUse" x1="-9044.1309" y1="165.9971" x2="-9044.1309" y2="101.4677" gradientTransform="matrix(1.3509 0 0 -1.3509 7866.9971 3136.7144)">
		<stop offset="0" style="stop-color:#FFC01A"/>
		<stop offset="0.5" style="stop-color:#FFBA03"/>
		<stop offset="1" style="stop-color:#FFB300"/>
	</linearGradient>
	<path id="path4439" fill="url(#path4439_1_)" d="M-4348.022,2912.476c-29.385,0-47.592,21.471-47.592,44.263   c0,19.673,14.668,43.028,44.386,43.028c28.588,0,46.128-21.514,46.128-44.704c0-21.603-17.14-42.581-42.921-42.581V2912.476z    M-4352.896,2918.735c20.717,0,29.944,26.992,29.944,46.245c0,28.629-21.479,29.195-24.047,29.195   c-9.829,0-16.698-5.941-21.841-13.73c-4.526-7.182-8.951-20.522-8.951-33.557c0-12.984,4.25-19.324,10.939-23.989   c5.468-3.496,10.59-4.164,13.949-4.164H-4352.896z"/>
</g>
</svg>