<?xml version="1.0" encoding="utf-8"?>
<!-- Generator: Adobe Illustrator 21.0.0, SVG Export Plug-In . SVG Version: 6.00 Build 0)  -->
<svg version="1.1" id="Layer_1" xmlns="http://www.w3.org/2000/svg" xmlns:xlink="http://www.w3.org/1999/xlink" x="0px" y="0px"
	 viewBox="0 0 249 249" style="enable-background:new 0 0 249 249;" xml:space="preserve">
<style type="text/css">
	.st0{opacity:0.75;fill:#A0A0A0;enable-background:new    ;}
	.st1{fill:#5F6062;}
	.st2{fill:#A6A7A4;}
	.st3{fill:#8DC63F;}
	.st4{fill:#E16F2B;}
	.st5{fill:#4FB3CF;}
</style>
<g>
	<g id="_x23_a0a0a0be">
		<path class="st0" d="M50.7,20.5c1.8-1.6,4.3-0.9,6.4-1.1c45.7,0,91.3,0,137,0c1.3-0.1,2.4,0.2,3.4,1c-5.8-0.5-11.6-0.5-17.4-0.5
			c-37.3,0-74.7,0-112,0C62.3,19.9,56.5,19.9,50.7,20.5z"/>
		<path class="st0" d="M45.2,22.6c0.2-1.8,3.4-2.3,4.9-2C49.1,22.2,47,22.7,45.2,22.6z"/>
		<path class="st0" d="M198.2,20.8c1.5-1,2.4-0.7,2.7,0.9C199.9,21.9,198.9,21.6,198.2,20.8z"/>
		<path class="st0" d="M210.7,26.8c1.4-0.8,3.7,1.2,3.3,2.7C212.4,29.6,211.5,28,210.7,26.8z"/>
		<path class="st0" d="M32.3,31.7c-0.1-1.8,2.2-4.1,4.1-3.7C35.6,29.7,34.3,31.4,32.3,31.7z"/>
		<path class="st0" d="M221.1,39.6l0.5-0.1c1.1,1,1.8,2.9,1.4,4.4C221.5,42.9,220.9,41.2,221.1,39.6z"/>
		<path class="st0" d="M98.9,45.6c0.4-0.3,1.1-0.9,1.5-1.2l0.1,0.8C100.1,45.3,99.3,45.5,98.9,45.6z"/>
		<path class="st0" d="M131.4,44.4c0.5,0.3,1.4,0.8,1.8,1c-0.4,0-1.3-0.1-1.8-0.1L131.4,44.4z"/>
		<path class="st0" d="M222.9,45c1.8-0.4,2.1,2.7,0.9,3.5C223.2,47.4,222.6,46.3,222.9,45z"/>
		<path class="st0" d="M24.4,48.6c-1-1.5-0.7-2.5,0.9-2.8C25.5,46.9,25.2,47.8,24.4,48.6z"/>
		<path class="st0" d="M95.7,46.2c0.5-0.2,1.5-0.6,2-0.8l-0.2,0.9l-1,0.4L95.7,46.2z"/>
		<path class="st0" d="M134.4,45.4c0.5,0.2,1.4,0.7,1.9,0.9l-0.8,0.5l-1-0.5L134.4,45.4z"/>
		<path class="st0" d="M89.8,49.1c0.8-1,1.9-2,3.3-1.8l0.1,0.6C92.3,49.2,91.2,49.6,89.8,49.1z"/>
		<path class="st0" d="M144.5,51.1c0,0,0.1,0.1,0.1,0.1C144.6,51.2,144.6,51.1,144.5,51.1z"/>
		<path class="st0" d="M224.3,49.9c1.2,1.3,0.9,3,0.9,4.6c-0.1,15.3,0,30.7,0,46l-1.1,0.1C224.4,83.7,224,66.8,224.3,49.9z"/>
		<path class="st0" d="M147.2,52.4c1.1,0.1,1.9,0.7,2.4,1.7C148,54.7,147.2,54.1,147.2,52.4z"/>
		<path class="st0" d="M76.2,60.5c1.8-2.9,4.3-5.3,7.3-6.9c-2.1,2.4-4.4,4.5-6.6,6.9L76.2,60.5z"/>
		<path class="st0" d="M161.5,68.1c1.8,1.2,2.9,3.1,2.7,5.2C162.5,73,161.2,69.8,161.5,68.1z"/>
		<path class="st0" d="M66.1,77.3c0.2-0.5,0.7-1.4,0.9-1.9l0.4,0.8l-0.4,1L66.1,77.3z"/>
		<path class="st0" d="M83,84.3c0.7-3,2.1-5.8,4.1-8.2C85.8,78.9,84.4,81.6,83,84.3z"/>
		<path class="st0" d="M165.5,76.2c0.2,0.5,0.5,1.5,0.7,2l-0.9-0.2l-0.4-1L165.5,76.2z"/>
		<path class="st0" d="M65,80.2c0.2-0.5,0.8-1.4,1-1.8c0,0.4-0.1,1.3-0.1,1.8L65,80.2z"/>
		<path class="st0" d="M147.1,80.6l0.5-0.1c1.2,0.9,2,3,1.2,4.3C147.7,83.6,146.8,82.2,147.1,80.6z"/>
		<path class="st0" d="M63.9,84.2c-0.1-1.1,0.3-2,1-2.8C65.9,83,65.6,83.9,63.9,84.2z"/>
		<path class="st0" d="M167.5,82.5c0.6,1.1,1,2.3,0.9,3.5C166.6,86.4,166.3,83.3,167.5,82.5z"/>
		<path class="st0" d="M150.2,90.3c1.8,2.7,0.7,6.1,0.9,9.1l-1,0.1C150.2,96.5,150.2,93.4,150.2,90.3z"/>
		<path class="st0" d="M63,98.8c2,0.5,1.4,4.1,0.9,5.7C62.9,102.8,62.8,100.7,63,98.8z"/>
		<path class="st0" d="M203.2,101.5c0.5-1,1.4-1.4,2.6-1.2C205.5,101.8,204.7,102.2,203.2,101.5z"/>
		<path class="st0" d="M199,102.2c0.7-0.9,1.6-1.2,2.6-1C201.4,102.9,200.5,103.2,199,102.2z"/>
		<path class="st0" d="M63.9,106c1.6,0.3,2,1.2,1,2.7C64.1,108,63.7,107.1,63.9,106z"/>
		<path class="st0" d="M83.2,106.7c0.3,0.4,0.8,1.4,1.1,1.8l-0.9-0.1C83.3,108,83.2,107.1,83.2,106.7z"/>
		<path class="st0" d="M187.7,108.3c0.1,0,0.1-0.1,0.2-0.1C187.8,108.2,187.7,108.2,187.7,108.3z"/>
		<path class="st0" d="M166.5,111.6c-1-1.5-0.7-2.4,1-2.7C167.6,110.1,167.3,111,166.5,111.6z"/>
		<path class="st0" d="M65.1,110l0.9,0.2l0.4,1l-0.5,0.8C65.6,111.5,65.2,110.5,65.1,110z"/>
		<path class="st0" d="M174.3,119.8c2-3.3,4.6-6.3,8.2-8.1C179.9,114.5,177.2,117.3,174.3,119.8z"/>
		<path class="st0" d="M164.4,114.9l0.9-0.2c-0.2,0.5-0.6,1.5-0.8,2l-0.5-0.8L164.4,114.9z"/>
		<path class="st0" d="M67.2,115.5h0.7c0.8,2,1.7,3.9,2.5,5.9l0.9,0.2l-0.4,1.8C69.6,120.8,68.1,118.3,67.2,115.5z"/>
		<path class="st0" d="M89.5,117.2c1.7,0.9,3.2,2.1,4,4C91.7,121.8,88.9,118.9,89.5,117.2z"/>
		<path class="st0" d="M211.2,117.5c3.1,0.2,6.5-0.7,9.4,0.9c-3.1-0.1-6.2-0.1-9.4,0V117.5z"/>
		<path class="st0" d="M221,118.5c1.7-0.1,4.2-0.2,4.2,2.1c0.1,21,0,42,0,63c0.2,1.2-0.5,2.2-1.2,3.1c0.6-22.4,0.1-44.9,0.3-67.3
			C223.1,119,222.1,118.7,221,118.5z"/>
		<path class="st0" d="M160.5,123c0,0,0.1-0.1,0.1-0.2C160.5,122.9,160.5,123,160.5,123z"/>
		<path class="st0" d="M156.5,130c0,0,0.1-0.1,0.1-0.2C156.6,129.9,156.5,130,156.5,130z"/>
		<path class="st0" d="M77.6,131c0,0,0.1,0.1,0.1,0.1C77.7,131.1,77.7,131,77.6,131z"/>
		<path class="st0" d="M166.7,132.2c0,0,0.1-0.1,0.1-0.1C166.8,132,166.8,132.1,166.7,132.2z"/>
		<path class="st0" d="M132.1,135.3l0.8,0.2l0.9,0.2c4,4.9,6.7,10.8,11.3,15.2c0.9,0.9,1.9,1.9,2.9,2.8c-6.3-3.9-12.5-8-19.2-11.3
			l0.3-0.7C129.9,139.5,131,137.4,132.1,135.3z"/>
		<path class="st0" d="M162.7,139.2c0,0,0.1-0.1,0.1-0.1C162.8,139,162.8,139.1,162.7,139.2z"/>
		<path class="st0" d="M148.3,144.7c-0.3-1.5,1.1-4.2,2.8-4.1C150.9,142.4,150.2,144.2,148.3,144.7z"/>
		<path class="st0" d="M93.7,142.8c0,0,0.1,0.1,0.1,0.1C93.8,142.9,93.7,142.8,93.7,142.8z"/>
		<path class="st0" d="M42.9,144.4c0.5-0.2,1.4-0.7,1.9-1l-0.1,0.9C44.3,144.3,43.4,144.4,42.9,144.4z"/>
		<path class="st0" d="M39.8,145.3c0.5-0.2,1.4-0.7,1.8-1l-0.1,0.9l-0.9,0.5L39.8,145.3z"/>
		<path class="st0" d="M75.4,144.4c0.5,0.2,1.4,0.7,1.9,0.9l-0.8,0.4l-1-0.5L75.4,144.4z"/>
		<path class="st0" d="M35,147.2c0.9-1.3,2.5-2,4.1-1.8l0.1,0.5C38.3,147,36.3,147.8,35,147.2z"/>
		<path class="st0" d="M78.2,145.4c1.6-0.1,3.1,0.5,4.1,1.8c-1.3,0.7-3.3-0.2-4.2-1.3L78.2,145.4z"/>
		<path class="st0" d="M98,145.7c1.5-0.3,4.1,1.1,4.1,2.8C100.3,148.4,98.5,147.5,98,145.7z"/>
		<path class="st0" d="M178.4,147c0.1,0,0.2-0.1,0.2-0.2l-0.1,0.1L178.4,147z"/>
		<path class="st0" d="M32.7,149.2c0,0,0.1-0.1,0.1-0.1C32.8,149.2,32.7,149.2,32.7,149.2z"/>
		<path class="st0" d="M84.5,149.1c0,0,0.1,0.1,0.1,0.1C84.6,149.2,84.5,149.2,84.5,149.1z"/>
		<path class="st0" d="M145.3,149c0-0.1,0.1-0.2,0.1-0.2C145.4,148.8,145.4,149,145.3,149z"/>
		<path class="st0" d="M112.7,153.8c0,0,0.1,0.1,0.1,0.1C112.8,153.9,112.7,153.9,112.7,153.8z"/>
		<path class="st0" d="M150.2,154.5c1.1,0,2.1,0.4,3,1.1v0.6C152.1,157.1,149.7,155.8,150.2,154.5z"/>
		<path class="st0" d="M103.5,160.1c0,0,0.1,0.1,0.2,0.1C103.6,160.2,103.5,160.1,103.5,160.1z"/>
		<path class="st0" d="M118.7,160.1c0,0,0.1-0.1,0.1-0.2C118.8,160,118.7,160.1,118.7,160.1z"/>
		<path class="st0" d="M169.3,162.5l0.4-0.1c-0.8,1.9-0.4,3.7,1.7,4.4c0.1,0.1,0.4,0.2,0.5,0.3c1.9,1,3.8,2.1,5.5,3.4
			c-2.1-0.9-3.7,0.9-5.4,1.9c-4,2.9-8.1,5.5-12.1,8.4c0.2,0.3,0.7,0.8,1,1.1l0.2,0.4c-0.5-0.1-1.5-0.3-2-0.4
			c-1.4,2.1-2.7,4.2-4.1,6.3l-0.1-1.7l0.7-0.2c0.8-1.6,1.7-3.1,2.6-4.5c2.7-2.9,4.1-6.6,6.2-9.9C166.5,169,168.1,165.8,169.3,162.5z
			"/>
		<path class="st0" d="M110.5,164.1L110.5,164.1l0.2,0.1C110.6,164.1,110.5,164.1,110.5,164.1z"/>
		<path class="st0" d="M112.2,167.2c0.5,0.4,0.9,0.8,1.4,1.2c-3,4.4-5.4,9.2-8.2,13.8c-2.5-1.5-5-3-7.4-4.6
			C102.7,174.1,108,171.3,112.2,167.2z"/>
		<path class="st0" d="M138.7,168.8c0,0,0.1,0.1,0.1,0.1C138.8,168.9,138.7,168.9,138.7,168.8z"/>
		<path class="st0" d="M121.5,191.6c4.1-6.8,7.7-13.8,11.6-20.6c-0.5,1.2-1,2.4-1.5,3.6c0.5,0.5,1.5,1.5,2,2l0.2,0.2l0.2,0.1
			c1.6,0.9,3.3,1.7,4.9,2.6c-3.3,5.5-6.8,11-9.6,16.8c-1.5-1.1-3.1-2.2-4.7-3.2c-0.1,0-0.2-0.1-0.2-0.1
			C123.7,192.7,122.2,192,121.5,191.6z"/>
		<path class="st0" d="M179.5,172.1L179.5,172.1l0.1,0.1C179.6,172.1,179.5,172.1,179.5,172.1z"/>
		<path class="st0" d="M140.8,177.2c0,0,0.1-0.1,0.1-0.1C140.8,177.1,140.8,177.1,140.8,177.2z"/>
		<path class="st0" d="M164.7,183.8c0,0,0.1,0.1,0.1,0.1C164.8,183.9,164.7,183.8,164.7,183.8z"/>
		<path class="st0" d="M200.5,184c0,0,0.1,0.1,0.2,0.1C200.6,184.1,200.5,184,200.5,184z"/>
		<path class="st0" d="M205.3,185.3c1.1-0.2,2,0.1,2.7,0.9C206.6,187.3,205.7,186.9,205.3,185.3z"/>
		<path class="st0" d="M168.5,186.4l1.7,0.1l0.2,0.7c1.6,0.8,3.2,1.7,4.9,2.6l0.1,0.6C172.8,189.4,170.5,188,168.5,186.4z"/>
		<path class="st0" d="M154.5,188.3l0.5,0.3c1.5,1.1,3.1,2.2,4.7,3.2c0.1,0,0.1,0.1,0.2,0.1c8.6,4.1,16.6,9.4,24.9,13.9
			c0.2,0.2,0.7,0.6,0.9,0.8l0.2,0.2l0.2,0.1c1.4,0.8,2.8,1.5,4.2,2.3l0.2,0.9c0.5,0.1,1.4,0.2,1.9,0.3c6.5,3.6,13.2,7.1,19.3,11.4
			l0.1,0.1l0.1,0.1c1.5,0.8,3,1.5,4.5,2.2l0.2,0.9c0.5,0.1,1.4,0.3,1.8,0.4c2,1,3.9,2.1,5.9,3.1c0-7.8,0-15.5,0-23.3
			c-1.7,0.1-3.4,0.1-5.1,0.1v-1c1.9,0,3.9-0.1,5.8,0.3c0.4,8.2,0.5,16.4,0,24.6c-12.8-0.2-25.7-0.5-38.5,0.2
			c-5.4-3.8-11.3-6.5-16.7-10.3c0,0-0.1-0.1-0.2-0.1c-1.5-0.7-3-1.6-4.5-2.3l-0.2-0.9c-0.5-0.1-1.4-0.3-1.8-0.3
			c-5.9-2.8-11.1-6.9-17-9.3c-0.5,0-1.5,0.1-2,0.2c2.7-2.8,4.4-6.4,6.4-9.7C151.9,194,153.8,191.4,154.5,188.3z"/>
		<path class="st0" d="M183.7,194.8c0,0,0.1,0.1,0.1,0.1C183.8,194.9,183.7,194.9,183.7,194.8z"/>
		<path class="st0" d="M24.3,198.7c1.1,0.8,1.4,2.2,1.1,3.4C23.7,202.5,23.4,199.7,24.3,198.7z"/>
		<path class="st0" d="M189.8,198.9c1.4-0.5,2.6-0.1,3.4,1.2l-0.1,0.6C191.7,200.9,190.6,199.9,189.8,198.9z"/>
		<path class="st0" d="M115.5,201c0,0,0.1-0.1,0.1-0.2C115.5,200.9,115.5,201,115.5,201z"/>
		<path class="st0" d="M125.7,203.2c0,0,0.1-0.1,0.1-0.1C125.8,203,125.8,203.1,125.7,203.2z"/>
		<path class="st0" d="M198.8,202.8l0.8-0.5l1.1,0.3l0.2,0.9C200.3,203.3,199.3,203,198.8,202.8z"/>
		<path class="st0" d="M202,203.7c1.5-1,2.4-0.6,2.7,1C203.6,204.9,202.7,204.5,202,203.7z"/>
		<path class="st0" d="M206.1,204.9c1.5-0.8,5.4-1.3,5.8,0.8C209.9,205.9,208,205.5,206.1,204.9z"/>
		<path class="st0" d="M121.8,210.2c0,0,0.1-0.1,0.1-0.2C121.8,210.1,121.8,210.1,121.8,210.2z"/>
		<path class="st0" d="M141.5,211c0,0,0-0.1,0.1-0.1C141.5,210.9,141.5,210.9,141.5,211z"/>
		<path class="st0" d="M107.3,215.7c-0.3-1.5,1.1-4.1,2.7-4.1C110,213.4,109.2,215.2,107.3,215.7z"/>
		<path class="st0" d="M116.2,218.4c0.1-1.8,0.9-3.6,2.8-4.1C119.3,215.8,117.9,218.4,116.2,218.4z"/>
		<path class="st0" d="M137.5,218c0,0,0.1-0.1,0.1-0.2C137.6,217.9,137.5,218,137.5,218z"/>
		<path class="st0" d="M104.5,220c0,0,0.1-0.1,0.1-0.2C104.5,219.9,104.5,219.9,104.5,220z"/>
		<path class="st0" d="M38.5,223.1c0,0,0.1,0.1,0.1,0.1C38.6,223.2,38.5,223.1,38.5,223.1z"/>
		<path class="st0" d="M52,228.7c4.3,0.5,8.6,0.5,12.9,0.1c-0.8,0.2-1.5,0.5-2.3,0.7C59.1,229.4,55.4,229.9,52,228.7z"/>
	</g>
	<g id="_x23_5f6062ff">
		<path class="st1" d="M50.1,20.6l0.6-0.1c5.8-0.6,11.6-0.6,17.4-0.6c37.3,0,74.7,0,112,0c5.8,0,11.6,0,17.4,0.5l0.6,0.4
			c0.8,0.8,1.7,1.1,2.7,0.9l1.5-0.1c0.1,0.1,0.4,0.3,0.6,0.4c0.5,0.2,1.4,0.5,1.9,0.7c1.2,0.7,2.5,1.4,3.7,2.1c0,0,0.1,0.1,0.2,0.1
			c0.5,0.5,1.4,1.5,1.9,1.9c0.8,1.2,1.7,2.8,3.3,2.7l1.1,0.1v1.1c-0.1,1.3,0.6,1.9,1.8,2l1.1,0.1c0,0.4,0.1,1.3,0.1,1.8
			c0,1.1,0.6,2,1.6,2.5l1.1,0.7c0.1,0,0.2,0.1,0.2,0.2v1.7c-0.2,1.6,0.4,3.4,1.9,4.3l-0.1,1.2c-0.3,1.3,0.3,2.4,0.9,3.5
			c0.1,0.3,0.4,1.1,0.5,1.4c-0.3,16.9,0.1,33.8-0.2,50.6c-0.2,0-0.6-0.1-0.8-0.2c-5.5-1.7-11.3-1-16.8-0.1l-0.7,0
			c-1.2-0.2-2.1,0.2-2.6,1.2l-1.5-0.2c-1-0.2-1.9,0.1-2.6,1l-1.2,0.9c-0.1,0-0.1,0.1-0.2,0.1c-0.7,0.3-2,1-2.7,1.3
			c-0.5,0.1-1.4,0.3-1.9,0.4l-0.3,0.1l-0.2,0.2l-1.6,1c-0.1,0-0.1,0.1-0.2,0.1c-0.7,0.5-2.1,1.4-2.8,1.9c-0.1,0-0.1,0.1-0.2,0.1
			l-1.6,0.2c-1.2,0-2,0.6-2.4,1.7c-0.1,0.3-0.4,0.8-0.5,1.1l-0.7,0.4c-3.5,1.8-6.1,4.8-8.2,8.1c-0.4,0.4-1,1.1-1.4,1.4
			c-1.1,0.4-1.7,1.1-1.8,2.2l-0.1,1.6c0,0.1-0.1,0.2-0.1,0.3c-0.5,0.7-1.4,2.2-1.9,2.9c0,0-0.1,0.1-0.1,0.1l-1,1.6l-0.1,0.2
			l-0.1,0.2l-0.9,1.8c0,0-0.1,0.1-0.1,0.1c-0.4,0.7-1.3,2.2-1.8,2.9c0,0-0.1,0.1-0.1,0.2l-1,1.7l-0.1,0.2l-0.1,0.2l-0.8,1.8
			c0,0-0.1,0.1-0.1,0.1c-0.4,0.7-1.3,2.2-1.8,2.9c0,0-0.1,0.1-0.1,0.1l-1,1.7l-0.1,0.2l-0.1,0.2c-0.4,0.7-1.2,2.2-1.7,2.9
			c0,0-0.1,0.1-0.1,0.1l-1,1.7c0,0.1-0.1,0.1-0.1,0.2l-1,1.7l-0.1,0.1l-0.1,0.1c-0.4,0.7-1.3,2.1-1.7,2.8c0,0.1-0.1,0.2-0.1,0.2
			l-0.7,1.3c-0.9-0.7-1.9-1.1-3-1.1l-1.6-0.1c-0.1,0-0.1-0.1-0.2-0.2l-0.5-0.5c-1-0.9-1.9-1.9-2.9-2.8l0.3-1.9
			c0-0.1,0.1-0.2,0.1-0.2c0.5-0.7,1.5-2.1,1.9-2.8c0-0.1,0.1-0.1,0.1-0.2l0.8-1.1c1.9-0.5,2.6-2.4,2.8-4.1l0.3-1.5
			c0-0.1,0.1-0.3,0.1-0.4l0.9-1.6c0-0.1,0.1-0.2,0.1-0.2c0.4-0.7,1.3-2.1,1.8-2.9c0,0,0.1-0.1,0.1-0.2l1-1.7l0.1-0.2l0.1-0.2
			l0.9-1.8c0,0,0.1-0.1,0.1-0.2c0.4-0.7,1.3-2.2,1.8-2.9c0,0,0.1-0.1,0.1-0.2l1-1.7l0.1-0.2l0.1-0.2l0.8-1.8c0,0,0.1-0.1,0.1-0.2
			c0.4-0.7,1.3-2.1,1.8-2.9c0-0.1,0.1-0.2,0.1-0.2l0.9-1.9c0,0,0.1-0.1,0.1-0.1l1-1.1c0.2-0.5,0.6-1.5,0.8-2l-0.1-1.7
			c0.1-0.1,0.2-0.2,0.2-0.3l1.1-1.1c0.8-0.7,1.2-1.6,1-2.7l0-1.4c0.7-0.9,0.9-1.8,0.8-2.9c0-0.3,0-1,0.1-1.3
			c1.3-5.4,1.1-11.1,0.1-16.6l0-0.7c0.2-1.3-0.2-2.5-0.9-3.5l-0.4-1c-0.2-0.5-0.7-1.4-0.9-1.9l0-1.3c-0.2-0.5-0.5-1.5-0.7-2
			l-1.1-0.9c0-0.1-0.1-0.2-0.1-0.3l-0.1-1.7c0.2-2.1-0.9-4.1-2.7-5.2l-1-0.9c0,0-0.1-0.1-0.1-0.1c-0.3-0.7-0.9-2-1.2-2.7
			c-0.1-1.1-0.7-1.9-1.7-2.3c-2.9-2.3-5.6-5-7.9-8c-0.5-1-1.3-1.6-2.4-1.7c-0.6-0.3-1.9-0.9-2.5-1.2c0,0-0.1-0.1-0.1-0.1
			c-0.7-0.5-2.2-1.4-2.9-1.8c0,0-0.1-0.1-0.2-0.1l-1.7-1l-0.2-0.1l-0.2-0.1l-1.8-0.7c0,0-0.1-0.1-0.2-0.1l-1.1-0.9
			c-0.5-0.2-1.4-0.7-1.9-0.9l-1.1,0c-0.5-0.2-1.4-0.8-1.8-1l-1.3,0c-0.5-0.2-1.5-0.7-1.9-0.9c-0.5-0.1-1.5-0.3-2-0.4
			c-1.2-0.6-2.5-1-3.9-0.7c-0.8-0.1-2.4-0.2-3.2-0.3c-1.8-1.1-4.1-1.1-5.9,0c-0.8,0.1-2.4,0.2-3.2,0.3c-1.4-0.2-2.7,0.1-3.9,0.7
			c-0.5,0.1-1.6,0.3-2.1,0.4c-0.5,0.2-1.5,0.6-1.9,0.9h-1.7c-0.4,0.3-1.1,0.9-1.5,1.2l-1.2-0.2c-0.5,0.2-1.5,0.6-2,0.8l-0.8,1
			c0,0-0.2,0.2-0.2,0.2L93,47.4c-1.4-0.2-2.5,0.8-3.3,1.8l-1,1c0,0-0.1,0.1-0.1,0.1c-0.7,0.5-2.1,1.5-2.8,2c0,0-0.1,0.1-0.2,0.1
			c-0.6,0.3-1.7,1-2.3,1.4c-3,1.6-5.5,4-7.3,6.9l-0.5,0.7L75,62.1c0,0-0.1,0.1-0.1,0.2c-0.5,0.7-1.5,2.1-1.9,2.8
			c0,0-0.1,0.1-0.1,0.2c-0.5,0.7-1.4,2.1-1.9,2.9c0,0-0.1,0.1-0.1,0.2l-1,1.7c0,0.1-0.1,0.2-0.1,0.2L68.9,72c0,0.1-0.1,0.2-0.1,0.3
			L67.9,74c0,0-0.1,0.1-0.1,0.2L67,75.3c-0.2,0.5-0.7,1.5-0.9,1.9v1.1c-0.3,0.5-0.8,1.4-1,1.8l-0.1,1.2c-0.7,0.8-1,1.7-1,2.8
			l-0.2,1.3c-0.6,1.9-1,3.9-0.7,5.8c0.2,2.5,0.2,4.9,0,7.4c-0.3,1.9-0.2,4,0.9,5.7l-0.1,1.5c-0.1,1.1,0.2,2,1,2.7l0.1,1.4
			c0.2,0.5,0.6,1.5,0.8,2c0.3,0.4,0.9,1.2,1.3,1.5c0,0.5,0.1,1.5,0.1,1.9c0.8,2.8,2.3,5.3,3.7,7.8l0.1,0.3c0.2,1.1,0.8,1.9,1.8,2.3
			c0.3,0.1,1,0.4,1.3,0.6v1.1c-0.1,1.2,0.5,1.9,1.8,2.1l0.9,0.2l0.8,1.1c0,0,0.1,0.1,0.1,0.1c2.5,3,5.9,5.1,8.8,7.7l0.2,0.1l0.2,0.1
			c0.7,0.4,2.2,1.2,2.9,1.7c0,0,0.1,0.1,0.1,0.1l1.7,1l0.2,0.1l0.2,0.1l1.8,0.8c0,0,0.1,0.1,0.1,0.1c0.7,0.5,2.1,1.4,2.9,1.8
			c0,0,0.1,0.1,0.2,0.1l1.1,0.8c0.5,1.8,2.3,2.7,4.1,2.8l1.6,0.2c0.1,0,0.2,0.1,0.2,0.1l1.6,1l0.1,0.1l0.2,0.1
			c0.7,0.4,2.2,1.2,2.9,1.7c0,0,0.1,0.1,0.1,0.1l1.6,1l0.2,0.1l0.2,0.1l1.7,0.9c0,0,0.1,0.1,0.1,0.1c0.7,0.4,2.2,1.4,2.9,1.8
			c0,0,0.1,0.1,0.2,0.1l1.8,1c0.1,0,0.2,0.1,0.2,0.1l1.8,0.9c-0.2,0.6-0.6,1.6-0.8,2.2c0,0-0.1,0.1-0.1,0.2
			c-0.4,0.7-1.3,2.2-1.8,2.9c0,0-0.1,0.1-0.1,0.1l-1,1.3c-0.4,0.1-1.2,0.3-1.6,0.4l-0.3,0.6l-0.4,0.5c-0.2-0.1-0.5-0.4-0.6-0.5
			l-2.2-1.2l-0.1-0.1l-0.1-0.1c-0.7-0.4-2.2-1.3-2.9-1.7c0,0-0.1-0.1-0.2-0.1l-1.7-1l-0.2-0.1l-0.2-0.1l-1.8-0.8
			c0,0-0.1-0.1-0.2-0.1c-0.7-0.4-2.2-1.3-2.9-1.8c0,0-0.1-0.1-0.2-0.1l-1.7-1l-0.2-0.1l-0.2-0.1c-0.7-0.4-2.2-1.2-2.9-1.7
			c0,0-0.1-0.1-0.1-0.1l-1.7-1c0,0-0.1-0.1-0.2-0.1l-1.7-1l-0.1-0.1l-0.1-0.1c-0.7-0.4-2.2-1.3-2.9-1.7c0,0-0.1-0.1-0.2-0.1l-1.7-1
			l-0.2-0.1l-0.2-0.1l-1.8-0.8c0,0-0.1-0.1-0.1-0.1c-0.5-0.5-1.6-1.4-2.2-1.9c-1-1.3-2.5-1.9-4.1-1.8l-0.9-0.1
			c-0.5-0.2-1.4-0.7-1.9-0.9l-1.3,0c-0.5-0.2-1.4-0.7-1.9-0.9l-1.2-0.3c-0.8-0.7-1.8-1-2.8-0.8c-0.3,0-1,0-1.4,0
			c-5.4-1.2-11.1-1.2-16.5,0c-0.3,0-1,0-1.3,0c-1.1-0.1-2,0.1-2.9,0.8l-1.4,0.2c-0.5,0.2-1.4,0.7-1.9,1l-1.3,0
			c-0.4,0.2-1.4,0.7-1.8,1l-0.7,0c-1.6-0.2-3.2,0.5-4.1,1.8c-0.5,0.5-1.6,1.4-2.2,1.9c0,0-0.1,0.1-0.1,0.1l-1.8,0.8l-0.2,0.1
			l-0.2,0.1c-0.6,0.5-2,1.5-2.6,1.9c0,0-0.1,0.1-0.1,0.1c-0.8,0.4-2.3,1.2-3,1.7l-0.5,0.2c-0.2-33.6,0-67.2-0.1-100.8
			c0.1-1.6-0.2-3.2,0.3-4.8c0.7-0.8,1-1.8,0.9-2.8l0-1.4c0.2-0.5,0.7-1.4,0.9-1.9c0-0.4-0.1-1.2-0.1-1.6c0.8-1.4,1.6-2.9,2.2-4.4
			c0.3-0.1,0.8-0.4,1.1-0.5c1.1-0.4,1.7-1.2,1.7-2.3c0-0.4,0.1-1.2,0.1-1.7l1-0.3c2-0.2,3.3-2,4.1-3.7c0.2-0.4,0.6-1.1,0.7-1.5
			l1.1,0c1.1,0,1.9-0.5,2.4-1.6l0.8-0.9c0,0,0.1-0.1,0.2-0.1l1.7-1.1c0.1,0,0.3,0,0.4,0l1.5-0.1C47,22.7,49.1,22.2,50.1,20.6z"/>
		<path class="st1" d="M135.5,167.5l1.1,0.4c0.1,0,0.2,0.1,0.2,0.1l1.8,0.9c0,0,0.1,0.1,0.1,0.1c0.7,0.4,2.2,1.3,2.9,1.8
			c0,0,0.1,0.1,0.2,0.1l1.6,1l-0.6,1.2c0,0-0.1,0.1-0.1,0.2l-0.9,1.7l-0.1,0.1l-0.1,0.1l-0.9,1.8c0,0-0.1,0.1-0.1,0.1
			c-0.6,0.8-1.2,1.6-1.8,2.4c-1.6-0.9-3.3-1.7-4.9-2.6c-0.1-0.1-0.3-0.2-0.4-0.3c-0.5-0.5-1.5-1.5-2-2c0.5-1.2,1-2.4,1.5-3.6
			l0.2-0.4C134.7,170.4,135.5,168.9,135.5,167.5z"/>
		<path class="st1" d="M159.2,181.9c0.5,0.1,1.5,0.3,2,0.4l1.3,0.5l0.3,0.1l0.2,0.1l1.7,0.9c0,0,0.1,0.1,0.1,0.1
			c0.7,0.5,2.1,1.4,2.8,1.9l0.1,0.1l0.1,0.1l0.6,0.5c2.1,1.6,4.3,2.9,6.7,3.9l1.4,0.5c0.1,0,0.1,0.1,0.2,0.1c0.7,0.4,2.2,1.3,3,1.8
			c0,0,0.1,0.1,0.1,0.1l1.6,1l0.2,0.1l0.2,0.1l1.8,0.9c0,0,0.1,0.1,0.1,0.1c0.7,0.4,2.2,1.3,2.9,1.8c0,0,0.1,0.1,0.1,0.1l1.8,1
			l0.1,0.1l0.1,0.1l0.9,1c0.8,1,1.9,2,3.3,1.8h1.4c0.2,0.1,0.5,0.3,0.6,0.4c0.5,0.1,1.5,0.4,2,0.5c0.4,0.3,1.3,0.9,1.8,1.3
			c0.5,0.2,1.5,0.5,2,0.7l1.1,0.2c0.7,0.8,1.6,1.1,2.7,1l1.4,0.1c1.9,0.6,3.8,1.1,5.8,0.8c2.4-0.2,4.8-0.1,7.2-0.2
			c1.7,0,3.4-0.1,5.1-0.1c0,7.8,0,15.5,0,23.3c-2-1.1-3.9-2.1-5.9-3.1c-0.5-0.3-1.5-0.9-2-1.3c-1.5-0.7-3-1.5-4.5-2.2
			c0,0-0.2-0.1-0.2-0.1c-6.2-4.3-12.8-7.8-19.3-11.4c-0.5-0.3-1.5-0.9-2.1-1.2c-1.4-0.8-2.8-1.5-4.2-2.3c-0.1-0.1-0.3-0.2-0.4-0.3
			c-0.2-0.2-0.7-0.6-0.9-0.8c-8.4-4.5-16.3-9.8-24.9-13.9c-0.1,0-0.1-0.1-0.2-0.1c-1.6-1-3.1-2.1-4.7-3.2l0.2-0.4
			C156.5,186.1,157.8,184,159.2,181.9z"/>
		<path class="st1" d="M119.2,193.9c0.7-0.8,1.4-1.6,2.1-2.4l0.2,0.1c0.8,0.4,2.3,1,3,1.4c0.1,0,0.2,0.1,0.2,0.1
			c1.6,1,3.1,2.1,4.7,3.2c-0.4,0.7-1.1,2.1-1.4,2.8c0,0-0.1,0.1-0.1,0.1l-1,1.6l-0.1,0.2l-0.1,0.2l-0.9,1.7c0,0-0.1,0.1-0.1,0.1
			c-0.4,0.7-1.3,2.2-1.8,2.9c0,0-0.1,0.1-0.1,0.1l-1,1.7l-0.1,0.2l-0.1,0.2l-0.8,1.8c0,0-0.1,0.1-0.1,0.2c-0.5,0.7-1.4,2.1-1.8,2.9
			c0,0-0.1,0.1-0.1,0.1l-0.8,1.1c-1.8,0.5-2.7,2.3-2.8,4.1L116,220c0,0.1-0.1,0.2-0.1,0.2l-1,1.6l-0.1,0.1l-0.1,0.2
			c-0.4,0.7-1.2,2.2-1.7,2.9c0,0-0.1,0.1-0.1,0.1l-1,1.6l-0.1,0.2l-0.1,0.2l-0.6,1.1c-3.2,0.7-6.5,0.8-9.7,0.4
			c-0.4-0.2-1.3-0.8-1.8-1c0.5-0.7,1.4-2,1.9-2.6l0.1-0.1l0.1-0.1c0.4-0.7,1.3-2.1,1.8-2.8c0-0.1,0.1-0.2,0.1-0.2l0.9-1.8
			c0,0,0.1-0.1,0.1-0.2c0.5-0.7,1.4-2.1,1.9-2.8c0,0,0.1-0.1,0.1-0.2l0.8-1.1c1.8-0.5,2.7-2.3,2.7-4.1l0.2-1.7
			c0-0.1,0.1-0.2,0.1-0.2l1-1.6l0.1-0.1l0.1-0.2c0.4-0.7,1.2-2.2,1.7-2.9c0,0,0.1-0.1,0.1-0.1l1-1.6l0.1-0.2l0.1-0.2l0.8-1.8
			c0,0,0.1-0.1,0.1-0.2c0.4-0.7,1.3-2.2,1.8-2.9c0,0,0.1-0.1,0.1-0.1l1.1-1.5l0.2-0.3l0.1-0.3C118.9,195.2,119.1,194.3,119.2,193.9z
			"/>
		<path class="st1" d="M144,206.4c0.5,0,1.5-0.1,2-0.2c6,2.5,11.2,6.6,17,9.3c0.5,0.3,1.5,0.9,2,1.2c1.5,0.7,3,1.6,4.5,2.3
			c0,0,0.1,0.1,0.2,0.1c5.3,3.8,11.3,6.6,16.7,10.3c-18.5,0.1-37,0-55.4,0c0.4-0.6,1.1-1.9,1.5-2.5c0-0.1,0.1-0.2,0.1-0.2l0.9-1.8
			c0-0.1,0.1-0.2,0.1-0.2c0.4-0.7,1.3-2.1,1.8-2.9c0,0,0.1-0.1,0.1-0.2l1-1.7l0.1-0.2l0.1-0.2l0.9-1.8c0,0,0.1-0.1,0.1-0.2
			c0.4-0.7,1.3-2.2,1.8-2.9c0,0,0.1-0.1,0.1-0.1l1-1.7l0.1-0.2l0.1-0.2l0.8-1.8c0,0,0-0.1,0.1-0.1c0.5-0.7,1.4-2,1.8-2.7l0.2-0.2
			l0.1-0.2L144,206.4z"/>
	</g>
	<g id="_x23_a6a7a4fd">
		<path class="st2" d="M202.4,21.6c0.1,0.1,0.4,0.3,0.6,0.4C202.9,21.9,202.6,21.7,202.4,21.6z"/>
		<path class="st2" d="M43.3,22.7c0.1,0,0.3,0,0.4,0C43.6,22.7,43.4,22.7,43.3,22.7z"/>
		<path class="st2" d="M41.5,23.9c0,0,0.1-0.1,0.2-0.1C41.6,23.9,41.5,23.9,41.5,23.9z"/>
		<path class="st2" d="M38.2,26.5c0.1-1.6,0.9-2.2,2.4-1.6C40.1,26,39.3,26.5,38.2,26.5z"/>
		<path class="st2" d="M208.7,24.8c0,0,0.1,0.1,0.2,0.1C208.8,24.8,208.7,24.8,208.7,24.8z"/>
		<path class="st2" d="M215.2,30.7c1.5-0.1,2.1,0.5,1.8,2C215.7,32.6,215.1,31.9,215.2,30.7z"/>
		<path class="st2" d="M29.5,35.9c-0.5-1.5,0-2.3,1.7-2.3C31.2,34.8,30.6,35.5,29.5,35.9z"/>
		<path class="st2" d="M218.2,34.6c1.6,0.1,2.1,0.9,1.6,2.5C218.7,36.5,218.2,35.7,218.2,34.6z"/>
		<path class="st2" d="M220.8,37.7c0.1,0,0.2,0.1,0.2,0.2C221,37.9,220.9,37.8,220.8,37.7z"/>
		<path class="st2" d="M113.2,42.1c1.8-1.1,4.1-1.1,5.9,0C117.4,43,114.9,43,113.2,42.1z"/>
		<path class="st2" d="M25.3,42.6l0.9-0.1c-0.2,0.5-0.7,1.4-0.9,1.9C25.3,44,25.3,43.1,25.3,42.6z"/>
		<path class="st2" d="M106.1,43.1c1.2-0.6,2.5-1,3.9-0.7C110.2,44.2,107.1,44.1,106.1,43.1z"/>
		<path class="st2" d="M122.3,42.4c1.3-0.2,2.7,0.1,3.9,0.7C125.2,44.1,122.1,44.2,122.3,42.4z"/>
		<path class="st2" d="M102.1,44.4c0.5-0.2,1.4-0.6,1.9-0.9l-0.1,0.9C103.4,44.4,102.5,44.4,102.1,44.4z"/>
		<path class="st2" d="M128.2,43.5c0.5,0.2,1.4,0.7,1.9,0.9c-0.5,0-1.4,0-1.8,0L128.2,43.5z"/>
		<path class="st2" d="M94.7,47.4c0.1,0,0.2-0.2,0.2-0.2C94.9,47.3,94.8,47.4,94.7,47.4z"/>
		<path class="st2" d="M137.4,47.2c0,0,0.1,0.1,0.2,0.1C137.6,47.2,137.5,47.2,137.4,47.2z"/>
		<path class="st2" d="M139.4,48l0.2,0.1l0.2,0.1C139.7,48.2,139.5,48.1,139.4,48z"/>
		<path class="st2" d="M141.5,49.2c0,0,0.1,0.1,0.2,0.1C141.6,49.3,141.5,49.2,141.5,49.2z"/>
		<path class="st2" d="M88.7,50.2c0,0,0.1-0.1,0.1-0.1C88.8,50.1,88.7,50.2,88.7,50.2z"/>
		<path class="st2" d="M85.7,52.3c0,0,0.1-0.1,0.2-0.1C85.9,52.2,85.8,52.3,85.7,52.3z"/>
		<path class="st2" d="M109.1,60.5c4.7,0,9.3,0,14,0l0,1c-4.7-0.7-9.4-0.6-14.1-0.1L109.1,60.5z"/>
		<path class="st2" d="M74.9,62.3c0,0,0.1-0.1,0.1-0.2C75,62.2,74.9,62.3,74.9,62.3z"/>
		<path class="st2" d="M105.2,61.6c0.5,0,1.4,0,1.8,0.1c-0.5,0.2-1.4,0.6-1.9,0.8L105.2,61.6z"/>
		<path class="st2" d="M124.2,61.8c1.5-1,2.5-0.7,2.8,0.9C126,62.9,125,62.5,124.2,61.8z"/>
		<path class="st2" d="M100.4,63.6c1.4-0.4,2.8-0.9,4.2-1.2c-2.6,1.4-5.2,2.8-7.8,4C97.8,65.3,99.1,64.4,100.4,63.6z"/>
		<path class="st2" d="M128.6,62.7c0.1,0,0.3,0.1,0.4,0.1C128.9,62.8,128.7,62.7,128.6,62.7z"/>
		<path class="st2" d="M157.5,62.1c1.1,0.4,1.6,1.2,1.7,2.3C157.5,64.5,157,63.7,157.5,62.1z"/>
		<path class="st2" d="M72.8,65.3c0,0,0.1-0.1,0.1-0.2C72.9,65.1,72.8,65.2,72.8,65.3z"/>
		<path class="st2" d="M134.8,65.8c0,0,0.1,0.1,0.1,0.1C134.9,65.8,134.8,65.8,134.8,65.8z"/>
		<path class="st2" d="M93.3,69.5c-0.3-1.3,1.7-3.2,3-2.8C96.3,68.2,94.9,69.5,93.3,69.5z"/>
		<path class="st2" d="M160.4,67.1c0,0,0.1,0.1,0.1,0.1C160.5,67.2,160.4,67.1,160.4,67.1z"/>
		<path class="st2" d="M70.9,68.3c0,0,0.1-0.1,0.1-0.2C70.9,68.2,70.9,68.2,70.9,68.3z"/>
		<path class="st2" d="M136.9,67.8c1.5-0.4,2.2,0.2,2.2,1.8C137.9,69.5,137.2,68.9,136.9,67.8z"/>
		<path class="st2" d="M69.8,70.2c0-0.1,0.1-0.2,0.1-0.2C69.9,70,69.8,70.2,69.8,70.2z"/>
		<path class="st2" d="M140.3,70.7c1.6,0.1,3.6,2.3,3.7,3.9C141.9,74.5,140.2,72.9,140.3,70.7z"/>
		<path class="st2" d="M68.8,72.3c0-0.1,0.1-0.2,0.1-0.3C68.9,72.1,68.8,72.2,68.8,72.3z"/>
		<path class="st2" d="M87.3,75.7c-0.3-1.3,1.5-3.4,2.8-3.1C90.2,74.3,88.9,75.6,87.3,75.7z"/>
		<path class="st2" d="M67.8,74.2c0,0,0.1-0.1,0.1-0.2C67.8,74.1,67.8,74.1,67.8,74.2z"/>
		<path class="st2" d="M164.3,75c0,0.1,0.1,0.2,0.1,0.3C164.4,75.2,164.3,75.1,164.3,75z"/>
		<path class="st2" d="M144.1,75.6c1.7,0,2.2,0.8,1.7,2.4C144.8,77.5,144.2,76.7,144.1,75.6z"/>
		<path class="st2" d="M146.9,78.7c0.1,0,0.2,0.1,0.2,0.1C147.1,78.8,147,78.7,146.9,78.7z"/>
		<path class="st2" d="M166.2,79.6c0.2,0.5,0.7,1.4,0.9,1.9l-0.9-0.1C166.3,80.9,166.3,80,166.2,79.6z"/>
		<path class="st2" d="M63.1,91.4c-0.3-2,0.1-4,0.7-5.8C64.5,87,65.1,91,63.1,91.4z"/>
		<path class="st2" d="M168.4,86.7c0.9,5.5,1.2,11.1-0.1,16.6C168.1,97.8,168,92.2,168.4,86.7z"/>
		<path class="st2" d="M81.1,95.5c0.2-2.4-0.5-5,0.9-7.1c-0.2,4.5-0.2,9,0,13.5C80.6,100.1,81.3,97.7,81.1,95.5z"/>
		<path class="st2" d="M206.5,100.3c5.6-0.9,11.4-1.5,16.8,0.1C217.7,100.4,212.1,100.7,206.5,100.3z"/>
		<path class="st2" d="M149.1,104.4c-0.3-1.2,0.1-2.1,1-2.7c-0.1,0.7-0.2,2-0.3,2.7L149.1,104.4z"/>
		<path class="st2" d="M197.6,103.2c0,0,0.1-0.1,0.2-0.1C197.8,103.1,197.7,103.2,197.6,103.2z"/>
		<path class="st2" d="M82.3,103.6c0.2,0.5,0.7,1.4,0.9,1.9l-0.9-0.1C82.3,105,82.3,104,82.3,103.6z"/>
		<path class="st2" d="M167.5,107.6c-1.1-1.5-0.8-2.5,0.8-2.9C168.4,105.7,168.1,106.7,167.5,107.6z"/>
		<path class="st2" d="M192.7,105l0.3-0.1c-0.1,0.1-0.4,0.2-0.5,0.2L192.7,105z"/>
		<path class="st2" d="M148.1,107.5c0.2-0.5,0.8-1.4,1-1.9c0,0.4-0.1,1.3-0.1,1.8L148.1,107.5z"/>
		<path class="st2" d="M190.7,106.3c0,0,0.1-0.1,0.2-0.1C190.8,106.2,190.7,106.2,190.7,106.3z"/>
		<path class="st2" d="M147.9,109.4c0-0.1,0.1-0.2,0.2-0.3C148,109.1,147.9,109.3,147.9,109.4z"/>
		<path class="st2" d="M183.7,110.2c0.4-1.1,1.2-1.7,2.4-1.7C186,110.1,185.2,110.7,183.7,110.2z"/>
		<path class="st2" d="M84.3,110c0,0.1,0.1,0.3,0.1,0.4C84.4,110.3,84.3,110.1,84.3,110z"/>
		<path class="st2" d="M146.8,111.2c0,0,0.1-0.1,0.1-0.2C146.9,111.1,146.8,111.2,146.8,111.2z"/>
		<path class="st2" d="M85.4,112c0,0,0.1,0.1,0.1,0.2C85.5,112.2,85.5,112.1,85.4,112z"/>
		<path class="st2" d="M145.8,113.1l0.1-0.1c0,0.1-0.1,0.2-0.1,0.3L145.8,113.1z"/>
		<path class="st2" d="M165.2,113c0.1-0.1,0.2-0.2,0.2-0.3C165.4,112.8,165.3,113,165.2,113z"/>
		<path class="st2" d="M87.3,115.1L87.3,115.1l0.1,0.2C87.4,115.2,87.4,115.1,87.3,115.1z"/>
		<path class="st2" d="M144.8,115.2c0,0,0.1-0.1,0.1-0.2C144.8,115.1,144.8,115.1,144.8,115.2z"/>
		<path class="st2" d="M142.9,118.3c0,0,0.1-0.1,0.1-0.1C143,118.2,142.9,118.2,142.9,118.3z"/>
		<path class="st2" d="M163.3,117.9c0,0,0.1-0.1,0.1-0.1C163.4,117.8,163.4,117.9,163.3,117.9z"/>
		<path class="st2" d="M206.3,118.7c0.5,0,1.4,0,1.8,0c-0.5,0.2-1.4,0.7-1.9,0.9L206.3,118.7z"/>
		<path class="st2" d="M141.8,120.1l0.1-0.2c0,0.1-0.1,0.2-0.2,0.3L141.8,120.1z"/>
		<path class="st2" d="M162.4,120c0-0.1,0.1-0.2,0.1-0.2C162.4,119.8,162.4,119.9,162.4,120z"/>
		<path class="st2" d="M203.2,119.7c0.4,0,1.3-0.1,1.8-0.1c-0.5,0.2-1.4,0.8-1.9,1L203.2,119.7z"/>
		<path class="st2" d="M201.3,120.8c0.1,0,0.3-0.1,0.4-0.2C201.6,120.7,201.4,120.7,201.3,120.8z"/>
		<path class="st2" d="M140.8,122.2c0,0,0.1-0.1,0.1-0.2C140.8,122.1,140.8,122.1,140.8,122.2z"/>
		<path class="st2" d="M171.1,123.4c0.1-1.1,0.7-1.9,1.8-2.2C173.3,122.8,172.7,123.5,171.1,123.4z"/>
		<path class="st2" d="M199.4,121.8c0,0,0.1-0.1,0.2-0.1C199.5,121.8,199.5,121.8,199.4,121.8z"/>
		<path class="st2" d="M95.2,122.5c1.1,0,1.9,0.6,2.3,1.7C96,124.7,95.2,124.1,95.2,122.5z"/>
		<path class="st2" d="M197.4,122.9c0,0,0.1-0.1,0.2-0.1C197.6,122.8,197.5,122.8,197.4,122.9z"/>
		<path class="st2" d="M71,123.7c1.7-0.1,2.3,0.7,1.8,2.3C71.8,125.6,71.2,124.8,71,123.7z"/>
		<path class="st2" d="M98.4,125.2c0,0,0.1,0.1,0.1,0.1C98.5,125.3,98.5,125.2,98.4,125.2z"/>
		<path class="st2" d="M138.9,125.3c0,0,0.1-0.1,0.1-0.2C138.9,125.1,138.9,125.2,138.9,125.3z"/>
		<path class="st2" d="M159.5,125.1c0.1-0.1,0.1-0.3,0.2-0.4l-0.1,0.2L159.5,125.1z"/>
		<path class="st2" d="M170.8,125.3c0-0.1,0.1-0.2,0.1-0.3C170.9,125.1,170.8,125.2,170.8,125.3z"/>
		<path class="st2" d="M101.4,127.1c0,0,0.1,0.1,0.2,0.1C101.6,127.2,101.5,127.2,101.4,127.1z"/>
		<path class="st2" d="M137.8,127.3c0,0,0.1-0.1,0.1-0.1C137.9,127.2,137.9,127.2,137.8,127.3z"/>
		<path class="st2" d="M158.3,126.9c0,0,0.1-0.1,0.1-0.2C158.4,126.8,158.4,126.9,158.3,126.9z"/>
		<path class="st2" d="M74.2,127.6c1.5-0.1,2.1,0.6,1.8,2.1C74.7,129.6,74.1,128.9,74.2,127.6z"/>
		<path class="st2" d="M103.4,128.2c0,0,0.1,0.1,0.2,0.1C103.6,128.2,103.5,128.2,103.4,128.2z"/>
		<path class="st2" d="M168.9,128.3c0,0,0.1-0.1,0.1-0.1C168.9,128.2,168.9,128.3,168.9,128.3z"/>
		<path class="st2" d="M105.4,129.2c0,0,0.1,0.1,0.2,0.1C105.5,129.3,105.4,129.2,105.4,129.2z"/>
		<path class="st2" d="M135.2,130.4c0-1.1,0.6-1.9,1.6-2.4C137.4,129.6,136.8,130.4,135.2,130.4z"/>
		<path class="st2" d="M167.8,130.1l0.1-0.2c-0.1,0.1-0.1,0.2-0.2,0.3L167.8,130.1z"/>
		<path class="st2" d="M108.5,131.1c0,0,0.1,0.1,0.2,0.1C108.6,131.2,108.5,131.1,108.5,131.1z"/>
		<path class="st2" d="M187.4,132.8c-0.4-1.6,0.2-2.3,1.8-2.2C189.1,131.7,188.5,132.5,187.4,132.8z"/>
		<path class="st2" d="M110.3,132.3c0.1,0,0.3,0,0.4,0C110.5,132.3,110.4,132.3,110.3,132.3z"/>
		<path class="st2" d="M134.9,132.3c0.1,0,0.1-0.1,0.2-0.1C135,132.3,135,132.3,134.9,132.3z"/>
		<path class="st2" d="M155.5,132.1c0-0.1,0.1-0.2,0.2-0.3l-0.1,0.2L155.5,132.1z"/>
		<path class="st2" d="M112.2,132.5c1.2,0.1,2,0.6,2.5,1.7C113.1,134.7,112.3,134.1,112.2,132.5z"/>
		<path class="st2" d="M132.1,135.3c0.3-1,0.9-1.8,1.8-2.3l0.4,0.8c-0.3,0.4-1,1.2-1.4,1.7L132.1,135.3z"/>
		<path class="st2" d="M154.4,133.9c0,0,0.1-0.1,0.1-0.2C154.4,133.8,154.4,133.9,154.4,133.9z"/>
		<path class="st2" d="M115.3,135.2c0,0,0.1,0.1,0.1,0.2C115.4,135.4,115.4,135.3,115.3,135.2z"/>
		<path class="st2" d="M164.9,135.2c0,0,0.1-0.1,0.1-0.2C164.9,135.1,164.9,135.2,164.9,135.2z"/>
		<path class="st2" d="M185.4,135c0,0,0.1-0.1,0.1-0.1C185.5,134.8,185.5,134.9,185.4,135z"/>
		<path class="st2" d="M117.2,135.5c1.9-0.2,3.4,1.1,4.3,2.6C120.1,138.6,117.2,137,117.2,135.5z"/>
		<path class="st2" d="M152.4,137c0-0.1,0.1-0.2,0.1-0.2C152.5,136.9,152.5,137,152.4,137z"/>
		<path class="st2" d="M163.7,137.1l0.1-0.2c-0.1,0.1-0.1,0.3-0.2,0.4L163.7,137.1z"/>
		<path class="st2" d="M86.5,138.8c0.1,0.1,0.2,0.2,0.3,0.2l-0.2-0.1L86.5,138.8z"/>
		<path class="st2" d="M122.4,139.2c0,0,0.1,0.1,0.1,0.1C122.5,139.3,122.4,139.2,122.4,139.2z"/>
		<path class="st2" d="M151.4,139.1c0-0.1,0.1-0.3,0.1-0.4C151.5,138.8,151.5,139,151.4,139.1z"/>
		<path class="st2" d="M124.4,140.3c0,0,0.1,0.1,0.2,0.1C124.5,140.3,124.4,140.3,124.4,140.3z"/>
		<path class="st2" d="M89.7,140.7c0,0,0.1,0.1,0.1,0.1C89.8,140.8,89.8,140.7,89.7,140.7z"/>
		<path class="st2" d="M50.4,142.3c5.4-1.2,11-1.2,16.5,0C61.4,142.6,55.9,142.6,50.4,142.3z"/>
		<path class="st2" d="M91.6,141.8c0.1,0.1,0.3,0.2,0.4,0.2l-0.2-0.1L91.6,141.8z"/>
		<path class="st2" d="M127.3,141.4c0.4,0.1,1.2,0.3,1.7,0.4l-0.3,0.7c-0.4-0.1-1.2-0.2-1.6-0.2L127.3,141.4z"/>
		<path class="st2" d="M160.9,142.2c0,0,0.1-0.1,0.1-0.1C160.9,142.1,160.9,142.2,160.9,142.2z"/>
		<path class="st2" d="M181.5,142c0-0.1,0.1-0.2,0.1-0.3C181.6,141.8,181.5,141.9,181.5,142z"/>
		<path class="st2" d="M46.2,143.2c0.9-0.7,1.8-1,2.9-0.8C48.7,144,47.7,144.3,46.2,143.2z"/>
		<path class="st2" d="M68.2,142.4c1.1-0.1,2,0.1,2.8,0.8C69.6,144.3,68.6,144,68.2,142.4z"/>
		<path class="st2" d="M72.3,143.5c0.5,0.2,1.4,0.7,1.9,0.9c-0.4,0-1.3,0-1.8-0.1L72.3,143.5z"/>
		<path class="st2" d="M159.8,144.1l0.1-0.2c-0.1,0.1-0.1,0.2-0.2,0.3L159.8,144.1z"/>
		<path class="st2" d="M96.7,144.7c0,0,0.1,0.1,0.2,0.1C96.8,144.8,96.7,144.8,96.7,144.7z"/>
		<path class="st2" d="M147.4,146c0-0.1,0.1-0.1,0.1-0.2C147.5,145.9,147.4,146,147.4,146z"/>
		<path class="st2" d="M157.9,147.3c0,0,0.1-0.1,0.1-0.1C158,147.2,157.9,147.3,157.9,147.3z"/>
		<path class="st2" d="M103.7,148.7c0.1,0,0.2,0.1,0.2,0.1C103.9,148.8,103.8,148.7,103.7,148.7z"/>
		<path class="st2" d="M156.8,149.2c0,0,0.1-0.1,0.1-0.2C156.9,149.1,156.8,149.2,156.8,149.2z"/>
		<path class="st2" d="M177.4,149c0.1-0.1,0.1-0.2,0.2-0.3l-0.1,0.1L177.4,149z"/>
		<path class="st2" d="M30.7,150.1l0.2-0.1c-0.1,0.1-0.3,0.2-0.4,0.2L30.7,150.1z"/>
		<path class="st2" d="M86.4,150l0.2,0.1l0.2,0.1C86.7,150.2,86.5,150.1,86.4,150z"/>
		<path class="st2" d="M105.6,149.8c0.1,0.1,0.2,0.1,0.3,0.2l-0.2-0.1L105.6,149.8z"/>
		<path class="st2" d="M88.4,151.2c0,0,0.1,0.1,0.2,0.1C88.5,151.3,88.5,151.2,88.4,151.2z"/>
		<path class="st2" d="M155.7,151.1l0.1-0.1c0,0.1-0.1,0.2-0.2,0.3L155.7,151.1z"/>
		<path class="st2" d="M176.4,150.9c0,0,0.1-0.1,0.1-0.2C176.4,150.8,176.4,150.9,176.4,150.9z"/>
		<path class="st2" d="M27.8,152.3c0,0,0.1-0.1,0.1-0.1C27.9,152.2,27.8,152.3,27.8,152.3z"/>
		<path class="st2" d="M108.8,151.7c0,0,0.1,0.1,0.1,0.1C108.9,151.7,108.9,151.7,108.8,151.7z"/>
		<path class="st2" d="M91.5,153l0.1,0.1l0.1,0.1C91.7,153.1,91.5,153.1,91.5,153z"/>
		<path class="st2" d="M110.6,152.8c0.1,0.1,0.3,0.1,0.3,0.2l-0.2-0.1L110.6,152.8z"/>
		<path class="st2" d="M24.3,154.2l0.5-0.2C24.6,154,24.4,154.1,24.3,154.2z"/>
		<path class="st2" d="M93.4,154.2c0,0,0.1,0.1,0.2,0.1C93.6,154.2,93.5,154.2,93.4,154.2z"/>
		<path class="st2" d="M148.4,154.2c0.1,0,0.1,0.1,0.2,0.2C148.5,154.3,148.5,154.2,148.4,154.2z"/>
		<path class="st2" d="M153.8,154.2c0-0.1,0.1-0.2,0.1-0.2C153.9,154.1,153.9,154.2,153.8,154.2z"/>
		<path class="st2" d="M174.4,154c0-0.1,0.1-0.2,0.1-0.2C174.5,153.8,174.4,153.9,174.4,154z"/>
		<path class="st2" d="M95.3,155.3c0,0,0.1,0.1,0.1,0.1C95.4,155.3,95.4,155.3,95.3,155.3z"/>
		<path class="st2" d="M115.7,155.7c0,0,0.1,0.1,0.2,0.1C115.8,155.8,115.8,155.7,115.7,155.7z"/>
		<path class="st2" d="M173.5,156c0-0.1,0-0.2,0.1-0.2C173.5,155.8,173.5,155.9,173.5,156z"/>
		<path class="st2" d="M98.4,157l0.2,0.1l0.2,0.1C98.7,157.2,98.5,157.1,98.4,157z"/>
		<path class="st2" d="M117.6,156.8c0.1,0,0.2,0.1,0.2,0.1C117.8,156.9,117.7,156.8,117.6,156.8z"/>
		<path class="st2" d="M100.4,158.2c0,0,0.1,0.1,0.2,0.1C100.5,158.3,100.5,158.3,100.4,158.2z"/>
		<path class="st2" d="M105.4,161l0.2,0.1l0.2,0.1C105.7,161.2,105.5,161.1,105.4,161z"/>
		<path class="st2" d="M170.4,161c0-0.1,0.1-0.2,0.2-0.3l-0.1,0.1L170.4,161z"/>
		<path class="st2" d="M107.4,162.2c0,0,0.1,0.1,0.2,0.1C107.6,162.3,107.5,162.2,107.4,162.2z"/>
		<path class="st2" d="M116.9,163.2c0,0,0.1-0.1,0.1-0.1C116.9,163.1,116.9,163.2,116.9,163.2z"/>
		<path class="st2" d="M112.9,165.4c0.2,0.1,0.5,0.4,0.6,0.5C113.3,165.8,113,165.5,112.9,165.4z"/>
		<path class="st2" d="M114.2,164.9c0.4-0.1,1.2-0.3,1.6-0.4c-0.1,0.4-0.2,1.3-0.2,1.7c-0.4-0.2-1.3-0.6-1.7-0.8L114.2,164.9z"/>
		<path class="st2" d="M171.4,166.8c0.1,0.1,0.4,0.2,0.5,0.3C171.8,167.1,171.5,166.9,171.4,166.8z"/>
		<path class="st2" d="M133.3,170.7c-0.2-1.2,0.8-3.4,2.2-3.1C135.5,168.9,134.7,170.4,133.3,170.7z"/>
		<path class="st2" d="M136.6,167.9c0.1,0,0.2,0.1,0.2,0.1C136.8,167.9,136.7,167.9,136.6,167.9z"/>
		<path class="st2" d="M141.7,170.7c0,0,0.1,0.1,0.2,0.1C141.8,170.8,141.7,170.7,141.7,170.7z"/>
		<path class="st2" d="M142.8,173.2c0,0,0.1-0.1,0.1-0.2C142.8,173.1,142.8,173.2,142.8,173.2z"/>
		<path class="st2" d="M181.4,173.1c0.1,0,0.1,0.1,0.2,0.1C181.5,173.2,181.5,173.2,181.4,173.1z"/>
		<path class="st2" d="M141.8,175.1l0.1-0.1c0,0.1-0.1,0.2-0.1,0.3L141.8,175.1z"/>
		<path class="st2" d="M186.5,176.1c0,0,0.1,0.1,0.2,0.1C186.6,176.2,186.5,176.1,186.5,176.1z"/>
		<path class="st2" d="M133.6,176.7c0.1,0.1,0.3,0.3,0.4,0.3l-0.2-0.1L133.6,176.7z"/>
		<path class="st2" d="M193.4,180.1c0.1,0,0.3,0,0.3,0C193.6,180.1,193.4,180.1,193.4,180.1z"/>
		<path class="st2" d="M162.5,182.8c0.1,0,0.4,0.1,0.5,0.2l-0.2-0.1L162.5,182.8z"/>
		<path class="st2" d="M167.6,185.8c0.1,0.1,0.2,0.1,0.2,0.2l-0.1-0.1L167.6,185.8z"/>
		<path class="st2" d="M209.1,186.6c3.8,0.1,7.7,0,11.5,0.1l1.1,0.6C217.5,187.4,213,188.3,209.1,186.6z"/>
		<path class="st2" d="M176.7,190.8c0.1,0,0.1,0.1,0.2,0.1C176.8,190.9,176.7,190.9,176.7,190.8z"/>
		<path class="st2" d="M159.6,191.9c0.1,0,0.1,0.1,0.2,0.1C159.7,192,159.6,191.9,159.6,191.9z"/>
		<path class="st2" d="M124.5,193c0.1,0,0.2,0.1,0.2,0.1C124.6,193.1,124.5,193.1,124.5,193z"/>
		<path class="st2" d="M179.8,192.7c0,0,0.1,0.1,0.1,0.1C179.9,192.8,179.8,192.7,179.8,192.7z"/>
		<path class="st2" d="M181.6,193.8c0.1,0.1,0.2,0.1,0.3,0.2l-0.2-0.1L181.6,193.8z"/>
		<path class="st2" d="M118.5,196.3c0.1-0.2,0.2-0.5,0.3-0.6l-0.1,0.3L118.5,196.3z"/>
		<path class="st2" d="M186.7,196.7c0,0,0.1,0.1,0.1,0.1C186.8,196.8,186.8,196.7,186.7,196.7z"/>
		<path class="st2" d="M117.3,197.9c0,0,0.1-0.1,0.1-0.1C117.4,197.8,117.4,197.9,117.3,197.9z"/>
		<path class="st2" d="M188.7,197.8c0,0,0.1,0.1,0.2,0.1L188.7,197.8L188.7,197.8z"/>
		<path class="st2" d="M127.9,199.3c0,0,0.1-0.1,0.1-0.1C128,199.2,127.9,199.3,127.9,199.3z"/>
		<path class="st2" d="M126.8,201.1l0.1-0.2c0,0.1-0.1,0.2-0.2,0.3L126.8,201.1z"/>
		<path class="st2" d="M194.4,200.7c0.2,0.1,0.5,0.3,0.6,0.4C194.9,201,194.6,200.8,194.4,200.7z"/>
		<path class="st2" d="M114.4,203.1c0-0.1,0.2-0.3,0.2-0.3l-0.1,0.2L114.4,203.1z"/>
		<path class="st2" d="M113.3,204.8c0,0,0.1-0.1,0.1-0.1C113.4,204.7,113.3,204.8,113.3,204.8z"/>
		<path class="st2" d="M123.9,206.2c0,0,0.1-0.1,0.1-0.1C123.9,206.1,123.9,206.2,123.9,206.2z"/>
		<path class="st2" d="M185.6,206.7c0.1,0.1,0.3,0.2,0.4,0.3l-0.2-0.1L185.6,206.7z"/>
		<path class="st2" d="M111.5,208.1c0.1-0.1,0.1-0.2,0.2-0.3l-0.1,0.2L111.5,208.1z"/>
		<path class="st2" d="M122.7,208.1l0.1-0.2c0,0.1-0.1,0.3-0.2,0.4L122.7,208.1z"/>
		<path class="st2" d="M143.4,208.2c0.1-0.1,0.2-0.3,0.2-0.4l-0.1,0.2L143.4,208.2z"/>
		<path class="st2" d="M110.3,210c0-0.1,0.1-0.2,0.1-0.2C110.4,209.8,110.4,209.9,110.3,210z"/>
		<path class="st2" d="M190.2,209.3c0.5,0.3,1.5,0.9,2.1,1.2c-0.5-0.1-1.4-0.2-1.9-0.3L190.2,209.3z"/>
		<path class="st2" d="M119.8,213.2c0,0,0.1-0.1,0.1-0.1C119.9,213.1,119.8,213.1,119.8,213.2z"/>
		<path class="st2" d="M140.5,213.1c0-0.1,0.1-0.3,0.2-0.4l-0.1,0.2L140.5,213.1z"/>
		<path class="st2" d="M139.3,214.9c0,0,0.1-0.1,0.1-0.1C139.4,214.8,139.4,214.9,139.3,214.9z"/>
		<path class="st2" d="M163,215.5c0.5,0.1,1.4,0.3,1.8,0.3l0.2,0.9C164.5,216.4,163.5,215.8,163,215.5z"/>
		<path class="st2" d="M106.4,217c0,0,0.1-0.1,0.1-0.2C106.5,216.9,106.4,217,106.4,217z"/>
		<path class="st2" d="M169.5,219c0,0,0.1,0.1,0.2,0.1C169.7,219.1,169.6,219,169.5,219z"/>
		<path class="st2" d="M115.8,220.3c0-0.1,0.1-0.2,0.1-0.2C115.9,220.1,115.9,220.2,115.8,220.3z"/>
		<path class="st2" d="M136.5,220.1c0-0.1,0.1-0.2,0.2-0.3l-0.1,0.2L136.5,220.1z"/>
		<path class="st2" d="M103.4,222c0-0.1,0.1-0.2,0.1-0.2C103.5,221.8,103.4,222,103.4,222z"/>
		<path class="st2" d="M114.8,222.1l0.1-0.1c-0.1,0.1-0.1,0.2-0.2,0.3L114.8,222.1z"/>
		<path class="st2" d="M135.4,221.9c0,0,0.1-0.1,0.1-0.2C135.4,221.8,135.4,221.9,135.4,221.9z"/>
		<path class="st2" d="M211.6,221.9c0.1,0,0.2,0.1,0.2,0.1l-0.1-0.1L211.6,221.9z"/>
		<path class="st2" d="M101.5,225.1c0-0.1,0.1-0.2,0.2-0.3l-0.1,0.1L101.5,225.1z"/>
		<path class="st2" d="M112.9,225.3c0,0,0.1-0.1,0.1-0.1C113,225.2,112.9,225.3,112.9,225.3z"/>
		<path class="st2" d="M133.4,225c0-0.1,0.1-0.2,0.1-0.2C133.5,224.9,133.5,225,133.4,225z"/>
		<path class="st2" d="M216.3,224.3c0.5,0.3,1.5,0.9,2,1.3c-0.4-0.1-1.4-0.3-1.8-0.4L216.3,224.3z"/>
		<path class="st2" d="M111.8,227.1l0.1-0.2c-0.1,0.1-0.2,0.3-0.2,0.3L111.8,227.1z"/>
		<path class="st2" d="M132.4,227c0-0.1,0.1-0.2,0.1-0.2C132.5,226.8,132.5,227,132.4,227z"/>
		<path class="st2" d="M99.4,227.6l0.2,0.1c0.4,0.2,1.3,0.8,1.8,1c3.2,0.5,6.5,0.3,9.7-0.4l0.1,1.1c-4.3,0.2-8.6,0.1-12.8,0
			C98.6,228.9,99.1,228,99.4,227.6z"/>
	</g>
	<g id="_x23_8dc63fff">
		<path class="st3" d="M107,61.7c0.5-0.1,1.5-0.2,2.1-0.3c4.7-0.5,9.4-0.6,14.1,0.1l1.1,0.3c0.8,0.8,1.7,1.1,2.8,0.9l1.5,0
			c0.1,0,0.3,0.1,0.4,0.1c1.9,1,3.9,1.9,5.7,3c0,0,0.1,0.1,0.1,0.1c0.5,0.5,1.5,1.4,2,1.9c0.3,1.2,1,1.8,2.2,1.8h1l0.2,1.2
			c-0.1,2.1,1.6,3.7,3.7,3.9l0.1,0.9c0.1,1.1,0.7,1.9,1.7,2.4l1.1,0.7c0.1,0,0.2,0.1,0.2,0.1l-0.1,1.8c-0.3,1.6,0.7,3,1.7,4.2
			c0.4,0.5,1.1,1.4,1.4,1.9c0,1.2,0,2.5,0.1,3.7c0,3.1-0.1,6.1-0.1,9.2c0,0.6,0,1.7,0,2.2c-1,0.6-1.3,1.4-1,2.7v1.3
			c-0.2,0.5-0.8,1.4-1,1.9v1.5c-0.1,0.1-0.1,0.2-0.2,0.3l-1,1.7c0,0-0.1,0.1-0.1,0.2l-0.9,1.8l-0.1,0.1l-0.1,0.2l-0.9,1.7
			c0,0-0.1,0.1-0.1,0.2c-0.4,0.7-1.3,2.2-1.8,2.9c0,0-0.1,0.1-0.1,0.1l-1,1.7l-0.1,0.2l-0.1,0.2l-0.9,1.7c0,0-0.1,0.1-0.1,0.2
			c-0.4,0.7-1.4,2.2-1.8,2.9c0,0-0.1,0.1-0.1,0.2l-0.9,1.9c0,0-0.1,0.1-0.1,0.1l-1,0.7c-1.1,0.5-1.6,1.3-1.6,2.4l-0.1,1.8
			c0,0-0.1,0.1-0.2,0.1l-1,0.7c-0.9,0.5-1.5,1.2-1.8,2.3c-1.1,2.2-2.1,4.3-3.1,6.5c-0.4-0.1-1.2-0.3-1.7-0.4
			c-0.7-0.3-2.1-0.8-2.8-1.1c0,0-0.1-0.1-0.2-0.1l-1.9-0.9c0,0-0.1-0.1-0.1-0.1l-0.8-1.1c-0.9-1.5-2.4-2.9-4.3-2.6l-1.8-0.1
			c0-0.1-0.1-0.1-0.1-0.2l-0.6-1.1c-0.5-1.1-1.3-1.6-2.5-1.7l-1.6-0.2c-0.1,0-0.3,0-0.4,0l-1.6-1.1c0,0-0.1-0.1-0.2-0.1
			c-0.7-0.5-2.2-1.3-2.9-1.8c0,0-0.1-0.1-0.2-0.1l-1.8-1c0,0-0.2-0.1-0.2-0.1l-1.8-0.9c0,0-0.1-0.1-0.2-0.1
			c-0.7-0.5-2.2-1.4-2.9-1.8c0,0-0.1-0.1-0.1-0.1l-0.9-1c-0.4-1.1-1.2-1.7-2.3-1.7l-1,0c-0.2-0.3-0.6-1-0.8-1.4
			c-0.8-1.8-2.3-3.1-4-4c-0.5-0.5-1.5-1.4-2-1.9l-0.1-0.1l0-0.1c-0.5-0.7-1.3-2.2-1.8-2.9c0,0-0.1-0.1-0.1-0.2l-1-1.6
			c0-0.1-0.1-0.3-0.1-0.4l0-1.5c-0.3-0.4-0.8-1.4-1.1-1.8l0-1.2c-0.2-0.5-0.7-1.4-0.9-1.9c-0.1-0.4-0.2-1.2-0.2-1.7
			c-0.2-4.5-0.1-9,0-13.5c0-0.7,0.1-2,0.1-2.6c0.2-0.4,0.6-1.1,0.8-1.5c1.5-2.7,2.8-5.4,4.1-8.2l0.2-0.4c1.6-0.1,2.9-1.4,2.8-3.1
			l0.1-0.8c0.8-0.8,1.5-1.5,2.3-2.3l0.8-0.1c1.6,0.1,3-1.2,3-2.8l0.5-0.2c2.7-1.2,5.2-2.6,7.8-4l0.5,0
			C105.6,62.3,106.6,61.9,107,61.7z"/>
	</g>
	<g id="_x23_e16f2bff">
		<path class="st4" d="M208.1,118.6c0.8-0.1,2.3-0.2,3-0.2c3.1-0.1,6.2-0.2,9.4,0l0.4,0.1c1.1,0.3,2.2,0.6,3.3,0.9
			c-0.1,22.4,0.4,44.9-0.3,67.3c-0.8,0-2.5,0-3.4,0.1c-3.8,0-7.7,0.1-11.5-0.1l-1-0.4c-0.8-0.8-1.7-1.1-2.7-0.9
			c-0.4,0.1-1.3,0.1-1.8,0.2c-0.7-0.3-2.2-1.1-2.9-1.4c-0.1,0-0.2-0.1-0.2-0.1c-0.5-0.2-1.4-0.6-1.8-0.7c-1.6-1.2-3.3-2-5-3.1
			c-0.1,0-0.3,0-0.3,0c-0.4-0.2-1.3-0.7-1.7-0.9c-1.7-1-3.3-2.1-5.1-3c0,0-0.1-0.1-0.2-0.1c-1.6-1-3.2-1.9-4.9-2.9
			c0,0-0.1-0.1-0.2-0.1l-1.8-1l-0.1,0l-0.1-0.1c-0.5-0.4-1.5-1.2-2.1-1.5c-1.8-1.3-3.6-2.4-5.5-3.4c-0.1-0.1-0.4-0.2-0.5-0.3
			c-2.1-0.7-2.5-2.4-1.7-4.4l0.7-1.4l0.1-0.2l0.1-0.1c0.9-1.7,1.9-3.2,2.9-4.7c0-0.1,0-0.2,0.1-0.2l0.9-1.7c0-0.1,0.1-0.2,0.1-0.2
			c0.5-0.7,1.4-2.1,1.8-2.9c0,0,0.1-0.1,0.1-0.2l1-1.8l0.1-0.1l0.1-0.1l0.8-1.8l0.1-0.1l0.1-0.1c0.9-1.6,1.9-3.2,2.8-4.8
			c0-0.1,0.1-0.2,0.1-0.3c0.2-0.4,0.7-1.3,0.9-1.7c1.1-1.7,2-3.4,3-5.1c0,0,0.1-0.1,0.1-0.1c0.5-0.5,1.4-1.5,1.8-2
			c1.1-0.4,1.7-1.1,1.8-2.2l0-0.8c2.6-2.5,4.9-5.4,8.3-7c0,0,0.1-0.1,0.2-0.1l1.8-0.9c0,0,0.1-0.1,0.2-0.1l1.7-1
			c0.1,0,0.3-0.1,0.4-0.2l1.5,0c0.5-0.2,1.4-0.8,1.9-1l1.2,0C206.7,119.3,207.7,118.9,208.1,118.6z"/>
	</g>
	<g id="_x23_4fb3cfff">
		<path class="st5" d="M47.4,161.7c7.5-2.2,15.9-2.2,23.3,0.4c9.1,4.2,17.4,9.7,26.1,14.6c0.3,0.2,0.9,0.6,1.2,0.9
			c2.4,1.7,4.9,3.2,7.4,4.6c-0.1,0.4-0.3,1.3-0.5,1.7c-3.8,5.8-6.9,12.1-10.5,18c-2.2,3.8-4.3,7.5-6.6,11.3c-2.1,3.5-5.1,6.3-8,9.1
			c-1.1,0.6-2.1,1.3-3.1,2c-2,1.1-4,2-5.9,3c-2,0.6-3.9,1.2-5.9,1.5c-4.3,0.4-8.6,0.4-12.9-0.1c-1.9-0.2-3.8-0.8-5.6-1.4
			c-2.7-1.2-5.4-2.5-7.8-4.1c0,0-0.1-0.1-0.1-0.1c-3-2.3-5.5-5.2-8.1-7.9c-1-1.7-2-3.3-3-5c-0.7-1.8-1.4-3.5-2.2-5.2
			c0-0.7,0.1-2.1,0.2-2.8c0.3-1.2,0-2.7-1.1-3.4c-0.9-8,0.6-16.2,5.1-22.9c3.2-5.2,7.9-9.1,13.2-12.1
			C44.2,163,45.8,162.4,47.4,161.7z"/>
	</g>
</g>
</svg>
