<?xml version="1.0" encoding="UTF-8" standalone="no"?>
<svg width="294px" height="101px" viewBox="0 0 294 101" version="1.1" xmlns="http://www.w3.org/2000/svg" xmlns:xlink="http://www.w3.org/1999/xlink" xmlns:sketch="http://www.bohemiancoding.com/sketch/ns">
    <!-- Generator: Sketch 3.2.2 (9983) - http://www.bohemiancoding.com/sketch -->
    <title>Touch ID + Touch ID</title>
    <desc>Created with Sketch.</desc>
    <defs>
        <linearGradient x1="50%" y1="0%" x2="50%" y2="99.6352838%" id="linearGradient-1">
            <stop stop-color="#DA5CE6" offset="0%"></stop>
            <stop stop-color="#CC463D" offset="100%"></stop>
        </linearGradient>
    </defs>
    <g id="Page-1" stroke="none" stroke-width="1" fill="none" fill-rule="evenodd" sketch:type="MSPage">
        <g id="TouchID" sketch:type="MSArtboardGroup" transform="translate(-311.000000, -197.000000)">
            <g id="Touch-ID-+-Touch-ID" sketch:type="MSLayerGroup" transform="translate(311.000000, 197.000000)">
                <path d="M120.328,34.552 L120.328,32.728 L146.584,32.728 L146.584,34.552 L134.488,34.552 L134.488,67 L132.376,67 L132.376,34.552 L120.328,34.552 Z M142.84,54.664 C142.84,52.9039912 143.087998,51.2480078 143.584,49.696 C144.080002,48.1439922 144.807995,46.7760059 145.768,45.592 C146.728005,44.4079941 147.911993,43.4720034 149.32,42.784 C150.728007,42.0959966 152.343991,41.752 154.168,41.752 C155.992009,41.752 157.607993,42.0959966 159.016,42.784 C160.424007,43.4720034 161.607995,44.4079941 162.568,45.592 C163.528005,46.7760059 164.255998,48.1439922 164.752,49.696 C165.248002,51.2480078 165.496,52.9039912 165.496,54.664 C165.496,56.4240088 165.248002,58.0879922 164.752,59.656 C164.255998,61.2240078 163.528005,62.5919942 162.568,63.76 C161.607995,64.9280058 160.424007,65.8559966 159.016,66.544 C157.607993,67.2320034 155.992009,67.576 154.168,67.576 C152.343991,67.576 150.728007,67.2320034 149.32,66.544 C147.911993,65.8559966 146.728005,64.9280058 145.768,63.76 C144.807995,62.5919942 144.080002,61.2240078 143.584,59.656 C143.087998,58.0879922 142.84,56.4240088 142.84,54.664 L142.84,54.664 Z M144.664,54.664 C144.664,56.1360074 144.871998,57.5519932 145.288,58.912 C145.704002,60.2720068 146.311996,61.4799947 147.112,62.536 C147.912004,63.5920053 148.903994,64.4319969 150.088,65.056 C151.272006,65.6800031 152.631992,65.992 154.168,65.992 C155.704008,65.992 157.063994,65.6800031 158.248,65.056 C159.432006,64.4319969 160.423996,63.5920053 161.224,62.536 C162.024004,61.4799947 162.631998,60.2720068 163.048,58.912 C163.464002,57.5519932 163.672,56.1360074 163.672,54.664 C163.672,53.1919926 163.464002,51.7760068 163.048,50.416 C162.631998,49.0559932 162.024004,47.8480053 161.224,46.792 C160.423996,45.7359947 159.432006,44.8960031 158.248,44.272 C157.063994,43.6479969 155.704008,43.336 154.168,43.336 C152.631992,43.336 151.272006,43.6479969 150.088,44.272 C148.903994,44.8960031 147.912004,45.7359947 147.112,46.792 C146.311996,47.8480053 145.704002,49.0559932 145.288,50.416 C144.871998,51.7760068 144.664,53.1919926 144.664,54.664 L144.664,54.664 Z M189.304,67 L187.48,67 L187.48,61.72 L187.384,61.72 C187.063998,62.6480046 186.608003,63.4719964 186.016,64.192 C185.423997,64.9120036 184.736004,65.5279974 183.952,66.04 C183.167996,66.5520026 182.312005,66.9359987 181.384,67.192 C180.455995,67.4480013 179.512005,67.576 178.552,67.576 C177.111993,67.576 175.888005,67.4000018 174.88,67.048 C173.871995,66.6959982 173.048003,66.2320029 172.408,65.656 C171.767997,65.0799971 171.264002,64.4320036 170.896,63.712 C170.527998,62.9919964 170.264001,62.2640037 170.104,61.528 C169.943999,60.7919963 169.848,60.0800034 169.816,59.392 C169.784,58.7039966 169.768,58.1040026 169.768,57.592 L169.768,42.328 L171.592,42.328 L171.592,57.928 C171.592,58.5680032 171.64,59.3439954 171.736,60.256 C171.832,61.1680046 172.111998,62.0479958 172.576,62.896 C173.040002,63.7440042 173.735995,64.471997 174.664,65.08 C175.592005,65.688003 176.903992,65.992 178.6,65.992 C179.976007,65.992 181.215994,65.7360026 182.32,65.224 C183.424006,64.7119974 184.359996,64.0000046 185.128,63.088 C185.896004,62.1759954 186.479998,61.0880063 186.88,59.824 C187.280002,58.5599937 187.48,57.1760075 187.48,55.672 L187.48,42.328 L189.304,42.328 L189.304,67 Z M213.256,49.96 C213.16,48.8719946 212.880002,47.9120042 212.416,47.08 C211.951998,46.2479958 211.352004,45.5600027 210.616,45.016 C209.879996,44.4719973 209.024005,44.0560014 208.048,43.768 C207.071995,43.4799986 206.024006,43.336 204.904,43.336 C203.367992,43.336 202.008006,43.6479969 200.824,44.272 C199.639994,44.8960031 198.648004,45.7279948 197.848,46.768 C197.047996,47.8080052 196.440002,48.9919934 196.024,50.32 C195.607998,51.6480066 195.4,53.015993 195.4,54.424 C195.4,56.0880083 195.591998,57.623993 195.976,59.032 C196.360002,60.440007 196.951996,61.6639948 197.752,62.704 C198.552004,63.7440052 199.543994,64.5519971 200.728,65.128 C201.912006,65.7040029 203.303992,65.992 204.904,65.992 C206.056006,65.992 207.119995,65.8000019 208.096,65.416 C209.072005,65.0319981 209.935996,64.5040034 210.688,63.832 C211.440004,63.1599966 212.055998,62.3520047 212.536,61.408 C213.016002,60.4639953 213.335999,59.4320056 213.496,58.312 L215.32,58.312 C215.127999,59.7840074 214.728003,61.0959942 214.12,62.248 C213.511997,63.4000058 212.744005,64.3679961 211.816,65.152 C210.887995,65.9360039 209.832006,66.5359979 208.648,66.952 C207.463994,67.3680021 206.216007,67.576 204.904,67.576 C202.88799,67.576 201.168007,67.2160036 199.744,66.496 C198.319993,65.7759964 197.152005,64.8080061 196.24,63.592 C195.327995,62.3759939 194.656002,60.9760079 194.224,59.392 C193.791998,57.8079921 193.576,56.1520086 193.576,54.424 C193.576,52.6959914 193.823998,51.0640077 194.32,49.528 C194.816002,47.9919923 195.543995,46.6480058 196.504,45.496 C197.464005,44.3439942 198.647993,43.4320034 200.056,42.76 C201.464007,42.0879966 203.079991,41.752 204.904,41.752 C206.248007,41.752 207.503994,41.9199983 208.672,42.256 C209.840006,42.5920017 210.879995,43.0959966 211.792,43.768 C212.704005,44.4400034 213.447997,45.2959948 214.024,46.336 C214.600003,47.3760052 214.951999,48.5839931 215.08,49.96 L213.256,49.96 Z M221.416,32.728 L221.416,47.608 L221.512,47.608 C221.832002,46.6799954 222.287997,45.8560036 222.88,45.136 C223.472003,44.4159964 224.159996,43.8000026 224.944,43.288 C225.728004,42.7759974 226.583995,42.3920013 227.512,42.136 C228.440005,41.8799987 229.383995,41.752 230.344,41.752 C231.784007,41.752 233.007995,41.9279982 234.016,42.28 C235.024005,42.6320018 235.847997,43.0959971 236.488,43.672 C237.128003,44.2480029 237.631998,44.8959964 238,45.616 C238.368002,46.3360036 238.631999,47.0639963 238.792,47.8 C238.952001,48.5360037 239.048,49.2479966 239.08,49.936 C239.112,50.6240034 239.128,51.2239974 239.128,51.736 L239.128,67 L237.304,67 L237.304,51.4 C237.304,50.791997 237.256,50.0240046 237.16,49.096 C237.064,48.1679954 236.784002,47.2800042 236.32,46.432 C235.855998,45.5839958 235.152005,44.856003 234.208,44.248 C233.263995,43.639997 231.960008,43.336 230.296,43.336 C228.887993,43.336 227.640005,43.5919974 226.552,44.104 C225.463995,44.6160026 224.536004,45.3279954 223.768,46.24 C222.999996,47.1520046 222.416002,48.2399937 222.016,49.504 C221.615998,50.7680063 221.416,52.1519925 221.416,53.656 L221.416,67 L219.592,67 L219.592,32.728 L221.416,32.728 Z M258.184,32.728 L260.296,32.728 L260.296,67 L258.184,67 L258.184,32.728 Z M266.344,32.728 L277.576,32.728 C280.648015,32.728 283.19999,33.2079952 285.232,34.168 C287.26401,35.1280048 288.887994,36.407992 290.104,38.008 C291.320006,39.608008 292.175998,41.4319898 292.672,43.48 C293.168002,45.5280102 293.416,47.6399891 293.416,49.816 C293.416,52.2480122 293.104003,54.5119895 292.48,56.608 C291.855997,58.7040105 290.888007,60.5199923 289.576,62.056 C288.263993,63.5920077 286.60801,64.7999956 284.608,65.68 C282.60799,66.5600044 280.232014,67 277.48,67 L266.344,67 L266.344,32.728 Z M277.672,65.176 C279.272008,65.176 280.879992,64.9280025 282.496,64.432 C284.112008,63.9359975 285.575993,63.1040058 286.888,61.936 C288.200007,60.7679942 289.263996,59.2000098 290.08,57.232 C290.896004,55.2639902 291.304,52.7920149 291.304,49.816 C291.304,47.4799883 291.072002,45.4800083 290.608,43.816 C290.143998,42.1519917 289.536004,40.7520057 288.784,39.616 C288.031996,38.4799943 287.168005,37.5840033 286.192,36.928 C285.215995,36.2719967 284.208005,35.7680018 283.168,35.416 C282.127995,35.0639982 281.088005,34.8320006 280.048,34.72 C279.007995,34.6079994 278.072004,34.552 277.24,34.552 L268.456,34.552 L268.456,65.176 L277.672,65.176 Z" id="Touch-ID" fill="#4C4C4C" sketch:type="MSShapeGroup"></path>
                <path d="M58.9624163,0.906220882 C57.9606501,0.729640419 57.0059306,1.40154152 56.8299905,2.40695398 C56.6540505,3.41236645 57.3235148,4.37056105 58.325281,4.54714151 C80.3092034,8.42222868 96.5729729,27.6728073 96.5729729,50.3298213 C96.5729729,51.3506224 97.3974945,52.1781452 98.4145935,52.1781452 C99.4316925,52.1781452 100.256214,51.3506224 100.256214,50.3298213 C100.256214,25.87035 82.7004493,5.09050361 58.9624163,0.906220882 Z M5.44963094,28.0355391 C4.99719033,28.9497817 5.36886692,30.0590323 6.27979384,30.5131197 C7.19072075,30.9672072 8.2959485,30.5941777 8.74838911,29.6799351 C16.4210797,14.1757996 32.1057764,4.07757109 49.6405648,3.84849451 C50.6575776,3.83520813 51.4712977,2.9969847 51.4580595,1.97627006 C51.4448213,0.955555427 50.6096379,0.138873464 49.592625,0.152159842 C30.6636495,0.399450247 13.7312239,11.3010002 5.44963094,28.0355391 Z M0.256214149,50.3298213 C0.256214149,56.0529814 1.2117842,61.6477999 3.06069092,66.9398382 C3.39724303,67.9031354 4.448147,68.4102196 5.40795064,68.0724425 C6.36775428,67.7346654 6.87299947,66.6799363 6.53644736,65.7166391 C4.82440858,60.8163513 3.9394554,55.6349914 3.9394554,50.3298213 C3.9394554,45.9453932 4.54379163,41.643736 5.72217694,37.5118035 C6.00205985,36.5304121 5.43626011,35.5071213 4.45842786,35.2262197 C3.48059561,34.9453181 2.46101603,35.5131772 2.18113312,36.4945687 C0.908645651,40.9564643 0.256214149,45.600463 0.256214149,50.3298213 Z M50.2562141,8.28045259 C44.7746298,8.28045259 39.4365653,9.33840539 34.4654082,11.369918 C33.523405,11.7548769 33.0706997,12.8333717 33.4542625,13.7788037 C33.8378253,14.7242356 34.9124088,15.1785887 35.8544119,14.7936298 C40.3863678,12.9416012 45.2529057,11.9771004 50.2562141,11.9771004 C68.4291505,11.9771004 83.9856506,24.8075555 87.6597902,42.4351847 C87.8680486,43.4343578 88.8439277,44.0749064 89.8394772,43.86589 C90.8350267,43.6568736 91.4732522,42.6774424 91.2649938,41.6782692 C87.2356,22.3462165 70.181329,8.28045259 50.2562141,8.28045259 Z M12.1526342,33.1828839 C8.52838673,41.2265019 7.42383034,50.1488945 9.31867435,59.3005799 C9.52560914,60.30003 10.500639,60.94188 11.4964644,60.734192 C12.4922899,60.526504 13.1318121,59.5479252 12.9248773,58.5484751 C11.1923522,50.1807548 12.1986132,42.0523737 15.5086745,34.7060574 C18.4105987,28.2655564 22.9962104,22.7089086 28.1818507,19.0192797 C29.0115954,18.428909 29.2073821,17.2752297 28.6191525,16.4424648 C28.0309229,15.6096999 26.8814276,15.4132006 26.0516829,16.0035713 C20.3350719,20.0709905 15.3251852,26.1417565 12.1526342,33.1828839 Z M13.7000447,67.4268174 C13.7000447,64.3683355 13.4151316,61.3454544 12.8536499,58.3858905 C12.6634038,57.3831057 11.6992094,56.7249743 10.7000614,56.9159128 C9.70091333,57.1068514 9.04516873,58.0745553 9.23541479,59.0773402 C9.75370958,61.809266 10.0168035,64.600649 10.0168035,67.4268174 C10.0168035,70.7380737 9.65563464,74.0009261 8.94656124,77.175177 C8.72405517,78.1712517 9.34822801,79.1597632 10.3406903,79.3830791 C11.3331526,79.6063951 12.318079,78.9799503 12.5405851,77.9838756 C13.3088571,74.5446155 13.7000447,71.0105685 13.7000447,67.4268174 Z M67.5208443,21.1675008 C66.6469146,20.6452827 65.5166485,20.93298 64.9963243,21.8100907 C64.4760001,22.6872013 64.762654,23.8215815 65.6365837,24.3437996 C72.7572836,28.5987853 77.8697367,35.6382093 79.6608683,43.7931738 C79.8798174,44.7900422 80.8625014,45.4200243 81.8557545,45.2002782 C82.8490075,44.9805321 83.4767049,43.9942712 83.2577557,42.9974028 C81.2463918,33.8397272 75.510311,25.9416196 67.5208443,21.1675008 Z M50.2562141,16.4130778 C31.5924477,16.4130778 16.4624757,31.5981211 16.4624757,50.3298213 L18.3040963,50.3298213 L16.4786305,50.08554 C16.470414,50.1473882 16.4633604,50.2239121 16.4579828,50.3179769 C16.3927451,51.4591159 16.5826661,53.81454 17.2212012,57.9160392 C17.3782178,58.924603 18.3201421,59.6144551 19.3250482,59.456867 C20.3299542,59.2992789 21.0173044,58.353926 20.8602879,57.3453623 C20.514578,55.1247658 20.3030155,53.4044384 20.1998507,52.1249761 C20.1616974,51.6517943 20.140691,51.2656776 20.1334536,50.9595626 C20.1285942,50.7540264 20.13042,50.6129252 20.1351761,50.5297314 C20.1354362,50.525183 20.1457169,50.3298213 20.1457169,50.3298213 C20.1457169,33.6397233 33.6266457,20.1097256 50.2562141,20.1097256 C52.946991,20.1097256 55.5893175,20.4635203 58.1359995,21.1545826 C59.117844,21.4210139 60.1289881,20.8381598 60.3944532,19.8527415 C60.6599182,18.8673231 60.0791779,17.8524985 59.0973333,17.5860672 C56.2379439,16.8101493 53.2724038,16.4130778 50.2562141,16.4130778 Z M50.3482952,24.3608705 C36.0071995,24.3608705 24.3814444,36.028942 24.3814444,50.4222375 C24.3862632,50.5768009 24.3929272,50.7150859 24.4035572,50.9055207 C24.4210568,51.2190254 24.4435694,51.5674021 24.4716397,51.9422193 C24.5520524,53.0159507 24.6612666,54.0909891 24.8046094,55.1030021 C24.9595027,56.1965621 25.1457808,57.1550834 25.373113,57.953642 C25.6525315,58.9351667 26.6718424,59.5035117 27.6498074,59.223076 C28.6277724,58.9426404 29.1940562,57.9196194 28.9146376,56.9380947 C28.7405092,56.3264269 28.5843651,55.5229648 28.4511889,54.5827289 C28.3205939,53.6607171 28.2192944,52.6635861 28.1445206,51.6651482 C28.1182757,51.3147061 28.0972686,50.9896278 28.081032,50.6987498 C28.075395,50.597763 28.0707678,50.5085603 28.0670897,50.4322373 C28.0646856,38.0705442 38.0413974,28.0575183 50.3482952,28.0575183 C57.1624088,28.0575183 63.4682396,31.1439767 67.6755649,36.3583523 C68.3156571,37.1516548 69.4753208,37.2739675 70.2657462,36.6315454 C71.0561715,35.9891233 71.1780406,34.8252386 70.5379484,34.0319361 C65.6385626,27.9598509 58.2856167,24.3608705 50.3482952,24.3608705 Z M50.2562141,32.3086633 C48.1779943,32.3086633 46.1455638,32.6638694 44.2258572,33.3506996 C43.2678118,33.6934678 42.7680234,34.7508125 43.1095485,35.712345 C43.4510736,36.6738776 44.5045837,37.1754851 45.462629,36.8327169 C46.9867342,36.2874246 48.6009406,36.0053111 50.2562141,36.0053111 C57.2669701,36.0053111 63.2096548,41.1134995 64.3378294,47.979226 C64.5033317,48.9864221 65.4510304,49.6682615 66.4545738,49.5021569 C67.4581172,49.3360522 68.1374838,48.384904 67.9719816,47.3777078 C66.5515911,38.7336443 59.0769966,32.3086633 50.2562141,32.3086633 Z M32.300413,50.3298213 L32.3019452,50.4052003 C32.3052027,50.4852995 32.312125,50.6263606 32.3234793,50.8198604 C32.3421156,51.137461 32.3667199,51.4901511 32.3980903,51.8695146 C32.488003,52.9568323 32.6146583,54.0457656 32.785892,55.0727162 C32.977903,56.2242754 33.2149826,57.2309553 33.5126747,58.0675273 C33.8547621,59.0288585 34.9085653,59.5298453 35.8664101,59.1865128 C36.8242548,58.8431802 37.3234248,57.7855413 36.9813374,56.8242101 C36.7679798,56.2246343 36.5777113,55.416722 36.4186173,54.462578 C36.2661171,53.5479798 36.150818,52.5566822 36.0687118,51.5637692 C36.0398756,51.2150518 36.0173157,50.891667 36.0003498,50.6025335 C35.9944725,50.5023715 35.989727,50.4140178 35.9860248,50.3385762 C35.9838906,50.2950867 35.9826197,50.2666757 35.9821222,50.2544423 L35.9836543,50.3298213 C35.9836543,46.8815068 37.1994875,43.6264835 39.3794324,41.0543858 C40.0384341,40.2768355 39.9446174,39.1103355 39.1698871,38.4489352 C38.3951568,37.7875348 37.2328873,37.8816929 36.5738856,38.6592431 C33.8325521,41.8937183 32.300413,45.9955543 32.300413,50.3298213 Z M50.3482952,40.6261208 C45.0593804,40.6261208 40.7718679,44.9292394 40.7718679,50.2374051 C40.7718679,50.4674024 40.7849859,50.8492092 40.823333,51.3495352 C40.8862648,52.1706275 40.9992997,53.0403824 41.1759551,53.9268743 C41.3754246,54.9278521 42.3456366,55.5770144 43.3429842,55.3768189 C44.3403318,55.1766233 44.9871398,54.2028798 44.7876703,53.201902 C44.642042,52.4711105 44.5478946,51.746686 44.4957252,51.0660152 C44.4776301,50.8299228 44.4660917,50.6176162 44.4597703,50.4336282 C44.4562019,50.3297676 44.4551092,50.2628685 44.4551092,50.2374051 C44.4551092,46.9708416 47.0935784,44.3227686 50.3482952,44.3227686 C53.1618714,44.3227686 55.5683935,46.3176882 56.1227233,49.0483504 C56.3257764,50.0486021 57.298307,50.6942602 58.2949312,50.490468 C59.2915554,50.2866759 59.9348719,49.3106054 59.7318188,48.3103536 C58.8296375,43.8661537 54.9211035,40.6261208 50.3482952,40.6261208 Z M94.1788661,68.3509794 C94.1788661,67.5275322 94.1707343,66.7050248 94.15449,65.883535 C94.1343086,64.8629348 93.293589,64.0519948 92.2766903,64.0722497 C91.2597915,64.0925046 90.4517925,64.9362843 90.4719739,65.9568844 C90.4877347,66.7539282 90.4956248,67.5519845 90.4956248,68.3509794 C90.4956248,70.0920868 90.4581583,71.8286766 90.3834331,73.5599745 C90.3394152,74.5798192 91.1274808,75.4423801 92.1436268,75.4865582 C93.1597729,75.5307363 94.0192055,74.7398023 94.0632234,73.7199576 C94.1402488,71.9353684 94.1788661,70.1454385 94.1788661,68.3509794 Z M91.2642216,41.6778391 C91.0427915,40.6815229 90.0585423,40.0540069 89.0658394,40.276243 C88.0731365,40.498479 87.4478963,41.4863108 87.6693264,42.4826271 C88.7352608,47.2787585 89.5039428,52.15281 89.9681101,57.0843558 C90.0637642,58.1006326 90.9621743,58.8466625 91.9747654,58.7506603 C92.9873565,58.654658 93.7306808,57.7529778 93.6350267,56.736701 C93.1563712,51.6512254 92.3636114,46.6245018 91.2642216,41.6778391 Z M86.0757353,68.166147 C86.0757353,59.6188045 85.1277299,51.1939424 83.2668165,43.0016857 C83.0407371,42.0064217 82.0535689,41.3835415 81.0619145,41.6104438 C80.07026,41.837346 79.4496388,42.8281074 79.6757182,43.8233713 C81.4755009,51.7465139 82.3924941,59.895772 82.3924941,68.166147 C82.3924941,74.094593 81.9213188,79.9625824 80.9904813,85.7323762 C80.8279133,86.7400536 81.5100473,87.6892047 82.5140702,87.8523644 C83.5180931,88.0155242 84.4638019,87.3309073 84.6263699,86.3232299 C85.588695,80.3582605 86.0757353,74.2926879 86.0757353,68.166147 Z M78.1567666,66.8723202 C78.1567666,58.7465718 77.1705727,50.7493001 75.2393531,43.0068978 C74.9923528,42.016655 73.9922803,41.4148668 73.0056288,41.6627663 C72.0189773,41.9106657 71.4193716,42.9143783 71.666372,43.904621 C73.5245082,51.3540266 74.4735254,59.0498237 74.4735254,66.8723202 C74.4735254,75.5077647 73.3169604,83.9871696 71.0593971,92.1480265 C70.7873021,93.1316216 71.3611952,94.1503624 72.3412231,94.4234478 C73.3212509,94.6965331 74.3362971,94.1205512 74.6083921,93.1369561 C76.9548308,84.6548237 78.1567666,75.8427805 78.1567666,66.8723202 Z M69.8694738,66.3178231 C69.8694738,59.9001774 69.230207,53.5640338 67.9722094,47.3756452 C67.7688859,46.3754487 66.7961808,45.7300555 65.7996118,45.934119 C64.8030427,46.1381826 64.1599901,47.1144282 64.3633136,48.1146247 C65.5719433,54.060161 66.1862326,60.1487379 66.1862326,66.3178231 C66.1862326,76.6382295 64.4666082,86.7205226 61.139475,96.2574691 C60.8033582,97.2209194 61.30908,98.2754184 62.2690362,98.6127586 C63.2289924,98.9500988 64.2796671,98.4425363 64.6157839,97.4790859 C68.0794243,87.550853 69.8694738,77.0556515 69.8694738,66.3178231 Z M61.2458881,76.5337135 C61.3580221,75.5191352 60.6294293,74.6054235 59.6185305,74.4928814 C58.6076317,74.3803393 57.6972338,75.1115841 57.5850998,76.1261624 C56.764468,83.5511657 54.9378647,90.7642977 52.1717184,97.6084256 C51.7894036,98.5543666 52.2435319,99.6322587 53.1860422,100.015965 C54.1285526,100.399671 55.2025355,99.9438901 55.5848503,98.9979492 C58.4776034,91.8405648 60.3878567,84.2971049 61.2458881,76.5337135 Z M59.6854779,48.2462488 C59.4613868,47.2505321 58.4754645,46.6256672 57.4833589,46.850574 C56.4912533,47.0754808 55.8686546,48.0649917 56.0927458,49.0607084 C57.4113849,54.9198912 58.0831018,60.9440321 58.0831018,67.0571526 C58.0831018,68.0779537 58.9076234,68.9054765 59.9247224,68.9054765 C60.9418214,68.9054765 61.7663431,68.0779537 61.7663431,67.0571526 C61.7663431,60.6695538 61.0641688,54.3722626 59.6854779,48.2462488 Z M47.0715237,98.8812942 C47.0939724,98.8248991 47.1199693,98.7594685 47.1492201,98.6857018 C47.2326381,98.4753323 47.3255256,98.2400426 47.4255309,97.9854173 C47.7113808,97.2576101 47.9972926,96.5199408 48.2646091,95.8166382 C48.297834,95.7292245 48.3306055,95.642774 48.362901,95.5573401 C48.7173341,94.6197299 49.0045944,93.8310772 49.2066179,93.2322811 C49.5328251,92.2654058 49.0163036,91.2161929 48.0529349,90.8887984 C47.0895663,90.5614039 46.0441585,91.0798054 45.7179513,92.0466806 C45.53306,92.5946969 45.2591964,93.3465701 44.9191745,94.246057 C44.8876795,94.3293732 44.8556999,94.4137349 44.8232595,94.4990847 C44.5613,95.1882929 44.2801304,95.9137272 43.9988989,96.6297754 C43.9004258,96.8804995 43.8090118,97.1120567 43.727031,97.3188017 C43.6983922,97.3910251 43.6729974,97.4549401 43.6511429,97.5098425 C43.6291113,97.5651504 43.6291113,97.5651504 43.6247689,97.5760219 C43.2463243,98.5235292 43.7048552,99.5995423 44.6489262,99.9793643 C45.5929972,100.359186 46.6651079,99.8989865 47.0435524,98.9514792 C47.0486614,98.9386875 47.0486614,98.9386875 47.0715237,98.8812942 Z M53.6632123,65.9481583 C53.6632123,60.5787698 53.1670666,55.272081 52.1892312,50.0755884 C52.0004814,49.0725189 51.0372699,48.4129392 50.0378382,48.602376 C49.0384064,48.7918128 48.3812188,49.7585303 48.5699686,50.7615998 C49.5052974,55.7322004 49.9799711,60.8092278 49.9799711,65.9481583 C49.9799711,72.1045797 49.2987035,78.1706953 47.9615489,84.0688544 C47.7358935,85.0642152 48.3569367,86.0547103 49.3486876,86.281187 C50.3404386,86.5076637 51.3273415,85.88436 51.5529969,84.8889992 C52.9510513,78.7222126 53.6632123,72.3810163 53.6632123,65.9481583 Z M45.7442436,65.3936611 C45.7442436,61.2905112 45.419164,57.2277992 44.7767943,53.2319826 C44.614785,52.2242146 43.6694558,51.5390697 42.6653426,51.7016688 C41.6612294,51.8642679 40.9785694,52.8130379 41.1405788,53.8208059 C41.7516778,57.6221054 42.0610024,61.4879175 42.0610024,65.3936611 C42.0610024,76.0036773 39.7766884,86.2856721 35.4253736,95.6978272 C34.9972856,96.6238072 35.3981844,97.7227594 36.3208062,98.1524056 C37.243428,98.5820518 38.3383947,98.1796937 38.7664827,97.2537137 C43.342036,87.3565173 45.7442436,76.5438679 45.7442436,65.3936611 Z M37.8252749,66.8723202 C37.8252749,63.5637734 37.545682,60.2899982 36.9937406,57.0754489 C36.8210139,56.0694754 35.8684461,55.394505 34.8661209,55.5678604 C33.8637957,55.7412158 33.1912732,56.6972508 33.3639999,57.7032244 C33.880377,60.7106444 34.1420337,63.7744026 34.1420337,66.8723202 C34.1420337,75.8904597 31.9307874,84.9211388 27.8984827,92.8311487 C27.4352188,93.739915 27.793698,94.8535323 28.6991685,95.3184825 C29.604639,95.7834327 30.7142175,95.4236487 31.1774815,94.5148824 C35.4729286,86.0886766 37.8252749,76.481748 37.8252749,66.8723202 Z M29.7221442,66.5026555 C29.7221442,63.2508339 29.4520566,60.0325494 28.9187281,56.8709953 C28.7489435,55.8645174 27.7983533,55.1867445 26.7955256,55.3571471 C25.7926978,55.5275497 25.1173829,56.4815999 25.2871675,57.4880778 C25.7861382,60.4459601 26.0389029,63.4578302 26.0389029,66.5026555 C26.0389029,68.1633531 25.9637105,69.8145979 25.8142802,71.4530855 C25.7215706,72.469637 26.4675038,73.3691445 27.4803687,73.4621916 C28.4932336,73.5552387 29.3894788,72.8065903 29.4821884,71.7900387 C29.6418318,70.0395652 29.7221442,68.2758859 29.7221442,66.5026555 Z M27.8801558,80.9935354 C28.1366753,80.0057335 27.546758,78.9962547 26.5625385,78.7388014 C25.5783189,78.4813481 24.5725012,79.0734127 24.3159816,80.0612147 C23.5228498,83.1153956 22.4625269,86.0845512 21.1496451,88.939357 C20.7234061,89.8661958 21.1264974,90.9643398 22.0499749,91.3921304 C22.9734524,91.8199209 24.0676138,91.4153623 24.4938528,90.4885235 C25.8978678,87.4355524 27.031894,84.2600102 27.8801558,80.9935354 Z M21.8031755,66.8723202 C21.8031755,63.5927554 21.4755814,60.3544172 20.8308988,57.191638 C20.6270467,56.1915499 19.6540006,55.5466747 18.6575395,55.7512688 C17.6610784,55.955863 17.0185419,56.9324509 17.2223941,57.9325389 C17.81745,60.8518526 18.1199342,63.8419738 18.1199342,66.8723202 C18.1199342,72.7047658 16.9988848,78.3774885 14.8468118,83.6573016 C14.4617073,84.602102 14.9126529,85.6813393 15.8540268,86.0678455 C16.7954008,86.4543517 17.870724,86.0017647 18.2558284,85.0569643 C20.5882131,79.3347814 21.8031755,73.1868416 21.8031755,66.8723202 Z" id="Touch-ID" fill="url(#linearGradient-1)" sketch:type="MSShapeGroup"></path>
            </g>
        </g>
    </g>
</svg>