<?xml version="1.0" encoding="utf-8"?>
<!-- Generator: Adobe Illustrator 21.0.0, SVG Export Plug-In . SVG Version: 6.00 Build 0)  -->
<svg version="1.1" id="Layer_1" xmlns:sketch="http://www.bohemiancoding.com/sketch/ns"
	 xmlns="http://www.w3.org/2000/svg" xmlns:xlink="http://www.w3.org/1999/xlink" x="0px" y="0px" viewBox="0 0 101.3 101"
	 style="enable-background:new 0 0 101.3 101;" xml:space="preserve">
<style type="text/css">
	.st0{fill:url(#Touch-ID_2_);}
</style>
<title>Touch ID + Touch ID</title>
<desc>Created with Sketch.</desc>
<g id="Page-1" sketch:type="MSPage">
	<g id="TouchID" transform="translate(-311.000000, -197.000000)" sketch:type="MSArtboardGroup">
		<g id="Touch-ID-_x2B_-Touch-ID" transform="translate(311.000000, 197.000000)" sketch:type="MSLayerGroup">
			
				<linearGradient id="Touch-ID_2_" gradientUnits="userSpaceOnUse" x1="-486.5761" y1="558.39" x2="-486.5761" y2="557.3937" gradientTransform="matrix(100 0 0 -100 48708.2578 55839.1523)">
				<stop  offset="0" style="stop-color:#DA5CE6"/>
				<stop  offset="1" style="stop-color:#CC463D"/>
			</linearGradient>
			<path id="Touch-ID_1_" sketch:type="MSShapeGroup" class="st0" d="M59.4,0.9c-1-0.2-2,0.5-2.1,1.5s0.5,2,1.5,2.1
				C80.7,8.4,97,27.7,97,50.3c0,1,0.8,1.8,1.8,1.8c1,0,1.8-0.8,1.8-1.8C100.6,25.9,83.1,5.1,59.4,0.9z M5.8,28
				c-0.5,0.9-0.1,2,0.8,2.5c0.9,0.5,2,0.1,2.5-0.8C16.8,14.2,32.5,4.1,50,3.8c1,0,1.8-0.9,1.8-1.9c0-1-0.8-1.8-1.9-1.8
				C31.1,0.4,14.1,11.3,5.8,28z M0.6,50.3c0,5.7,1,11.3,2.8,16.6c0.3,1,1.4,1.5,2.3,1.1s1.5-1.4,1.1-2.4c-1.7-4.9-2.6-10.1-2.6-15.4
				c0-4.4,0.6-8.7,1.8-12.8c0.3-1-0.3-2-1.3-2.3s-2,0.3-2.3,1.3C1.3,41,0.6,45.6,0.6,50.3z M50.6,8.3c-5.5,0-10.8,1.1-15.8,3.1
				c-0.9,0.4-1.4,1.5-1,2.4c0.4,0.9,1.5,1.4,2.4,1c4.5-1.9,9.4-2.8,14.4-2.8C68.8,12,84.4,24.8,88,42.4c0.2,1,1.2,1.6,2.2,1.4
				c1-0.2,1.6-1.2,1.4-2.2C87.6,22.3,70.6,8.3,50.6,8.3z M12.5,33.2c-3.6,8-4.7,17-2.8,26.1c0.2,1,1.2,1.6,2.2,1.4s1.6-1.2,1.4-2.2
				c-1.7-8.4-0.7-16.5,2.6-23.8c2.9-6.4,7.5-12,12.7-15.7c0.8-0.6,1-1.7,0.4-2.6c-0.6-0.8-1.7-1-2.6-0.4
				C20.7,20.1,15.7,26.1,12.5,33.2z M14.1,67.4c0-3.1-0.3-6.1-0.8-9c-0.2-1-1.2-1.7-2.2-1.5s-1.7,1.2-1.5,2.2
				c0.5,2.7,0.8,5.5,0.8,8.3c0,3.3-0.4,6.6-1.1,9.7c-0.2,1,0.4,2,1.4,2.2c1,0.2,2-0.4,2.2-1.4C13.7,74.5,14.1,71,14.1,67.4z
				 M67.9,21.2c-0.9-0.5-2-0.2-2.5,0.6c-0.5,0.9-0.2,2,0.6,2.5c7.1,4.3,12.2,11.3,14,19.4c0.2,1,1.2,1.6,2.2,1.4
				c1-0.2,1.6-1.2,1.4-2.2C81.6,33.8,75.9,25.9,67.9,21.2z M50.6,16.4c-18.7,0-33.8,15.2-33.8,33.9h1.8l-1.8-0.2c0,0.1,0,0.1,0,0.2
				c-0.1,1.1,0.1,3.5,0.8,7.6c0.2,1,1.1,1.7,2.1,1.5s1.7-1.1,1.5-2.1c-0.3-2.2-0.6-3.9-0.7-5.2c0-0.5-0.1-0.9-0.1-1.2
				c0-0.2,0-0.3,0-0.4c0,0,0-0.2,0-0.2c0-16.7,13.5-30.2,30.1-30.2c2.7,0,5.3,0.4,7.9,1c1,0.3,2-0.3,2.3-1.3c0.3-1-0.3-2-1.3-2.3
				C56.6,16.8,53.7,16.4,50.6,16.4z M50.7,24.4c-14.3,0-26,11.7-26,26.1c0,0.2,0,0.3,0,0.5c0,0.3,0,0.7,0.1,1
				c0.1,1.1,0.2,2.1,0.3,3.2c0.2,1.1,0.3,2.1,0.6,2.9c0.3,1,1.3,1.5,2.3,1.3c1-0.3,1.5-1.3,1.3-2.3c-0.2-0.6-0.3-1.4-0.5-2.4
				c-0.1-0.9-0.2-1.9-0.3-2.9c0-0.4,0-0.7-0.1-1c0-0.1,0-0.2,0-0.3c0-12.4,10-22.4,22.3-22.4c6.8,0,13.1,3.1,17.3,8.3
				c0.6,0.8,1.8,0.9,2.6,0.3s0.9-1.8,0.3-2.6C66,28,58.7,24.4,50.7,24.4z M50.6,32.3c-2.1,0-4.1,0.4-6,1c-1,0.3-1.5,1.4-1.1,2.4
				c0.3,1,1.4,1.5,2.4,1.1c1.5-0.5,3.1-0.8,4.8-0.8c7,0,13,5.1,14.1,12c0.2,1,1.1,1.7,2.1,1.5c1-0.2,1.7-1.1,1.5-2.1
				C66.9,38.7,59.5,32.3,50.6,32.3z M32.7,50.3L32.7,50.3c0,0.2,0,0.3,0,0.5c0,0.3,0,0.7,0.1,1c0.1,1.1,0.2,2.2,0.4,3.2
				c0.2,1.2,0.4,2.2,0.7,3c0.3,1,1.4,1.5,2.4,1.1c1-0.3,1.5-1.4,1.1-2.4c-0.2-0.6-0.4-1.4-0.6-2.4c-0.2-0.9-0.3-1.9-0.3-2.9
				c0-0.3-0.1-0.7-0.1-1c0-0.1,0-0.2,0-0.3c0,0,0-0.1,0-0.1l0,0.1c0-3.4,1.2-6.7,3.4-9.3c0.7-0.8,0.6-1.9-0.2-2.6s-1.9-0.6-2.6,0.2
				C34.2,41.9,32.7,46,32.7,50.3z M50.7,40.6c-5.3,0-9.6,4.3-9.6,9.6c0,0.2,0,0.6,0.1,1.1c0.1,0.8,0.2,1.7,0.4,2.6
				c0.2,1,1.2,1.7,2.2,1.4c1-0.2,1.6-1.2,1.4-2.2c-0.1-0.7-0.2-1.5-0.3-2.1c0-0.2,0-0.4,0-0.6c0-0.1,0-0.2,0-0.2
				c0-3.3,2.6-5.9,5.9-5.9c2.8,0,5.2,2,5.8,4.7c0.2,1,1.2,1.6,2.2,1.4s1.6-1.2,1.4-2.2C59.2,43.9,55.3,40.6,50.7,40.6z M94.6,68.4
				c0-0.8,0-1.6,0-2.5c0-1-0.9-1.8-1.9-1.8s-1.8,0.9-1.8,1.9c0,0.8,0,1.6,0,2.4c0,1.7,0,3.5-0.1,5.2c0,1,0.7,1.9,1.8,1.9
				c1,0,1.9-0.7,1.9-1.8C94.5,71.9,94.6,70.1,94.6,68.4z M91.7,41.7c-0.2-1-1.2-1.6-2.2-1.4c-1,0.2-1.6,1.2-1.4,2.2
				c1.1,4.8,1.8,9.7,2.3,14.6c0.1,1,1,1.8,2,1.7c1-0.1,1.8-1,1.7-2C93.5,51.7,92.8,46.6,91.7,41.7z M86.5,68.2
				c0-8.5-0.9-17-2.8-25.2c-0.2-1-1.2-1.6-2.2-1.4s-1.6,1.2-1.4,2.2c1.8,7.9,2.7,16.1,2.7,24.3c0,5.9-0.5,11.8-1.4,17.6
				c-0.2,1,0.5,2,1.5,2.1s1.9-0.5,2.1-1.5C86,80.4,86.5,74.3,86.5,68.2z M78.5,66.9c0-8.1-1-16.1-2.9-23.9c-0.2-1-1.2-1.6-2.2-1.3
				c-1,0.2-1.6,1.3-1.3,2.2c1.9,7.4,2.8,15.1,2.8,23c0,8.6-1.2,17.1-3.4,25.3c-0.3,1,0.3,2,1.3,2.3s2-0.3,2.3-1.3
				C77.3,84.7,78.5,75.8,78.5,66.9z M70.3,66.3c0-6.4-0.6-12.8-1.9-18.9c-0.2-1-1.2-1.6-2.2-1.4c-1,0.2-1.6,1.2-1.4,2.2
				c1.2,5.9,1.8,12,1.8,18.2c0,10.3-1.7,20.4-5,29.9c-0.3,1,0.2,2,1.1,2.4c1,0.3,2-0.2,2.3-1.1C68.5,87.6,70.3,77.1,70.3,66.3z
				 M61.6,76.5c0.1-1-0.6-1.9-1.6-2s-1.9,0.6-2,1.6c-0.8,7.4-2.6,14.6-5.4,21.5c-0.4,0.9,0.1,2,1,2.4c0.9,0.4,2-0.1,2.4-1
				C58.9,91.8,60.8,84.3,61.6,76.5z M60.1,48.2c-0.2-1-1.2-1.6-2.2-1.4c-1,0.2-1.6,1.2-1.4,2.2c1.3,5.9,2,11.9,2,18
				c0,1,0.8,1.8,1.8,1.8c1,0,1.8-0.8,1.8-1.8C62.2,60.7,61.5,54.4,60.1,48.2z M47.5,98.9c0-0.1,0-0.1,0.1-0.2
				c0.1-0.2,0.2-0.4,0.3-0.7c0.3-0.7,0.6-1.5,0.8-2.2c0-0.1,0.1-0.2,0.1-0.3c0.4-0.9,0.6-1.7,0.8-2.3c0.3-1-0.2-2-1.2-2.3
				c-1-0.3-2,0.2-2.3,1.2c-0.2,0.5-0.5,1.3-0.8,2.2c0,0.1-0.1,0.2-0.1,0.3c-0.3,0.7-0.5,1.4-0.8,2.1c-0.1,0.3-0.2,0.5-0.3,0.7
				c0,0.1-0.1,0.1-0.1,0.2c0,0.1,0,0.1,0,0.1c-0.4,0.9,0.1,2,1,2.4C46,100.4,47.1,99.9,47.5,98.9C47.4,98.9,47.4,98.9,47.5,98.9z
				 M54.1,65.9c0-5.4-0.5-10.7-1.5-15.9c-0.2-1-1.2-1.7-2.2-1.5c-1,0.2-1.7,1.2-1.5,2.2c0.9,5,1.4,10,1.4,15.2
				c0,6.2-0.7,12.2-2,18.1c-0.2,1,0.4,2,1.4,2.2c1,0.2,2-0.4,2.2-1.4C53.3,78.7,54.1,72.4,54.1,65.9z M46.1,65.4
				c0-4.1-0.3-8.2-1-12.2c-0.2-1-1.1-1.7-2.1-1.5c-1,0.2-1.7,1.1-1.5,2.1c0.6,3.8,0.9,7.7,0.9,11.6c0,10.6-2.3,20.9-6.6,30.3
				c-0.4,0.9,0,2,0.9,2.5c0.9,0.4,2,0,2.4-0.9C43.7,87.4,46.1,76.5,46.1,65.4z M38.2,66.9c0-3.3-0.3-6.6-0.8-9.8
				c-0.2-1-1.1-1.7-2.1-1.5c-1,0.2-1.7,1.1-1.5,2.1c0.5,3,0.8,6.1,0.8,9.2c0,9-2.2,18-6.2,26c-0.5,0.9-0.1,2,0.8,2.5
				c0.9,0.5,2,0.1,2.5-0.8C35.9,86.1,38.2,76.5,38.2,66.9z M30.1,66.5c0-3.3-0.3-6.5-0.8-9.6c-0.2-1-1.1-1.7-2.1-1.5
				c-1,0.2-1.7,1.1-1.5,2.1c0.5,3,0.8,6,0.8,9c0,1.7-0.1,3.3-0.2,5c-0.1,1,0.7,1.9,1.7,2c1,0.1,1.9-0.7,2-1.7
				C30,70,30.1,68.3,30.1,66.5z M28.3,81c0.3-1-0.3-2-1.3-2.3c-1-0.3-2,0.3-2.2,1.3c-0.8,3.1-1.9,6-3.2,8.9c-0.4,0.9,0,2,0.9,2.5
				c0.9,0.4,2,0,2.4-0.9C26.3,87.4,27.4,84.3,28.3,81z M22.2,66.9c0-3.3-0.3-6.5-1-9.7c-0.2-1-1.2-1.6-2.2-1.4
				c-1,0.2-1.6,1.2-1.4,2.2c0.6,2.9,0.9,5.9,0.9,8.9c0,5.8-1.1,11.5-3.3,16.8c-0.4,0.9,0.1,2,1,2.4s2-0.1,2.4-1
				C21,79.3,22.2,73.2,22.2,66.9z"/>
		</g>
	</g>
</g>
</svg>
