<?xml version="1.0" encoding="UTF-8" standalone="no"?>
<svg width="572px" height="114px" viewBox="0 0 572 114" version="1.1" xmlns="http://www.w3.org/2000/svg" xmlns:xlink="http://www.w3.org/1999/xlink" xmlns:sketch="http://www.bohemiancoding.com/sketch/ns">
    <!-- Generator: Sketch 3.2 (9961) - http://www.bohemiancoding.com/sketch -->
    <title>logo</title>
    <desc>Created with Sketch.</desc>
    <defs></defs>
    <g id="Page-1" stroke="none" stroke-width="1" fill="none" fill-rule="evenodd" sketch:type="MSPage">
        <g id="logo" sketch:type="MSLayerGroup">
            <g id="Page-1">
                <g id="Group">
                    <path d="M83.67,0 L84.75,0 L84.75,41 L37.75,41 C37.74,29.45 37.77,17.91 37.74,6.36 C53.06,4.29 68.35,2.07 83.67,0 L83.67,0 L83.67,0 Z" id="Shape" fill="#00BCF2" sketch:type="MSShapeGroup"></path>
                    <path d="M0,11.72 C12.05,9.87 24.15,8.26 36.24,6.63 C36.26,18.09 36.24,29.54 36.25,41 C24.17,40.94 12.08,41.13 0,40.89 L0,11.72 L0,11.72 Z" id="Shape" fill="#00BCF2" sketch:type="MSShapeGroup"></path>
                    <path d="M258.75,13.75 C260.75,13.75 262.75,13.75 264.75,13.76 C264.74,31.59 264.75,49.42 264.75,67.25 L258.75,67.25 C258.74,65.23 258.74,63.21 258.76,61.19 C254.37,69.45 241.49,70.46 235.56,63.44 C231.57,59 230.87,52.59 231.36,46.87 C231.82,40.68 234.99,34.21 240.86,31.54 C246.9,28.89 255.1,29.74 258.87,35.72 C258.61,28.4 258.81,21.07 258.75,13.75 L258.75,13.75 L258.75,13.75 Z M245.46,35.71 C240.92,36.97 238.15,41.61 237.64,46.08 C237.15,50.66 237.36,55.81 240.43,59.52 C243.32,63.08 248.77,63.78 252.76,61.77 C256.56,59.75 258.64,55.4 258.72,51.21 C258.75,47.04 259.43,42.1 256.25,38.82 C253.72,35.69 249.26,34.5 245.46,35.71 L245.46,35.71 L245.46,35.71 Z" id="Shape" fill="#00BCF2" sketch:type="MSShapeGroup"></path>
                    <path d="M180.47,16.37 C183.33,13.62 188.4,17.12 186.74,20.76 C185.6,24.02 180.53,24.08 179.3,20.86 C179.14,19.32 178.93,17.32 180.47,16.37 L180.47,16.37 L180.47,16.37 Z" id="Shape" fill="#00BCF2" sketch:type="MSShapeGroup"></path>
                    <path d="M109.67,16.76 C111.93,16.75 114.2,16.75 116.47,16.75 C120.28,30.94 124.66,45 128.04,59.31 C131.69,45.03 136.17,30.97 140.17,16.78 C142.17,16.76 144.17,16.75 146.17,16.74 C149.17,27.46 152.07,38.21 155.04,48.94 C156.04,52.69 157.34,56.42 157.49,60.34 C160.75,45.69 165.09,31.29 168.81,16.75 L175.53,16.75 C170.77,33.59 165.98,50.41 161.22,67.25 C158.84,67.25 156.46,67.25 154.09,67.26 C151.11,56.75 148.14,46.24 145.17,35.74 C144.21,32.45 143.19,29.16 142.88,25.74 C139.95,39.76 135.18,53.35 131.6,67.23 C129.24,67.24 126.89,67.26 124.54,67.26 C119.49,50.45 114.67,33.58 109.67,16.76 L109.67,16.76 L109.67,16.76 Z" id="Shape" fill="#00BCF2" sketch:type="MSShapeGroup"></path>
                    <path d="M400.12,66.99 C406.57,50.23 412.95,33.44 419.46,16.7 C421.56,16.74 423.67,16.75 425.78,16.78 C432.24,33.53 438.76,50.25 445.22,67 L438.33,67 C436.62,62.32 434.81,57.67 433.06,53 L411.99,53 C410.33,57.68 408.67,62.35 406.95,67.01 C404.67,67 402.39,67 400.12,66.99 L400.12,66.99 L400.12,66.99 Z M414.02,47.5 C419.69,47.51 425.35,47.48 431.02,47.52 C428.28,39.56 424.85,31.82 422.53,23.72 C420.05,31.77 416.84,39.56 414.02,47.5 L414.02,47.5 L414.02,47.5 Z" id="Shape" fill="#00BCF2" sketch:type="MSShapeGroup"></path>
                    <path d="M200.44,36.67 C204.11,30.33 212.9,28.28 219.15,31.85 C223.33,34.44 224.48,39.7 224.68,44.27 C224.85,51.93 224.69,59.59 224.75,67.25 L218.5,67.25 C218.44,59.51 218.6,51.77 218.44,44.03 C218.4,40.17 216.03,35.91 211.89,35.41 C206.14,34.26 200.8,39.46 200.58,45.06 C200.37,52.45 200.57,59.85 200.5,67.25 L194.5,67.25 C194.49,55.17 194.5,43.08 194.5,31 L200.52,31 C200.5,32.89 200.48,34.78 200.44,36.67 L200.44,36.67 L200.44,36.67 Z" id="Shape" fill="#00BCF2" sketch:type="MSShapeGroup"></path>
                    <path d="M284.55,30.73 C290.17,29.71 296.7,29.75 301.26,33.68 C308.05,39.41 308.62,49.82 305.77,57.68 C301.23,70.24 281.36,71.79 274.52,60.56 C268.29,50.51 271.76,33.47 284.55,30.73 L284.55,30.73 L284.55,30.73 Z M286.41,35.69 C275.22,38.77 274.64,57.57 285.02,62.06 C290.11,64.04 297.05,62.64 299.5,57.33 C301.89,52.13 301.89,45.7 299.3,40.57 C297.01,35.96 291.11,34.38 286.41,35.69 L286.41,35.69 L286.41,35.69 Z" id="Shape" fill="#00BCF2" sketch:type="MSShapeGroup"></path>
                    <path d="M366.01,32.92 C370.82,29.22 377.61,29.64 383.01,31.74 C383,33.79 383,35.84 383.01,37.89 C379.81,36.07 376.06,34.56 372.34,35.58 C369.9,36.13 367.98,38.53 368.42,41.08 C368.63,43.38 370.76,44.66 372.63,45.56 C376.25,47.34 380.43,48.59 382.96,51.93 C385.81,56.14 384.81,62.63 380.48,65.47 C375.14,69.07 367.93,68.64 362.24,66.08 C362.25,63.88 362.25,61.67 362.24,59.47 C365.98,62.26 370.95,63.86 375.51,62.27 C378.77,61.27 379.33,56.28 376.56,54.43 C372.82,51.67 367.94,50.76 364.57,47.44 C360.86,43.37 361.52,36.18 366.01,32.92 L366.01,32.92 L366.01,32.92 Z" id="Shape" fill="#00BCF2" sketch:type="MSShapeGroup"></path>
                    <path d="M544.18,36.18 C549.34,29.26 560.73,27.97 567.05,33.95 C571.41,38.25 571.8,44.74 571.51,50.5 C563.02,50.53 554.54,50.45 546.06,50.55 C546.49,54.59 547.7,59.13 551.52,61.27 C557.14,64.31 564.1,62.54 569.02,58.91 C569,60.87 568.99,62.83 568.97,64.79 C563.52,67.88 556.83,68.9 550.78,67.16 C546.05,65.8 542.44,61.69 541.12,57.02 C539.04,50.11 539.69,42.03 544.18,36.18 L544.18,36.18 L544.18,36.18 Z M550.11,37.98 C547.95,39.92 547.08,42.76 546.21,45.43 C552.71,45.55 559.21,45.52 565.71,45.45 C565.08,42.68 564.79,39.5 562.55,37.47 C559.11,34.32 553.33,34.7 550.11,37.98 L550.11,37.98 L550.11,37.98 Z" id="Shape" fill="#00BCF2" sketch:type="MSShapeGroup"></path>
                    <path d="M180,31 L186,31 L186,67.25 L180,67.25 L180,31 L180,31 Z" id="Shape" fill="#00BCF2" sketch:type="MSShapeGroup"></path>
                    <path d="M309.23,31 C311.36,31 313.49,31 315.62,31.01 C318.15,40.94 321.31,50.71 323.54,60.72 C326.23,50.73 329.53,40.92 332.51,31.02 C334.33,31.01 336.16,30.99 337.99,30.99 C340.68,40.84 343.64,50.61 346.03,60.53 C348.51,50.65 351.38,40.86 353.95,31 L360.02,31 C356.36,43.08 352.72,55.16 349.09,67.25 L342.89,67.25 C340.26,57.81 337.3,48.47 334.87,38.98 C332.18,48.47 329.08,57.84 326.14,67.26 C324.14,67.25 322.15,67.24 320.15,67.22 C316.56,55.14 312.84,43.08 309.23,31 L309.23,31 L309.23,31 Z" id="Shape" fill="#00BCF2" sketch:type="MSShapeGroup"></path>
                    <path d="M448.75,31 C458.22,31.08 467.69,30.82 477.15,31.14 C476.61,32.52 476.14,33.94 475.19,35.1 C468.62,44.04 462.12,53.04 455.58,62 L476.5,62 L476.5,67 C466.5,66.98 456.49,67.05 446.49,66.96 C446.79,65.57 447.23,64.19 448.15,63.07 C454.71,54.14 461.21,45.17 467.76,36.24 C461.42,36.26 455.09,36.25 448.75,36.25 C448.74,34.5 448.74,32.75 448.75,31 L448.75,31 L448.75,31 Z" id="Shape" fill="#00BCF2" sketch:type="MSShapeGroup"></path>
                    <path d="M481.25,31 L487.25,31 C487.26,38.35 487.23,45.69 487.24,53.04 C487.24,56.35 488.35,60.04 491.38,61.82 C495.24,63.81 500.62,62.77 503.08,59.04 C505.4,55.86 505.31,51.73 505.27,47.98 C505.23,42.32 505.26,36.66 505.25,31 L511.25,31 L511.25,67 L505.23,67 C505.24,65.25 505.27,63.51 505.31,61.76 C501.49,68.59 491.59,69.92 485.57,65.38 C482.33,62.6 481.23,58.09 481.24,53.98 C481.25,46.32 481.26,38.66 481.25,31 L481.25,31 L481.25,31 Z" id="Shape" fill="#00BCF2" sketch:type="MSShapeGroup"></path>
                    <path d="M520.75,31 L526.77,31 C526.75,33.21 526.72,35.41 526.66,37.61 C528.63,32.32 534.22,29.13 539.74,30.77 C539.75,32.84 539.76,34.92 539.8,36.99 C537.31,36.1 534.44,35.37 531.97,36.73 C528.17,39.03 526.71,43.79 526.74,48.01 C526.73,54.34 526.75,60.67 526.75,67 L520.75,67 L520.75,31 L520.75,31 Z" id="Shape" fill="#00BCF2" sketch:type="MSShapeGroup"></path>
                    <path d="M0,46.07 L0.32,42.75 L36.25,42.75 C36.25,54.27 36.26,65.79 36.24,77.32 C24.18,75.5 12.04,74.1 0,72.13 L0,46.07 L0,46.07 Z" id="Shape" fill="#00BCF2" sketch:type="MSShapeGroup"></path>
                    <path d="M37.75,42.75 L84.75,42.75 C84.75,56.5 84.74,70.25 84.75,84 L84.16,84 C68.7,81.73 53.2,79.73 37.75,77.46 C37.76,65.89 37.75,54.32 37.75,42.75 L37.75,42.75 L37.75,42.75 Z" id="Shape" fill="#00BCF2" sketch:type="MSShapeGroup"></path>
                    <text id="Service-Bus" fill="#000000" sketch:type="MSTextLayer" font-family="Arial" font-size="32.2237762" font-weight="normal">
                        <tspan x="399.923828" y="112.75963">Service Bus</tspan>
                    </text>
                </g>
            </g>
        </g>
    </g>
</svg>