<?xml version="1.0" encoding="UTF-8" standalone="no"?>
<svg width="452px" height="105px" viewBox="0 0 452 105" version="1.1" xmlns="http://www.w3.org/2000/svg" xmlns:xlink="http://www.w3.org/1999/xlink" xmlns:sketch="http://www.bohemiancoding.com/sketch/ns">
    <!-- Generator: Sketch 3.2.2 (9983) - http://www.bohemiancoding.com/sketch -->
    <title>azure-sub-logos</title>
    <desc>Created with Sketch.</desc>
    <defs></defs>
    <g id="Page-1" stroke="none" stroke-width="1" fill="none" fill-rule="evenodd" sketch:type="MSPage">
        <path d="M358.660437,75.9990025 C351.741944,63.6744186 346.04486,53.5235876 346.000261,53.4413274 C345.955733,53.3589225 351.624871,43.141734 358.598475,30.7359018 L371.277775,8.17981698 L396.640569,8.17981698 L422.003363,8.17981698 L434.545597,30.5063248 C441.443836,42.7859475 447.137765,52.9629456 447.198774,53.1219725 C447.26224,53.287505 441.91911,63.0085296 434.701588,75.8586251 L422.093459,98.3061379 L396.666491,98.3567374 L371.239508,98.4073369 L358.660437,75.9992916 L358.660437,75.9990025 Z M417.487766,80.0638743 C419.397621,79.3122554 420.905528,77.8003434 421.631023,75.9096583 C421.926567,75.1395344 421.964748,73.1548788 422.013815,56.0075877 L422.068318,36.9609371 L416.870669,31.6128628 L411.673005,26.2647885 L394.217491,26.2647885 C376.851552,26.2647885 376.756122,26.2647885 375.621855,26.6912697 C374.250667,27.2043483 372.723373,28.5660522 372.067575,29.8602419 C371.182215,31.6073692 371.162336,32.1804443 371.223692,54.1870189 L371.281809,75.0542382 L371.908765,76.3774865 C372.933693,78.5408304 374.705296,79.9411345 376.892393,80.3165825 C377.413611,80.4062159 386.559566,80.4649112 397.216738,80.4481411 C415.246036,80.4192271 416.655592,80.3917589 417.487708,80.0644526 L417.487766,80.0638743 Z M376.945913,76.520177 C376.297604,76.261686 375.59855,75.5997004 375.188001,74.8554546 C374.889319,74.3140403 374.853466,72.4336196 374.797749,54.3858025 C374.764064,43.4553061 374.793412,33.9564855 374.862516,33.2771515 C375.008619,31.8461986 375.52388,30.9517447 376.54904,30.349611 C377.234764,29.9466947 377.458977,29.9413457 393.54021,29.9413457 L409.836476,29.9413457 L409.889967,34.3631606 L409.943458,38.7849755 L414.212462,38.7849755 L418.481452,38.7849755 L418.480267,56.2240088 C418.479674,67.0557639 418.404946,73.9299181 418.283478,74.3673866 C418.061491,75.166569 417.064711,76.2188933 416.232667,76.5324654 C415.483188,76.8150996 377.655621,76.8032448 376.945855,76.5180084 L376.945913,76.520177 Z M392.783199,71.2480019 C393.736608,70.8520249 394.769907,69.6723345 395.259811,68.4206484 C395.863014,66.8793887 396.032017,61.7686981 395.543746,59.8349312 C394.888136,57.2381666 393.468489,56.0749572 390.95504,56.0749572 C388.737135,56.0749572 387.674113,56.5685189 386.66075,58.068287 C385.826856,59.3026248 385.457307,61.1759616 385.466227,64.1237418 C385.480973,68.9989279 386.598816,71.1064679 389.41232,71.5633088 C390.528559,71.7445995 391.895568,71.6167997 392.783199,71.2480019 L392.783199,71.2480019 Z M389.653289,69.1076445 C389.373648,68.9502079 389.036149,68.5827112 388.903275,68.2909692 C388.164595,66.6699069 388.123436,61.3910816 388.836917,59.781874 C389.315617,58.702226 389.748026,58.3694261 390.672435,58.3694261 C392.350833,58.3694261 392.944885,59.8324735 392.928245,63.9249582 C392.91668,66.713567 392.683807,67.9035218 391.993196,68.6982226 C391.454644,69.3179937 390.365151,69.5085368 389.653289,69.1076445 L389.653289,69.1076445 Z M407.352273,70.2845881 L407.352273,69.1914951 L405.961135,69.1914951 L404.569982,69.1914951 L404.569982,62.753942 C404.569982,55.5676614 404.680868,56.0749572 403.111388,56.0749572 C402.419953,56.0749572 401.956751,56.2921012 400.334865,57.3768092 L398.388246,58.6785165 L398.448387,59.6125827 C398.520816,60.7379148 398.718111,60.7503478 400.446227,59.7383585 L401.588951,59.0689998 L401.588951,64.130392 L401.588951,69.1919288 L400.119702,69.1919288 C398.55586,69.1919288 398.409194,69.2858992 398.409194,70.2850218 C398.409194,71.4057276 398.292671,71.3779702 403.001356,71.3779702 L407.352259,71.3779702 L407.352259,70.2850218 L407.352273,70.2845881 Z M404.875198,50.130243 C406.517715,49.4037792 407.423778,47.6689404 407.775271,44.5777468 C408.000236,42.5994523 407.814015,39.7376912 407.358244,38.1665055 C406.761705,36.1104324 405.154666,35.0063521 402.768309,35.013436 C400.29161,35.027893 398.924484,35.9673082 397.98984,38.321629 C397.573739,39.3697608 397.529038,39.8037596 397.522315,42.8590999 C397.513641,46.5486683 397.753338,47.7730308 398.735401,49.0698227 C399.914976,50.6274188 402.674035,51.1039212 404.875198,50.130243 L404.875198,50.130243 Z M401.424994,47.8262325 C400.617427,47.1467539 400.348585,45.8855261 400.348585,42.7764059 C400.348585,38.7209311 400.974529,37.2865085 402.722625,37.3359514 C403.569935,37.3605283 404.296124,37.9988044 404.578917,38.969013 C404.934935,40.1904841 405.04329,43.9189418 404.769807,45.5378355 C404.560874,46.7747756 404.409611,47.1333089 403.868659,47.6742895 C403.06222,48.4807004 402.261924,48.5304325 401.424994,47.8262325 L401.424994,47.8262325 Z M395.388883,49.2683172 L395.328742,48.2249563 L393.987278,48.1656826 L392.645814,48.1064089 L392.645814,41.6786866 L392.645814,35.2511089 L391.933576,35.1181046 C390.828266,34.9107914 390.109841,35.1658127 388.22744,36.4310884 L386.485025,37.6025383 L386.485025,38.5911073 C386.485025,39.170688 386.574369,39.5796763 386.701157,39.5796763 C386.819994,39.5796763 387.476992,39.2666824 388.161082,38.8841505 C388.845172,38.5016185 389.463368,38.1884801 389.534829,38.1884801 C389.606246,38.1884801 389.664797,40.4204948 389.664797,43.1485288 L389.664797,48.1085775 L388.124607,48.1664054 L386.584403,48.2242334 L386.521515,48.9904539 C386.408317,50.3686387 386.209865,50.3109553 391.060128,50.3109553 L395.448923,50.3109553 L395.388926,49.2675944 L395.388883,49.2683172 Z" id="Shape-2" fill="#00B6EC" sketch:type="MSShapeGroup"></path>
        <path d="M129.399694,84.367156 L129.399694,60.446784 L136.205491,60.446784 C138.273929,60.446784 139.914199,60.9527655 141.126348,61.9647435 C142.338498,62.9767215 142.944563,64.2944973 142.944563,65.9181104 C142.944563,67.2748282 142.577588,68.4535981 141.843626,69.4544555 C141.109664,70.4553129 140.097701,71.167023 138.807707,71.5896073 L138.807707,71.6563307 C140.420199,71.8453816 141.710174,72.4542274 142.677669,73.4828864 C143.645165,74.5115453 144.128905,75.848782 144.128905,77.4946363 C144.128905,79.5408337 143.394954,81.1977838 141.92703,82.4655365 C140.459106,83.7332892 138.607547,84.367156 136.372299,84.367156 L129.399694,84.367156 Z M132.202081,62.9822767 L132.202081,70.705521 L135.071191,70.705521 C136.605839,70.705521 137.81241,70.3357653 138.690941,69.5962429 C139.569471,68.8567205 140.00873,67.8141764 140.00873,66.4685792 C140.00873,64.1443659 138.479665,62.9822767 135.42149,62.9822767 L132.202081,62.9822767 Z M132.202081,73.2243328 L132.202081,81.8316633 L136.00532,81.8316633 C137.651174,81.8316633 138.927248,81.4424469 139.83358,80.6640022 C140.739912,79.8855576 141.193072,78.8179924 141.193072,77.4612746 C141.193072,74.6366326 139.26923,73.2243328 135.42149,73.2243328 L132.202081,73.2243328 Z M151.351723,84.367156 L148.61606,84.367156 L148.61606,59.0789524 L151.351723,59.0789524 L151.351723,84.367156 Z M164.029187,84.767497 C161.504802,84.767497 159.489217,83.9696032 157.98237,82.3737917 C156.475524,80.7779802 155.722112,78.6623106 155.722112,76.0267195 C155.722112,73.157595 156.506105,70.9168201 158.074115,69.3043276 C159.642125,67.6918352 161.760575,66.885601 164.429528,66.885601 C166.976154,66.885601 168.963938,67.6695942 170.39294,69.2376041 C171.821942,70.8056141 172.536432,72.9796661 172.536432,75.7598255 C172.536432,78.4843818 171.76634,80.6667742 170.226131,82.3070682 C168.685923,83.9473623 166.620295,84.767497 164.029187,84.767497 L164.029187,84.767497 Z M164.229357,69.1875615 C162.472297,69.1875615 161.082238,69.7852868 160.059139,70.9807554 C159.03604,72.1762239 158.524499,73.8248337 158.524499,75.9266343 C158.524499,77.9505903 159.041601,79.5463779 160.07582,80.7140448 C161.110039,81.8817118 162.494538,82.4655365 164.229357,82.4655365 C165.997539,82.4655365 167.357016,81.8928323 168.307831,80.7474066 C169.258645,79.6019809 169.734045,77.9728319 169.734045,75.8599108 C169.734045,73.7247483 169.258645,72.0789186 168.307831,70.9223723 C167.357016,69.765826 165.997539,69.1875615 164.229357,69.1875615 L164.229357,69.1875615 Z M179.709208,81.8983868 L179.642484,81.8983868 L179.642484,84.367156 L176.906821,84.367156 L176.906821,59.0789524 L179.642484,59.0789524 L179.642484,70.2884992 L179.709208,70.2884992 C181.054805,68.0198891 183.023128,66.885601 185.614237,66.885601 C187.805002,66.885601 189.520335,67.6501334 190.760286,69.1792211 C192.000237,70.7083088 192.620203,72.7572555 192.620203,75.3261228 C192.620203,78.1841267 191.925174,80.4721636 190.535094,82.1903021 C189.145015,83.9084406 187.243414,84.767497 184.830236,84.767497 C182.572746,84.767497 180.865754,83.8111365 179.709208,81.8983868 L179.709208,81.8983868 Z M179.642484,75.0091862 L179.642484,77.3945511 C179.642484,78.8068721 180.101204,80.0051028 181.018656,80.9892792 C181.936109,81.9734557 183.100978,82.4655365 184.513299,82.4655365 C186.170274,82.4655365 187.468589,81.8316697 188.408283,80.563917 C189.347977,79.2961643 189.817817,77.5335697 189.817817,75.2760802 C189.817817,73.3744512 189.378558,71.8843081 188.500028,70.8056062 C187.621497,69.7269044 186.431607,69.1875615 184.930321,69.1875615 C183.34007,69.1875615 182.061216,69.740805 181.09372,70.8473084 C180.126225,71.9538119 179.642484,73.3410906 179.642484,75.0091862 L179.642484,75.0091862 Z M205.597923,83.3996654 L205.597923,80.0968525 C205.976024,80.4304717 206.429183,80.7307244 206.957414,80.9976197 C207.485644,81.264515 208.041668,81.4897045 208.625501,81.673195 C209.209335,81.8566856 209.795939,81.9984716 210.385333,82.0985573 C210.974727,82.198643 211.51963,82.2486852 212.020059,82.2486852 C213.743758,82.2486852 215.030952,81.9289716 215.881681,81.289535 C216.73241,80.6500983 217.157768,79.7298793 217.157768,78.5288505 C217.157768,77.8838535 217.015982,77.3222697 216.732405,76.8440823 C216.448829,76.3658949 216.056833,75.9294164 215.556404,75.5346337 C215.055975,75.1398511 214.46381,74.7617551 213.779891,74.4003344 C213.095972,74.0389136 212.35924,73.6580375 211.569675,73.2576946 C210.735627,72.8351103 209.957194,72.4069722 209.234353,71.9732673 C208.511512,71.5395625 207.883205,71.0613822 207.349414,70.5387123 C206.815624,70.0160423 206.395826,69.4238772 206.090008,68.7621993 C205.784191,68.1005213 205.631284,67.3248685 205.631284,66.4352175 C205.631284,65.345395 205.870374,64.3973748 206.348562,63.5911286 C206.826749,62.7848824 207.455056,62.1204342 208.233501,61.5977643 C209.011945,61.0750943 209.898803,60.6858778 210.8941,60.4301032 C211.889397,60.1743285 212.90414,60.0464431 213.938359,60.0464431 C216.295934,60.0464431 218.014047,60.3300151 219.092749,60.8971676 L219.092749,64.0498526 C217.680428,63.0712365 215.867791,62.5819358 213.654784,62.5819358 C213.043149,62.5819358 212.431523,62.6458785 211.819888,62.7737658 C211.208253,62.9016532 210.66335,63.110162 210.185163,63.3992986 C209.706975,63.6884351 209.317759,64.0609709 209.017502,64.5169171 C208.717244,64.9728632 208.567118,65.5288867 208.567118,66.1850044 C208.567118,66.7966394 208.681103,67.3248618 208.909076,67.7696873 C209.137049,68.2145128 209.473443,68.62041 209.918269,68.9873911 C210.363094,69.3543721 210.905217,69.7102272 211.544654,70.0549669 C212.184091,70.3997067 212.920822,70.7778027 213.75487,71.1892663 C214.611159,71.6118505 215.422953,72.0566694 216.190277,72.5237361 C216.957601,72.9908029 217.63039,73.5079048 218.208663,74.0750573 C218.786936,74.6422099 219.245655,75.2705165 219.584835,75.959996 C219.924014,76.6494755 220.093601,77.439029 220.093601,78.32868 C220.093601,79.5074676 219.862852,80.5055298 219.401345,81.3228967 C218.939839,82.1402636 218.317092,82.8047117 217.533087,83.316261 C216.749082,83.8278104 215.845544,84.197566 214.822445,84.4255391 C213.799347,84.6535122 212.720661,84.767497 211.586356,84.767497 C211.208254,84.767497 210.741195,84.7369157 210.185163,84.6757522 C209.629131,84.6145887 209.061987,84.5256249 208.483714,84.4088582 C207.905441,84.2920915 207.357757,84.1475254 206.840648,83.9751555 C206.323538,83.8027856 205.9093,83.6109575 205.597923,83.3996654 L205.597923,83.3996654 Z M232.420767,84.2003473 C231.77577,84.5562077 230.925054,84.7341353 229.868593,84.7341353 C226.877141,84.7341353 225.381438,83.0660646 225.381438,79.7298733 L225.381438,69.6212642 L222.445604,69.6212642 L222.445604,67.285942 L225.381438,67.285942 L225.381438,63.1157237 L228.117101,62.2316374 L228.117101,67.285942 L232.420767,67.285942 L232.420767,69.6212642 L228.117101,69.6212642 L228.117101,79.246128 C228.117101,80.3915537 228.31171,81.2089083 228.700932,81.6982164 C229.090154,82.1875244 229.735141,82.4321748 230.635913,82.4321748 C231.325393,82.4321748 231.920338,82.2431268 232.420767,81.8650251 L232.420767,84.2003473 Z M243.213291,84.767497 C240.688907,84.767497 238.673321,83.9696032 237.166475,82.3737917 C235.659629,80.7779802 234.906217,78.6623106 234.906217,76.0267195 C234.906217,73.157595 235.69021,70.9168201 237.25822,69.3043276 C238.82623,67.6918352 240.944679,66.885601 243.613632,66.885601 C246.160258,66.885601 248.148043,67.6695942 249.577045,69.2376041 C251.006046,70.8056141 251.720537,72.9796661 251.720537,75.7598255 C251.720537,78.4843818 250.950444,80.6667742 249.410236,82.3070682 C247.870027,83.9473623 245.8044,84.767497 243.213291,84.767497 L243.213291,84.767497 Z M243.413462,69.1875615 C241.656401,69.1875615 240.266342,69.7852868 239.243244,70.9807554 C238.220145,72.1762239 237.708603,73.8248337 237.708603,75.9266343 C237.708603,77.9505903 238.225705,79.5463779 239.259925,80.7140448 C240.294144,81.8817118 241.678642,82.4655365 243.413462,82.4655365 C245.181643,82.4655365 246.541121,81.8928323 247.491935,80.7474066 C248.44275,79.6019809 248.91815,77.9728319 248.91815,75.8599108 C248.91815,73.7247483 248.44275,72.0789186 247.491935,70.9223723 C246.541121,69.765826 245.181643,69.1875615 243.413462,69.1875615 L243.413462,69.1875615 Z M264.998512,70.0549669 C264.520324,69.6879859 263.830855,69.5044981 262.930083,69.5044981 C261.762416,69.5044981 260.786595,70.0549614 260.00259,71.1559046 C259.218585,72.2568477 258.826589,73.7581112 258.826589,75.6597403 L258.826589,84.367156 L256.090925,84.367156 L256.090925,67.285942 L258.826589,67.285942 L258.826589,70.8056062 L258.893312,70.8056062 C259.282534,69.6045774 259.87748,68.6676777 260.678166,67.9948791 C261.478851,67.3220805 262.374049,66.9856863 263.363786,66.9856863 C264.075507,66.9856863 264.62041,67.0635296 264.998512,67.2192185 L264.998512,70.0549669 Z M280.194787,84.367156 L277.459124,84.367156 L277.459124,81.6982164 L277.3924,81.6982164 C276.202492,83.7444137 274.451018,84.767497 272.137925,84.767497 C270.436468,84.767497 269.104791,84.3171179 268.142856,83.4163463 C267.180921,82.5155746 266.699961,81.320124 266.699961,79.8299586 C266.699961,76.6383356 268.57932,74.7812169 272.338096,74.258547 L277.459124,73.5412694 C277.459124,70.638783 276.285914,69.1875615 273.93946,69.1875615 C271.882142,69.1875615 270.025023,69.8881512 268.368048,71.2893515 L268.368048,68.4869649 C270.047264,67.4193836 271.982226,66.885601 274.172992,66.885601 C278.187542,66.885601 280.194787,69.009611 280.194787,73.2576946 L280.194787,84.367156 Z M277.459124,75.7264638 L273.338948,76.2936135 C272.071196,76.4715437 271.114835,76.785697 270.469838,77.2360828 C269.824841,77.6864686 269.502347,78.4843624 269.502347,79.6297881 C269.502347,80.4638359 269.79982,81.1449648 270.394774,81.673195 C270.989728,82.2014253 271.782062,82.4655365 272.771799,82.4655365 C274.128516,82.4655365 275.248904,81.9901364 276.132995,81.0393219 C277.017085,80.0885073 277.459124,78.8847164 277.459124,77.4279128 L277.459124,75.7264638 Z M299.92826,82.9993245 C299.92826,89.2713641 296.925733,92.4073369 290.920589,92.4073369 C288.807667,92.4073369 286.961669,92.0069999 285.382539,91.206314 L285.382539,88.4706508 C287.306409,89.538232 289.141287,90.0720146 290.887227,90.0720146 C295.090828,90.0720146 297.192597,87.8368 297.192597,83.3663037 L297.192597,81.4980459 L297.125873,81.4980459 C295.824759,83.6776909 293.867556,84.767497 291.254206,84.767497 C289.130164,84.767497 287.420392,84.0085249 286.124837,82.4905578 C284.829283,80.9725908 284.181516,78.9347645 284.181516,76.3770178 C284.181516,73.4745314 284.879325,71.1670337 286.274965,69.4544555 C287.670605,67.7418773 289.580546,66.885601 292.004845,66.885601 C294.306817,66.885601 296.01381,67.8086001 297.125873,69.654626 L297.192597,69.654626 L297.192597,67.285942 L299.92826,67.285942 L299.92826,82.9993245 Z M297.192597,76.6439118 L297.192597,74.1251 C297.192597,72.7683822 296.733877,71.606293 295.816425,70.6387975 C294.898972,69.671302 293.756344,69.1875615 292.388505,69.1875615 C290.698168,69.1875615 289.374832,69.8019675 288.418458,71.030798 C287.462083,72.2596285 286.983902,73.9805213 286.983902,76.1935282 C286.983902,78.0951573 287.442622,79.6158817 288.360074,80.755747 C289.277527,81.8956124 290.492439,82.4655365 292.004845,82.4655365 C293.539493,82.4655365 294.787766,81.9206334 295.749701,80.830811 C296.711636,79.7409885 297.192597,78.3453694 297.192597,76.6439118 L297.192597,76.6439118 Z M319.194668,76.5104648 L307.134397,76.5104648 C307.17888,78.4120939 307.690421,79.879996 308.669037,80.9142153 C309.647654,81.9484346 310.993231,82.4655365 312.705809,82.4655365 C314.629679,82.4655365 316.397834,81.8316697 318.010326,80.563917 L318.010326,83.1327714 C316.50904,84.2225939 314.524036,84.767497 312.055255,84.767497 C309.642076,84.767497 307.746036,83.9918442 306.367077,82.4405152 C304.988118,80.8891862 304.298649,78.7067938 304.298649,75.8932725 C304.298649,73.2354401 305.052061,71.0697284 306.558907,69.3960724 C308.065753,67.7224165 309.936773,66.885601 312.172021,66.885601 C314.407269,66.885601 316.136502,67.6084316 317.359772,69.0541145 C318.583043,70.4997974 319.194668,72.5070424 319.194668,75.0759097 L319.194668,76.5104648 Z M316.392282,74.1918235 C316.381161,72.6126929 316.000285,71.3838809 315.249642,70.5053505 C314.498999,69.6268201 313.456455,69.1875615 312.121978,69.1875615 C310.831984,69.1875615 309.736618,69.6490611 308.835846,70.572074 C307.935075,71.4950869 307.379051,72.701658 307.167759,74.1918235 L316.392282,74.1918235 Z" id="Blob-Storage" fill="#9B9B9B" sketch:type="MSShapeGroup"></path>
        <path d="M33.7270508,48 L28.5415039,48 L28.5415039,27.609375 C28.5415039,25.9394448 28.6440419,23.8960082 28.8491211,21.4790039 L28.7612305,21.4790039 C28.4389632,22.8559639 28.1533216,23.8447236 27.9042969,24.4453125 L18.5,48 L14.8964844,48 L5.47021484,24.6210938 C5.20654165,23.9326137 4.92822412,22.8852609 4.63525391,21.4790039 L4.54736328,21.4790039 C4.66455137,22.7387758 4.72314453,24.7968607 4.72314453,27.6533203 L4.72314453,48 L-0.110839844,48 L-0.110839844,16.4912109 L7.25,16.4912109 L15.5336914,37.4750977 C16.1635774,39.0864338 16.5737295,40.2875937 16.7641602,41.0786133 L16.8740234,41.0786133 C17.4160183,39.4233316 17.8554671,38.1928751 18.1923828,37.387207 L26.6298828,16.4912109 L33.7270508,16.4912109 L33.7270508,48 Z M43.4829102,20.7758789 C42.647945,20.7758789 41.9338409,20.5048855 41.3405762,19.9628906 C40.7473115,19.4208957 40.4506836,18.732426 40.4506836,17.8974609 C40.4506836,17.0624958 40.7473115,16.366702 41.3405762,15.8100586 C41.9338409,15.2534152 42.647945,14.9750977 43.4829102,14.9750977 C44.3471723,14.9750977 45.0795868,15.2534152 45.6801758,15.8100586 C46.2807647,16.366702 46.5810547,17.0624958 46.5810547,17.8974609 C46.5810547,18.6884805 46.2807647,19.365964 45.6801758,19.9299316 C45.0795868,20.4938993 44.3471723,20.7758789 43.4829102,20.7758789 L43.4829102,20.7758789 Z M46.0097656,48 L40.9121094,48 L40.9121094,25.5 L46.0097656,25.5 L46.0097656,48 Z M68.7734375,46.9672852 C66.9716707,48.0073294 64.8403443,48.5273438 62.3793945,48.5273438 C59.0395341,48.5273438 56.3442485,47.483653 54.293457,45.3962402 C52.2426655,43.3088275 51.2172852,40.6025557 51.2172852,37.2773438 C51.2172852,33.5712705 52.3195691,30.5940054 54.5241699,28.345459 C56.7287708,26.0969126 59.6767394,24.9726562 63.3681641,24.9726562 C65.4189556,24.9726562 67.2280195,25.3315394 68.7954102,26.0493164 L68.7954102,30.7954102 C67.2280195,29.6235293 65.5581143,29.0375977 63.7856445,29.0375977 C61.6323135,29.0375977 59.8671944,29.7663501 58.4902344,31.223877 C57.1132744,32.6814038 56.4248047,34.5893437 56.4248047,36.9477539 C56.4248047,39.2768671 57.0729916,41.1152276 58.3693848,42.4628906 C59.665778,43.8105536 61.4052625,44.484375 63.5878906,44.484375 C65.4189545,44.484375 67.1474528,43.832526 68.7734375,42.5288086 L68.7734375,46.9672852 Z M86.8789062,30.355957 C86.2636688,29.8725562 85.3774472,29.6308594 84.2202148,29.6308594 C82.7114182,29.6308594 81.4516652,30.3120049 80.440918,31.6743164 C79.4301707,33.0366279 78.9248047,34.8896367 78.9248047,37.2333984 L78.9248047,48 L73.8271484,48 L73.8271484,25.5 L78.9248047,25.5 L78.9248047,30.1362305 L79.0126953,30.1362305 C79.5107447,28.5541913 80.2761179,27.3200728 81.3088379,26.4338379 C82.3415579,25.547603 83.4951108,25.1044922 84.7695312,25.1044922 C85.6923874,25.1044922 86.3955054,25.243651 86.8789062,25.5219727 L86.8789062,30.355957 Z M100.0625,48.5273438 C96.590803,48.5273438 93.8186139,47.4763289 91.7458496,45.3742676 C89.6730853,43.2722063 88.6367188,40.4853689 88.6367188,37.0136719 C88.6367188,33.2343561 89.7170302,30.2827255 91.8776855,28.1586914 C94.0383409,26.0346573 96.9496887,24.9726562 100.611816,24.9726562 C104.127459,24.9726562 106.866689,26.0053608 108.82959,28.0708008 C110.79249,30.1362408 111.773926,32.9999817 111.773926,36.6621094 C111.773926,40.2509945 110.715587,43.1257216 108.598877,45.286377 C106.482167,47.4470323 103.636737,48.5273438 100.0625,48.5273438 L100.0625,48.5273438 Z M100.304199,29.0375977 C98.3120018,29.0375977 96.7373105,29.7333915 95.5800781,31.125 C94.4228458,32.5166085 93.8442383,34.4355346 93.8442383,36.8818359 C93.8442383,39.2402462 94.4301699,41.0969171 95.6020508,42.4519043 C96.7739316,43.8068915 98.3412988,44.484375 100.304199,44.484375 C102.311045,44.484375 103.852778,43.8178778 104.929443,42.4848633 C106.006109,41.1518488 106.544434,39.2548951 106.544434,36.7939453 C106.544434,34.318347 106.006109,32.406745 104.929443,31.059082 C103.852778,29.711419 102.311045,29.0375977 100.304199,29.0375977 L100.304199,29.0375977 Z M115.553223,47.296875 L115.553223,42.5727539 C117.457529,44.0229565 119.559559,44.7480469 121.859375,44.7480469 C124.935562,44.7480469 126.473633,43.8398528 126.473633,42.0234375 C126.473633,41.5107396 126.341798,41.074953 126.078125,40.7160645 C125.814452,40.3571759 125.459231,40.0385756 125.012451,39.7602539 C124.565672,39.4819322 124.038333,39.2329113 123.43042,39.0131836 C122.822507,38.7934559 122.145023,38.544435 121.397949,38.2661133 C120.475093,37.8999005 119.643803,37.5117208 118.904053,37.1015625 C118.164303,36.6914042 117.549075,36.226321 117.05835,35.7062988 C116.567624,35.1862767 116.197755,34.596683 115.94873,33.9375 C115.699706,33.278317 115.575195,32.5092817 115.575195,31.6303711 C115.575195,30.5463813 115.83154,29.5905803 116.344238,28.7629395 C116.856936,27.9352986 117.545406,27.2395048 118.409668,26.6755371 C119.27393,26.1115694 120.255366,25.686769 121.354004,25.401123 C122.452642,25.1154771 123.587885,24.9726562 124.759766,24.9726562 C126.839854,24.9726562 128.700187,25.2875945 130.34082,25.9174805 L130.34082,30.3779297 C128.758781,29.2939399 126.942393,28.7519531 124.891602,28.7519531 C124.247067,28.7519531 123.664798,28.8178704 123.144775,28.949707 C122.624753,29.0815436 122.181642,29.2646473 121.81543,29.4990234 C121.449217,29.7333996 121.163575,30.0153792 120.958496,30.3449707 C120.753417,30.6745622 120.650879,31.0371074 120.650879,31.4326172 C120.650879,31.916018 120.753417,32.3261702 120.958496,32.6630859 C121.163575,33.0000017 121.467527,33.2966296 121.870361,33.5529785 C122.273195,33.8093275 122.756589,34.0437001 123.320557,34.2561035 C123.884524,34.4685069 124.532711,34.6992175 125.265137,34.9482422 C126.231938,35.343752 127.09985,35.74658 127.868896,36.1567383 C128.637943,36.5668966 129.293454,37.0319798 129.835449,37.552002 C130.377444,38.0720241 130.79492,38.672604 131.087891,39.3537598 C131.380861,40.0349155 131.527344,40.8442336 131.527344,41.7817383 C131.527344,42.9243221 131.263675,43.9204059 130.736328,44.7700195 C130.208982,45.6196332 129.505864,46.3227511 128.626953,46.8793945 C127.748042,47.4360379 126.733648,47.8498522 125.58374,48.1208496 C124.433832,48.3918471 123.221686,48.5273438 121.947266,48.5273438 C119.486316,48.5273438 117.354989,48.1171916 115.553223,47.296875 L115.553223,47.296875 Z M146.336914,48.5273438 C142.865217,48.5273438 140.093028,47.4763289 138.020264,45.3742676 C135.947499,43.2722063 134.911133,40.4853689 134.911133,37.0136719 C134.911133,33.2343561 135.991444,30.2827255 138.1521,28.1586914 C140.312755,26.0346573 143.224103,24.9726562 146.88623,24.9726562 C150.401873,24.9726562 153.141103,26.0053608 155.104004,28.0708008 C157.066904,30.1362408 158.04834,32.9999817 158.04834,36.6621094 C158.04834,40.2509945 156.990001,43.1257216 154.873291,45.286377 C152.756581,47.4470323 149.911151,48.5273438 146.336914,48.5273438 L146.336914,48.5273438 Z M146.578613,29.0375977 C144.586416,29.0375977 143.011725,29.7333915 141.854492,31.125 C140.69726,32.5166085 140.118652,34.4355346 140.118652,36.8818359 C140.118652,39.2402462 140.704584,41.0969171 141.876465,42.4519043 C143.048346,43.8068915 144.615713,44.484375 146.578613,44.484375 C148.585459,44.484375 150.127192,43.8178778 151.203857,42.4848633 C152.280523,41.1518488 152.818848,39.2548951 152.818848,36.7939453 C152.818848,34.318347 152.280523,32.406745 151.203857,31.059082 C150.127192,29.711419 148.585459,29.0375977 146.578613,29.0375977 L146.578613,29.0375977 Z M175.208984,18.8422852 C174.520504,18.4467754 173.736821,18.2490234 172.85791,18.2490234 C170.382312,18.2490234 169.144531,19.6479352 169.144531,22.4458008 L169.144531,25.5 L174.374023,25.5 L174.374023,29.4990234 L169.166504,29.4990234 L169.166504,48 L164.068848,48 L164.068848,29.4990234 L160.223633,29.4990234 L160.223633,25.5 L164.068848,25.5 L164.068848,21.8525391 C164.068848,19.4794803 164.845207,17.6081611 166.397949,16.2385254 C167.950691,14.8688896 169.89159,14.184082 172.220703,14.184082 C173.480475,14.184082 174.476559,14.3232408 175.208984,14.6015625 L175.208984,18.8422852 Z M190.699707,47.7583008 C189.703608,48.2563501 188.392586,48.5053711 186.766602,48.5053711 C182.401345,48.5053711 180.21875,46.4106655 180.21875,42.2211914 L180.21875,29.4990234 L176.461426,29.4990234 L176.461426,25.5 L180.21875,25.5 L180.21875,20.2924805 L185.316406,18.8422852 L185.316406,25.5 L190.699707,25.5 L190.699707,29.4990234 L185.316406,29.4990234 L185.316406,40.7490234 C185.316406,42.0820379 185.558103,43.0341768 186.041504,43.6054688 C186.524905,44.1767607 187.330561,44.4624023 188.458496,44.4624023 C189.322758,44.4624023 190.069821,44.2133814 190.699707,43.715332 L190.699707,47.7583008 Z M233.919922,48 L228.185059,48 L225.350586,39.9799805 L212.958008,39.9799805 L210.233398,48 L204.520508,48 L216.319824,16.4912109 L222.208496,16.4912109 L233.919922,48 Z M223.966309,35.7172852 L219.59375,23.1489258 C219.461913,22.7387675 219.322755,22.0795944 219.17627,21.1713867 L219.088379,21.1713867 C218.956542,22.0063518 218.810059,22.6655249 218.648926,23.1489258 L214.320312,35.7172852 L223.966309,35.7172852 Z M254.288574,27.6313477 L242.137695,44.0229492 L254.244629,44.0229492 L254.244629,48 L234.996582,48 L234.996582,46.0883789 L247.411133,29.4770508 L236.183105,29.4770508 L236.183105,25.5 L254.288574,25.5 L254.288574,27.6313477 Z M278.194824,48 L273.097168,48 L273.097168,44.4404297 L273.009277,44.4404297 C271.529778,47.1650527 269.229996,48.5273438 266.109863,48.5273438 C260.792454,48.5273438 258.133789,45.3340163 258.133789,38.9472656 L258.133789,25.5 L263.231445,25.5 L263.231445,38.4199219 C263.231445,42.4629108 264.791488,44.484375 267.911621,44.484375 C269.420418,44.484375 270.66186,43.9277399 271.635986,42.8144531 C272.610112,41.7011663 273.097168,40.2436614 273.097168,38.4418945 L273.097168,25.5 L278.194824,25.5 L278.194824,48 Z M297.882324,30.355957 C297.267087,29.8725562 296.380865,29.6308594 295.223633,29.6308594 C293.714836,29.6308594 292.455083,30.3120049 291.444336,31.6743164 C290.433589,33.0366279 289.928223,34.8896367 289.928223,37.2333984 L289.928223,48 L284.830566,48 L284.830566,25.5 L289.928223,25.5 L289.928223,30.1362305 L290.016113,30.1362305 C290.514163,28.5541913 291.279536,27.3200728 292.312256,26.4338379 C293.344976,25.547603 294.498529,25.1044922 295.772949,25.1044922 C296.695805,25.1044922 297.398923,25.243651 297.882324,25.5219727 L297.882324,30.355957 Z M320.140625,38.1342773 L304.803711,38.1342773 C304.862305,40.2143659 305.503168,41.8183537 306.726318,42.9462891 C307.949469,44.0742244 309.63036,44.6381836 311.769043,44.6381836 C314.171399,44.6381836 316.375967,43.9204173 318.382812,42.4848633 L318.382812,46.59375 C316.332021,47.8828189 313.622087,48.5273438 310.25293,48.5273438 C306.942366,48.5273438 304.345957,47.5056255 302.463623,45.4621582 C300.581289,43.418691 299.640137,40.5439638 299.640137,36.8378906 C299.640137,33.3368966 300.676503,30.4841419 302.749268,28.279541 C304.822032,26.0749401 307.396469,24.9726562 310.472656,24.9726562 C313.548844,24.9726562 315.929191,25.9614159 317.61377,27.9389648 C319.298348,29.9165138 320.140625,32.6630684 320.140625,36.1787109 L320.140625,38.1342773 Z M315.21875,34.5307617 C315.204101,32.6996979 314.771977,31.2751516 313.922363,30.2570801 C313.07275,29.2390086 311.900886,28.7299805 310.406738,28.7299805 C308.941887,28.7299805 307.700445,29.2646431 306.682373,30.3339844 C305.664302,31.4033257 305.038087,32.8022375 304.803711,34.5307617 L315.21875,34.5307617 Z" id="Microsoft-Azure" fill="#00B6EC" sketch:type="MSShapeGroup"></path>
    </g>
</svg>
