<?xml version="1.0" encoding="UTF-8" ?>
<!DOCTYPE svg PUBLIC "-//W3C//DTD SVG 1.1//EN" "http://www.w3.org/Graphics/SVG/1.1/DTD/svg11.dtd">
<svg width="1024pt" height="565pt" viewBox="0 0 1024 565" version="1.1" xmlns="http://www.w3.org/2000/svg">
<g id="#0081c6ff">
<path fill="#0081c6" opacity="1.00" d=" M 36.03 0.00 L 43.72 0.00 C 53.15 0.99 62.26 5.30 68.73 12.29 C 75.82 19.61 79.73 29.76 79.75 39.92 C 79.76 95.31 79.74 150.70 79.76 206.08 C 107.71 185.28 141.13 171.80 175.80 167.93 C 215.39 163.37 256.37 170.74 291.60 189.48 C 326.67 207.89 355.86 237.10 374.53 272.01 C 398.64 226.58 440.95 191.16 490.08 175.84 C 533.05 162.23 580.68 163.69 622.64 180.20 C 652.84 191.96 680.03 211.30 701.13 235.88 C 724.55 263.07 740.46 296.70 746.36 332.11 C 752.82 369.95 748.16 409.64 732.83 444.86 C 719.09 476.59 696.91 504.62 669.16 525.26 C 637.78 548.83 599.24 562.68 560.03 564.45 C 519.91 566.57 479.21 556.09 445.15 534.76 C 415.57 516.36 390.93 490.08 374.58 459.32 C 357.78 490.42 332.82 517.14 302.62 535.55 C 269.09 556.17 229.30 566.39 189.98 564.49 C 149.94 562.89 110.52 548.68 78.69 524.33 C 38.15 493.85 10.12 447.28 2.38 397.13 C 1.11 389.41 0.51 381.62 0.00 373.82 L 0.00 36.05 C 1.44 17.44 17.41 1.41 36.03 0.00 M 181.49 247.77 C 156.78 251.35 133.31 262.99 115.56 280.56 C 97.63 297.95 85.47 321.18 81.36 345.82 C 77.31 369.72 80.72 394.87 91.24 416.74 C 102.85 441.31 123.18 461.65 147.76 473.26 C 166.93 482.51 188.66 486.27 209.84 484.30 C 233.46 482.18 256.35 472.72 274.59 457.57 C 291.44 443.70 304.42 425.14 311.49 404.47 C 320.11 379.68 320.19 352.01 311.61 327.20 C 302.57 300.37 283.49 277.11 259.05 262.85 C 235.92 249.19 208.05 243.75 181.49 247.77 M 532.55 247.79 C 521.20 249.50 510.11 252.85 499.72 257.71 C 469.38 271.77 445.66 299.22 436.11 331.26 C 428.79 355.27 429.42 381.58 437.80 405.24 C 448.69 436.50 473.28 462.62 503.82 475.41 C 537.34 489.85 577.52 487.52 609.10 469.19 C 640.52 451.51 662.98 418.86 668.04 383.14 C 673.72 346.50 660.94 307.56 634.46 281.58 C 608.47 254.90 569.32 242.06 532.55 247.79 Z" />
<path fill="#0081c6" opacity="1.00" d=" M 710.21 188.26 C 716.13 176.17 728.72 167.75 742.11 166.63 C 756.12 165.22 770.50 171.87 778.52 183.43 C 807.35 221.98 836.19 260.51 864.99 299.08 C 894.10 260.18 923.19 221.27 952.29 182.37 C 959.39 172.78 970.99 166.81 982.91 166.49 C 995.33 165.96 1007.79 171.71 1015.48 181.48 C 1020.31 187.51 1023.24 194.98 1024.00 202.67 L 1024.00 210.26 C 1023.23 219.51 1018.69 227.87 1012.83 234.89 C 980.20 278.53 947.58 322.17 914.92 365.79 C 946.19 407.62 977.48 449.43 1008.75 491.26 C 1015.70 500.21 1023.33 509.62 1024.00 521.47 L 1024.00 528.97 C 1022.58 547.59 1006.58 563.61 987.95 565.00 L 980.66 565.00 C 969.40 564.03 958.74 558.07 952.08 548.94 C 923.05 510.16 894.03 471.37 865.03 432.56 C 835.69 471.68 806.45 510.88 777.14 550.02 C 770.45 558.57 760.10 564.05 749.31 565.00 L 742.07 565.00 C 732.64 564.12 723.58 559.80 717.04 552.95 C 703.65 539.64 702.20 516.56 713.59 501.56 C 747.38 456.27 781.28 411.07 815.08 365.80 C 781.17 320.44 747.25 275.10 713.34 229.74 C 704.69 217.92 703.52 201.25 710.21 188.26 Z" />
</g>
</svg>
