<?xml version="1.0" encoding="UTF-8" standalone="no"?>
<svg width="627px" height="267px" viewBox="0 0 627 267" version="1.1" xmlns="http://www.w3.org/2000/svg" xmlns:xlink="http://www.w3.org/1999/xlink" xmlns:sketch="http://www.bohemiancoding.com/sketch/ns">
    <!-- Generator: Sketch 3.1.1 (8761) - http://www.bohemiancoding.com/sketch -->
    <title>logo</title>
    <desc>Created with Sketch.</desc>
    <defs></defs>
    <g id="Page-1" stroke="none" stroke-width="1" fill="none" fill-rule="evenodd" sketch:type="MSPage">
        <g id="logo" sketch:type="MSLayerGroup" transform="translate(1.000000, 1.000000)">
            <g id="#0fbbbfff" transform="translate(131.000000, 0.000000)" fill="#0FBBBF" sketch:type="MSShapeGroup">
                <path d="M156.26,13.23 C169.73,2.35 187.88,-1.8 204.88,0.55 C220.91,2.32 236.12,8.56 249.91,16.72 C239.38,15.31 227.8,17.31 219.89,24.86 C208.54,35.21 205.54,51.34 204.67,66 C204.46,81.87 204.65,97.74 204.58,113.61 C191.7,121.08 178.9,128.76 165.82,135.83 C152.82,128.79 140.15,121.06 127.28,113.75 C126.86,97.99 126.29,82.17 127.73,66.45 C130.68,46.2 140.08,26.21 156.26,13.23 L156.26,13.23 Z" id="Shape"></path>
                <path d="M49.64,78.96 C49.28,56.21 66.95,33.58 90.02,30.89 C104.65,29.54 119.66,33.53 131.93,41.56 C126.06,40.88 119.61,40.96 114.71,44.73 C106.88,50.48 104.36,60.74 103.56,69.92 C102.98,81.25 103.46,92.61 103.25,103.95 C94.19,109.04 85.36,114.53 76.16,119.37 C67.46,114.05 58.55,109.08 49.73,103.99 C49.57,95.65 49.72,87.31 49.64,78.96 L49.64,78.96 Z" id="Shape"></path>
                <path d="M249.42,38.37 C257.33,32.69 267.22,29.99 276.93,30.66 C288.6,31.39 300.3,34.87 310.03,41.43 C303.23,40.04 295.51,41.27 290.59,46.51 C283.47,54.11 282.29,65.07 281.89,75.01 C281.8,84.64 281.89,94.28 281.86,103.91 C273,109.19 264.03,114.27 255.09,119.41 C246.21,114.14 237.16,109.16 228.33,103.8 C228.43,95.88 228.37,87.96 228.37,80.04 C227.66,63.76 236.27,47.75 249.42,38.37 L249.42,38.37 Z" id="Shape"></path>
                <path d="M317.01,61.02 C327.29,53.76 342.18,55.36 351.72,63.1 C347.08,62.79 342.27,64.73 340.13,69.07 C335.2,78.66 337.72,89.76 336.74,100.06 C333.09,103.08 328.44,104.84 324.48,107.5 C322.8,108.2 320.99,110.39 319.11,109.09 C313.95,106.13 308.78,103.19 303.71,100.1 C303.77,95.4 303.69,90.7 303.72,86 C303.74,76.18 309,66.61 317.01,61.02 L317.01,61.02 Z" id="Shape"></path>
                <path d="M2.31,75.29 C5.94,67.18 14.01,61.02 23.03,60.72 C29.3,60.69 35.84,61.96 41.15,65.45 C37.42,65.79 33.34,66.89 31.35,70.38 C26.23,78.34 28.93,88.22 28.01,97.08 C23.6,100.26 18.61,102.56 13.99,105.43 C9.38,102.5 4.27,100.3 -0.03,96.96 C-0.15,89.72 -1.08,82 2.31,75.29 L2.31,75.29 Z" id="Shape"></path>
                <path d="M359.29,78.29 C363.2,71.51 373.29,70.26 379.3,74.78 C377.05,75.85 374.44,76.88 373.46,79.39 C371.43,83.97 372.87,89.14 372.29,93.97 C369.76,95.35 367.29,96.85 364.87,98.43 C362.22,97.04 359.66,95.49 357.14,93.89 C357.44,88.69 356.02,82.83 359.29,78.29 L359.29,78.29 Z" id="Shape"></path>
            </g>
            <g id="#58585aff" transform="translate(0.000000, 162.000000)" fill="#58585A" sketch:type="MSShapeGroup">
                <path d="M33.96,1.26 C45.47,-0.98 57.56,0.04 68.68,3.69 C67.81,9.23 66.15,14.61 65.07,20.11 C57.14,17.65 48.62,16.62 40.41,18.05 C31.41,19.77 24.46,27.4 22.29,36.12 C19.67,46.35 19.6,57.42 22.69,67.57 C25.21,75.98 32.11,83.16 40.82,85.07 C49.39,86.7 58.55,85.66 66.23,81.39 C67.6,86.64 68.94,91.89 70.18,97.17 C66.24,99.8 61.69,101.38 57,102.03 C44.87,104.22 31.57,103.6 20.69,97.33 C9.29,90.66 2.85,77.88 0.96,65.16 C0.42,60.78 -0.18,56.4 -0.32,51.99 C0.24,42.31 1,32.29 5.62,23.56 C10.87,12.19 21.65,3.63 33.96,1.26 L33.96,1.26 Z" id="Shape"></path>
                <path d="M352.23,2.62 C364.07,1.17 376.03,0.16 387.96,0.84 C396.88,1.51 406.71,3.1 413.17,9.89 C418.88,15.61 419.62,24.46 417.96,31.98 C416.48,38.75 411.38,44.56 404.87,46.91 C403.52,47.41 402.24,48.06 401,48.76 C408.35,50.1 415.96,53.75 419.19,60.9 C423.8,70.74 422.62,83.8 414.69,91.65 C407.26,99.27 396.3,102.03 385.96,102.47 C374.7,102.7 363.37,102.47 352.24,100.66 C352.07,67.98 352.07,35.3 352.23,2.62 L352.23,2.62 Z M371.2,17.39 C371.11,26.16 370.96,34.95 371.21,43.72 C377.6,43.28 384.53,44.66 390.38,41.37 C394.14,39.4 398.06,36.52 398.96,32.11 C400.43,26.68 397.57,20.38 392.12,18.53 C385.45,16.09 378.14,17.4 371.2,17.39 L371.2,17.39 Z M371.05,58.56 C371.24,67.58 370.96,76.61 371.21,85.62 C379.4,86.13 388.6,87.73 395.83,82.79 C403.14,78.17 403.48,65.58 395.72,61.25 C388.17,57.19 379.26,58.8 371.05,58.56 L371.05,58.56 Z" id="Shape"></path>
                <path d="M82.3,2.22 C88.45,2.09 94.6,2.16 100.75,2.17 C100.7,27.43 100.75,52.69 100.72,77.95 C100.89,80.86 100.95,84.57 103.73,86.3 C106.94,87.44 110.41,86.36 113.49,85.28 C114.13,90.21 114.96,95.12 115.35,100.08 C107.13,102.67 97.86,104.88 89.56,101.38 C84.72,99.39 82.37,93.99 82.39,89.02 C82.28,60.09 82.46,31.15 82.3,2.22 L82.3,2.22 Z" id="Shape"></path>
                <path d="M317.14,2.16 C323.23,2.11 329.32,2.23 335.41,2.07 C335.72,30.25 335.35,58.44 335.6,86.62 C335.57,91.57 336.45,96.46 336.78,101.39 C332.44,101.35 328.1,101.35 323.75,101.38 C322.88,98.26 322.03,95.14 321.12,92.03 C312.28,106.39 289.23,106.94 278.98,93.98 C273.01,86.41 272.15,76.31 271.86,67.02 C271.95,55.67 274.37,43.1 283.43,35.36 C292.68,27.62 306.05,27.34 317.19,30.48 C317.11,21.04 317.19,11.6 317.14,2.16 L317.14,2.16 Z M302.47,44.68 C295.65,45.87 292.06,52.78 291.51,59.13 C290.93,66.74 290.25,75.05 294.16,81.96 C298.37,89.8 311.56,89.29 315.47,81.42 C317.62,77.99 317.15,73.81 317.17,69.96 C317.05,62.62 317.34,55.26 317.06,47.93 C313.7,43.73 307.32,44.08 302.47,44.68 L302.47,44.68 Z" id="Shape"></path>
                <path d="M145.95,28.96 C155.17,27.57 165.3,28.38 173.15,33.85 C180.48,38.77 184.44,47.36 185.79,55.86 C187.23,64.88 186.92,74.33 184,83.03 C180.87,92.42 172.78,100.14 162.98,102.08 C153.31,104.19 142.44,103.52 133.97,97.99 C126.38,93.21 122.12,84.55 120.74,75.9 C119.1,65.62 119.51,54.61 123.97,45.07 C127.98,36.42 136.55,30.28 145.95,28.96 L145.95,28.96 Z M149.34,44.53 C144.86,45.72 141.55,49.71 140.34,54.08 C138.28,61.76 138.29,70.05 140.69,77.66 C141.9,81.33 144.24,84.89 147.92,86.46 C153.4,88.75 160.79,87.45 164.1,82.18 C167.28,77.08 167.55,70.81 167.56,64.97 C167.41,59.1 166.61,52.8 162.94,47.99 C159.73,43.98 154.03,43.56 149.34,44.53 L149.34,44.53 Z" id="Shape"></path>
                <path d="M441.68,36.69 C449.66,29.13 461.47,27.37 472,28.85 C479.41,29.82 486.77,33.79 490.37,40.56 C495.42,49.53 494.57,60.35 492.76,70.09 C491.29,70.78 489.58,70.41 488.02,70.52 C475.45,70.44 462.88,70.51 450.31,70.48 C450.74,76.54 452.51,83.71 458.59,86.46 C467.54,90.44 477.83,87.9 485.98,83.19 C487.87,87.21 489.92,91.15 491.91,95.12 C482.32,101.91 470,104.11 458.48,102.78 C451.14,101.97 443.74,98.76 439.29,92.67 C432.94,84.25 431.43,73.26 431.76,62.99 C432.15,53.53 434.54,43.4 441.68,36.69 L441.68,36.69 Z M460.51,43.81 C454.08,45.66 451.31,52.76 450.87,58.85 C459.54,58.78 468.21,58.86 476.89,58.8 C476.92,54.49 476.98,49.55 473.71,46.27 C470.39,42.65 464.91,42.8 460.51,43.81 L460.51,43.81 Z" id="Shape"></path>
                <path d="M512.82,36.75 C520.99,28.89 533.29,27.25 544.08,29.01 C551.72,30.15 559,34.8 562.24,41.97 C566.63,50.8 565.27,60.96 564.05,70.36 C549.84,70.7 535.61,70.3 521.39,70.57 C521.92,76.55 523.67,83.62 529.63,86.42 C538.5,90.39 548.8,88.02 556.87,83.25 C559.27,87.03 560.93,91.22 563.04,95.16 C552.79,102.28 539.55,104.53 527.37,102.42 C520.53,101.32 513.95,97.8 509.96,92.04 C503.75,83.38 502.61,72.3 503.01,61.95 C503.45,52.84 505.92,43.16 512.82,36.75 L512.82,36.75 Z M531.55,43.83 C525.2,45.75 522.52,52.76 522.01,58.81 C530.72,58.85 539.42,58.8 548.13,58.84 C548.24,54.47 547.96,49.5 544.79,46.15 C541.4,42.64 535.95,42.82 531.55,43.83 L531.55,43.83 Z" id="Shape"></path>
                <path d="M576.21,42.14 C578.24,34.59 585.56,29.72 593.05,28.82 C603.61,27.54 614.72,28.98 624.24,33.9 C622.91,38.25 621.5,42.58 620.33,46.97 C612.88,45.19 605.33,41.8 597.54,43.74 C593.61,44.89 592.04,50.86 595.68,53.25 C602.81,58.02 612.03,58.67 618.7,64.26 C630.55,73.37 627.43,94.99 613.56,100.51 C600.62,105.57 585.77,103.22 573.65,96.99 C575.11,92.31 577.08,87.81 578.56,83.14 C584.77,85.72 591.15,88.43 598.01,88.4 C600.58,88.42 603.33,88.03 605.45,86.47 C608.3,84.13 608.2,79.02 604.96,77.06 C597.12,71.82 586.46,71.44 580.11,63.88 C574.65,58.12 574.35,49.43 576.21,42.14 L576.21,42.14 Z" id="Shape"></path>
                <path d="M198.42,30.57 C204.56,30.18 210.72,30.54 216.87,30.35 C217.19,45.59 216.49,60.83 217.32,76.05 C217.36,80.62 219.56,86.37 224.86,86.64 C232.01,88.11 238.9,82.61 240.67,75.93 C241.03,60.73 240.41,45.51 240.98,30.32 C247.12,30.58 253.27,30.17 259.41,30.57 C259.19,45.69 259.38,60.82 259.31,75.95 C259.12,84.43 259.76,92.92 261.45,101.24 C256.89,101.22 252.34,101.19 247.79,101.26 C246.46,97.85 245.49,94.32 244.5,90.8 C241.26,93.79 238.75,97.62 234.72,99.69 C226.61,104.36 216.22,104.59 207.97,100.16 C200.84,95.77 199.09,86.67 198.61,78.94 C198.33,62.82 198.7,46.69 198.42,30.57 L198.42,30.57 Z" id="Shape"></path>
            </g>
        </g>
    </g>
</svg>