<?xml version="1.0" encoding="UTF-8" ?>
<!DOCTYPE svg PUBLIC "-//W3C//DTD SVG 1.1//EN" "http://www.w3.org/Graphics/SVG/1.1/DTD/svg11.dtd">
<svg width="500pt" height="150pt" viewBox="0 0 500 150" version="1.1" xmlns="http://www.w3.org/2000/svg">
<g id="#0078c9ff">
<path fill="#0078c9" opacity="1.00" d=" M 31.24 27.33 C 60.15 26.86 89.11 27.28 118.03 27.12 C 121.46 26.56 124.92 29.46 124.46 33.03 C 124.43 61.02 124.46 89.02 124.44 117.01 C 124.58 119.90 121.93 122.76 118.99 122.60 C 90.31 122.63 61.63 122.62 32.94 122.60 C 29.94 122.85 27.24 119.92 27.38 116.98 C 27.36 88.96 27.40 60.93 27.37 32.91 C 27.15 30.44 28.82 27.95 31.24 27.33 M 56.60 48.68 C 44.84 55.59 39.43 71.13 43.83 83.95 C 46.54 92.33 53.22 99.22 61.37 102.49 C 70.41 106.20 81.07 105.47 89.67 100.89 C 87.03 97.96 84.44 94.95 82.59 91.44 C 78.90 92.82 74.90 93.86 70.95 93.04 C 63.36 91.83 56.70 85.74 55.22 78.15 C 53.51 70.28 57.22 61.20 64.63 57.63 C 71.63 54.26 80.19 55.75 86.52 59.93 C 88.30 56.61 90.54 53.57 92.36 50.27 C 81.94 43.30 67.46 41.89 56.60 48.68 M 97.91 77.48 C 92.10 79.49 90.36 87.89 95.15 91.89 C 100.04 96.62 109.16 92.76 109.35 85.99 C 110.01 80.00 103.49 75.17 97.91 77.48 Z" />
<path fill="#0078c9" opacity="1.00" d=" M 144.41 63.46 C 149.69 53.63 162.86 49.81 172.94 54.00 C 177.05 55.73 180.18 59.09 182.45 62.85 C 179.84 64.05 177.25 65.32 174.74 66.71 C 171.97 62.12 166.38 59.20 161.05 60.84 C 154.38 62.33 150.26 69.46 151.11 76.04 C 151.38 82.73 157.22 88.72 164.02 88.63 C 168.50 88.92 172.44 86.01 174.75 82.38 C 177.27 83.73 179.83 85.00 182.44 86.19 C 179.78 90.64 175.77 94.46 170.69 95.89 C 162.56 98.16 153.05 95.95 147.30 89.61 C 140.85 82.72 139.90 71.63 144.41 63.46 Z" />
<path fill="#0078c9" opacity="1.00" d=" M 202.19 53.14 C 209.66 51.24 218.24 52.68 224.01 58.00 C 233.09 66.19 233.30 82.07 224.55 90.57 C 215.25 99.77 197.72 98.66 190.21 87.73 C 184.39 79.45 184.88 67.17 191.62 59.55 C 194.38 56.40 198.15 54.20 202.19 53.14 M 203.32 61.47 C 193.94 65.52 192.94 80.17 200.85 86.16 C 205.97 90.09 214.14 89.32 218.27 84.30 C 222.45 79.24 222.70 71.43 219.16 65.96 C 215.91 60.82 208.78 59.09 203.32 61.47 Z" />
<path fill="#0078c9" opacity="1.00" d=" M 238.59 53.09 C 241.73 53.09 244.87 53.09 248.02 53.08 C 254.76 61.98 261.04 71.24 268.02 79.94 C 267.61 70.99 267.91 62.04 267.81 53.09 C 270.86 53.08 273.90 53.08 276.95 53.13 C 276.85 67.38 276.85 81.64 276.94 95.89 C 274.01 95.93 271.08 95.94 268.15 95.94 C 261.21 86.72 254.70 77.16 247.60 68.07 C 247.86 77.34 247.61 86.63 247.75 95.90 C 244.70 95.94 241.64 95.94 238.59 95.93 C 238.60 81.65 238.60 67.37 238.59 53.09 Z" />
<path fill="#0078c9" opacity="1.00" d=" M 287.37 63.41 C 292.69 53.59 305.89 49.79 315.96 54.03 C 320.04 55.77 323.12 59.13 325.40 62.84 C 322.79 64.05 320.20 65.32 317.68 66.70 C 314.88 62.18 309.39 59.21 304.07 60.82 C 296.07 62.55 292.04 72.09 294.72 79.45 C 296.61 86.13 304.41 90.35 311.00 88.02 C 313.89 87.09 315.96 84.76 317.70 82.38 C 320.22 83.74 322.79 85.00 325.39 86.19 C 322.72 90.61 318.75 94.44 313.68 95.87 C 305.55 98.17 296.05 95.98 290.28 89.66 C 283.79 82.76 282.84 71.60 287.37 63.41 Z" />
<path fill="#0078c9" opacity="1.00" d=" M 331.25 53.12 C 334.36 53.07 337.47 53.07 340.58 53.12 C 340.53 61.75 340.51 70.38 340.56 79.01 C 340.49 82.70 342.53 86.54 346.11 87.85 C 350.35 89.41 356.10 88.88 358.85 84.89 C 360.53 82.63 360.66 79.71 360.64 77.01 C 360.61 69.03 360.64 61.06 360.61 53.09 C 363.72 53.08 366.84 53.08 369.95 53.13 C 369.81 62.10 369.98 71.08 369.87 80.06 C 369.79 85.14 367.59 90.37 363.33 93.31 C 358.56 96.60 352.47 97.14 346.87 96.53 C 342.25 96.02 337.57 94.04 334.71 90.25 C 332.26 87.07 331.27 82.99 331.30 79.03 C 331.26 70.39 331.36 61.76 331.25 53.12 Z" />
<path fill="#0078c9" opacity="1.00" d=" M 378.85 53.09 C 385.92 53.13 392.99 53.00 400.06 53.13 C 405.60 53.09 410.97 56.78 412.60 62.13 C 415.32 69.14 411.34 77.97 403.86 79.80 C 407.37 85.10 410.32 90.74 413.72 96.11 C 410.18 95.92 406.64 95.88 403.11 95.95 C 400.25 90.91 397.50 85.80 394.69 80.74 C 392.45 80.73 390.21 80.73 387.97 80.74 C 388.15 85.79 388.04 90.85 388.08 95.90 C 385.00 95.94 381.93 95.94 378.85 95.93 C 378.86 81.65 378.86 67.37 378.85 53.09 M 388.02 61.16 C 388.09 64.99 388.09 68.82 388.01 72.65 C 392.08 72.49 396.25 73.12 400.26 72.26 C 405.02 70.83 405.26 63.29 400.54 61.64 C 396.47 60.58 392.17 61.31 388.02 61.16 Z" />
</g>
<g id="#ffffffff">
</g>
</svg>
