<?xml version="1.0" encoding="utf-8"?>
<!-- Generator: Adobe Illustrator 17.0.2, SVG Export Plug-In . SVG Version: 6.00 Build 0)  -->
<!DOCTYPE svg PUBLIC "-//W3C//DTD SVG 1.1//EN" "http://www.w3.org/Graphics/SVG/1.1/DTD/svg11.dtd">
<svg version="1.1" id="Layer_1" xmlns="http://www.w3.org/2000/svg" xmlns:xlink="http://www.w3.org/1999/xlink" x="0px" y="0px"
	 width="765.579px" height="203.583px" viewBox="-11.953 -7.162 765.579 203.583"
	 enable-background="new -11.953 -7.162 765.579 203.583" xml:space="preserve">
<path fill="#58595B" d="M36.267,56.669c-0.044,4.444-3.732,8.076-8.164,8.04c-4.421-0.036-8.116-3.771-8.068-8.157
	c0.048-4.383,3.845-8.131,8.187-8.082C32.621,48.521,36.31,52.28,36.267,56.669z"/>
<g>
	<path d="M509.661,65.813c-0.064-0.015-1.576-0.385-3.873-0.385c-4.912,0-13.862,1.728-18.994,13.203l-0.677,0.011l0.008-11.978
		h-20.884v112.048h22.062v-34.408l0.99-0.152c1.046,1.181,5.216,5.519,11.45,7.155c0.883,0.232,2.063,0.35,3.512,0.35
		c2.91,0,5.923-0.462,6.045-0.48c0.235-0.035,23.431-3.929,22.392-42.666C531.73,108.158,535.143,73.115,509.661,65.813z
		 M487.137,106.671c-0.073-10.197-0.141-19.83,4.092-24.093c1.656-1.667,3.896-2.477,6.846-2.477
		c10.613,0,10.613,14.946,10.613,30.77c0,16.485-1.691,25.419-10.613,25.419c-3.4,0-5.848-0.795-7.479-2.43
		c-3.471-3.476-3.458-10.752-3.441-20.824l0.002-2.165C487.155,109.458,487.144,108.055,487.137,106.671z"/>
	<path d="M650.47,64.814c-22.225,0-33.974,14.897-33.974,43.082c0,28.9,11.749,44.175,33.974,44.175
		c21.907,0,33.973-15.688,33.973-44.175C684.442,88.242,678.549,64.814,650.47,64.814z M640.581,105.305
		c-0.042-9.817-0.079-18.296,3.673-22.064c1.482-1.49,3.517-2.214,6.216-2.214c2.645,0,4.648,0.718,6.12,2.196
		c3.817,3.828,3.792,12.529,3.761,22.603l-0.005,3.213c0,7.495,0.001,14.574-1.295,19.521c-1.384,5.285-4.03,7.641-8.581,7.641
		c-2.699,0-4.733-0.724-6.216-2.214c-3.752-3.768-3.715-12.246-3.673-22.065l0.011-3.308L640.581,105.305z"/>
	<path d="M587.954,66.248c-0.11-0.024-2.724-0.585-5.934-0.585c-2.362,0-4.422,0.305-6.121,0.908
		c-1.639,0.583-7.924,3.825-10.173,7.795l-0.784,0.032V36.811h-22.141v113.672h12.578l4.224-10.966
		c0.096,0.005,0.189,0.007,0.28,0.007l0.844-0.018c0.06,0,0.11,0,0.153,0.002c3.958,11.406,16.271,12.299,19.977,12.299
		c0.773,0,1.231-0.037,1.236-0.038c28.935-1.49,27.343-43.333,27.323-43.717C609.902,68.364,588.084,66.252,587.954,66.248z
		 M586.41,109.427c0,16.368-1.918,27.269-11.281,27.269c-10.508,0-10.508-10.848-10.508-27.269c0-1.486-0.011-2.948-0.021-4.377
		c-0.075-10.025-0.137-18.684,3.748-22.597c1.596-1.607,3.812-2.389,6.78-2.389C584.523,80.064,586.41,91.299,586.41,109.427z"/>
	<polygon points="727.877,103.264 748.946,67.263 729.771,67.263 718.862,85.646 709.369,67.263 685.832,67.263 706.896,107.792 
		681.475,150.632 701.165,150.632 715.661,125.184 727.856,150.632 753.626,150.632 	"/>
	<path d="M420.701,64.814c-22.226,0-33.975,14.897-33.975,43.082c0,28.9,11.749,44.175,33.975,44.175
		c21.907,0,33.972-15.688,33.972-44.175C454.673,88.242,448.779,64.814,420.701,64.814z M410.813,105.3
		c-0.043-9.815-0.08-18.293,3.671-22.06c1.482-1.489,3.517-2.213,6.217-2.213c2.643,0,4.647,0.718,6.119,2.196
		c3.817,3.828,3.792,12.529,3.761,22.603l-0.005,3.213c0,7.495,0.002,14.572-1.295,19.521c-1.384,5.285-4.03,7.641-8.58,7.641
		c-2.7,0-4.734-0.724-6.217-2.214c-3.751-3.768-3.714-12.244-3.671-22.06l0.01-3.312L410.813,105.3z"/>
	<path d="M382.047,65.155c-12.617,0-18.617,17.854-19.616,21.148l-0.328-0.002l0.147-19.773l-20.642,0.159v83.944h22.849
		l-0.004-43.837c1.896-16.743,12.211-19.242,18.192-19.242c1.706,0,2.834,0.22,2.847,0.222l0.793,0.158V65.804l-0.491-0.132
		C384.53,65.329,383.269,65.155,382.047,65.155z"/>
	<path d="M292.065,37.679h-39.43v112.953h39.621l0.031-0.003c11.772-1.113,21.037-5.93,27.539-14.312
		c14.417-18.585,12.017-50.147,9.303-67.306C324.229,38.037,292.387,37.679,292.065,37.679z M276.266,56.062l11.486-0.004
		c4.689,0.652,17.145,2.382,17.568,37.413c0.428,35.595-18.315,38.009-18.431,38.026l-10.623-0.067V56.062z"/>
</g>
<g>
	<path fill="#2479BB" d="M97.483,30.427c15.062-12.55,30.005-25.052,44.929-37.483c1.407,0.644,63.246,41.011,64.426,42.05
		c-1.783,1.587-3.686,3.005-5.523,4.5c-1.813,1.475-3.647,2.923-5.472,4.383c-1.87,1.496-3.739,2.991-5.609,4.486
		c-1.825,1.46-3.65,2.92-5.474,4.382c-1.868,1.497-3.735,2.997-5.603,4.494c-1.824,1.462-3.648,2.922-5.473,4.382
		c-1.869,1.496-3.741,2.989-5.609,4.487c-1.818,1.458-3.632,2.922-5.566,4.478c7.459,6.024,14.856,11.906,22.227,17.82
		c7.37,5.913,14.751,11.813,22.148,17.735c-0.198,0.221-0.29,0.379-0.426,0.468c-21.133,13.804-42.269,27.602-63.408,41.397
		c-0.137,0.089-0.315,0.113-0.6,0.211c-2.993-2.363-5.91-4.901-8.889-7.362c-3.033-2.505-6.037-5.044-9.056-7.566
		c-2.975-2.485-5.953-4.967-8.93-7.45c-3.021-2.519-6.043-5.037-9.063-7.557c-2.976-2.483-5.95-4.969-9.019-7.532
		c-5.022,4.124-9.976,8.315-14.966,12.462c-5.042,4.19-10.061,8.408-15.099,12.603c-4.987,4.153-9.944,8.343-14.92,12.425
		c-1.516-0.737-63.348-41.134-64.422-42.092c7.367-5.946,14.759-11.83,22.129-17.739c7.38-5.917,14.766-11.826,22.253-17.822
		c-7.471-5.983-14.855-11.892-22.235-17.807C2.863,46.872-4.521,40.977-11.953,35.003c0.268-0.244,0.413-0.418,0.595-0.536
		C9.865,20.604,31.091,6.745,52.391-7.162C57.467-2.999,62.423,1.19,67.408,5.344c5.037,4.197,10.064,8.404,15.101,12.6
		C87.496,22.098,92.468,26.271,97.483,30.427z M162.348,70.587c-21.775-13.445-43.281-26.724-64.718-39.959
		c-1.453,0.644-63.698,39.077-64.79,39.981c1.406,1.074,63.499,39.371,64.787,39.94C119.08,97.303,140.588,84.023,162.348,70.587z"
		/>
	<path fill="#2479BB" d="M33.069,157.857c0-4.546-0.001-8.988,0.006-13.43c0-0.15,0.091-0.299,0.182-0.578
		c1.719,0.883,3.204,2.02,4.775,3.009c1.638,1.032,3.242,2.119,4.863,3.179c1.573,1.029,3.147,2.056,4.723,3.08
		c1.572,1.021,3.147,2.038,4.801,3.11c15.044-12.479,30.035-24.914,45.051-37.37c0.676,0.184,1.092,0.671,1.557,1.057
		c5.533,4.577,11.056,9.164,16.582,13.749c8.771,7.278,17.542,14.555,26.315,21.831c0.26,0.216,0.536,0.413,0.888,0.683
		c2.16-1.265,4.206-2.7,6.304-4.05c2.155-1.387,4.286-2.812,6.441-4.199c2.095-1.349,4.142-2.775,6.212-4.008
		c0.18,0.072,0.242,0.08,0.278,0.116c0.038,0.037,0.071,0.1,0.071,0.152c0.022,4.158,0.044,8.317,0.056,12.475
		c0.001,0.394-0.057,0.787-0.093,1.237c-21.442,12.86-42.877,25.715-64.162,38.48c-0.244,0.032-0.3,0.048-0.354,0.044
		c-0.056-0.004-0.114-0.019-0.164-0.044c-0.204-0.1-0.412-0.194-0.606-0.31C75.599,183.36,54.404,170.65,33.069,157.857z"/>
</g>
</svg>
