<?xml version="1.0" encoding="UTF-8" ?>
<!DOCTYPE svg PUBLIC "-//W3C//DTD SVG 1.1//EN" "http://www.w3.org/Graphics/SVG/1.1/DTD/svg11.dtd">
<svg width="813pt" height="312pt" viewBox="0 0 813 312" version="1.1" xmlns="http://www.w3.org/2000/svg">
<g id="#ffffffff">
</g>
<g id="#000000ff">
<path fill="#000000" opacity="1.00" d=" M 591.44 62.41 C 597.74 59.75 605.98 64.02 606.45 71.08 C 607.67 77.42 602.20 83.98 595.69 83.64 C 589.79 83.93 584.41 78.84 584.48 72.92 C 584.26 68.37 587.22 64.03 591.44 62.41 M 592.34 64.44 C 587.09 66.43 585.68 73.82 589.01 78.07 C 591.29 81.35 596.04 82.14 599.54 80.49 C 603.69 78.48 605.03 72.81 603.16 68.80 C 601.47 64.78 596.36 62.65 592.34 64.44 Z" />
<path fill="#000000" opacity="1.00" d=" M 421.53 64.87 C 429.08 63.47 437.21 64.20 444.05 67.88 C 451.65 71.75 457.21 78.98 459.87 87.00 C 462.90 96.13 462.92 106.12 460.58 115.40 C 458.44 123.73 453.29 131.44 445.77 135.80 C 435.93 141.42 423.36 141.63 413.13 136.93 C 404.36 132.85 398.39 124.27 396.13 115.03 C 393.78 105.08 393.96 94.30 397.77 84.73 C 401.69 74.67 410.81 66.72 421.53 64.87 M 421.32 73.60 C 412.92 76.13 407.38 84.16 405.70 92.48 C 403.58 102.97 404.56 114.90 411.33 123.59 C 418.75 133.22 434.52 134.67 443.46 126.37 C 449.99 120.17 452.17 110.72 452.04 102.00 C 452.18 93.54 449.72 84.53 443.45 78.55 C 437.77 72.92 428.86 71.08 421.32 73.60 Z" />
<path fill="#000000" opacity="1.00" d=" M 276.85 65.25 C 280.91 65.25 284.97 65.25 289.04 65.26 C 298.03 89.80 306.95 114.38 315.85 138.95 C 312.37 139.02 308.89 139.01 305.41 138.98 C 302.57 131.06 299.67 123.16 296.79 115.25 C 287.69 115.24 278.58 115.27 269.48 115.24 C 266.59 123.14 263.86 131.10 260.97 139.00 C 257.66 139.01 254.36 139.02 251.07 138.93 C 257.89 119.54 265.06 100.27 272.08 80.95 C 273.85 75.78 276.34 70.77 276.85 65.25 M 282.98 73.81 C 279.68 85.02 275.53 95.95 271.79 107.02 C 279.32 106.97 286.85 107.03 294.38 106.98 C 290.59 95.92 286.60 84.93 282.98 73.81 Z" />
<path fill="#000000" opacity="1.00" d=" M 326.31 65.30 C 335.59 65.52 344.89 64.54 354.15 65.48 C 363.27 66.41 372.53 70.33 378.14 77.84 C 384.67 86.40 385.96 97.79 384.75 108.21 C 383.79 117.40 379.47 126.59 371.74 131.97 C 363.20 138.14 352.28 139.63 342.00 139.50 C 336.75 139.12 331.48 139.42 326.24 138.95 C 326.31 114.40 326.17 89.85 326.31 65.30 M 336.00 73.29 C 336.00 92.59 336.00 111.89 336.00 131.18 C 345.79 131.85 356.67 132.03 364.97 125.96 C 372.72 120.32 375.26 110.17 375.03 101.03 C 375.09 92.02 371.87 82.08 363.78 77.21 C 355.48 72.07 345.32 72.93 336.00 73.29 Z" />
<path fill="#000000" opacity="1.00" d=" M 472.72 69.02 C 473.01 67.89 472.04 65.05 474.02 65.28 C 483.49 65.57 493.03 64.26 502.44 65.86 C 508.23 66.85 514.31 69.65 517.06 75.15 C 519.95 81.44 519.69 89.48 515.25 95.01 C 513.32 97.55 510.41 98.99 507.60 100.31 C 513.03 101.83 518.16 105.29 520.54 110.55 C 523.68 117.72 522.39 127.02 516.47 132.40 C 511.37 136.88 504.49 138.55 497.89 139.13 C 489.54 139.83 481.15 139.24 472.79 138.97 C 472.68 115.66 472.81 92.34 472.72 69.02 M 482.50 73.31 C 482.50 81.12 482.51 88.93 482.49 96.74 C 489.59 96.35 497.28 98.05 503.86 94.59 C 511.07 90.93 511.19 78.74 503.85 75.15 C 497.18 72.06 489.60 73.17 482.50 73.31 M 482.52 104.75 C 482.49 113.57 482.49 122.40 482.52 131.23 C 488.85 131.09 495.29 131.83 501.53 130.36 C 505.06 129.50 508.62 127.69 510.53 124.45 C 513.52 118.90 512.19 110.75 506.34 107.61 C 499.09 103.60 490.45 105.04 482.52 104.75 Z" />
<path fill="#000000" opacity="1.00" d=" M 532.78 65.29 C 546.52 65.22 560.27 65.24 574.02 65.27 C 575.84 64.71 575.65 67.02 575.89 68.09 C 576.11 69.88 576.29 71.67 576.48 73.47 C 565.15 73.54 553.82 73.47 542.50 73.51 C 542.51 81.51 542.50 89.50 542.50 97.50 C 552.57 97.51 562.65 97.46 572.73 97.53 C 572.75 100.17 572.75 102.82 572.74 105.46 C 562.66 105.55 552.58 105.46 542.50 105.51 C 542.51 114.01 542.49 122.51 542.50 131.01 C 554.55 131.01 566.60 130.96 578.65 131.03 C 578.19 133.70 577.70 136.36 577.14 139.00 C 562.35 138.99 547.56 139.02 532.78 138.99 C 532.74 114.42 532.74 89.86 532.78 65.29 Z" />
<path fill="#000000" opacity="1.00" d=" M 591.27 66.73 C 594.05 66.98 597.56 66.06 599.73 68.32 C 600.72 70.36 599.57 72.37 597.96 73.64 C 599.17 75.19 600.36 76.76 601.44 78.41 C 597.59 79.13 596.66 74.99 593.88 73.46 C 593.79 75.14 593.71 76.84 593.63 78.53 C 593.03 78.34 591.85 77.95 591.26 77.76 C 591.17 74.09 591.27 70.41 591.27 66.73 M 593.79 68.42 C 593.76 69.71 593.75 71.01 593.75 72.31 C 595.49 72.16 596.99 71.34 598.21 70.11 C 596.77 69.44 595.30 68.89 593.79 68.42 Z" />
<path fill="#000000" opacity="1.00" d=" M 751.19 167.12 C 756.81 164.97 763.89 168.16 765.44 174.10 C 767.72 180.49 762.84 188.27 755.93 188.49 C 749.52 189.26 743.38 183.70 743.82 177.19 C 743.87 172.71 746.92 168.50 751.19 167.12 M 751.37 169.42 C 744.87 172.20 745.03 182.88 751.60 185.49 C 756.78 188.15 763.59 183.81 763.28 177.97 C 764.02 171.79 757.02 166.58 751.37 169.42 Z" />
<path fill="#000000" opacity="1.00" d=" M 313.59 180.55 C 324.62 168.79 342.99 166.37 357.74 171.60 C 357.76 174.64 357.77 177.68 357.70 180.72 C 348.48 176.90 337.52 176.17 328.42 180.71 C 320.34 184.67 315.02 193.12 313.98 201.95 C 313.16 209.69 313.92 218.04 318.33 224.67 C 322.04 230.49 328.48 234.11 335.15 235.45 C 343.09 236.92 351.37 235.68 358.75 232.47 C 358.66 235.40 359.02 238.39 358.51 241.30 C 351.61 244.93 343.51 245.27 335.89 244.89 C 324.18 244.12 312.60 237.47 307.55 226.63 C 300.80 211.86 302.18 192.69 313.59 180.55 Z" />
<path fill="#000000" opacity="1.00" d=" M 468.48 169.67 C 477.48 167.95 487.33 169.67 494.75 175.21 C 502.88 181.16 507.52 190.99 508.58 200.86 C 509.54 209.87 508.58 219.35 504.52 227.55 C 500.43 236.06 492.24 242.53 482.93 244.29 C 473.02 246.23 461.94 244.61 453.97 238.07 C 446.82 232.35 442.95 223.40 441.80 214.48 C 440.32 203.52 441.87 191.62 448.39 182.43 C 453.04 175.72 460.47 171.14 468.48 169.67 M 467.36 178.68 C 458.72 181.61 453.46 190.26 452.09 198.92 C 450.49 209.07 451.58 220.43 458.23 228.68 C 465.84 238.35 481.99 239.44 490.71 230.71 C 497.04 224.25 498.96 214.77 498.77 206.01 C 498.69 197.68 496.07 188.96 489.92 183.09 C 483.99 177.53 474.95 176.01 467.36 178.68 Z" />
<path fill="#000000" opacity="1.00" d=" M 524.97 175.00 C 529.65 170.96 535.94 169.27 542.03 169.22 C 548.57 169.06 555.33 170.18 561.02 173.59 C 560.99 176.65 560.99 179.72 560.97 182.78 C 553.13 178.44 543.42 175.14 534.69 178.79 C 528.25 181.20 526.53 190.80 531.82 195.23 C 539.60 202.14 550.70 203.72 558.45 210.74 C 565.77 216.53 566.48 227.89 561.73 235.50 C 558.01 241.26 551.16 244.09 544.56 244.82 C 535.43 245.66 525.74 244.17 518.03 238.93 C 517.99 235.60 517.99 232.27 518.01 228.95 C 523.71 232.80 530.12 235.89 537.07 236.45 C 542.13 236.89 547.99 236.65 551.84 232.86 C 555.99 228.96 555.60 221.48 551.05 218.03 C 542.99 211.55 532.10 209.72 524.45 202.60 C 516.50 195.69 516.89 181.66 524.97 175.00 Z" />
<path fill="#000000" opacity="1.00" d=" M 620.24 173.27 C 632.48 167.44 647.40 167.69 659.69 173.25 C 659.77 176.40 659.75 179.55 659.73 182.70 C 649.81 177.60 637.69 175.91 627.11 179.93 C 619.59 182.72 614.07 189.57 612.19 197.27 C 609.57 207.60 610.89 219.62 618.07 227.90 C 626.30 237.44 640.78 238.54 651.99 234.25 C 652.00 227.58 651.99 220.91 652.00 214.24 C 646.75 214.33 641.51 214.25 636.27 213.87 C 636.23 211.28 636.24 208.69 636.32 206.10 C 644.85 205.93 653.39 205.95 661.92 206.08 C 662.07 217.29 662.01 228.51 661.95 239.72 C 651.83 244.57 640.20 246.14 629.14 244.31 C 620.02 242.81 611.44 237.56 606.58 229.62 C 600.69 219.96 599.62 207.90 602.02 196.99 C 604.20 186.90 610.96 177.88 620.24 173.27 Z" />
<path fill="#000000" opacity="1.00" d=" M 251.27 170.28 C 265.54 170.21 279.80 170.27 294.06 170.25 C 294.42 172.89 294.76 175.54 295.08 178.19 C 283.80 178.33 272.52 178.21 261.24 178.26 C 261.25 186.26 261.24 194.26 261.25 202.26 C 271.24 202.25 281.23 202.24 291.21 202.26 C 291.25 204.92 291.25 207.59 291.26 210.26 C 281.25 210.24 271.25 210.25 261.24 210.26 C 261.25 218.75 261.24 227.25 261.25 235.75 C 273.22 235.79 285.20 235.67 297.17 235.81 C 296.76 238.53 296.24 241.23 295.69 243.93 C 280.92 244.10 266.16 243.94 251.39 244.02 C 251.07 219.44 251.31 194.86 251.27 170.28 Z" />
<path fill="#000000" opacity="1.00" d=" M 370.52 170.28 C 373.83 170.24 377.14 170.23 380.45 170.29 C 380.58 180.94 380.45 191.60 380.51 202.25 C 392.76 202.25 405.00 202.25 417.25 202.25 C 417.26 191.58 417.24 180.92 417.25 170.25 C 420.50 170.25 423.75 170.24 427.00 170.25 C 426.98 194.83 427.03 219.40 426.98 243.98 C 423.74 244.00 420.51 244.01 417.28 243.98 C 417.22 232.73 417.25 221.49 417.26 210.25 C 405.01 210.25 392.76 210.25 380.50 210.25 C 380.39 221.50 380.74 232.77 380.32 244.01 C 377.07 244.00 373.82 244.00 370.57 243.97 C 370.41 219.41 370.51 194.84 370.52 170.28 Z" />
<path fill="#000000" opacity="1.00" d=" M 577.03 170.28 C 580.34 170.24 583.65 170.23 586.97 170.28 C 586.99 194.83 587.09 219.37 586.92 243.92 C 583.64 244.04 580.36 244.03 577.09 243.92 C 576.90 219.37 577.01 194.83 577.03 170.28 Z" />
<path fill="#000000" opacity="1.00" d=" M 678.04 170.29 C 682.24 170.22 686.45 170.25 690.66 170.26 C 702.44 190.70 714.46 211.02 725.84 231.70 C 725.15 211.23 725.62 190.74 725.53 170.27 C 728.60 170.24 731.67 170.25 734.75 170.25 C 734.73 194.83 734.79 219.40 734.72 243.98 C 730.62 244.01 726.53 244.02 722.44 243.96 C 711.02 222.55 698.18 201.92 686.96 180.40 C 687.75 201.57 687.57 222.79 687.37 243.97 C 684.26 244.02 681.15 244.01 678.05 243.96 C 677.95 219.40 677.99 194.85 678.04 170.29 Z" />
<path fill="#000000" opacity="1.00" d=" M 114.74 200.76 C 117.33 200.74 119.92 200.75 122.51 200.75 C 122.65 215.07 122.16 229.41 122.80 243.73 C 120.51 243.75 118.23 243.75 115.95 243.75 C 115.89 243.01 115.76 241.53 115.70 240.78 C 113.73 242.86 111.16 244.86 108.10 244.21 C 103.21 243.59 100.93 238.40 100.20 234.10 C 99.28 227.91 99.42 220.76 103.51 215.64 C 106.29 212.13 111.97 211.76 114.85 215.35 C 114.66 210.49 114.78 205.62 114.74 200.76 M 109.53 220.44 C 107.13 224.03 107.26 228.78 107.91 232.89 C 108.36 234.76 108.93 237.39 111.17 237.80 C 113.70 237.91 114.64 235.12 114.72 233.05 C 114.74 229.53 115.03 225.95 114.43 222.47 C 114.09 220.23 111.23 218.20 109.53 220.44 Z" />
<path fill="#000000" opacity="1.00" d=" M 153.26 200.74 C 155.83 200.75 158.41 200.75 160.99 200.76 C 160.98 205.88 161.05 211.00 160.96 216.12 C 162.94 213.92 165.85 212.11 168.93 212.97 C 173.34 213.96 175.18 218.86 175.76 222.87 C 176.30 228.47 176.39 234.52 173.57 239.59 C 171.95 242.54 168.66 244.78 165.18 244.22 C 162.88 244.09 161.52 242.06 160.02 240.60 C 159.98 241.37 159.90 242.92 159.87 243.69 C 157.59 243.74 155.32 243.76 153.05 243.78 C 153.51 229.44 153.12 215.09 153.26 200.74 M 162.44 220.47 C 160.16 223.90 161.17 228.34 161.04 232.22 C 161.11 234.46 161.98 238.12 164.90 237.79 C 167.88 236.62 168.10 232.85 168.27 230.11 C 168.23 226.89 168.57 223.17 166.42 220.51 C 165.52 219.07 163.36 219.12 162.44 220.47 Z" />
<path fill="#000000" opacity="1.00" d=" M 71.44 243.76 C 74.60 229.77 77.59 215.74 80.74 201.75 C 83.79 201.75 86.85 201.75 89.91 201.73 C 92.95 215.71 95.11 229.90 98.58 243.77 C 95.91 243.74 93.25 243.76 90.58 243.74 C 89.95 240.41 89.34 237.07 88.67 233.75 C 86.16 233.75 83.65 233.75 81.13 233.72 C 80.45 237.07 79.78 240.42 79.14 243.77 C 76.57 243.74 74.01 243.74 71.44 243.76 M 82.03 227.53 C 83.98 227.51 85.93 227.48 87.88 227.45 C 86.86 221.54 85.86 215.62 85.10 209.67 C 84.16 215.64 83.12 221.59 82.03 227.53 Z" />
<path fill="#000000" opacity="1.00" d=" M 134.37 213.49 C 138.70 211.72 144.24 213.34 146.68 217.40 C 149.47 221.69 149.48 227.00 149.19 231.92 C 148.76 236.94 146.06 242.49 140.83 243.87 C 135.03 245.80 128.70 241.75 127.43 235.92 C 125.40 228.24 125.94 217.07 134.37 213.49 M 134.24 226.92 C 134.26 231.04 133.79 236.50 138.07 238.78 C 142.05 235.94 141.50 230.44 141.45 226.12 C 141.09 223.54 140.97 219.38 137.79 218.77 C 134.51 219.83 134.48 224.07 134.24 226.92 Z" />
<path fill="#000000" opacity="1.00" d=" M 184.22 215.18 C 188.06 211.83 194.70 211.80 198.00 215.92 C 201.52 220.20 201.03 226.08 200.99 231.27 C 196.09 231.01 191.18 230.89 186.27 231.06 C 186.94 233.06 187.03 235.60 188.94 236.90 C 191.85 238.98 195.63 237.81 198.82 237.13 C 199.15 239.03 199.47 240.94 199.77 242.86 C 194.70 244.15 188.72 245.14 184.11 241.98 C 180.33 239.33 179.10 234.45 178.98 230.07 C 178.79 224.75 179.93 218.76 184.22 215.18 M 186.40 225.49 C 188.95 225.50 191.50 225.50 194.05 225.50 C 193.58 223.02 193.72 219.67 190.92 218.52 C 187.41 218.63 187.02 222.84 186.40 225.49 Z" />
</g>
<g id="#dc0e10ff">
<path fill="#dc0e10" opacity="1.00" d=" M 70.47 64.47 C 86.66 64.46 102.84 64.43 119.02 64.48 C 117.24 69.07 115.44 73.66 113.20 78.04 C 113.64 74.11 114.64 70.26 116.09 66.58 C 101.57 66.19 87.04 66.25 72.52 66.57 C 72.13 96.03 72.51 125.51 72.33 154.98 C 72.26 159.65 72.40 164.32 72.86 168.98 C 74.28 166.62 75.67 164.24 76.75 161.72 C 80.42 152.72 84.35 143.84 87.83 134.77 C 88.96 131.64 90.66 128.74 92.97 126.34 C 85.83 144.38 78.10 162.21 70.53 180.08 C 70.37 141.54 70.48 103.00 70.47 64.47 Z" />
</g>
<g id="#ff7272ff">
<path fill="#ff7272" opacity="1.00" d=" M 203.89 70.19 C 203.09 66.79 206.53 63.36 209.93 64.17 C 212.39 64.49 213.21 67.22 214.45 68.99 C 213.37 71.08 211.95 72.98 209.91 74.22 C 209.88 73.41 209.81 71.79 209.78 70.97 C 209.56 70.80 209.11 70.46 208.88 70.30 C 208.27 71.55 207.70 72.83 206.82 73.93 C 205.79 72.73 204.53 71.67 203.89 70.19 M 206.70 71.42 C 207.30 70.08 207.36 68.28 206.62 66.99 C 205.21 67.40 205.28 71.12 206.70 71.42 M 211.34 67.12 C 210.24 67.92 210.14 70.46 211.52 70.99 C 212.56 70.18 212.65 67.66 211.34 67.12 Z" />
</g>
<g id="#c72020ff">
<path fill="#c72020" opacity="1.00" d=" M 152.44 64.50 C 168.66 64.36 184.89 64.42 201.11 64.47 C 201.09 103.01 201.23 141.55 201.04 180.09 C 200.28 178.44 199.54 176.79 198.79 175.15 L 198.83 174.88 C 199.27 172.27 199.60 169.64 199.66 167.00 C 199.62 135.01 199.56 103.01 199.66 71.02 C 199.65 69.25 199.51 67.48 199.10 65.76 C 191.09 65.16 183.03 65.76 174.99 65.56 C 168.07 65.69 161.10 65.04 154.23 66.19 C 156.71 72.17 159.93 77.92 161.03 84.37 C 157.76 77.93 155.30 71.12 152.44 64.50 Z" />
</g>
<g id="#fe0000ff">
<path fill="#fe0000" opacity="1.00" d=" M 154.23 66.19 C 161.10 65.04 168.07 65.69 174.99 65.56 C 183.03 65.76 191.09 65.16 199.10 65.76 C 199.51 67.48 199.65 69.25 199.66 71.02 C 199.56 103.01 199.62 135.01 199.66 167.00 C 199.60 169.64 199.27 172.27 198.83 174.88 C 186.59 146.10 174.67 117.20 162.48 88.40 C 161.93 87.08 161.40 85.75 161.03 84.37 C 159.93 77.92 156.71 72.17 154.23 66.19 Z" />
<path fill="#fe0000" opacity="1.00" d=" M 72.52 66.57 C 87.04 66.25 101.57 66.19 116.09 66.58 C 114.64 70.26 113.64 74.11 113.20 78.04 C 106.89 94.17 99.87 110.05 93.21 126.05 L 92.97 126.34 C 90.66 128.74 88.96 131.64 87.83 134.77 C 84.35 143.84 80.42 152.72 76.75 161.72 C 75.67 164.24 74.28 166.62 72.86 168.98 C 72.40 164.32 72.26 159.65 72.33 154.98 C 72.51 125.51 72.13 96.03 72.52 66.57 Z" />
</g>
<g id="#ffc8c7ff">
<path fill="#ffc8c7" opacity="1.00" d=" M 206.70 71.42 C 205.28 71.12 205.21 67.40 206.62 66.99 C 207.36 68.28 207.30 70.08 206.70 71.42 Z" />
</g>
<g id="#fcc8c3ff">
<path fill="#fcc8c3" opacity="1.00" d=" M 211.34 67.12 C 212.65 67.66 212.56 70.18 211.52 70.99 C 210.14 70.46 210.24 67.92 211.34 67.12 Z" />
</g>
<g id="#fefefeff">
<path fill="#fefefe" opacity="1.00" d=" M 593.79 68.42 C 595.30 68.89 596.77 69.44 598.21 70.11 C 596.99 71.34 595.49 72.16 593.75 72.31 C 593.75 71.01 593.76 69.71 593.79 68.42 Z" />
<path fill="#fefefe" opacity="1.00" d=" M 753.28 173.53 C 754.77 173.95 757.30 173.58 756.84 175.93 C 755.77 176.57 754.53 176.75 753.36 177.06 C 753.31 175.88 753.29 174.70 753.28 173.53 Z" />
</g>
<g id="#fd0100ff">
<path fill="#fd0100" opacity="1.00" d=" M 114.43 156.65 C 121.65 140.05 128.58 123.32 135.82 106.73 C 146.07 131.06 156.39 155.36 166.66 179.68 C 159.80 179.75 152.94 179.74 146.09 179.66 C 143.23 171.96 140.03 164.38 137.06 156.72 C 129.52 156.67 121.98 156.72 114.43 156.65 Z" />
</g>
<g id="#070707ff">
<path fill="#070707" opacity="1.00" d=" M 750.75 171.72 C 753.46 171.96 756.75 171.00 758.98 173.04 C 760.43 175.15 758.76 177.09 757.28 178.53 C 758.50 180.00 759.66 181.52 760.75 183.11 C 757.04 184.04 755.79 180.11 753.51 178.18 C 753.33 179.78 753.22 181.39 753.12 183.00 C 752.53 183.00 751.33 183.00 750.74 183.00 C 750.74 179.24 750.73 175.48 750.75 171.72 M 753.28 173.53 C 753.29 174.70 753.31 175.88 753.36 177.06 C 754.53 176.75 755.77 176.57 756.84 175.93 C 757.30 173.58 754.77 173.95 753.28 173.53 Z" />
</g>
</svg>
