<?xml version="1.0" encoding="UTF-8" ?>
<!DOCTYPE svg PUBLIC "-//W3C//DTD SVG 1.1//EN" "http://www.w3.org/Graphics/SVG/1.1/DTD/svg11.dtd">
<svg width="1000pt" height="323pt" viewBox="0 0 1000 323" version="1.1" xmlns="http://www.w3.org/2000/svg">
<g id="#c12a3aff">
<path fill="#c12a3a" opacity="1.00" d=" M 543.50 61.75 C 549.08 61.75 554.66 61.75 560.24 61.76 C 560.25 80.34 560.25 98.92 560.25 117.50 C 554.66 117.50 549.08 117.50 543.50 117.50 C 543.50 98.92 543.49 80.34 543.50 61.75 Z" />
<path fill="#c12a3a" opacity="1.00" d=" M 465.63 215.34 C 480.58 204.36 495.48 193.31 510.44 182.34 C 513.79 186.85 517.16 191.36 520.43 195.94 C 505.51 206.94 490.63 217.99 475.65 228.91 C 472.29 224.41 468.95 219.88 465.63 215.34 Z" />
<path fill="#c12a3a" opacity="1.00" d=" M 582.93 195.94 C 586.25 191.38 589.61 186.84 592.98 182.31 C 607.88 193.38 622.89 204.31 637.78 215.40 C 634.38 219.87 631.13 224.47 627.72 228.94 C 612.79 217.95 597.87 206.93 582.93 195.94 Z" />
</g>
<g id="#419997ff">
<path fill="#419997" opacity="1.00" d=" M 492.41 98.02 C 512.17 112.59 531.93 127.17 551.72 141.71 C 571.50 127.14 591.26 112.55 611.04 97.99 C 620.45 104.88 629.79 111.88 639.20 118.78 C 615.65 136.16 592.10 153.53 568.51 170.85 C 568.48 198.23 568.51 225.61 568.50 253.00 C 557.33 253.00 546.17 253.00 535.00 253.00 C 535.00 225.67 535.00 198.33 535.00 171.00 C 511.44 153.55 487.77 136.23 464.22 118.76 C 473.64 111.87 483.01 104.93 492.41 98.02 Z" />
<path fill="#419997" opacity="1.00" d=" M 258.99 116.68 C 271.47 115.60 284.33 117.08 295.92 121.99 C 302.68 124.86 308.81 129.02 314.41 133.73 C 307.89 141.60 301.35 149.44 294.83 157.30 C 287.90 151.31 279.38 146.79 270.11 146.15 C 261.45 145.12 252.28 147.87 246.04 154.06 C 233.04 166.09 232.33 188.69 244.28 201.67 C 254.78 213.25 273.58 214.44 286.72 206.88 C 286.77 202.08 286.75 197.29 286.75 192.50 C 279.00 192.50 271.25 192.51 263.50 192.49 C 263.50 184.41 263.50 176.33 263.50 168.26 C 281.75 168.25 300.00 168.25 318.25 168.26 C 318.26 186.15 318.22 204.04 318.27 221.94 C 305.27 232.68 288.80 239.09 271.97 240.05 C 252.49 241.49 231.86 235.29 218.18 220.92 C 197.60 199.83 196.30 163.51 214.43 140.50 C 224.99 126.65 241.74 118.13 258.99 116.68 Z" />
<path fill="#419997" opacity="1.00" d=" M 93.50 118.76 C 125.42 118.75 157.33 118.75 189.24 118.76 C 189.25 128.17 189.25 137.58 189.25 146.99 C 168.25 147.01 147.25 146.99 126.25 147.01 C 126.25 152.92 126.24 158.83 126.25 164.75 C 145.25 164.76 164.25 164.74 183.24 164.76 C 183.25 173.50 183.25 182.25 183.25 190.99 C 164.25 191.01 145.25 190.99 126.25 191.01 C 126.25 197.17 126.24 203.33 126.25 209.50 C 147.58 209.51 168.91 209.49 190.25 209.51 C 190.25 218.92 190.25 228.33 190.25 237.74 C 158.00 237.75 125.75 237.75 93.50 237.74 C 93.50 198.08 93.49 158.42 93.50 118.76 Z" />
<path fill="#419997" opacity="1.00" d=" M 336.51 118.76 C 346.81 118.75 357.12 118.75 367.42 118.75 C 383.61 139.54 399.80 160.33 415.98 181.12 C 416.03 160.33 415.98 139.54 416.01 118.75 C 427.00 118.75 438.00 118.75 448.99 118.75 C 449.00 158.42 449.00 198.08 448.99 237.75 C 439.21 237.69 429.42 237.86 419.63 237.66 C 402.88 216.06 386.06 194.51 369.27 172.94 C 369.22 194.54 369.26 216.14 369.25 237.74 C 358.33 237.75 347.41 237.75 336.50 237.74 C 336.51 198.08 336.49 158.42 336.51 118.76 Z" />
<path fill="#419997" opacity="1.00" d=" M 653.76 118.76 C 688.59 118.75 723.41 118.75 758.24 118.76 C 758.25 128.42 758.25 138.08 758.25 147.74 C 746.33 147.75 734.42 147.74 722.51 147.75 C 722.49 177.75 722.51 207.75 722.50 237.74 C 711.50 237.75 700.50 237.75 689.50 237.74 C 689.50 207.75 689.51 177.75 689.49 147.75 C 677.58 147.74 665.67 147.76 653.75 147.74 C 653.75 138.08 653.74 128.42 653.76 118.76 Z" />
<path fill="#419997" opacity="1.00" d=" M 772.51 118.76 C 804.42 118.75 836.33 118.75 868.24 118.76 C 868.25 128.17 868.25 137.58 868.25 147.00 C 847.25 147.01 826.25 146.99 805.25 147.01 C 805.25 152.92 805.24 158.83 805.25 164.75 C 824.25 164.76 843.25 164.74 862.24 164.76 C 862.25 173.50 862.25 182.25 862.25 190.99 C 843.25 191.01 824.25 190.99 805.25 191.01 C 805.25 197.17 805.24 203.33 805.25 209.50 C 826.58 209.51 847.91 209.49 869.25 209.51 C 869.25 218.92 869.25 228.33 869.25 237.74 C 837.00 237.75 804.75 237.75 772.50 237.74 C 772.50 198.08 772.49 158.42 772.51 118.76 Z" />
</g>
</svg>
