<?xml version="1.0" encoding="UTF-8"?>
<svg width="2074px" height="409px" viewBox="0 0 2074 409" version="1.1" xmlns="http://www.w3.org/2000/svg" xmlns:xlink="http://www.w3.org/1999/xlink">
    <!-- Generator: Sketch 41 (35326) - http://www.bohemiancoding.com/sketch -->
    <title>Untitled</title>
    <desc>Created with Sketch.</desc>
    <defs></defs>
    <g id="Page-1" stroke="none" stroke-width="1" fill="none" fill-rule="evenodd">
        <g id="firebase">
            <g id="#1d1d1eff" fill="#757575">
                <path d="M144.62,0 L174.3,0 C200.13,1.08 226.02,3.23 251.34,8.67 C265.28,11.7 279.11,15.74 291.97,22.01 C301.75,26.94 311.27,33.39 317.25,42.78 C320.64,48.2 322.56,54.51 322.69,60.91 C323.03,82.91 323.5,104.91 323.85,126.91 C324.06,133.22 324.45,139.71 322.57,145.84 C321.46,149.66 319.35,153.08 317.29,156.45 C320.6,161.18 323.36,166.42 324.28,172.18 C325.39,179.42 324.78,186.76 325.15,194.04 C325.41,210.36 325.74,226.69 326.03,243.01 C326.2,249.98 324.28,256.87 320.75,262.87 C324.02,268.35 326.57,274.46 326.71,280.94 C327.19,298.63 327.33,316.33 327.74,334.03 C327.55,342.15 329,350.48 326.64,358.42 C323.93,368.14 316.69,375.9 308.57,381.53 C296.7,389.74 282.86,394.47 269.04,398.2 C239.75,405.76 209.41,408.02 179.27,409 L156.63,409 C132.33,408.24 107.97,406.59 84.04,402.08 C67,398.84 49.99,394.38 34.48,386.46 C25.47,381.69 16.76,375.58 11.11,366.92 C7.4,361.34 5.29,354.72 5.22,348.01 C4.72,326.34 4.49,304.66 3.97,283 C3.64,275.81 5.75,268.77 9.38,262.62 C5.8,257.43 3.39,251.39 3.35,245.02 C2.82,226.68 2.68,208.33 2.26,189.99 C2.43,183 1.24,175.89 2.98,169.02 C4,164.44 6.22,160.25 8.79,156.37 C4.24,150.22 1.41,142.77 1.27,135.09 C0.7,114.78 0.68,94.46 0,74.16 L0,56.54 C1.25,45.65 7.9,36.08 16.55,29.63 C28.38,20.78 42.51,15.67 56.62,11.71 C85.28,3.93 115.03,1.21 144.62,0 L144.62,0 Z M97.82,22.73 C87.58,24.7 77.58,27.78 67.88,31.61 L68.76,31.71 C63.91,32.98 59.64,35.78 55.37,38.31 C43.73,45.46 34.08,56.72 31.03,70.25 C30.19,67.39 29.53,64.49 28.68,61.64 C26.9,67.03 25.37,72.5 24.18,78.05 C23.1,83.65 22.22,89.3 22,95 C22,97.21 22,99.42 21.99,101.64 C21.78,114.06 24.27,126.72 30.36,137.64 C33.13,142.62 36.78,147.06 41.03,150.86 C44.72,153.88 48.75,156.45 53.04,158.53 C60.03,161.57 67.55,163.01 74.94,164.72 C91.04,168.01 107.73,170.05 124.08,167.47 L125.2,167.16 C118.67,169.48 111.77,170.34 105.17,172.31 C116.25,173.97 127.49,174.64 138.68,174.7 C154.22,175.08 169.82,175.01 185.32,174.06 C192.49,173.77 199.72,173.89 206.84,173.05 C216.3,172.78 225.72,171.82 235.06,170.28 C241.46,169.18 247.86,167.98 254.18,166.48 C258.24,165.53 262.26,164.38 266.27,163.24 C270.91,161.83 275.48,160.21 280.01,158.46 C284.89,156.28 289.85,154.14 294.22,151.02 C298.37,148.36 303.07,144.45 302.99,139.05 C303.02,117.35 302.97,95.66 303.01,73.97 C303.01,70.55 302.73,66.99 301.06,63.93 C298.56,59.31 294.21,56.07 289.69,53.59 C286.4,52.02 283.01,50.69 279.56,49.53 C263.15,44.7 246,43.34 229.01,42.34 C224.23,42.24 219.39,41.74 214.65,42.54 C225.13,43.11 235.53,44.67 245.86,46.46 C257.14,48.67 268.62,51.15 278.82,56.66 C282.14,58.93 286.33,61.56 286.62,66 C286.32,70.81 281.72,73.47 278.11,75.83 C274.24,77.67 270.23,79.19 266.15,80.49 C262.19,81.65 258.18,82.61 254.15,83.46 C239.15,86.57 223.83,87.15 208.6,88.2 C208.04,88.19 206.93,88.16 206.38,88.14 C193.93,87.92 181.43,88.75 169.04,87.2 C160.19,86.23 150.91,84.65 143.48,79.43 C138.62,76.07 136.11,69.93 137.09,64.12 C138.8,57.37 144.25,52.59 150.4,49.82 C157.67,46.65 165.5,45.22 173.3,44.07 C177.2,43.89 181.1,43.73 185,43.65 C181.91,42.47 178.56,42.02 175.59,40.52 C174.21,39.7 172.41,38.86 172.69,36.94 C175.27,34.28 179.16,33.92 182.51,32.79 C198.65,29.83 215.08,29.3 231.45,29.3 C226.53,27.96 221.41,27.55 216.38,26.74 C202.74,25.02 189.05,23.39 175.29,22.95 C170.66,21.57 165.82,22.7 161.09,22.24 C151.32,22.13 141.5,21.9 131.77,22.9 C124.94,23.08 118.14,23.98 111.4,25.09 C113.42,23.33 115.43,21.53 117.21,19.52 C110.69,20.26 104.24,21.45 97.82,22.73 L97.82,22.73 Z M55.26,164.2 C54.94,173.52 55.31,182.86 55.07,192.19 C48.65,189.83 40.84,187.97 37.07,181.72 C36.67,177.15 37.12,172.54 36.81,167.96 C32.35,170.88 27.09,174.27 26.21,179.98 C26.26,201.33 26.25,222.68 26.22,244.02 C26.21,245.89 26.4,247.77 26.81,249.6 C29.28,254.81 34.4,258 39.29,260.66 C45.05,263.42 50.98,266.06 57.25,267.35 L57.65,267 L57.99,267.69 C63.81,269.7 69.89,270.91 75.91,272.19 C86.76,274.39 97.73,276.1 108.76,277.1 C136.83,280.19 165.2,280.65 193.38,279.1 C198.35,278.93 203.34,278.71 208.29,278.14 C216.25,277.6 224.18,276.64 232.09,275.57 C239.07,274.38 246.23,273.76 253.02,271.72 L253.33,271.05 L253.7,271.45 C260.14,270.92 266.38,268.7 272.61,266.99 L272.6,266.9 C276.01,265.93 279.34,264.68 282.64,263.36 C285.33,262.2 287.95,260.9 290.56,259.56 C292.33,258.41 294.07,257.22 295.8,256.02 L295.79,255.94 C297.91,254.11 299.93,252.03 301.01,249.41 C301.82,246.01 301.5,242.5 301.54,239.05 C301.54,221.36 301.52,203.67 301.55,185.99 C301.47,183.07 302.19,179.94 300.74,177.24 C298.76,173.06 294.84,170.35 291,168.02 C290.94,172.07 291.11,176.12 290.96,180.17 C290.93,182.47 289.13,184.2 287.45,185.53 C282.44,189.12 276.48,190.99 270.67,192.82 C262.55,195.13 254.29,196.95 245.97,198.35 C246.2,191.57 246.28,184.79 245.92,178.02 C240.61,178.93 235.34,180.01 230.07,181.11 C224.7,181.73 219.3,182.11 213.99,183.11 C206.35,184.07 198.61,183.72 190.99,184.89 C180.34,185.17 169.68,184.89 159.03,185.06 C148.68,184.76 138.37,183.81 128.06,182.95 C122.92,182.51 117.78,182.02 112.67,181.28 C117.25,179.64 122.05,178.79 126.71,177.43 C117.43,176.62 108.09,176.52 98.88,174.99 C94.67,174.1 90.43,173.44 86.2,172.65 C80.91,171.2 75.52,170.13 70.22,168.67 L70.39,168.15 C65.29,167.06 60.33,165.42 55.26,164.2 L55.26,164.2 Z M26.22,283.95 C26.27,305.64 26.25,327.33 26.23,349.02 C26.2,350.85 26.45,352.68 26.92,354.44 C28.18,357.08 30.16,359.4 32.57,361.06 C36.52,364.19 41.12,366.32 45.72,368.32 C49.7,369.81 53.71,371.24 57.79,372.46 C61.78,373.62 65.81,374.65 69.87,375.59 C75.09,376.8 80.37,377.78 85.65,378.7 C92.71,379.91 99.81,380.82 106.92,381.66 C154.14,386.46 202.14,385.87 248.92,377.49 C253.62,376.55 258.3,375.48 262.97,374.39 C266.43,373.47 269.87,372.47 273.31,371.45 C277.04,370.2 280.73,368.83 284.36,367.33 C286.2,366.45 288.02,365.55 289.84,364.62 C294.93,361.5 301.23,357.57 301.54,350.93 C301.59,329.97 301.56,309.02 301.55,288.07 C303.05,280.63 296.93,275 291.05,271.76 C290.85,276.85 291.23,281.96 290.87,287.04 C289.77,290.93 285.76,292.85 282.43,294.53 C270.88,299.67 258.37,302.15 245.98,304.34 C246.18,296.93 246.32,289.51 245.93,282.11 C240.58,282.85 235.18,283.39 229.97,284.86 C224.65,285.73 219.24,285.9 213.96,287.06 C206.33,287.95 198.66,288.36 191.01,289.05 C185.69,289.44 180.35,289.47 175.03,289.73 C169.68,289.78 164.34,289.68 159,289.87 C148.48,289.44 137.96,289.06 127.48,288.11 C118.27,287.53 109.18,285.92 100.05,284.8 C96.22,283.81 92.31,283.22 88.42,282.61 L88.46,282.26 C82.05,281.19 75.84,279.23 69.49,277.88 L69.53,277.31 C65.82,275.99 62.04,274.92 58.19,274.14 C58.1,282.47 57.69,290.8 58.05,299.13 C53.28,297.69 48.51,296.15 44.06,293.87 C41.4,292.38 38.21,290.88 37.11,287.81 C36.61,282.48 37.16,277.09 36.81,271.75 C32.16,274.45 26.92,278.2 26.22,283.95 Z" id="Shape"></path>
                <path d="M1176.24,44.01 C1197.75,43.99 1219.25,44 1240.76,44.01 C1240.75,82.03 1240.75,120.06 1240.75,158.09 C1251.33,144.05 1265.27,132.01 1282.16,126.41 C1316.3,115.13 1356.09,125.22 1381.33,150.69 C1395.85,165.2 1405.64,184.05 1410.37,203.95 C1414.82,222.58 1415.28,242.04 1412.99,261.01 C1410.39,281.09 1403.34,300.83 1391.17,317.13 C1381.07,330.85 1367.3,341.83 1351.7,348.67 C1331.51,357.46 1308.39,359.47 1287.02,354.15 C1268.62,349.71 1252.77,338.03 1240.75,323.69 L1240.75,352.75 L1176.25,352.75 C1176.24,249.84 1176.26,146.92 1176.24,44.01 L1176.24,44.01 Z M1287.12,177.16 C1272.31,179.23 1258.84,188.19 1250.7,200.66 C1240.05,216.72 1237.72,237.25 1241.46,255.88 C1244.94,273.16 1255.84,289.34 1271.95,297.1 C1288.42,305.2 1309.11,303.69 1324.19,293.22 C1338.02,284 1346.51,268.26 1348.92,252.04 C1352.05,231.43 1347.67,208.56 1332.83,193.18 C1321.39,180.79 1303.78,174.71 1287.12,177.16 Z" id="Shape"></path>
                <path d="M699.76,45.25 L767.75,45.25 L767.75,102.75 C745.09,102.76 722.42,102.74 699.76,102.76 C699.74,83.59 699.75,64.42 699.76,45.25 Z" id="Shape"></path>
                <path d="M450.5,46 L676,46 L676,105.25 L515.76,105.25 C515.74,126.17 515.75,147.08 515.75,168 C562.84,168.01 609.92,168 657,168 C656.99,187.84 657.03,207.68 656.98,227.51 C609.9,227.49 562.83,227.5 515.76,227.51 C515.74,269.26 515.76,311 515.75,352.75 C494,352.76 472.26,352.74 450.51,352.76 C450.48,250.51 450.5,148.25 450.5,46 Z" id="Shape"></path>
                <path d="M886.66,131.72 C898.99,123.72 914.02,121.25 928.49,121.75 C928.51,144.24 928.51,166.74 928.49,189.23 C912.74,188.96 896.2,191.71 883.23,201.22 C869.46,210.99 861.62,227.13 858.53,243.39 C855.45,257.72 856.38,272.43 856.25,286.97 C856.24,308.9 856.26,330.82 856.24,352.75 L791.76,352.75 C791.74,277.17 791.75,201.59 791.75,126 L856.25,126 C856.26,140.95 856.23,155.9 856.27,170.84 C862.84,155.55 872.34,140.77 886.66,131.72 Z" id="Shape"></path>
                <path d="M1011.12,127.42 C1029.39,121.39 1049.12,120.57 1068.05,123.54 C1086.26,126.44 1103.86,134.03 1117.81,146.18 C1132.61,158.99 1143.17,176.22 1149.3,194.72 C1156.57,216.28 1158.43,239.43 1156.24,262 C1103.73,262.01 1051.22,261.98 998.71,262.02 C1001.7,275.79 1008.96,289.22 1021,297.05 C1035.27,306.54 1053.51,307.6 1069.95,304.59 C1084.93,301.81 1097.87,292.96 1108.86,282.79 C1121.22,293.66 1133.52,304.61 1145.86,315.5 C1133.78,330.65 1117.81,342.73 1099.7,349.69 C1076.65,358.53 1051.08,359.91 1026.92,355.44 C997.88,350.02 970.72,333.38 954.3,308.6 C940.96,288.82 934.41,264.77 934.74,240.98 C934.3,219.91 939.28,198.7 949.21,180.1 C962.15,155.52 984.6,135.97 1011.12,127.42 L1011.12,127.42 Z M1016.09,185.06 C1005.75,194.44 1000.33,207.99 997.86,221.48 C1030.02,221.51 1062.18,221.51 1094.35,221.48 C1092.52,208.91 1088.11,196.17 1079.09,186.92 C1063.07,169.8 1033.19,169.27 1016.09,185.06 Z" id="Shape"></path>
                <path d="M1917.42,131.58 C1938.01,122.12 1961.42,120.04 1983.69,123.33 C2000.04,125.76 2015.94,131.86 2029.24,141.76 C2042.49,151.59 2053.01,164.9 2060.14,179.75 C2068.86,197.46 2072.86,217.14 2074,236.75 L2074,251.42 C2073.76,254.95 2073.45,258.47 2073.2,262 C2020.68,262.01 1968.17,261.98 1915.65,262.01 C1918.39,274.18 1924.14,286.08 1933.97,294.07 C1947.97,305.82 1967.59,307.78 1985.04,304.93 C2000.71,302.44 2014.44,293.47 2025.78,282.74 C2038.15,293.64 2050.46,304.62 2062.84,315.5 C2052.42,328.39 2039.35,339.23 2024.33,346.34 C2002.31,356.96 1977.08,359.66 1952.98,356.87 C1923.94,353.53 1895.78,339.53 1877.26,316.66 C1863.7,300.25 1855.49,279.78 1852.74,258.75 C1849.88,236.68 1852.05,213.79 1860.21,193.01 C1870.48,166.25 1891.1,143.29 1917.42,131.58 L1917.42,131.58 Z M1936.43,182.29 C1923.98,191.54 1917.49,206.61 1914.81,221.49 C1946.97,221.51 1979.14,221.5 2011.31,221.49 C2009.44,208.69 2004.86,195.74 1995.58,186.41 C1980.43,170.85 1953.69,169.52 1936.43,182.29 Z" id="Shape"></path>
                <path d="M1724.84,125.37 C1745.68,120.68 1767.54,122.55 1788.02,128.06 C1804.38,132.52 1820.05,139.55 1834.18,148.94 C1825.97,163.86 1817.71,178.75 1809.48,193.65 C1794.02,184.69 1777.53,176.94 1759.89,173.56 C1751.12,172.08 1741.59,171.47 1733.32,175.3 C1728.36,177.49 1724.37,182.44 1724.69,188.06 C1724.35,192.11 1726.7,195.81 1729.74,198.29 C1734.7,202.41 1740.74,204.9 1746.68,207.27 C1767.91,215.43 1790.58,220.61 1809.99,232.91 C1820.77,239.62 1830.22,249.06 1835.05,260.97 C1839.79,272.3 1839.78,284.97 1838.22,296.96 C1836.15,312.46 1828.64,327.41 1816.54,337.48 C1803.27,348.65 1786.12,354.15 1769.1,356.12 C1728.6,360.75 1686.81,347.96 1654.96,322.75 C1664.17,308.56 1673.42,294.4 1682.59,280.19 C1695.75,289.65 1710.14,297.59 1725.63,302.51 C1737.35,306.33 1749.83,308.26 1762.14,306.86 C1767.17,306.1 1772.41,304.75 1776.31,301.29 C1781.89,296.49 1782.86,286.84 1777.6,281.45 C1772.96,276.53 1766.47,274.06 1760.28,271.76 C1741.92,265.3 1722.56,261.58 1705.03,252.9 C1693.02,247.14 1681.7,238.92 1674.72,227.35 C1668.42,217.14 1666.13,204.92 1666.49,193.05 C1666.65,177.97 1671.47,162.76 1681.09,151.03 C1691.97,137.53 1708.12,129.11 1724.84,125.37 Z" id="Shape"></path>
                <path d="M1444.89,141.79 C1464.57,132.81 1485.65,126.77 1507.23,124.77 C1529.82,122.71 1553.1,122.57 1575.03,129.12 C1590.9,133.79 1605.88,142.77 1615.88,156.15 C1626.49,170.14 1631.57,187.58 1633.27,204.87 C1634.4,214.86 1633.89,224.93 1634,234.96 C1633.99,274.22 1634.01,313.49 1633.99,352.76 C1613.27,352.76 1592.54,352.72 1571.82,352.78 C1571.66,344.74 1571.79,336.7 1571.75,328.66 C1559.7,341.82 1543.63,351.34 1526.06,354.82 C1506.17,358.74 1484.9,357.81 1466.08,349.9 C1452.1,344.04 1439.85,333.62 1432.89,320.04 C1424.8,304.3 1423.88,285.69 1427.38,268.58 C1430.67,252.79 1440.45,238.57 1454.03,229.87 C1472.87,217.74 1495.91,214.24 1517.95,214.49 C1536.33,214.2 1554.63,217.6 1572,223.52 C1572.41,214.55 1571.29,205.19 1566.56,197.38 C1562.07,189.75 1554.32,184.49 1545.98,181.87 C1534.05,178.03 1521.3,178.39 1508.96,179.36 C1492.49,180.67 1476.49,185.29 1461.08,191.05 C1455.59,174.66 1450.27,158.22 1444.89,141.79 L1444.89,141.79 Z M1498.22,262.27 C1485.48,271.74 1483.95,293.36 1496.09,303.92 C1503.13,310.11 1512.78,312.24 1521.94,312.47 C1532.47,312.5 1543.23,310.6 1552.58,305.57 C1560.79,301.16 1567.76,293.97 1570.86,285.08 C1573.71,277.52 1573,269.3 1572.88,261.4 C1558.15,255.03 1541.9,252.32 1525.91,253.32 C1516.18,254.01 1506.08,256.18 1498.22,262.27 Z" id="Shape"></path>
                <path d="M701.51,127.24 C723,127.25 744.5,127.25 765.99,127.24 C766,202.41 766.01,277.59 765.99,352.76 C744.49,352.73 722.99,352.79 701.49,352.73 C701.52,277.57 701.47,202.4 701.51,127.24 Z" id="Shape"></path>
            </g>
            <g id="#ffd14cff" transform="translate(97.000000, 19.000000)" fill="#FFD14C">
                <path d="M0.82,3.73 C7.24,2.45 13.69,1.26 20.21,0.52 C18.43,2.53 16.42,4.33 14.4,6.09 C21.14,4.98 27.94,4.08 34.77,3.9 C37.71,4.01 40.69,4.07 43.58,4.73 C45.42,7.7 45.72,11.3 46.52,14.64 C42.63,15.6 38.73,16.54 34.87,17.65 C28.89,19.45 22.93,21.37 17.15,23.74 C15.22,17.15 10.91,11.66 6.32,6.71 C4.87,5.12 2.81,4.36 0.82,3.73 Z" id="Shape"></path>
            </g>
            <g id="#ffd760ff" transform="translate(131.000000, 22.000000)" fill="#FFD760">
                <path d="M0.77,0.9 C10.5,-0.1 20.32,0.13 30.09,0.24 C34.82,0.7 39.66,-0.43 44.29,0.95 C41.14,0.97 37.99,0.98 34.84,0.94 C35.44,3.8 35.37,7.8 39.02,8.47 C34.04,8.95 29.07,9.45 24.13,10.23 C27.2,17.21 34.53,22.44 42.3,22.07 C34.5,23.22 26.67,24.65 19.4,27.82 C13.09,23.61 6,20.43 0.87,14.65 C4.73,13.54 8.63,12.6 12.52,11.64 C11.72,8.3 11.42,4.7 9.58,1.73 C6.69,1.07 3.71,1.01 0.77,0.9 Z" id="Shape"></path>
            </g>
            <g id="#fecc3aff" transform="translate(21.000000, 22.000000)" fill="#FECC3A">
                <path d="M46.88,9.61 C56.58,5.78 66.58,2.7 76.82,0.73 C78.81,1.36 80.87,2.12 82.32,3.71 C86.91,8.66 91.22,14.15 93.15,20.74 C91.21,21.6 89.31,22.57 87.47,23.63 C81.62,27.13 75.73,31.46 72.93,37.89 C69.92,45.46 71.34,54.85 77.34,60.58 C69.97,65.03 62.38,69.12 54.5,72.58 C54.73,73.74 54.97,74.9 55.21,76.06 C52.25,75.89 49.1,74.92 46.24,76.09 C42.29,78.11 38.78,81.37 37.3,85.65 C36.31,88.95 32.74,90.4 31.5,93.57 C28.7,100.06 25.94,106.64 24.35,113.56 C23.14,118.72 21.72,123.84 20.03,128.86 C15.78,125.06 12.13,120.62 9.36,115.64 C10.3,112.18 10.71,108.59 10.55,105.01 C10.2,97.36 11.18,89.59 9.42,82.06 C6.62,81.21 3.81,80.39 0.99,79.64 C1,77.42 1,75.21 1,73 C10.6,71.74 21.06,74.64 29.88,69.55 C30.46,68.44 31.01,67.32 31.56,66.2 C28.83,63.94 25.05,61.29 25.88,57.22 C27.16,53.44 30.27,50 34.32,49.27 C39.17,48.07 44.1,49.78 48.99,49.15 C56.11,48.37 63.56,45.97 68.29,40.3 C72.79,34.04 72.87,24.97 68.27,18.73 C63.28,12.67 55.27,10.45 47.76,9.71 L46.88,9.61 Z" id="Shape"></path>
            </g>
            <g id="#ffde72ff" transform="translate(165.000000, 22.000000)" fill="#FFDE72">
                <path d="M0.84,0.94 C3.99,0.98 7.14,0.97 10.29,0.95 C24.05,1.39 37.74,3.02 51.38,4.74 C56.41,5.55 61.53,5.96 66.45,7.3 C50.08,7.3 33.65,7.83 17.51,10.79 C13.85,8.16 9.35,7.79 5.02,8.47 C1.37,7.8 1.44,3.8 0.84,0.94 Z" id="Shape"></path>
            </g>
            <g id="#ffd04fff" transform="translate(155.000000, 30.000000)" fill="#FFD04F">
                <path d="M15.02,0.47 C19.35,-0.21 23.85,0.16 27.51,2.79 C24.16,3.92 20.27,4.28 17.69,6.94 C17.41,8.86 19.21,9.7 20.59,10.52 C23.56,12.02 26.91,12.47 30,13.65 C26.1,13.73 22.2,13.89 18.3,14.07 C10.53,14.44 3.2,9.21 0.13,2.23 C5.07,1.45 10.04,0.95 15.02,0.47 Z" id="Shape"></path>
            </g>
            <g id="#ffc72dff" transform="translate(31.000000, 31.000000)" fill="#FFC72D">
                <path d="M24.37,7.31 C28.64,4.78 32.91,1.98 37.76,0.71 C45.27,1.45 53.28,3.67 58.27,9.73 C62.87,15.97 62.79,25.04 58.29,31.3 C53.56,36.97 46.11,39.37 38.99,40.15 C34.1,40.78 29.17,39.07 24.32,40.27 C20.27,41 17.16,44.44 15.88,48.22 C15.05,52.29 18.83,54.94 21.56,57.2 C21.01,58.32 20.46,59.44 19.88,60.55 C12.71,57.51 6.76,52.15 2.78,45.5 C1.65,43.52 0.62,41.46 0.03,39.25 C3.08,25.72 12.73,14.46 24.37,7.31 Z" id="Shape"></path>
            </g>
            <g id="#ffdd74ff" transform="translate(108.000000, 36.000000)" fill="#FFDD74">
                <path d="M6.15,6.74 C11.93,4.37 17.89,2.45 23.87,0.65 C29,6.43 36.09,9.61 42.4,13.82 C36.25,16.59 30.8,21.37 29.09,28.12 C26.77,26.29 24.35,24.56 21.68,23.28 C14.05,19.63 7.66,14 0.47,9.63 C2.31,8.57 4.21,7.6 6.15,6.74 Z" id="Shape"></path>
            </g>
            <g id="#ffd747ff" transform="translate(45.000000, 42.000000)" fill="#FFD747">
                <path d="M169.65,0.54 C174.39,-0.26 179.23,0.24 184.01,0.34 C201,1.34 218.15,2.7 234.56,7.53 C234.13,9.89 233.89,12.27 233.82,14.66 C223.62,9.15 212.14,6.67 200.86,4.46 C190.53,2.67 180.13,1.11 169.65,0.54 Z" id="Shape"></path>
                <path d="M0.37,261.99 C4.56,263.79 8.87,265.3 13.25,266.55 C12.46,278.34 13.25,290.16 12.98,301.96 C12.75,311.46 13.17,320.96 12.79,330.46 C8.71,329.24 4.7,327.81 0.72,326.32 C1.31,309.23 0.89,292.12 1.1,275.02 C1.21,270.66 0.96,266.3 0.37,261.99 Z" id="Shape"></path>
            </g>
            <g id="#ffe87fff" transform="translate(92.000000, 45.000000)" fill="#FFE87F">
                <path d="M1.93,14.89 C4.73,8.46 10.62,4.13 16.47,0.63 C23.66,5 30.05,10.63 37.68,14.28 C40.35,15.56 42.77,17.29 45.09,19.12 C44.11,24.93 46.62,31.07 51.48,34.43 C58.91,39.65 68.19,41.23 77.04,42.2 C89.43,43.75 101.93,42.92 114.38,43.14 C109.94,43.95 105.44,44.34 100.94,44.11 C98.08,44.06 95.22,44.05 92.37,44.04 C93.92,46.53 95.79,48.91 96.62,51.77 C96.03,53.9 94.09,55.52 91.88,55.66 C86.48,56.19 81.04,55.96 75.64,55.89 C71.32,55.47 67,55.17 62.67,55.16 C52.25,54.11 41.95,52.23 31.68,50.25 C22.49,47.85 13.52,43.92 6.34,37.58 C0.34,31.85 -1.08,22.46 1.93,14.89 Z" id="Shape"></path>
            </g>
            <g id="#ffd42dff" transform="translate(278.000000, 49.000000)" fill="#FFD42D">
                <path d="M0.82,7.66 C0.89,5.27 1.13,2.89 1.56,0.53 C5.01,1.69 8.4,3.02 11.69,4.59 C10.41,13.02 11.49,21.53 11.21,30.01 C10.87,39.33 11.15,48.65 10.85,57.97 C11.63,73.17 10.6,88.38 11.24,103.58 C12.9,103.07 14.57,102.58 16.22,102.02 C11.85,105.14 6.89,107.28 2.01,109.46 C1.54,109.01 0.6,108.11 0.13,107.67 C0.15,80.72 0.12,53.77 0.11,26.83 C3.72,24.47 8.32,21.81 8.62,17 C8.33,12.56 4.14,9.93 0.82,7.66 Z" id="Shape"></path>
                <path d="M4.06,147.98 C6.38,147.05 8.67,146.05 10.9,144.92 C10.82,163.28 10.97,181.64 10.83,199.99 C10.89,203.55 10.22,207.53 12.56,210.56 C9.95,211.9 7.33,213.2 4.64,214.36 C3.48,205.61 4.47,196.77 4.01,187.97 C4.02,174.64 4.28,161.31 4.06,147.98 Z" id="Shape"></path>
            </g>
            <g id="#ffd310ff" transform="translate(288.000000, 53.000000)" fill="#FFD310">
                <path d="M1.69,0.59 C6.21,3.07 10.56,6.31 13.06,10.93 C14.73,13.99 15.01,17.55 15.01,20.97 C14.97,42.66 15.02,64.35 14.99,86.05 C15.07,91.45 10.37,95.36 6.22,98.02 C4.57,98.58 2.9,99.07 1.24,99.58 C0.6,84.38 1.63,69.17 0.85,53.97 C1.15,44.65 0.87,35.33 1.21,26.01 C1.49,17.53 0.41,9.02 1.69,0.59 Z" id="Shape"></path>
            </g>
            <g id="#ffeb7bff" transform="translate(24.000000, 61.000000)" fill="#FFEB7B">
                <path d="M4.68,0.64 C5.53,3.49 6.19,6.39 7.03,9.25 C7.62,11.46 8.65,13.52 9.78,15.5 C7.63,17.59 4.89,18.8 2.02,19.55 C1.41,18.71 0.79,17.88 0.18,17.05 C1.37,11.5 2.9,6.03 4.68,0.64 Z" id="Shape"></path>
            </g>
            <g id="#ffda52ff" transform="translate(22.000000, 76.000000)" fill="#FFDA52">
                <path d="M11.78,0.5 C15.76,7.15 21.71,12.51 28.88,15.55 C20.06,20.64 9.6,17.74 0,19 C0.22,13.3 1.1,7.65 2.18,2.05 C2.79,2.88 3.41,3.71 4.02,4.55 C6.89,3.8 9.63,2.59 11.78,0.5 Z" id="Shape"></path>
            </g>
            <g id="#ffd63fff" transform="translate(266.000000, 75.000000)" fill="#FFD63F">
                <path d="M0.15,5.49 C4.23,4.19 8.24,2.67 12.11,0.83 C12.12,27.77 12.15,54.72 12.13,81.67 C12.6,82.11 13.54,83.01 14.01,83.46 C9.48,85.21 4.91,86.83 0.27,88.24 C-0.06,60.66 0.17,33.07 0.15,5.49 Z" id="Shape"></path>
            </g>
            <g id="#ffd74eff" transform="translate(253.000000, 80.000000)" fill="#FFD74E">
                <path d="M1.15,3.46 C5.18,2.61 9.19,1.65 13.15,0.49 C13.17,28.07 12.94,55.66 13.27,83.24 C9.26,84.38 5.24,85.53 1.18,86.48 C0.44,68.99 1.37,51.49 0.89,34.01 C0.92,23.82 0.86,13.64 1.15,3.46 Z" id="Shape"></path>
            </g>
            <g id="#ffd24dff" transform="translate(41.000000, 82.000000)" fill="#FFD24D">
                <path d="M34.5,12.58 C42.38,9.12 49.97,5.03 57.34,0.58 C64.52,6.92 73.49,10.85 82.68,13.25 C75.37,16.55 68.59,20.9 61.31,24.26 C54.58,27.24 48.38,31.23 41.99,34.85 C37.8,37.19 34.64,40.88 30.82,43.7 C27.66,46.15 24.25,48.42 21.84,51.66 C18.97,55.99 18.05,61.22 15.8,65.85 C14.14,69.25 12.91,72.84 12.04,76.53 C7.75,74.45 3.72,71.88 0.03,68.86 C1.72,63.84 3.14,58.72 4.35,53.56 C5.94,46.64 8.7,40.06 11.5,33.57 C12.74,30.4 16.31,28.95 17.3,25.65 C18.78,21.37 22.29,18.11 26.24,16.09 C29.1,14.92 32.25,15.89 35.21,16.06 C34.97,14.9 34.73,13.74 34.5,12.58 Z" id="Shape"></path>
            </g>
            <g id="#ffd95fff" transform="translate(208.000000, 83.000000)" fill="#FFD95F">
                <path d="M0.6,5.2 C15.83,4.15 31.15,3.57 46.15,0.46 C45.86,10.64 45.92,20.82 45.89,31.01 C46.37,48.49 45.44,65.99 46.18,83.48 C39.86,84.98 33.46,86.18 27.06,87.28 C26.71,61.04 27.48,34.78 26.79,8.55 C18.01,8.86 8.85,8.48 0.6,5.2 Z" id="Shape"></path>
            </g>
            <g id="#ffdc6cff" transform="translate(85.000000, 88.000000)" fill="#FFDC6C">
                <path d="M121.38,0.14 C121.93,0.16 123.04,0.19 123.6,0.2 C131.85,3.48 141.01,3.86 149.79,3.55 C150.48,29.78 149.71,56.04 150.06,82.28 C140.72,83.82 131.3,84.78 121.84,85.05 C122.78,83.87 124.03,82.69 124.04,81.06 C124.42,73.99 122.27,67.08 122.13,60.02 C121.82,43.62 122.49,27.21 121.82,10.82 C115.51,10.59 112.31,4.72 107.94,1.11 C112.44,1.34 116.94,0.95 121.38,0.14 Z" id="Shape"></path>
                <path d="M146.89,120.66 C154,119.74 161.06,118.39 168.11,117.09 C168.35,139.07 167.82,161.07 168.33,183.05 L168.02,183.72 C161.23,185.76 154.07,186.38 147.09,187.57 C146.92,165.27 147.32,142.96 146.89,120.66 Z" id="Shape"></path>
                <path d="M0.37,226.17 C7.54,227.2 14.73,228.18 21.96,228.79 C22.03,250.41 22.1,272.03 21.92,293.66 C14.81,292.82 7.71,291.91 0.65,290.7 C0.99,286.13 1.15,281.55 1.04,276.98 C0.8,265.31 1.13,253.65 1,241.99 C1.1,236.71 1.24,231.4 0.37,226.17 Z" id="Shape"></path>
            </g>
            <g id="#ffe075ff" transform="translate(154.000000, 89.000000)" fill="#FFE075">
                <path d="M30.37,0.04 C33.22,0.05 36.08,0.06 38.94,0.11 C43.31,3.72 46.51,9.59 52.82,9.82 C53.49,26.21 52.82,42.62 53.13,59.02 C53.27,66.08 55.42,72.99 55.04,80.06 C55.03,81.69 53.78,82.87 52.84,84.05 C45.72,84.89 38.49,84.77 31.32,85.06 C27.6,84.91 23.89,84.67 20.17,84.51 C19.53,76.3 20.63,68.07 19.83,59.86 C13.41,61.76 7.51,64.96 1.24,67.24 C0.8,58.83 1.05,50.41 0.96,41.99 C1.06,38.99 0.85,35.84 2.03,33.01 C5.98,26.04 10.94,19.5 13.64,11.89 C19.04,11.96 24.48,12.19 29.88,11.66 C32.09,11.52 34.03,9.9 34.62,7.77 C33.79,4.91 31.92,2.53 30.37,0.04 Z" id="Shape"></path>
                <path d="M44.02,122.91 C55.34,122.24 66.63,121.02 77.89,119.66 C78.32,141.96 77.92,164.27 78.09,186.57 C70.18,187.64 62.25,188.6 54.29,189.14 C50.91,189.33 47.54,189.17 44.17,188.95 C43.75,182.95 43.9,176.95 43.96,170.95 C43.93,154.93 43.88,138.92 44.02,122.91 Z" id="Shape"></path>
            </g>
            <g id="#ffd961ff" transform="translate(53.000000, 95.000000)" fill="#FFD961">
                <path d="M70.68,0.25 C80.95,2.23 91.25,4.11 101.67,5.16 C103.38,5.62 105.07,6.15 106.77,6.67 C103.06,13.34 100.62,20.85 95.4,26.55 C94.17,28.03 93.89,30 93.31,31.78 C93.13,31.13 92.77,29.82 92.59,29.17 C90.99,34.68 86.8,38.84 82.47,42.35 C80.49,43.53 78.6,41.66 77.02,40.68 C75.64,41.42 74.3,42.21 72.93,42.96 C71.26,42.34 69.6,41.72 67.9,41.2 C65.31,40.33 62.51,40.6 59.92,41.33 C55.59,42.57 51,42.99 46.9,44.96 C43.8,46.44 40.83,48.15 37.82,49.8 C33.17,52.3 29.62,56.31 25.62,59.67 C22.55,62.03 22.8,66.29 21.94,69.72 C14.55,68.01 7.03,66.57 0.04,63.53 C0.91,59.84 2.14,56.25 3.8,52.85 C6.05,48.22 6.97,42.99 9.84,38.66 C12.25,35.42 15.66,33.15 18.82,30.7 C22.64,27.88 25.8,24.19 29.99,21.85 C36.38,18.23 42.58,14.24 49.31,11.26 C56.59,7.9 63.37,3.55 70.68,0.25 Z" id="Shape"></path>
            </g>
            <g id="#ffe26eff" transform="translate(120.000000, 100.000000)" fill="#FFE26E">
                <path d="M34.67,0.16 C39,0.17 43.32,0.47 47.64,0.89 C44.94,8.5 39.98,15.04 36.03,22.01 C34.85,24.84 35.06,27.99 34.96,30.99 C35.05,39.41 34.8,47.83 35.24,56.24 C30.94,57.95 26.66,59.68 22.38,61.44 C16.8,63.76 11.02,65.57 5.2,67.16 L4.08,67.47 C3.71,61.01 4.52,54.5 3.74,48.07 C2.17,44.26 -0.27,40.55 0.9,36.2 C2.6,36.72 4.26,37.34 5.93,37.96 C7.3,37.21 8.64,36.42 10.02,35.68 C11.6,36.66 13.49,38.53 15.47,37.35 C19.8,33.84 23.99,29.68 25.59,24.17 C25.77,24.82 26.13,26.13 26.31,26.78 C26.89,25 27.17,23.03 28.4,21.55 C33.62,15.85 36.06,8.34 39.77,1.67 C38.07,1.15 36.38,0.62 34.67,0.16 Z" id="Shape"></path>
            </g>
            <g id="#ffd01bff" transform="translate(21.000000, 101.000000)" fill="#FFD01B">
                <path d="M0.99,0.64 C3.81,1.39 6.62,2.21 9.42,3.06 C11.18,10.59 10.2,18.36 10.55,26.01 C10.71,29.59 10.3,33.18 9.36,36.64 C3.27,25.72 0.78,13.06 0.99,0.64 Z" id="Shape"></path>
            </g>
            <g id="#ffdf73ff" transform="translate(74.000000, 135.000000)" fill="#FFDF73">
                <path d="M38.92,1.33 C41.51,0.6 44.31,0.33 46.9,1.2 C45.73,5.55 48.17,9.26 49.74,13.07 C50.52,19.5 49.71,26.01 50.08,32.47 C33.73,35.05 17.04,33.01 0.94,29.72 C1.8,26.29 1.55,22.03 4.62,19.67 C8.62,16.31 12.17,12.3 16.82,9.8 C19.83,8.15 22.8,6.44 25.9,4.96 C30,2.99 34.59,2.57 38.92,1.33 Z" id="Shape"></path>
            </g>
            <g id="#ffea82ff" transform="translate(138.000000, 148.000000)" fill="#FFEA82">
                <path d="M17.24,8.24 C23.51,5.96 29.41,2.76 35.83,0.86 C36.63,9.07 35.53,17.3 36.17,25.51 C39.89,25.67 43.6,25.91 47.32,26.06 C31.82,27.01 16.22,27.08 0.68,26.7 C2.06,26.39 3.42,26.03 4.79,25.69 C5.34,21.61 5.19,17.47 4.38,13.44 C8.66,11.68 12.94,9.95 17.24,8.24 Z" id="Shape"></path>
            </g>
            <g id="#fff38eff" transform="translate(105.000000, 161.000000)" fill="#FFF38E">
                <path d="M20.2,6.16 C26.02,4.57 31.8,2.76 37.38,0.44 C38.19,4.47 38.34,8.61 37.79,12.69 C36.42,13.03 35.06,13.39 33.68,13.7 C22.49,13.64 11.25,12.97 0.17,11.31 C6.77,9.34 13.67,8.48 20.2,6.16 Z" id="Shape"></path>
            </g>
            <g id="#262627ff" transform="translate(55.000000, 164.000000)" fill="#262627">
                <path d="M0.26,0.2 C5.33,1.42 10.29,3.06 15.39,4.15 L15.22,4.67 C12.55,13.44 15.7,22.83 13.26,31.71 C8.82,30.7 4.4,29.6 0.07,28.19 C0.31,18.86 -0.06,9.52 0.26,0.2 Z" id="Shape"></path>
            </g>
            <g id="#fff797ff" transform="translate(26.000000, 167.000000)" fill="#FFF797">
                <path d="M0.21,12.98 C1.09,7.27 6.35,3.88 10.81,0.96 C11.12,5.54 10.67,10.15 11.07,14.72 C14.84,20.97 22.65,22.83 29.07,25.19 C33.4,26.6 37.82,27.7 42.26,28.71 C48.11,30.06 54.01,31.1 59.93,32.05 C64.26,32.74 68.61,33.32 72.96,33.89 C82.65,35.04 92.36,35.99 102.11,36.5 C112.4,37.31 122.73,37.36 133.04,37.54 C143.67,37.66 154.29,37.31 164.92,37.06 C172.59,36.53 180.29,36.2 187.94,35.4 C193.46,34.94 198.96,34.35 204.46,33.66 C209.63,32.93 214.82,32.26 219.97,31.35 C228.29,29.95 236.55,28.13 244.67,25.82 C250.48,23.99 256.44,22.12 261.45,18.53 C263.13,17.2 264.93,15.47 264.96,13.17 C265.11,9.12 264.94,5.07 265,1.02 C268.84,3.35 272.76,6.06 274.74,10.24 C276.19,12.94 275.47,16.07 275.55,18.99 C275.52,36.67 275.54,54.36 275.54,72.05 C275.5,75.5 275.82,79.01 275.01,82.41 C275.12,60.48 274.95,38.56 275.09,16.64 C273.23,19.19 271.19,21.68 268.62,23.55 C266.77,24.78 264.85,25.89 262.9,26.92 C260.67,28.05 258.38,29.05 256.06,29.98 C252.63,31.32 249.16,32.52 245.63,33.55 C239.5,35.26 233.36,36.89 227.11,38.09 C220.06,39.39 213,40.74 205.89,41.66 C194.63,43.02 183.34,44.24 172.02,44.91 C164.34,45.35 156.65,45.63 148.95,45.77 C126.61,46.03 104.24,45.51 82.01,43.06 C71.03,42.01 60.14,40.26 49.31,38.18 C43.43,37.09 37.64,35.63 31.87,34.06 C25.85,32.4 19.97,30.21 14.29,27.6 C8.87,25.27 4.19,21.51 0.66,16.79 C0.7,38.73 0.4,60.67 0.81,82.6 C0.4,80.77 0.21,78.89 0.22,77.02 C0.25,55.68 0.26,34.33 0.21,12.98 Z" id="Shape"></path>
                <path d="M0.22,116.95 C0.92,111.2 6.16,107.45 10.81,104.75 C11.16,110.09 10.61,115.48 11.11,120.81 C12.21,123.88 15.4,125.38 18.06,126.87 C22.51,129.15 27.28,130.69 32.05,132.13 C35.73,133.23 39.46,134.12 43.21,134.96 C49.37,136.32 55.6,137.37 61.84,138.35 C64.83,138.83 67.83,139.23 70.84,139.64 C81.24,140.93 91.68,141.95 102.15,142.52 C112.42,143.31 122.74,143.39 133.04,143.54 C138.34,143.49 143.64,143.58 148.94,143.5 C154.3,143.3 159.66,143.14 165.03,143.07 C172.67,142.58 180.32,142.18 187.94,141.42 C193.45,140.97 198.94,140.37 204.43,139.67 C209.62,138.97 214.82,138.27 219.98,137.34 C232.37,135.15 244.88,132.67 256.43,127.53 C259.76,125.85 263.77,123.93 264.87,120.04 C265.23,114.96 264.85,109.85 265.05,104.76 C270.93,108 277.05,113.63 275.55,121.07 C272.11,125.66 268.22,130.08 263.03,132.76 C261.41,133.63 259.74,134.42 258.06,135.18 C254.34,136.79 250.58,138.29 246.72,139.52 C243.73,140.44 240.69,141.23 237.66,142 C233.01,143.19 228.34,144.27 223.61,145.07 C204.12,148.68 184.36,150.64 164.57,151.39 C136.7,152.55 108.75,152.24 80.96,149.79 C73.73,149.18 66.54,148.2 59.37,147.17 C54.3,146.43 49.26,145.51 44.24,144.49 C40.21,143.64 36.22,142.65 32.25,141.55 C27.87,140.3 23.56,138.79 19.37,136.99 C16.11,135.55 12.94,133.9 9.94,131.98 C5.96,129.48 3.11,125.67 0.71,121.71 C0.54,136.16 0.68,150.61 0.64,165.05 C0.71,172.52 0.39,179.99 0.92,187.44 C0.45,185.68 0.2,183.85 0.23,182.02 C0.25,160.33 0.27,138.64 0.22,116.95 Z" id="Shape"></path>
            </g>
            <g id="#333335ff" transform="translate(68.000000, 168.000000)" fill="#333335">
                <path d="M0.26,27.71 C2.7,18.83 -0.45,9.44 2.22,0.67 C7.52,2.13 12.91,3.2 18.2,4.65 C17.75,13.44 17.83,22.25 17.93,31.05 C12.01,30.1 6.11,29.06 0.26,27.71 Z" id="Shape"></path>
                <path d="M1.21,133.96 C1.36,125.93 0.92,117.9 1.49,109.88 C7.84,111.23 14.05,113.19 20.46,114.26 L20.42,114.61 C19.24,122.14 19.77,129.77 19.84,137.35 C13.6,136.37 7.37,135.32 1.21,133.96 Z" id="Shape"></path>
                <path d="M107.03,121.73 C112.35,121.47 117.69,121.44 123.01,121.05 C123.02,128.05 123.03,135.06 123.03,142.07 C117.66,142.14 112.3,142.3 106.94,142.5 C106.94,135.58 107.04,128.65 107.03,121.73 Z" id="Shape"></path>
            </g>
            <g id="#3e3e40ff" transform="translate(85.000000, 172.000000)" fill="#3E3E40">
                <path d="M1.2,0.65 C5.43,1.44 9.67,2.1 13.88,2.99 C13.81,11.62 13.73,20.26 13.96,28.89 C9.61,28.32 5.26,27.74 0.93,27.05 C0.83,18.25 0.75,9.44 1.2,0.65 Z" id="Shape"></path>
                <path d="M43.06,10.95 C53.37,11.81 63.68,12.76 74.03,13.06 C74.06,19.55 74.05,26.04 74.04,32.54 C63.73,32.36 53.4,32.31 43.11,31.5 C43.19,24.65 43.23,17.8 43.06,10.95 Z" id="Shape"></path>
                <path d="M2.84,133.35 C2.77,125.77 2.24,118.14 3.42,110.61 C7.31,111.22 11.22,111.81 15.05,112.8 C14.33,112.97 12.9,113.3 12.18,113.47 C11.76,120.52 12.35,127.59 11.84,134.64 C8.83,134.23 5.83,133.83 2.84,133.35 Z" id="Shape"></path>
                <path d="M42.48,116.11 C52.96,117.06 63.48,117.44 74,117.87 C73.91,124.76 73.96,131.65 74.04,138.54 C63.74,138.39 53.42,138.31 43.15,137.52 C43.03,130.38 43.65,123.19 42.48,116.11 Z" id="Shape"></path>
            </g>
            <g id="#474749ff" transform="translate(96.000000, 174.000000)" fill="#474749">
                <path d="M2.88,0.99 C12.09,2.52 21.43,2.62 30.71,3.43 C26.05,4.79 21.25,5.64 16.67,7.28 C21.78,8.02 26.92,8.51 32.06,8.95 C32.23,15.8 32.19,22.65 32.11,29.5 C22.36,28.99 12.65,28.04 2.96,26.89 C2.73,18.26 2.81,9.62 2.88,0.99 Z" id="Shape"></path>
                <path d="M1.18,111.47 C1.9,111.3 3.33,110.97 4.05,110.8 C13.18,111.92 22.27,113.53 31.48,114.11 C32.65,121.19 32.03,128.38 32.15,135.52 C21.68,134.95 11.24,133.93 0.84,132.64 C1.35,125.59 0.76,118.52 1.18,111.47 Z" id="Shape"></path>
            </g>
            <g id="#242425ff" transform="translate(229.000000, 178.000000)" fill="#242425">
                <path d="M1.07,3.11 C6.34,2.01 11.61,0.93 16.92,0.02 C17.28,6.79 17.2,13.57 16.97,20.35 C11.82,21.26 6.63,21.93 1.46,22.66 C0.85,16.16 0.83,9.63 1.07,3.11 Z" id="Shape"></path>
                <path d="M0.97,106.86 C6.18,105.39 11.58,104.85 16.93,104.11 C17.32,111.51 17.18,118.93 16.98,126.34 C11.82,127.27 6.62,127.97 1.43,128.67 C0.66,121.42 0.96,114.13 0.97,106.86 Z" id="Shape"></path>
            </g>
            <g id="#2a2a2cff" transform="translate(213.000000, 181.000000)" fill="#2A2A2C">
                <path d="M0.99,2.11 C6.3,1.11 11.7,0.73 17.07,0.11 C16.83,6.63 16.85,13.16 17.46,19.66 C11.96,20.35 6.46,20.94 0.94,21.4 C0.92,14.97 0.92,8.54 0.99,2.11 Z" id="Shape"></path>
                <path d="M0.96,106.06 C6.24,104.9 11.65,104.73 16.97,103.86 C16.96,111.13 16.66,118.42 17.43,125.67 C11.94,126.37 6.45,126.97 0.94,127.42 C0.96,120.3 0.93,113.18 0.96,106.06 Z" id="Shape"></path>
            </g>
            <g id="#2f2f30ff" transform="translate(190.000000, 183.000000)" fill="#2F2F30">
                <path d="M0.99,1.89 C8.61,0.72 16.35,1.07 23.99,0.11 C23.92,6.54 23.92,12.97 23.94,19.4 C16.29,20.2 8.59,20.53 0.92,21.06 C0.84,14.67 0.84,8.28 0.99,1.89 Z" id="Shape"></path>
                <path d="M1.01,106.05 C8.66,105.36 16.33,104.95 23.96,104.06 C23.93,111.18 23.96,118.3 23.94,125.42 C16.32,126.18 8.67,126.58 1.03,127.07 C1.03,120.06 1.02,113.05 1.01,106.05 Z" id="Shape"></path>
            </g>
            <g id="#ffd204ff" transform="translate(294.000000, 183.000000)" fill="#FFD204">
                <path d="M0.62,7.55 C3.19,5.68 5.23,3.19 7.09,0.64 C6.95,22.56 7.12,44.48 7.01,66.41 C5.93,69.03 3.91,71.11 1.79,72.94 C1.28,70.3 0.83,67.65 0.76,64.96 C0.74,45.83 1.02,26.69 0.62,7.55 Z" id="Shape"></path>
            </g>
            <g id="#ffd42aff" transform="translate(26.000000, 183.000000)" fill="#FFD42A">
                <path d="M0.66,0.79 C4.19,5.51 8.87,9.27 14.29,11.6 C13.36,26.38 14,41.2 13.78,56 C13.53,63.22 14.68,70.5 13.29,77.66 C8.4,75 3.28,71.81 0.81,66.6 C0.4,44.67 0.7,22.73 0.66,0.79 Z" id="Shape"></path>
                <path d="M258.06,119.18 C259.74,118.42 261.41,117.63 263.03,116.76 C263.75,128.83 263.24,140.94 263.4,153.03 C263.56,162.56 262.91,172.11 263.84,181.62 C262.02,182.55 260.2,183.45 258.36,184.33 C257.15,169.25 258.08,154.1 257.81,138.98 C257.78,132.38 257.69,125.77 258.06,119.18 Z" id="Shape"></path>
            </g>
            <g id="#383839ff" transform="translate(159.000000, 184.000000)" fill="#383839">
                <path d="M0.03,1.06 C10.68,0.89 21.34,1.17 31.99,0.89 C31.84,7.28 31.84,13.67 31.92,20.06 C21.29,20.31 10.67,20.66 0.04,20.54 C0.05,14.04 0.06,7.55 0.03,1.06 Z" id="Shape"></path>
            </g>
            <g id="#ffd31aff" transform="translate(288.000000, 190.000000)" fill="#FFD31A">
                <path d="M0.9,3.92 C2.85,2.89 4.77,1.78 6.62,0.55 C7.02,19.69 6.74,38.83 6.76,57.96 C6.83,60.65 7.28,63.3 7.79,65.94 L7.8,66.02 C6.07,67.22 4.33,68.41 2.56,69.56 C0.22,66.53 0.89,62.55 0.83,58.99 C0.97,40.64 0.82,22.28 0.9,3.92 Z" id="Shape"></path>
            </g>
            <g id="#ffd744ff" transform="translate(39.000000, 194.000000)" fill="#FFD744">
                <path d="M1.29,0.6 C6.97,3.21 12.85,5.4 18.87,7.06 C18.73,29.04 19.12,51.03 18.65,73 L18.25,73.35 C11.98,72.06 6.05,69.42 0.29,66.66 C1.68,59.5 0.53,52.22 0.78,45 C1,30.2 0.36,15.38 1.29,0.6 Z" id="Shape"></path>
            </g>
            <g id="#ffd641ff" transform="translate(271.000000, 196.000000)" fill="#FFD641">
                <path d="M0.63,4.55 C4.16,3.52 7.63,2.32 11.06,0.98 C11.28,14.31 11.02,27.64 11.01,40.97 C11.47,49.77 10.48,58.61 11.64,67.36 C8.34,68.68 5.01,69.93 1.6,70.9 C1.14,68.29 0.73,65.66 0.66,63.01 C0.68,43.53 0.78,24.04 0.63,4.55 Z" id="Shape"></path>
            </g>
            <g id="#ffd959ff" transform="translate(57.000000, 201.000000)" fill="#FFD959">
                <path d="M0.87,0.06 C6.64,1.63 12.43,3.09 18.31,4.18 C19.02,8.43 19.31,12.73 19.19,17.04 C18.92,35.09 19.47,53.15 18.91,71.19 C12.89,69.91 6.81,68.7 0.99,66.69 L0.65,66 C1.12,44.03 0.73,22.04 0.87,0.06 Z" id="Shape"></path>
            </g>
            <g id="#ffd95aff" transform="translate(253.000000, 200.000000)" fill="#FFD95A">
                <path d="M0.11,5.09 C6.36,3.89 12.5,2.26 18.63,0.55 C18.78,20.04 18.68,39.53 18.66,59.01 C18.73,61.66 19.14,64.29 19.6,66.9 L19.61,66.99 C13.38,68.7 7.14,70.92 0.7,71.45 L0.33,71.05 C-0.18,49.07 0.35,27.07 0.11,5.09 Z" id="Shape"></path>
            </g>
            <g id="#ffdb6aff" transform="translate(75.000000, 205.000000)" fill="#FFDB6A">
                <path d="M0.31,0.18 C11.14,2.26 22.03,4.01 33.01,5.06 C36.43,6.28 35.88,10.13 35.95,13.05 C35.84,27.02 35.86,40.99 35.87,54.96 C35.87,60.4 36.22,65.86 35.61,71.28 C35.15,71.49 34.22,71.9 33.76,72.1 C22.73,71.1 11.76,69.39 0.91,67.19 C1.47,49.15 0.92,31.09 1.19,13.04 C1.31,8.73 1.02,4.43 0.31,0.18 Z" id="Shape"></path>
            </g>
            <g id="#ffe174ff" transform="translate(106.000000, 210.000000)" fill="#FFE174">
                <path d="M2.01,0.06 C24.24,2.51 46.61,3.03 68.95,2.77 C69.08,24.74 68.66,46.74 69.16,68.71 C75.24,68.76 81.32,68.64 87.38,69.1 C59.2,70.65 30.83,70.19 2.76,67.1 C3.22,66.9 4.15,66.49 4.61,66.28 C5.22,60.86 4.87,55.4 4.87,49.96 C4.86,35.99 4.84,22.02 4.95,8.05 C4.88,5.13 5.43,1.28 2.01,0.06 Z" id="Shape"></path>
                <path d="M84.57,108.39 C104.36,107.64 124.12,105.68 143.61,102.07 C142.89,106 142.54,109.99 142.68,113.98 C142.96,131.82 142.44,149.66 142.92,167.49 C96.14,175.87 48.14,176.46 0.92,171.66 C1.1,150.03 1.03,128.41 0.96,106.79 C28.75,109.24 56.7,109.55 84.57,108.39 Z" id="Shape"></path>
            </g>
            <g id="#ffe26dff" transform="translate(174.000000, 211.000000)" fill="#FFE26D">
                <path d="M0.95,1.77 C8.65,1.63 16.34,1.35 24.02,0.91 C23.88,16.92 23.93,32.93 23.96,48.95 C23.9,54.95 23.75,60.95 24.17,66.95 C27.54,67.17 30.91,67.33 34.29,67.14 C29.34,67.71 24.35,67.93 19.38,68.1 C13.32,67.64 7.24,67.76 1.16,67.71 C0.66,45.74 1.08,23.74 0.95,1.77 Z" id="Shape"></path>
            </g>
            <g id="#282829ff" transform="translate(57.000000, 274.000000)" fill="#282829">
                <path d="M1.19,0.14 C5.04,0.92 8.82,1.99 12.53,3.31 L12.49,3.88 C11.92,11.9 12.36,19.93 12.21,27.96 C8.46,27.12 4.73,26.23 1.05,25.13 C0.69,16.8 1.1,8.47 1.19,0.14 Z" id="Shape"></path>
            </g>
            <g id="#ffd30fff" transform="translate(289.000000, 288.000000)" fill="#FFD30F">
                <path d="M0.03,11.76 C5.22,9.08 9.11,4.66 12.55,0.07 C12.56,21.02 12.59,41.97 12.54,62.93 C12.23,69.57 5.93,73.5 0.84,76.62 C-0.09,67.11 0.56,57.56 0.4,48.03 C0.24,35.94 0.75,23.83 0.03,11.76 Z" id="Shape"></path>
            </g>
            <g id="#ffd426ff" transform="translate(26.000000, 288.000000)" fill="#FFD426">
                <path d="M0.71,0.71 C3.11,4.67 5.96,8.48 9.94,10.98 C9.77,31.82 9.88,52.67 10,73.52 C8.85,73.37 7.71,73.22 6.57,73.06 C4.16,71.4 2.18,69.08 0.92,66.44 C0.39,58.99 0.71,51.52 0.64,44.05 C0.68,29.61 0.54,15.16 0.71,0.71 Z" id="Shape"></path>
            </g>
            <g id="#3a3a3cff" transform="translate(158.000000, 289.000000)" fill="#3A3A3C">
                <path d="M1,0.87 C6.34,0.68 11.68,0.78 17.03,0.73 C17.04,7.65 16.94,14.58 16.94,21.5 C11.64,21.58 6.34,21.49 1.04,21.54 C0.96,14.65 0.91,7.76 1,0.87 Z" id="Shape"></path>
            </g>
            <g id="#ffd539ff" transform="translate(32.000000, 298.000000)" fill="#FFD539">
                <path d="M3.94,0.98 C6.94,2.9 10.11,4.55 13.37,5.99 C13.96,10.3 14.21,14.66 14.1,19.02 C13.89,36.12 14.31,53.23 13.72,70.32 C9.12,68.32 4.52,66.19 0.57,63.06 C1.71,63.22 2.85,63.37 4,63.52 C3.88,42.67 3.77,21.82 3.94,0.98 Z" id="Shape"></path>
            </g>
            <g id="#ffd63eff" transform="translate(272.000000, 302.000000)" fill="#FFD63E">
                <path d="M0.72,4.52 C4.58,3.29 8.34,1.79 12.06,0.18 C11.69,6.77 11.78,13.38 11.81,19.98 C12.08,35.1 11.15,50.25 12.36,65.33 C8.73,66.83 5.04,68.2 1.31,69.45 C0.43,58.62 1.32,47.76 1.13,36.92 C1,26.12 1.47,15.31 0.72,4.52 Z" id="Shape"></path>
            </g>
            <g id="#ffd852ff" transform="translate(262.000000, 306.000000)" fill="#FFD852">
                <path d="M1.66,3 C4.69,2.23 7.73,1.44 10.72,0.52 C11.47,11.31 11,22.12 11.13,32.92 C11.32,43.76 10.43,54.62 11.31,65.45 C7.87,66.47 4.43,67.47 0.97,68.39 C0.79,54.25 0.93,40.11 1,25.97 C1.05,18.31 0.22,10.59 1.66,3 Z" id="Shape"></path>
            </g>
            <g id="#ffd856ff" transform="translate(57.000000, 308.000000)" fill="#FFD856">
                <path d="M1.25,0.55 C5.22,1.65 9.21,2.64 13.24,3.49 C12.74,24.85 13.37,46.23 12.87,67.59 C8.81,66.65 4.78,65.62 0.79,64.46 C1.17,54.96 0.75,45.46 0.98,35.96 C1.25,24.16 0.46,12.34 1.25,0.55 Z" id="Shape"></path>
            </g>
            <g id="#ffda62ff" transform="translate(69.000000, 309.000000)" fill="#FFDA62">
                <path d="M180.61,3.07 C185.34,2.27 190.01,1.19 194.66,0 C193.22,7.59 194.05,15.31 194,22.97 C193.93,37.11 193.79,51.25 193.97,65.39 C189.3,66.48 184.62,67.55 179.92,68.49 C179.44,50.66 179.96,32.82 179.68,14.98 C179.54,10.99 179.89,7 180.61,3.07 Z" id="Shape"></path>
                <path d="M1.24,2.49 C6.26,3.51 11.3,4.43 16.37,5.17 C17.24,10.4 17.1,15.71 17,20.99 C17.13,32.65 16.8,44.31 17.04,55.98 C17.15,60.55 16.99,65.13 16.65,69.7 C11.37,68.78 6.09,67.8 0.87,66.59 C1.37,45.23 0.74,23.85 1.24,2.49 Z" id="Shape"></path>
            </g>
        </g>
    </g>
</svg>