<?xml version="1.0" encoding="UTF-8" ?>
<!DOCTYPE svg PUBLIC "-//W3C//DTD SVG 1.1//EN" "http://www.w3.org/Graphics/SVG/1.1/DTD/svg11.dtd">
<svg width="2074pt" height="409pt" viewBox="0 0 2074 409" version="1.1" xmlns="http://www.w3.org/2000/svg">
<g id="#1d1d1eff">
<path fill="#1d1d1e" opacity="1.00" d=" M 144.62 0.00 L 174.30 0.00 C 200.13 1.08 226.02 3.23 251.34 8.67 C 265.28 11.70 279.11 15.74 291.97 22.01 C 301.75 26.94 311.27 33.39 317.25 42.78 C 320.64 48.20 322.56 54.51 322.69 60.91 C 323.03 82.91 323.50 104.91 323.85 126.91 C 324.06 133.22 324.45 139.71 322.57 145.84 C 321.46 149.66 319.35 153.08 317.29 156.45 C 320.60 161.18 323.36 166.42 324.28 172.18 C 325.39 179.42 324.78 186.76 325.15 194.04 C 325.41 210.36 325.74 226.69 326.03 243.01 C 326.20 249.98 324.28 256.87 320.75 262.87 C 324.02 268.35 326.57 274.46 326.71 280.94 C 327.19 298.63 327.33 316.33 327.74 334.03 C 327.55 342.15 329.00 350.48 326.64 358.42 C 323.93 368.14 316.69 375.90 308.57 381.53 C 296.70 389.74 282.86 394.47 269.04 398.20 C 239.75 405.76 209.41 408.02 179.27 409.00 L 156.63 409.00 C 132.33 408.24 107.97 406.59 84.04 402.08 C 67.00 398.84 49.99 394.38 34.48 386.46 C 25.47 381.69 16.76 375.58 11.11 366.92 C 7.40 361.34 5.29 354.72 5.22 348.01 C 4.72 326.34 4.49 304.66 3.97 283.00 C 3.64 275.81 5.75 268.77 9.38 262.62 C 5.80 257.43 3.39 251.39 3.35 245.02 C 2.82 226.68 2.68 208.33 2.26 189.99 C 2.43 183.00 1.24 175.89 2.98 169.02 C 4.00 164.44 6.22 160.25 8.79 156.37 C 4.24 150.22 1.41 142.77 1.27 135.09 C 0.70 114.78 0.68 94.46 0.00 74.16 L 0.00 56.54 C 1.25 45.65 7.90 36.08 16.55 29.63 C 28.38 20.78 42.51 15.67 56.62 11.71 C 85.28 3.93 115.03 1.21 144.62 0.00 M 97.82 22.73 C 87.58 24.70 77.58 27.78 67.88 31.61 L 68.76 31.71 C 63.91 32.98 59.64 35.78 55.37 38.31 C 43.73 45.46 34.08 56.72 31.03 70.25 C 30.19 67.39 29.53 64.49 28.68 61.64 C 26.90 67.03 25.37 72.50 24.18 78.05 C 23.10 83.65 22.22 89.30 22.00 95.00 C 22.00 97.21 22.00 99.42 21.99 101.64 C 21.78 114.06 24.27 126.72 30.36 137.64 C 33.13 142.62 36.78 147.06 41.03 150.86 C 44.72 153.88 48.75 156.45 53.04 158.53 C 60.03 161.57 67.55 163.01 74.94 164.72 C 91.04 168.01 107.73 170.05 124.08 167.47 L 125.20 167.16 C 118.67 169.48 111.77 170.34 105.17 172.31 C 116.25 173.97 127.49 174.64 138.68 174.70 C 154.22 175.08 169.82 175.01 185.32 174.06 C 192.49 173.77 199.72 173.89 206.84 173.05 C 216.30 172.78 225.72 171.82 235.06 170.28 C 241.46 169.18 247.86 167.98 254.18 166.48 C 258.24 165.53 262.26 164.38 266.27 163.24 C 270.91 161.83 275.48 160.21 280.01 158.46 C 284.89 156.28 289.85 154.14 294.22 151.02 C 298.37 148.36 303.07 144.45 302.99 139.05 C 303.02 117.35 302.97 95.66 303.01 73.97 C 303.01 70.55 302.73 66.99 301.06 63.93 C 298.56 59.31 294.21 56.07 289.69 53.59 C 286.40 52.02 283.01 50.69 279.56 49.53 C 263.15 44.70 246.00 43.34 229.01 42.34 C 224.23 42.24 219.39 41.74 214.65 42.54 C 225.13 43.11 235.53 44.67 245.86 46.46 C 257.14 48.67 268.62 51.15 278.82 56.66 C 282.14 58.93 286.33 61.56 286.62 66.00 C 286.32 70.81 281.72 73.47 278.11 75.83 C 274.24 77.67 270.23 79.19 266.15 80.49 C 262.19 81.65 258.18 82.61 254.15 83.46 C 239.15 86.57 223.83 87.15 208.60 88.20 C 208.04 88.19 206.93 88.16 206.38 88.14 C 193.93 87.92 181.43 88.75 169.04 87.20 C 160.19 86.23 150.91 84.65 143.48 79.43 C 138.62 76.07 136.11 69.93 137.09 64.12 C 138.80 57.37 144.25 52.59 150.40 49.82 C 157.67 46.65 165.50 45.22 173.30 44.07 C 177.20 43.89 181.10 43.73 185.00 43.65 C 181.91 42.47 178.56 42.02 175.59 40.52 C 174.21 39.70 172.41 38.86 172.69 36.94 C 175.27 34.28 179.16 33.92 182.51 32.79 C 198.65 29.83 215.08 29.30 231.45 29.30 C 226.53 27.96 221.41 27.55 216.38 26.74 C 202.74 25.02 189.05 23.39 175.29 22.95 C 170.66 21.57 165.82 22.70 161.09 22.24 C 151.32 22.13 141.50 21.90 131.77 22.90 C 124.94 23.08 118.14 23.98 111.40 25.09 C 113.42 23.33 115.43 21.53 117.21 19.52 C 110.69 20.26 104.24 21.45 97.82 22.73 M 55.26 164.20 C 54.94 173.52 55.31 182.86 55.07 192.19 C 48.65 189.83 40.84 187.97 37.07 181.72 C 36.67 177.15 37.12 172.54 36.81 167.96 C 32.35 170.88 27.09 174.27 26.21 179.98 C 26.26 201.33 26.25 222.68 26.22 244.02 C 26.21 245.89 26.40 247.77 26.81 249.60 C 29.28 254.81 34.40 258.00 39.29 260.66 C 45.05 263.42 50.98 266.06 57.25 267.35 L 57.65 267.00 L 57.99 267.69 C 63.81 269.70 69.89 270.91 75.91 272.19 C 86.76 274.39 97.73 276.10 108.76 277.10 C 136.83 280.19 165.20 280.65 193.38 279.10 C 198.35 278.93 203.34 278.71 208.29 278.14 C 216.25 277.60 224.18 276.64 232.09 275.57 C 239.07 274.38 246.23 273.76 253.02 271.72 L 253.33 271.05 L 253.70 271.45 C 260.14 270.92 266.38 268.70 272.61 266.99 L 272.60 266.90 C 276.01 265.93 279.34 264.68 282.64 263.36 C 285.33 262.20 287.95 260.90 290.56 259.56 C 292.33 258.41 294.07 257.22 295.80 256.02 L 295.79 255.94 C 297.91 254.11 299.93 252.03 301.01 249.41 C 301.82 246.01 301.50 242.50 301.54 239.05 C 301.54 221.36 301.52 203.67 301.55 185.99 C 301.47 183.07 302.19 179.94 300.74 177.24 C 298.76 173.06 294.84 170.35 291.00 168.02 C 290.94 172.07 291.11 176.12 290.96 180.17 C 290.93 182.47 289.13 184.20 287.45 185.53 C 282.44 189.12 276.48 190.99 270.67 192.82 C 262.55 195.13 254.29 196.95 245.97 198.35 C 246.20 191.57 246.28 184.79 245.92 178.02 C 240.61 178.93 235.34 180.01 230.07 181.11 C 224.70 181.73 219.30 182.11 213.99 183.11 C 206.35 184.07 198.61 183.72 190.99 184.89 C 180.34 185.17 169.68 184.89 159.03 185.06 C 148.68 184.76 138.37 183.81 128.06 182.95 C 122.92 182.51 117.78 182.02 112.67 181.28 C 117.25 179.64 122.05 178.79 126.71 177.43 C 117.43 176.62 108.09 176.52 98.88 174.99 C 94.67 174.10 90.43 173.44 86.20 172.65 C 80.91 171.20 75.52 170.13 70.22 168.67 L 70.39 168.15 C 65.29 167.06 60.33 165.42 55.26 164.20 M 26.22 283.95 C 26.27 305.64 26.25 327.33 26.23 349.02 C 26.20 350.85 26.45 352.68 26.92 354.44 C 28.18 357.08 30.16 359.40 32.57 361.06 C 36.52 364.19 41.12 366.32 45.72 368.32 C 49.70 369.81 53.71 371.24 57.79 372.46 C 61.78 373.62 65.81 374.65 69.87 375.59 C 75.09 376.80 80.37 377.78 85.65 378.70 C 92.71 379.91 99.81 380.82 106.92 381.66 C 154.14 386.46 202.14 385.87 248.92 377.49 C 253.62 376.55 258.30 375.48 262.97 374.39 C 266.43 373.47 269.87 372.47 273.31 371.45 C 277.04 370.20 280.73 368.83 284.36 367.33 C 286.20 366.45 288.02 365.55 289.84 364.62 C 294.93 361.50 301.23 357.57 301.54 350.93 C 301.59 329.97 301.56 309.02 301.55 288.07 C 303.05 280.63 296.93 275.00 291.05 271.76 C 290.85 276.85 291.23 281.96 290.87 287.04 C 289.77 290.93 285.76 292.85 282.43 294.53 C 270.88 299.67 258.37 302.15 245.98 304.34 C 246.18 296.93 246.32 289.51 245.93 282.11 C 240.58 282.85 235.18 283.39 229.97 284.86 C 224.65 285.73 219.24 285.90 213.96 287.06 C 206.33 287.95 198.66 288.36 191.01 289.05 C 185.69 289.44 180.35 289.47 175.03 289.73 C 169.68 289.78 164.34 289.68 159.00 289.87 C 148.48 289.44 137.96 289.06 127.48 288.11 C 118.27 287.53 109.18 285.92 100.05 284.80 C 96.22 283.81 92.31 283.22 88.42 282.61 L 88.46 282.26 C 82.05 281.19 75.84 279.23 69.49 277.88 L 69.53 277.31 C 65.82 275.99 62.04 274.92 58.19 274.14 C 58.10 282.47 57.69 290.80 58.05 299.13 C 53.28 297.69 48.51 296.15 44.06 293.87 C 41.40 292.38 38.21 290.88 37.11 287.81 C 36.61 282.48 37.16 277.09 36.81 271.75 C 32.16 274.45 26.92 278.20 26.22 283.95 Z" />
<path fill="#1d1d1e" opacity="1.00" d=" M 1176.24 44.01 C 1197.75 43.99 1219.25 44.00 1240.76 44.01 C 1240.75 82.03 1240.75 120.06 1240.75 158.09 C 1251.33 144.05 1265.27 132.01 1282.16 126.41 C 1316.30 115.13 1356.09 125.22 1381.33 150.69 C 1395.85 165.20 1405.64 184.05 1410.37 203.95 C 1414.82 222.58 1415.28 242.04 1412.99 261.01 C 1410.39 281.09 1403.34 300.83 1391.17 317.13 C 1381.07 330.85 1367.30 341.83 1351.70 348.67 C 1331.51 357.46 1308.39 359.47 1287.02 354.15 C 1268.62 349.71 1252.77 338.03 1240.75 323.69 C 1240.75 333.37 1240.75 343.06 1240.75 352.75 C 1219.25 352.75 1197.75 352.75 1176.25 352.75 C 1176.24 249.84 1176.26 146.92 1176.24 44.01 M 1287.12 177.16 C 1272.31 179.23 1258.84 188.19 1250.70 200.66 C 1240.05 216.72 1237.72 237.25 1241.46 255.88 C 1244.94 273.16 1255.84 289.34 1271.95 297.10 C 1288.42 305.20 1309.11 303.69 1324.19 293.22 C 1338.02 284.00 1346.51 268.26 1348.92 252.04 C 1352.05 231.43 1347.67 208.56 1332.83 193.18 C 1321.39 180.79 1303.78 174.71 1287.12 177.16 Z" />
<path fill="#1d1d1e" opacity="1.00" d=" M 699.76 45.25 C 722.42 45.25 745.08 45.25 767.75 45.25 C 767.75 64.42 767.75 83.58 767.75 102.75 C 745.09 102.76 722.42 102.74 699.76 102.76 C 699.74 83.59 699.75 64.42 699.76 45.25 Z" />
<path fill="#1d1d1e" opacity="1.00" d=" M 450.50 46.00 C 525.67 46.00 600.83 46.00 676.00 46.00 C 676.00 65.75 676.00 85.50 676.00 105.25 C 622.58 105.25 569.17 105.25 515.76 105.25 C 515.74 126.17 515.75 147.08 515.75 168.00 C 562.84 168.01 609.92 168.00 657.00 168.00 C 656.99 187.84 657.03 207.68 656.98 227.51 C 609.90 227.49 562.83 227.50 515.76 227.51 C 515.74 269.26 515.76 311.00 515.75 352.75 C 494.00 352.76 472.26 352.74 450.51 352.76 C 450.48 250.51 450.50 148.25 450.50 46.00 Z" />
<path fill="#1d1d1e" opacity="1.00" d=" M 886.66 131.72 C 898.99 123.72 914.02 121.25 928.49 121.75 C 928.51 144.24 928.51 166.74 928.49 189.23 C 912.74 188.96 896.20 191.71 883.23 201.22 C 869.46 210.99 861.62 227.13 858.53 243.39 C 855.45 257.72 856.38 272.43 856.25 286.97 C 856.24 308.90 856.26 330.82 856.24 352.75 C 834.75 352.75 813.25 352.75 791.76 352.75 C 791.74 277.17 791.75 201.59 791.75 126.00 C 813.25 126.00 834.75 126.00 856.25 126.00 C 856.26 140.95 856.23 155.90 856.27 170.84 C 862.84 155.55 872.34 140.77 886.66 131.72 Z" />
<path fill="#1d1d1e" opacity="1.00" d=" M 1011.12 127.42 C 1029.39 121.39 1049.12 120.57 1068.05 123.54 C 1086.26 126.44 1103.86 134.03 1117.81 146.18 C 1132.61 158.99 1143.17 176.22 1149.30 194.72 C 1156.57 216.28 1158.43 239.43 1156.24 262.00 C 1103.73 262.01 1051.22 261.98 998.71 262.02 C 1001.70 275.79 1008.96 289.22 1021.00 297.05 C 1035.27 306.54 1053.51 307.60 1069.95 304.59 C 1084.93 301.81 1097.87 292.96 1108.86 282.79 C 1121.22 293.66 1133.52 304.61 1145.86 315.50 C 1133.78 330.65 1117.81 342.73 1099.70 349.69 C 1076.65 358.53 1051.08 359.91 1026.92 355.44 C 997.88 350.02 970.72 333.38 954.30 308.60 C 940.96 288.82 934.41 264.77 934.74 240.98 C 934.30 219.91 939.28 198.70 949.21 180.10 C 962.15 155.52 984.60 135.97 1011.12 127.42 M 1016.09 185.06 C 1005.75 194.44 1000.33 207.99 997.86 221.48 C 1030.02 221.51 1062.18 221.51 1094.35 221.48 C 1092.52 208.91 1088.11 196.17 1079.09 186.92 C 1063.07 169.80 1033.19 169.27 1016.09 185.06 Z" />
<path fill="#1d1d1e" opacity="1.00" d=" M 1917.42 131.58 C 1938.01 122.12 1961.42 120.04 1983.69 123.33 C 2000.04 125.76 2015.94 131.86 2029.24 141.76 C 2042.49 151.59 2053.01 164.90 2060.14 179.75 C 2068.86 197.46 2072.86 217.14 2074.00 236.75 L 2074.00 251.42 C 2073.76 254.95 2073.45 258.47 2073.20 262.00 C 2020.68 262.01 1968.17 261.98 1915.65 262.01 C 1918.39 274.18 1924.14 286.08 1933.97 294.07 C 1947.97 305.82 1967.59 307.78 1985.04 304.93 C 2000.71 302.44 2014.44 293.47 2025.78 282.74 C 2038.15 293.64 2050.46 304.62 2062.84 315.50 C 2052.42 328.39 2039.35 339.23 2024.33 346.34 C 2002.31 356.96 1977.08 359.66 1952.98 356.87 C 1923.94 353.53 1895.78 339.53 1877.26 316.66 C 1863.70 300.25 1855.49 279.78 1852.74 258.75 C 1849.88 236.68 1852.05 213.79 1860.21 193.01 C 1870.48 166.25 1891.10 143.29 1917.42 131.58 M 1936.43 182.29 C 1923.98 191.54 1917.49 206.61 1914.81 221.49 C 1946.97 221.51 1979.14 221.50 2011.31 221.49 C 2009.44 208.69 2004.86 195.74 1995.58 186.41 C 1980.43 170.85 1953.69 169.52 1936.43 182.29 Z" />
<path fill="#1d1d1e" opacity="1.00" d=" M 1724.84 125.37 C 1745.68 120.68 1767.54 122.55 1788.02 128.06 C 1804.38 132.52 1820.05 139.55 1834.18 148.94 C 1825.97 163.86 1817.71 178.75 1809.48 193.65 C 1794.02 184.69 1777.53 176.94 1759.89 173.56 C 1751.12 172.08 1741.59 171.47 1733.32 175.30 C 1728.36 177.49 1724.37 182.44 1724.69 188.06 C 1724.35 192.11 1726.70 195.81 1729.74 198.29 C 1734.70 202.41 1740.74 204.90 1746.68 207.27 C 1767.91 215.43 1790.58 220.61 1809.99 232.91 C 1820.77 239.62 1830.22 249.06 1835.05 260.97 C 1839.79 272.30 1839.78 284.97 1838.22 296.96 C 1836.15 312.46 1828.64 327.41 1816.54 337.48 C 1803.27 348.65 1786.12 354.15 1769.10 356.12 C 1728.60 360.75 1686.81 347.96 1654.96 322.75 C 1664.17 308.56 1673.42 294.40 1682.59 280.19 C 1695.75 289.65 1710.14 297.59 1725.63 302.51 C 1737.35 306.33 1749.83 308.26 1762.14 306.86 C 1767.17 306.10 1772.41 304.75 1776.31 301.29 C 1781.89 296.49 1782.86 286.84 1777.60 281.45 C 1772.96 276.53 1766.47 274.06 1760.28 271.76 C 1741.92 265.30 1722.56 261.58 1705.03 252.90 C 1693.02 247.14 1681.70 238.92 1674.72 227.35 C 1668.42 217.14 1666.13 204.92 1666.49 193.05 C 1666.65 177.97 1671.47 162.76 1681.09 151.03 C 1691.97 137.53 1708.12 129.11 1724.84 125.37 Z" />
<path fill="#1d1d1e" opacity="1.00" d=" M 1444.89 141.79 C 1464.57 132.81 1485.65 126.77 1507.23 124.77 C 1529.82 122.71 1553.10 122.57 1575.03 129.12 C 1590.90 133.79 1605.88 142.77 1615.88 156.15 C 1626.49 170.14 1631.57 187.58 1633.27 204.87 C 1634.40 214.86 1633.89 224.93 1634.00 234.96 C 1633.99 274.22 1634.01 313.49 1633.99 352.76 C 1613.27 352.76 1592.54 352.72 1571.82 352.78 C 1571.66 344.74 1571.79 336.70 1571.75 328.66 C 1559.70 341.82 1543.63 351.34 1526.06 354.82 C 1506.17 358.74 1484.90 357.81 1466.08 349.90 C 1452.10 344.04 1439.85 333.62 1432.89 320.04 C 1424.80 304.30 1423.88 285.69 1427.38 268.58 C 1430.67 252.79 1440.45 238.57 1454.03 229.87 C 1472.87 217.74 1495.91 214.24 1517.95 214.49 C 1536.33 214.20 1554.63 217.60 1572.00 223.52 C 1572.41 214.55 1571.29 205.19 1566.56 197.38 C 1562.07 189.75 1554.32 184.49 1545.98 181.87 C 1534.05 178.03 1521.30 178.39 1508.96 179.36 C 1492.49 180.67 1476.49 185.29 1461.08 191.05 C 1455.59 174.66 1450.27 158.22 1444.89 141.79 M 1498.22 262.27 C 1485.48 271.74 1483.95 293.36 1496.09 303.92 C 1503.13 310.11 1512.78 312.24 1521.94 312.47 C 1532.47 312.50 1543.23 310.60 1552.58 305.57 C 1560.79 301.16 1567.76 293.97 1570.86 285.08 C 1573.71 277.52 1573.00 269.30 1572.88 261.40 C 1558.15 255.03 1541.90 252.32 1525.91 253.32 C 1516.18 254.01 1506.08 256.18 1498.22 262.27 Z" />
<path fill="#1d1d1e" opacity="1.00" d=" M 701.51 127.24 C 723.00 127.25 744.50 127.25 765.99 127.24 C 766.00 202.41 766.01 277.59 765.99 352.76 C 744.49 352.73 722.99 352.79 701.49 352.73 C 701.52 277.57 701.47 202.40 701.51 127.24 Z" />
</g>
<g id="#ffd14cff">
<path fill="#ffd14c" opacity="1.00" d=" M 97.82 22.73 C 104.24 21.45 110.69 20.26 117.21 19.52 C 115.43 21.53 113.42 23.33 111.40 25.09 C 118.14 23.98 124.94 23.08 131.77 22.90 C 134.71 23.01 137.69 23.07 140.58 23.73 C 142.42 26.70 142.72 30.30 143.52 33.64 C 139.63 34.60 135.73 35.54 131.87 36.65 C 125.89 38.45 119.93 40.37 114.15 42.74 C 112.22 36.15 107.91 30.66 103.32 25.71 C 101.87 24.12 99.81 23.36 97.82 22.73 Z" />
</g>
<g id="#ffd760ff">
<path fill="#ffd760" opacity="1.00" d=" M 131.77 22.90 C 141.50 21.90 151.32 22.13 161.09 22.24 C 165.82 22.70 170.66 21.57 175.29 22.95 C 172.14 22.97 168.99 22.98 165.84 22.94 C 166.44 25.80 166.37 29.80 170.02 30.47 C 165.04 30.95 160.07 31.45 155.13 32.23 C 158.20 39.21 165.53 44.44 173.30 44.07 C 165.50 45.22 157.67 46.65 150.40 49.82 C 144.09 45.61 137.00 42.43 131.87 36.65 C 135.73 35.54 139.63 34.60 143.52 33.64 C 142.72 30.30 142.42 26.70 140.58 23.73 C 137.69 23.07 134.71 23.01 131.77 22.90 Z" />
</g>
<g id="#fecc3aff">
<path fill="#fecc3a" opacity="1.00" d=" M 67.88 31.61 C 77.58 27.78 87.58 24.70 97.82 22.73 C 99.81 23.36 101.87 24.12 103.32 25.71 C 107.91 30.66 112.22 36.15 114.15 42.74 C 112.21 43.60 110.31 44.57 108.47 45.63 C 102.62 49.13 96.73 53.46 93.93 59.89 C 90.92 67.46 92.34 76.85 98.34 82.58 C 90.97 87.03 83.38 91.12 75.50 94.58 C 75.73 95.74 75.97 96.90 76.21 98.06 C 73.25 97.89 70.10 96.92 67.24 98.09 C 63.29 100.11 59.78 103.37 58.30 107.65 C 57.31 110.95 53.74 112.40 52.50 115.57 C 49.70 122.06 46.94 128.64 45.35 135.56 C 44.14 140.72 42.72 145.84 41.03 150.86 C 36.78 147.06 33.13 142.62 30.36 137.64 C 31.30 134.18 31.71 130.59 31.55 127.01 C 31.20 119.36 32.18 111.59 30.42 104.06 C 27.62 103.21 24.81 102.39 21.99 101.64 C 22.00 99.42 22.00 97.21 22.00 95.00 C 31.60 93.74 42.06 96.64 50.88 91.55 C 51.46 90.44 52.01 89.32 52.56 88.20 C 49.83 85.94 46.05 83.29 46.88 79.22 C 48.16 75.44 51.27 72.00 55.32 71.27 C 60.17 70.07 65.10 71.78 69.99 71.15 C 77.11 70.37 84.56 67.97 89.29 62.30 C 93.79 56.04 93.87 46.97 89.27 40.73 C 84.28 34.67 76.27 32.45 68.76 31.71 L 67.88 31.61 Z" />
</g>
<g id="#ffde72ff">
<path fill="#ffde72" opacity="1.00" d=" M 165.84 22.94 C 168.99 22.98 172.14 22.97 175.29 22.95 C 189.05 23.39 202.74 25.02 216.38 26.74 C 221.41 27.55 226.53 27.96 231.45 29.30 C 215.08 29.30 198.65 29.83 182.51 32.79 C 178.85 30.16 174.35 29.79 170.02 30.47 C 166.37 29.80 166.44 25.80 165.84 22.94 Z" />
</g>
<g id="#ffd04fff">
<path fill="#ffd04f" opacity="1.00" d=" M 170.02 30.47 C 174.35 29.79 178.85 30.16 182.51 32.79 C 179.16 33.92 175.27 34.28 172.69 36.94 C 172.41 38.86 174.21 39.70 175.59 40.52 C 178.56 42.02 181.91 42.47 185.00 43.65 C 181.10 43.73 177.20 43.89 173.30 44.07 C 165.53 44.44 158.20 39.21 155.13 32.23 C 160.07 31.45 165.04 30.95 170.02 30.47 Z" />
</g>
<g id="#ffc72dff">
<path fill="#ffc72d" opacity="1.00" d=" M 55.37 38.31 C 59.64 35.78 63.91 32.98 68.76 31.71 C 76.27 32.45 84.28 34.67 89.27 40.73 C 93.87 46.97 93.79 56.04 89.29 62.30 C 84.56 67.97 77.11 70.37 69.99 71.15 C 65.10 71.78 60.17 70.07 55.32 71.27 C 51.27 72.00 48.16 75.44 46.88 79.22 C 46.05 83.29 49.83 85.94 52.56 88.20 C 52.01 89.32 51.46 90.44 50.88 91.55 C 43.71 88.51 37.76 83.15 33.78 76.50 C 32.65 74.52 31.62 72.46 31.03 70.25 C 34.08 56.72 43.73 45.46 55.37 38.31 Z" />
</g>
<g id="#ffdd74ff">
<path fill="#ffdd74" opacity="1.00" d=" M 114.15 42.74 C 119.93 40.37 125.89 38.45 131.87 36.65 C 137.00 42.43 144.09 45.61 150.40 49.82 C 144.25 52.59 138.80 57.37 137.09 64.12 C 134.77 62.29 132.35 60.56 129.68 59.28 C 122.05 55.63 115.66 50.00 108.47 45.63 C 110.31 44.57 112.21 43.60 114.15 42.74 Z" />
</g>
<g id="#ffd747ff">
<path fill="#ffd747" opacity="1.00" d=" M 214.65 42.54 C 219.39 41.74 224.23 42.24 229.01 42.34 C 246.00 43.34 263.15 44.70 279.56 49.53 C 279.13 51.89 278.89 54.27 278.82 56.66 C 268.62 51.15 257.14 48.67 245.86 46.46 C 235.53 44.67 225.13 43.11 214.65 42.54 Z" />
<path fill="#ffd747" opacity="1.00" d=" M 45.37 303.99 C 49.56 305.79 53.87 307.30 58.25 308.55 C 57.46 320.34 58.25 332.16 57.98 343.96 C 57.75 353.46 58.17 362.96 57.79 372.46 C 53.71 371.24 49.70 369.81 45.72 368.32 C 46.31 351.23 45.89 334.12 46.10 317.02 C 46.21 312.66 45.96 308.30 45.37 303.99 Z" />
</g>
<g id="#ffe87fff">
<path fill="#ffe87f" opacity="1.00" d=" M 93.93 59.89 C 96.73 53.46 102.62 49.13 108.47 45.63 C 115.66 50.00 122.05 55.63 129.68 59.28 C 132.35 60.56 134.77 62.29 137.09 64.12 C 136.11 69.93 138.62 76.07 143.48 79.43 C 150.91 84.65 160.19 86.23 169.04 87.20 C 181.43 88.75 193.93 87.92 206.38 88.14 C 201.94 88.95 197.44 89.34 192.94 89.11 C 190.08 89.06 187.22 89.05 184.37 89.04 C 185.92 91.53 187.79 93.91 188.62 96.77 C 188.03 98.90 186.09 100.52 183.88 100.66 C 178.48 101.19 173.04 100.96 167.64 100.89 C 163.32 100.47 159.00 100.17 154.67 100.16 C 144.25 99.11 133.95 97.23 123.68 95.25 C 114.49 92.85 105.52 88.92 98.34 82.58 C 92.34 76.85 90.92 67.46 93.93 59.89 Z" />
</g>
<g id="#ffd42dff">
<path fill="#ffd42d" opacity="1.00" d=" M 278.82 56.66 C 278.89 54.27 279.13 51.89 279.56 49.53 C 283.01 50.69 286.40 52.02 289.69 53.59 C 288.41 62.02 289.49 70.53 289.21 79.01 C 288.87 88.33 289.15 97.65 288.85 106.97 C 289.63 122.17 288.60 137.38 289.24 152.58 C 290.90 152.07 292.57 151.58 294.22 151.02 C 289.85 154.14 284.89 156.28 280.01 158.46 C 279.54 158.01 278.60 157.11 278.13 156.67 C 278.15 129.72 278.12 102.77 278.11 75.83 C 281.72 73.47 286.32 70.81 286.62 66.00 C 286.33 61.56 282.14 58.93 278.82 56.66 Z" />
<path fill="#ffd42d" opacity="1.00" d=" M 282.06 196.98 C 284.38 196.05 286.67 195.05 288.90 193.92 C 288.82 212.28 288.97 230.64 288.83 248.99 C 288.89 252.55 288.22 256.53 290.56 259.56 C 287.95 260.90 285.33 262.20 282.64 263.36 C 281.48 254.61 282.47 245.77 282.01 236.97 C 282.02 223.64 282.28 210.31 282.06 196.98 Z" />
</g>
<g id="#ffd310ff">
<path fill="#ffd310" opacity="1.00" d=" M 289.69 53.59 C 294.21 56.07 298.56 59.31 301.06 63.93 C 302.73 66.99 303.01 70.55 303.01 73.97 C 302.97 95.66 303.02 117.35 302.99 139.05 C 303.07 144.45 298.37 148.36 294.22 151.02 C 292.57 151.58 290.90 152.07 289.24 152.58 C 288.60 137.38 289.63 122.17 288.85 106.97 C 289.15 97.65 288.87 88.33 289.21 79.01 C 289.49 70.53 288.41 62.02 289.69 53.59 Z" />
</g>
<g id="#ffeb7bff">
<path fill="#ffeb7b" opacity="1.00" d=" M 28.68 61.64 C 29.53 64.49 30.19 67.39 31.03 70.25 C 31.62 72.46 32.65 74.52 33.78 76.50 C 31.63 78.59 28.89 79.80 26.02 80.55 C 25.41 79.71 24.79 78.88 24.18 78.05 C 25.37 72.50 26.90 67.03 28.68 61.64 Z" />
</g>
<g id="#ffda52ff">
<path fill="#ffda52" opacity="1.00" d=" M 33.78 76.50 C 37.76 83.15 43.71 88.51 50.88 91.55 C 42.06 96.64 31.60 93.74 22.00 95.00 C 22.22 89.30 23.10 83.65 24.18 78.05 C 24.79 78.88 25.41 79.71 26.02 80.55 C 28.89 79.80 31.63 78.59 33.78 76.50 Z" />
</g>
<g id="#ffd63fff">
<path fill="#ffd63f" opacity="1.00" d=" M 266.15 80.49 C 270.23 79.19 274.24 77.67 278.11 75.83 C 278.12 102.77 278.15 129.72 278.13 156.67 C 278.60 157.11 279.54 158.01 280.01 158.46 C 275.48 160.21 270.91 161.83 266.27 163.24 C 265.94 135.66 266.17 108.07 266.15 80.49 Z" />
</g>
<g id="#ffd74eff">
<path fill="#ffd74e" opacity="1.00" d=" M 254.15 83.46 C 258.18 82.61 262.19 81.65 266.15 80.49 C 266.17 108.07 265.94 135.66 266.27 163.24 C 262.26 164.38 258.24 165.53 254.18 166.48 C 253.44 148.99 254.37 131.49 253.89 114.01 C 253.92 103.82 253.86 93.64 254.15 83.46 Z" />
</g>
<g id="#ffd24dff">
<path fill="#ffd24d" opacity="1.00" d=" M 75.50 94.58 C 83.38 91.12 90.97 87.03 98.34 82.58 C 105.52 88.92 114.49 92.85 123.68 95.25 C 116.37 98.55 109.59 102.90 102.31 106.26 C 95.58 109.24 89.38 113.23 82.99 116.85 C 78.80 119.19 75.64 122.88 71.82 125.70 C 68.66 128.15 65.25 130.42 62.84 133.66 C 59.97 137.99 59.05 143.22 56.80 147.85 C 55.14 151.25 53.91 154.84 53.04 158.53 C 48.75 156.45 44.72 153.88 41.03 150.86 C 42.72 145.84 44.14 140.72 45.35 135.56 C 46.94 128.64 49.70 122.06 52.50 115.57 C 53.74 112.40 57.31 110.95 58.30 107.65 C 59.78 103.37 63.29 100.11 67.24 98.09 C 70.10 96.92 73.25 97.89 76.21 98.06 C 75.97 96.90 75.73 95.74 75.50 94.58 Z" />
</g>
<g id="#ffd95fff">
<path fill="#ffd95f" opacity="1.00" d=" M 208.60 88.20 C 223.83 87.15 239.15 86.57 254.15 83.46 C 253.86 93.64 253.92 103.82 253.89 114.01 C 254.37 131.49 253.44 148.99 254.18 166.48 C 247.86 167.98 241.46 169.18 235.06 170.28 C 234.71 144.04 235.48 117.78 234.79 91.55 C 226.01 91.86 216.85 91.48 208.60 88.20 Z" />
</g>
<g id="#ffdc6cff">
<path fill="#ffdc6c" opacity="1.00" d=" M 206.38 88.14 C 206.93 88.16 208.04 88.19 208.60 88.20 C 216.85 91.48 226.01 91.86 234.79 91.55 C 235.48 117.78 234.71 144.04 235.06 170.28 C 225.72 171.82 216.30 172.78 206.84 173.05 C 207.78 171.87 209.03 170.69 209.04 169.06 C 209.42 161.99 207.27 155.08 207.13 148.02 C 206.82 131.62 207.49 115.21 206.82 98.82 C 200.51 98.59 197.31 92.72 192.94 89.11 C 197.44 89.34 201.94 88.95 206.38 88.14 Z" />
<path fill="#ffdc6c" opacity="1.00" d=" M 231.89 208.66 C 239.00 207.74 246.06 206.39 253.11 205.09 C 253.35 227.07 252.82 249.07 253.33 271.05 L 253.02 271.72 C 246.23 273.76 239.07 274.38 232.09 275.57 C 231.92 253.27 232.32 230.96 231.89 208.66 Z" />
<path fill="#ffdc6c" opacity="1.00" d=" M 85.37 314.17 C 92.54 315.20 99.73 316.18 106.96 316.79 C 107.03 338.41 107.10 360.03 106.92 381.66 C 99.81 380.82 92.71 379.91 85.65 378.70 C 85.99 374.13 86.15 369.55 86.04 364.98 C 85.80 353.31 86.13 341.65 86.00 329.99 C 86.10 324.71 86.24 319.40 85.37 314.17 Z" />
</g>
<g id="#ffe075ff">
<path fill="#ffe075" opacity="1.00" d=" M 184.37 89.04 C 187.22 89.05 190.08 89.06 192.94 89.11 C 197.31 92.72 200.51 98.59 206.82 98.82 C 207.49 115.21 206.82 131.62 207.13 148.02 C 207.27 155.08 209.42 161.99 209.04 169.06 C 209.03 170.69 207.78 171.87 206.84 173.05 C 199.72 173.89 192.49 173.77 185.32 174.06 C 181.60 173.91 177.89 173.67 174.17 173.51 C 173.53 165.30 174.63 157.07 173.83 148.86 C 167.41 150.76 161.51 153.96 155.24 156.24 C 154.80 147.83 155.05 139.41 154.96 130.99 C 155.06 127.99 154.85 124.84 156.03 122.01 C 159.98 115.04 164.94 108.50 167.64 100.89 C 173.04 100.96 178.48 101.19 183.88 100.66 C 186.09 100.52 188.03 98.90 188.62 96.77 C 187.79 93.91 185.92 91.53 184.37 89.04 Z" />
<path fill="#ffe075" opacity="1.00" d=" M 198.02 211.91 C 209.34 211.24 220.63 210.02 231.89 208.66 C 232.32 230.96 231.92 253.27 232.09 275.57 C 224.18 276.64 216.25 277.60 208.29 278.14 C 204.91 278.33 201.54 278.17 198.17 277.95 C 197.75 271.95 197.90 265.95 197.96 259.95 C 197.93 243.93 197.88 227.92 198.02 211.91 Z" />
</g>
<g id="#ffd961ff">
<path fill="#ffd961" opacity="1.00" d=" M 123.68 95.25 C 133.95 97.23 144.25 99.11 154.67 100.16 C 156.38 100.62 158.07 101.15 159.77 101.67 C 156.06 108.34 153.62 115.85 148.40 121.55 C 147.17 123.03 146.89 125.00 146.31 126.78 C 146.13 126.13 145.77 124.82 145.59 124.17 C 143.99 129.68 139.80 133.84 135.47 137.35 C 133.49 138.53 131.60 136.66 130.02 135.68 C 128.64 136.42 127.30 137.21 125.93 137.96 C 124.26 137.34 122.60 136.72 120.90 136.20 C 118.31 135.33 115.51 135.60 112.92 136.33 C 108.59 137.57 104.00 137.99 99.90 139.96 C 96.80 141.44 93.83 143.15 90.82 144.80 C 86.17 147.30 82.62 151.31 78.62 154.67 C 75.55 157.03 75.80 161.29 74.94 164.72 C 67.55 163.01 60.03 161.57 53.04 158.53 C 53.91 154.84 55.14 151.25 56.80 147.85 C 59.05 143.22 59.97 137.99 62.84 133.66 C 65.25 130.42 68.66 128.15 71.82 125.70 C 75.64 122.88 78.80 119.19 82.99 116.85 C 89.38 113.23 95.58 109.24 102.31 106.26 C 109.59 102.90 116.37 98.55 123.68 95.25 Z" />
</g>
<g id="#ffe26eff">
<path fill="#ffe26e" opacity="1.00" d=" M 154.67 100.16 C 159.00 100.17 163.32 100.47 167.64 100.89 C 164.94 108.50 159.98 115.04 156.03 122.01 C 154.85 124.84 155.06 127.99 154.96 130.99 C 155.05 139.41 154.80 147.83 155.24 156.24 C 150.94 157.95 146.66 159.68 142.38 161.44 C 136.80 163.76 131.02 165.57 125.20 167.16 L 124.08 167.47 C 123.71 161.01 124.52 154.50 123.74 148.07 C 122.17 144.26 119.73 140.55 120.90 136.20 C 122.60 136.72 124.26 137.34 125.93 137.96 C 127.30 137.21 128.64 136.42 130.02 135.68 C 131.60 136.66 133.49 138.53 135.47 137.35 C 139.80 133.84 143.99 129.68 145.59 124.17 C 145.77 124.82 146.13 126.13 146.31 126.78 C 146.89 125.00 147.17 123.03 148.40 121.55 C 153.62 115.85 156.06 108.34 159.77 101.67 C 158.07 101.15 156.38 100.62 154.67 100.16 Z" />
</g>
<g id="#ffd01bff">
<path fill="#ffd01b" opacity="1.00" d=" M 21.99 101.64 C 24.81 102.39 27.62 103.21 30.42 104.06 C 32.18 111.59 31.20 119.36 31.55 127.01 C 31.71 130.59 31.30 134.18 30.36 137.64 C 24.27 126.72 21.78 114.06 21.99 101.64 Z" />
</g>
<g id="#ffdf73ff">
<path fill="#ffdf73" opacity="1.00" d=" M 112.92 136.33 C 115.51 135.60 118.31 135.33 120.90 136.20 C 119.73 140.55 122.17 144.26 123.74 148.07 C 124.52 154.50 123.71 161.01 124.08 167.47 C 107.73 170.05 91.04 168.01 74.94 164.72 C 75.80 161.29 75.55 157.03 78.62 154.67 C 82.62 151.31 86.17 147.30 90.82 144.80 C 93.83 143.15 96.80 141.44 99.90 139.96 C 104.00 137.99 108.59 137.57 112.92 136.33 Z" />
</g>
<g id="#ffea82ff">
<path fill="#ffea82" opacity="1.00" d=" M 155.24 156.24 C 161.51 153.96 167.41 150.76 173.83 148.86 C 174.63 157.07 173.53 165.30 174.17 173.51 C 177.89 173.67 181.60 173.91 185.32 174.06 C 169.82 175.01 154.22 175.08 138.68 174.70 C 140.06 174.39 141.42 174.03 142.79 173.69 C 143.34 169.61 143.19 165.47 142.38 161.44 C 146.66 159.68 150.94 157.95 155.24 156.24 Z" />
</g>
<g id="#fff38eff">
<path fill="#fff38e" opacity="1.00" d=" M 125.20 167.16 C 131.02 165.57 136.80 163.76 142.38 161.44 C 143.19 165.47 143.34 169.61 142.79 173.69 C 141.42 174.03 140.06 174.39 138.68 174.70 C 127.49 174.64 116.25 173.97 105.17 172.31 C 111.77 170.34 118.67 169.48 125.20 167.16 Z" />
</g>
<g id="#262627ff">
<path fill="#262627" opacity="1.00" d=" M 55.26 164.20 C 60.33 165.42 65.29 167.06 70.39 168.15 L 70.22 168.67 C 67.55 177.44 70.70 186.83 68.26 195.71 C 63.82 194.70 59.40 193.60 55.07 192.19 C 55.31 182.86 54.94 173.52 55.26 164.20 Z" />
</g>
<g id="#fff797ff">
<path fill="#fff797" opacity="1.00" d=" M 26.21 179.98 C 27.09 174.27 32.35 170.88 36.81 167.96 C 37.12 172.54 36.67 177.15 37.07 181.72 C 40.84 187.97 48.65 189.83 55.07 192.19 C 59.40 193.60 63.82 194.70 68.26 195.71 C 74.11 197.06 80.01 198.10 85.93 199.05 C 90.26 199.74 94.61 200.32 98.96 200.89 C 108.65 202.04 118.36 202.99 128.11 203.50 C 138.40 204.31 148.73 204.36 159.04 204.54 C 169.67 204.66 180.29 204.31 190.92 204.06 C 198.59 203.53 206.29 203.20 213.94 202.40 C 219.46 201.94 224.96 201.35 230.46 200.66 C 235.63 199.93 240.82 199.26 245.97 198.35 C 254.29 196.95 262.55 195.13 270.67 192.82 C 276.48 190.99 282.44 189.12 287.45 185.53 C 289.13 184.20 290.93 182.47 290.96 180.17 C 291.11 176.12 290.94 172.07 291.00 168.02 C 294.84 170.35 298.76 173.06 300.74 177.24 C 302.19 179.94 301.47 183.07 301.55 185.99 C 301.52 203.67 301.54 221.36 301.54 239.05 C 301.50 242.50 301.82 246.01 301.01 249.41 C 301.12 227.48 300.95 205.56 301.09 183.64 C 299.23 186.19 297.19 188.68 294.62 190.55 C 292.77 191.78 290.85 192.89 288.90 193.92 C 286.67 195.05 284.38 196.05 282.06 196.98 C 278.63 198.32 275.16 199.52 271.63 200.55 C 265.50 202.26 259.36 203.89 253.11 205.09 C 246.06 206.39 239.00 207.74 231.89 208.66 C 220.63 210.02 209.34 211.24 198.02 211.91 C 190.34 212.35 182.65 212.63 174.95 212.77 C 152.61 213.03 130.24 212.51 108.01 210.06 C 97.03 209.01 86.14 207.26 75.31 205.18 C 69.43 204.09 63.64 202.63 57.87 201.06 C 51.85 199.40 45.97 197.21 40.29 194.60 C 34.87 192.27 30.19 188.51 26.66 183.79 C 26.70 205.73 26.40 227.67 26.81 249.60 C 26.40 247.77 26.21 245.89 26.22 244.02 C 26.25 222.68 26.26 201.33 26.21 179.98 Z" />
<path fill="#fff797" opacity="1.00" d=" M 26.22 283.95 C 26.92 278.20 32.16 274.45 36.81 271.75 C 37.16 277.09 36.61 282.48 37.11 287.81 C 38.21 290.88 41.40 292.38 44.06 293.87 C 48.51 296.15 53.28 297.69 58.05 299.13 C 61.73 300.23 65.46 301.12 69.21 301.96 C 75.37 303.32 81.60 304.37 87.84 305.35 C 90.83 305.83 93.83 306.23 96.84 306.64 C 107.24 307.93 117.68 308.95 128.15 309.52 C 138.42 310.31 148.74 310.39 159.04 310.54 C 164.34 310.49 169.64 310.58 174.94 310.50 C 180.30 310.30 185.66 310.14 191.03 310.07 C 198.67 309.58 206.32 309.18 213.94 308.42 C 219.45 307.97 224.94 307.37 230.43 306.67 C 235.62 305.97 240.82 305.27 245.98 304.34 C 258.37 302.15 270.88 299.67 282.43 294.53 C 285.76 292.85 289.77 290.93 290.87 287.04 C 291.23 281.96 290.85 276.85 291.05 271.76 C 296.93 275.00 303.05 280.63 301.55 288.07 C 298.11 292.66 294.22 297.08 289.03 299.76 C 287.41 300.63 285.74 301.42 284.06 302.18 C 280.34 303.79 276.58 305.29 272.72 306.52 C 269.73 307.44 266.69 308.23 263.66 309.00 C 259.01 310.19 254.34 311.27 249.61 312.07 C 230.12 315.68 210.36 317.64 190.57 318.39 C 162.70 319.55 134.75 319.24 106.96 316.79 C 99.73 316.18 92.54 315.20 85.37 314.17 C 80.30 313.43 75.26 312.51 70.24 311.49 C 66.21 310.64 62.22 309.65 58.25 308.55 C 53.87 307.30 49.56 305.79 45.37 303.99 C 42.11 302.55 38.94 300.90 35.94 298.98 C 31.96 296.48 29.11 292.67 26.71 288.71 C 26.54 303.16 26.68 317.61 26.64 332.05 C 26.71 339.52 26.39 346.99 26.92 354.44 C 26.45 352.68 26.20 350.85 26.23 349.02 C 26.25 327.33 26.27 305.64 26.22 283.95 Z" />
</g>
<g id="#333335ff">
<path fill="#333335" opacity="1.00" d=" M 68.26 195.71 C 70.70 186.83 67.55 177.44 70.22 168.67 C 75.52 170.13 80.91 171.20 86.20 172.65 C 85.75 181.44 85.83 190.25 85.93 199.05 C 80.01 198.10 74.11 197.06 68.26 195.71 Z" />
<path fill="#333335" opacity="1.00" d=" M 69.21 301.96 C 69.36 293.93 68.92 285.90 69.49 277.88 C 75.84 279.23 82.05 281.19 88.46 282.26 L 88.42 282.61 C 87.24 290.14 87.77 297.77 87.84 305.35 C 81.60 304.37 75.37 303.32 69.21 301.96 Z" />
<path fill="#333335" opacity="1.00" d=" M 175.03 289.73 C 180.35 289.47 185.69 289.44 191.01 289.05 C 191.02 296.05 191.03 303.06 191.03 310.07 C 185.66 310.14 180.30 310.30 174.94 310.50 C 174.94 303.58 175.04 296.65 175.03 289.73 Z" />
</g>
<g id="#3e3e40ff">
<path fill="#3e3e40" opacity="1.00" d=" M 86.20 172.65 C 90.43 173.44 94.67 174.10 98.88 174.99 C 98.81 183.62 98.73 192.26 98.96 200.89 C 94.61 200.32 90.26 199.74 85.93 199.05 C 85.83 190.25 85.75 181.44 86.20 172.65 Z" />
<path fill="#3e3e40" opacity="1.00" d=" M 128.06 182.95 C 138.37 183.81 148.68 184.76 159.03 185.06 C 159.06 191.55 159.05 198.04 159.04 204.54 C 148.73 204.36 138.40 204.31 128.11 203.50 C 128.19 196.65 128.23 189.80 128.06 182.95 Z" />
<path fill="#3e3e40" opacity="1.00" d=" M 87.84 305.35 C 87.77 297.77 87.24 290.14 88.42 282.61 C 92.31 283.22 96.22 283.81 100.05 284.80 C 99.33 284.97 97.90 285.30 97.18 285.47 C 96.76 292.52 97.35 299.59 96.84 306.64 C 93.83 306.23 90.83 305.83 87.84 305.35 Z" />
<path fill="#3e3e40" opacity="1.00" d=" M 127.48 288.11 C 137.96 289.06 148.48 289.44 159.00 289.87 C 158.91 296.76 158.96 303.65 159.04 310.54 C 148.74 310.39 138.42 310.31 128.15 309.52 C 128.03 302.38 128.65 295.19 127.48 288.11 Z" />
</g>
<g id="#474749ff">
<path fill="#474749" opacity="1.00" d=" M 98.88 174.99 C 108.09 176.52 117.43 176.62 126.71 177.43 C 122.05 178.79 117.25 179.64 112.67 181.28 C 117.78 182.02 122.92 182.51 128.06 182.95 C 128.23 189.80 128.19 196.65 128.11 203.50 C 118.36 202.99 108.65 202.04 98.96 200.89 C 98.73 192.26 98.81 183.62 98.88 174.99 Z" />
<path fill="#474749" opacity="1.00" d=" M 97.18 285.47 C 97.90 285.30 99.33 284.97 100.05 284.80 C 109.18 285.92 118.27 287.53 127.48 288.11 C 128.65 295.19 128.03 302.38 128.15 309.52 C 117.68 308.95 107.24 307.93 96.84 306.64 C 97.35 299.59 96.76 292.52 97.18 285.47 Z" />
</g>
<g id="#242425ff">
<path fill="#242425" opacity="1.00" d=" M 230.07 181.11 C 235.34 180.01 240.61 178.93 245.92 178.02 C 246.28 184.79 246.20 191.57 245.97 198.35 C 240.82 199.26 235.63 199.93 230.46 200.66 C 229.85 194.16 229.83 187.63 230.07 181.11 Z" />
<path fill="#242425" opacity="1.00" d=" M 229.97 284.86 C 235.18 283.39 240.58 282.85 245.93 282.11 C 246.32 289.51 246.18 296.93 245.98 304.34 C 240.82 305.27 235.62 305.97 230.43 306.67 C 229.66 299.42 229.96 292.13 229.97 284.86 Z" />
</g>
<g id="#2a2a2cff">
<path fill="#2a2a2c" opacity="1.00" d=" M 213.99 183.11 C 219.30 182.11 224.70 181.73 230.07 181.11 C 229.83 187.63 229.85 194.16 230.46 200.66 C 224.96 201.35 219.46 201.94 213.94 202.40 C 213.92 195.97 213.92 189.54 213.99 183.11 Z" />
<path fill="#2a2a2c" opacity="1.00" d=" M 213.96 287.06 C 219.24 285.90 224.65 285.73 229.97 284.86 C 229.96 292.13 229.66 299.42 230.43 306.67 C 224.94 307.37 219.45 307.97 213.94 308.42 C 213.96 301.30 213.93 294.18 213.96 287.06 Z" />
</g>
<g id="#2f2f30ff">
<path fill="#2f2f30" opacity="1.00" d=" M 190.99 184.89 C 198.61 183.72 206.35 184.07 213.99 183.11 C 213.92 189.54 213.92 195.97 213.94 202.40 C 206.29 203.20 198.59 203.53 190.92 204.06 C 190.84 197.67 190.84 191.28 190.99 184.89 Z" />
<path fill="#2f2f30" opacity="1.00" d=" M 191.01 289.05 C 198.66 288.36 206.33 287.95 213.96 287.06 C 213.93 294.18 213.96 301.30 213.94 308.42 C 206.32 309.18 198.67 309.58 191.03 310.07 C 191.03 303.06 191.02 296.05 191.01 289.05 Z" />
</g>
<g id="#ffd204ff">
<path fill="#ffd204" opacity="1.00" d=" M 294.62 190.55 C 297.19 188.68 299.23 186.19 301.09 183.64 C 300.95 205.56 301.12 227.48 301.01 249.41 C 299.93 252.03 297.91 254.11 295.79 255.94 C 295.28 253.30 294.83 250.65 294.76 247.96 C 294.74 228.83 295.02 209.69 294.62 190.55 Z" />
</g>
<g id="#ffd42aff">
<path fill="#ffd42a" opacity="1.00" d=" M 26.66 183.79 C 30.19 188.51 34.87 192.27 40.29 194.60 C 39.36 209.38 40.00 224.20 39.78 239.00 C 39.53 246.22 40.68 253.50 39.29 260.66 C 34.40 258.00 29.28 254.81 26.81 249.60 C 26.40 227.67 26.70 205.73 26.66 183.79 Z" />
<path fill="#ffd42a" opacity="1.00" d=" M 284.06 302.18 C 285.74 301.42 287.41 300.63 289.03 299.76 C 289.75 311.83 289.24 323.94 289.40 336.03 C 289.56 345.56 288.91 355.11 289.84 364.62 C 288.02 365.55 286.20 366.45 284.36 367.33 C 283.15 352.25 284.08 337.10 283.81 321.98 C 283.78 315.38 283.69 308.77 284.06 302.18 Z" />
</g>
<g id="#383839ff">
<path fill="#383839" opacity="1.00" d=" M 159.03 185.06 C 169.68 184.89 180.34 185.17 190.99 184.89 C 190.84 191.28 190.84 197.67 190.92 204.06 C 180.29 204.31 169.67 204.66 159.04 204.54 C 159.05 198.04 159.06 191.55 159.03 185.06 Z" />
</g>
<g id="#ffd31aff">
<path fill="#ffd31a" opacity="1.00" d=" M 288.90 193.92 C 290.85 192.89 292.77 191.78 294.62 190.55 C 295.02 209.69 294.74 228.83 294.76 247.96 C 294.83 250.65 295.28 253.30 295.79 255.94 L 295.80 256.02 C 294.07 257.22 292.33 258.41 290.56 259.56 C 288.22 256.53 288.89 252.55 288.83 248.99 C 288.97 230.64 288.82 212.28 288.90 193.92 Z" />
</g>
<g id="#ffd744ff">
<path fill="#ffd744" opacity="1.00" d=" M 40.29 194.60 C 45.97 197.21 51.85 199.40 57.87 201.06 C 57.73 223.04 58.12 245.03 57.65 267.00 L 57.25 267.35 C 50.98 266.06 45.05 263.42 39.29 260.66 C 40.68 253.50 39.53 246.22 39.78 239.00 C 40.00 224.20 39.36 209.38 40.29 194.60 Z" />
</g>
<g id="#ffd641ff">
<path fill="#ffd641" opacity="1.00" d=" M 271.63 200.55 C 275.16 199.52 278.63 198.32 282.06 196.98 C 282.28 210.31 282.02 223.64 282.01 236.97 C 282.47 245.77 281.48 254.61 282.64 263.36 C 279.34 264.68 276.01 265.93 272.60 266.90 C 272.14 264.29 271.73 261.66 271.66 259.01 C 271.68 239.53 271.78 220.04 271.63 200.55 Z" />
</g>
<g id="#ffd959ff">
<path fill="#ffd959" opacity="1.00" d=" M 57.87 201.06 C 63.64 202.63 69.43 204.09 75.31 205.18 C 76.02 209.43 76.31 213.73 76.19 218.04 C 75.92 236.09 76.47 254.15 75.91 272.19 C 69.89 270.91 63.81 269.70 57.99 267.69 L 57.65 267.00 C 58.12 245.03 57.73 223.04 57.87 201.06 Z" />
</g>
<g id="#ffd95aff">
<path fill="#ffd95a" opacity="1.00" d=" M 253.11 205.09 C 259.36 203.89 265.50 202.26 271.63 200.55 C 271.78 220.04 271.68 239.53 271.66 259.01 C 271.73 261.66 272.14 264.29 272.60 266.90 L 272.61 266.99 C 266.38 268.70 260.14 270.92 253.70 271.45 L 253.33 271.05 C 252.82 249.07 253.35 227.07 253.11 205.09 Z" />
</g>
<g id="#ffdb6aff">
<path fill="#ffdb6a" opacity="1.00" d=" M 75.31 205.18 C 86.14 207.26 97.03 209.01 108.01 210.06 C 111.43 211.28 110.88 215.13 110.95 218.05 C 110.84 232.02 110.86 245.99 110.87 259.96 C 110.87 265.40 111.22 270.86 110.61 276.28 C 110.15 276.49 109.22 276.90 108.76 277.10 C 97.73 276.10 86.76 274.39 75.91 272.19 C 76.47 254.15 75.92 236.09 76.19 218.04 C 76.31 213.73 76.02 209.43 75.31 205.18 Z" />
</g>
<g id="#ffe174ff">
<path fill="#ffe174" opacity="1.00" d=" M 108.01 210.06 C 130.24 212.51 152.61 213.03 174.95 212.77 C 175.08 234.74 174.66 256.74 175.16 278.71 C 181.24 278.76 187.32 278.64 193.38 279.10 C 165.20 280.65 136.83 280.19 108.76 277.10 C 109.22 276.90 110.15 276.49 110.61 276.28 C 111.22 270.86 110.87 265.40 110.87 259.96 C 110.86 245.99 110.84 232.02 110.95 218.05 C 110.88 215.13 111.43 211.28 108.01 210.06 Z" />
<path fill="#ffe174" opacity="1.00" d=" M 190.57 318.39 C 210.36 317.64 230.12 315.68 249.61 312.07 C 248.89 316.00 248.54 319.99 248.68 323.98 C 248.96 341.82 248.44 359.66 248.92 377.49 C 202.14 385.87 154.14 386.46 106.92 381.66 C 107.10 360.03 107.03 338.41 106.96 316.79 C 134.75 319.24 162.70 319.55 190.57 318.39 Z" />
</g>
<g id="#ffe26dff">
<path fill="#ffe26d" opacity="1.00" d=" M 174.95 212.77 C 182.65 212.63 190.34 212.35 198.02 211.91 C 197.88 227.92 197.93 243.93 197.96 259.95 C 197.90 265.95 197.75 271.95 198.17 277.95 C 201.54 278.17 204.91 278.33 208.29 278.14 C 203.34 278.71 198.35 278.93 193.38 279.10 C 187.32 278.64 181.24 278.76 175.16 278.71 C 174.66 256.74 175.08 234.74 174.95 212.77 Z" />
</g>
<g id="#282829ff">
<path fill="#282829" opacity="1.00" d=" M 58.19 274.14 C 62.04 274.92 65.82 275.99 69.53 277.31 L 69.49 277.88 C 68.92 285.90 69.36 293.93 69.21 301.96 C 65.46 301.12 61.73 300.23 58.05 299.13 C 57.69 290.80 58.10 282.47 58.19 274.14 Z" />
</g>
<g id="#ffd30fff">
<path fill="#ffd30f" opacity="1.00" d=" M 289.03 299.76 C 294.22 297.08 298.11 292.66 301.55 288.07 C 301.56 309.02 301.59 329.97 301.54 350.93 C 301.23 357.57 294.93 361.50 289.84 364.62 C 288.91 355.11 289.56 345.56 289.40 336.03 C 289.24 323.94 289.75 311.83 289.03 299.76 Z" />
</g>
<g id="#ffd426ff">
<path fill="#ffd426" opacity="1.00" d=" M 26.71 288.71 C 29.11 292.67 31.96 296.48 35.94 298.98 C 35.77 319.82 35.88 340.67 36.00 361.52 C 34.85 361.37 33.71 361.22 32.57 361.06 C 30.16 359.40 28.18 357.08 26.92 354.44 C 26.39 346.99 26.71 339.52 26.64 332.05 C 26.68 317.61 26.54 303.16 26.71 288.71 Z" />
</g>
<g id="#3a3a3cff">
<path fill="#3a3a3c" opacity="1.00" d=" M 159.00 289.87 C 164.34 289.68 169.68 289.78 175.03 289.73 C 175.04 296.65 174.94 303.58 174.94 310.50 C 169.64 310.58 164.34 310.49 159.04 310.54 C 158.96 303.65 158.91 296.76 159.00 289.87 Z" />
</g>
<g id="#ffd539ff">
<path fill="#ffd539" opacity="1.00" d=" M 35.94 298.98 C 38.94 300.90 42.11 302.55 45.37 303.99 C 45.96 308.30 46.21 312.66 46.10 317.02 C 45.89 334.12 46.31 351.23 45.72 368.32 C 41.12 366.32 36.52 364.19 32.57 361.06 C 33.71 361.22 34.85 361.37 36.00 361.52 C 35.88 340.67 35.77 319.82 35.94 298.98 Z" />
</g>
<g id="#ffd63eff">
<path fill="#ffd63e" opacity="1.00" d=" M 272.72 306.52 C 276.58 305.29 280.34 303.79 284.06 302.18 C 283.69 308.77 283.78 315.38 283.81 321.98 C 284.08 337.10 283.15 352.25 284.36 367.33 C 280.73 368.83 277.04 370.20 273.31 371.45 C 272.43 360.62 273.32 349.76 273.13 338.92 C 273.00 328.12 273.47 317.31 272.72 306.52 Z" />
</g>
<g id="#ffd852ff">
<path fill="#ffd852" opacity="1.00" d=" M 263.66 309.00 C 266.69 308.23 269.73 307.44 272.72 306.52 C 273.47 317.31 273.00 328.12 273.13 338.92 C 273.32 349.76 272.43 360.62 273.31 371.45 C 269.87 372.47 266.43 373.47 262.97 374.39 C 262.79 360.25 262.93 346.11 263.00 331.97 C 263.05 324.31 262.22 316.59 263.66 309.00 Z" />
</g>
<g id="#ffd856ff">
<path fill="#ffd856" opacity="1.00" d=" M 58.25 308.55 C 62.22 309.65 66.21 310.64 70.24 311.49 C 69.74 332.85 70.37 354.23 69.87 375.59 C 65.81 374.65 61.78 373.62 57.79 372.46 C 58.17 362.96 57.75 353.46 57.98 343.96 C 58.25 332.16 57.46 320.34 58.25 308.55 Z" />
</g>
<g id="#ffda62ff">
<path fill="#ffda62" opacity="1.00" d=" M 249.61 312.07 C 254.34 311.27 259.01 310.19 263.66 309.00 C 262.22 316.59 263.05 324.31 263.00 331.97 C 262.93 346.11 262.79 360.25 262.97 374.39 C 258.30 375.48 253.62 376.55 248.92 377.49 C 248.44 359.66 248.96 341.82 248.68 323.98 C 248.54 319.99 248.89 316.00 249.61 312.07 Z" />
<path fill="#ffda62" opacity="1.00" d=" M 70.24 311.49 C 75.26 312.51 80.30 313.43 85.37 314.17 C 86.24 319.40 86.10 324.71 86.00 329.99 C 86.13 341.65 85.80 353.31 86.04 364.98 C 86.15 369.55 85.99 374.13 85.65 378.70 C 80.37 377.78 75.09 376.80 69.87 375.59 C 70.37 354.23 69.74 332.85 70.24 311.49 Z" />
</g>
</svg>
