<?xml version="1.0" encoding="UTF-8" standalone="no"?>
<svg width="92px" height="26px" viewBox="0 0 92 26" preserveAspectRatio="none" version="1.1" xmlns="http://www.w3.org/2000/svg" xmlns:xlink="http://www.w3.org/1999/xlink">
    <g fill="#3E3E3E">
        <path d="M33.1743164,21.3044 L33.1743164,3.33658 L35.438452,3.33658 L35.438452,19.19086 L44.1615593,19.19086 L44.1615593,21.3044 L33.1743164,21.3044"></path>
        <path d="M53.9138192,14.23292 C53.008113,14.88734 51.5241582,15.08884 50.2164068,15.31504 C48.7069831,15.5922 47.5738757,15.96946 47.5738757,17.5045 C47.5738757,19.11546 48.8080791,19.74414 50.2670847,19.74414 C52.1278757,19.74414 53.9138192,18.7122 53.9138192,16.17044 L53.9138192,14.23292 L53.9138192,14.23292 Z M53.9644972,21.3044 L53.9644972,19.69396 C53.0335819,21.00254 51.6756723,21.60652 49.9401469,21.60652 C47.1965198,21.60652 45.4105763,20.12192 45.4105763,17.63034 C45.4105763,14.53556 48.102226,13.98176 49.7896723,13.7046 C51.7507797,13.40248 53.9138192,13.25142 53.9138192,11.61576 C53.9138192,10.257 52.4301243,9.8293 51.0974237,9.8293 C49.7896723,9.8293 48.1282147,10.257 46.970678,11.18806 L46.0153333,9.5771 C47.3485537,8.59612 49.2353333,7.9417 51.2224294,7.9417 C54.0653333,7.9417 56.0272203,9.22532 56.0272203,11.91762 L56.0272203,21.3044 L53.9644972,21.3044 L53.9644972,21.3044 Z"></path>
        <path d="M79.9771073,13.47788 C79.8248136,10.93638 78.1144972,9.7786 76.1528701,9.7786 C73.9139435,9.7786 72.429209,11.31364 72.2532655,13.47788 L79.9771073,13.47788 L79.9771073,13.47788 Z M76.1780791,7.9417 C79.8497627,7.9417 82.1648362,10.58382 82.1648362,14.1323 C82.1648362,14.53556 82.1404068,14.88734 82.1151977,15.1385 L72.2036271,15.1385 C72.2280565,17.95742 74.0147797,19.64378 76.4798079,19.64378 C77.9380339,19.64378 79.2715141,19.06476 80.2029492,17.88202 L81.6357062,19.19086 C80.4041017,20.6752 78.6436271,21.60652 76.3532429,21.60652 C72.3044633,21.60652 69.9652203,18.68698 69.9652203,14.81194 C69.9652203,10.93638 72.2795141,7.9417 76.1780791,7.9417 L76.1780791,7.9417 Z"></path>
        <path d="M91.4521582,10.38284 C91.0761017,10.15664 90.4463955,10.03028 89.893096,10.03028 C88.0320452,10.03028 86.3968362,11.54036 86.3968362,14.58496 L86.3968362,21.3044 L84.283435,21.3044 L84.283435,8.24356 L86.3968362,8.24356 L86.3968362,10.15664 C87.126339,8.89746 88.584565,7.99214 90.1950847,7.99214 C90.9752655,7.99214 91.6288814,8.21782 91.9560791,8.4448 L91.4521582,10.38284"></path>
        <path d="M63.3503164,18.11732 L59.8491186,8.38942 L57.4350282,8.38942 L62.0319096,20.93416 L61.4825085,22.43254 C61.2543277,22.97984 61.0035367,23.35658 60.7355932,23.55054 C60.4759661,23.73878 60.0318192,23.83394 59.4130282,23.83394 L58.6050395,23.83394 L58.6050395,25.77432 L59.6638192,25.77432 C60.8223955,25.77432 61.7663051,25.4735 62.4690395,24.8807 C62.8778418,24.53308 63.2229718,24.02634 63.4916949,23.37426 L69.6060565,8.38942 L67.2982599,8.38942 L63.3503164,18.11732"></path>
        <path d="M21.6124633,20.17938 C21.6124633,21.00332 20.9175254,21.6996 20.0936836,21.6996 L16.2460565,21.6996 C8.14485876,21.6996 2.77767232,16.33034 2.77767232,8.22588 L2.77767232,4.37632 C2.77767232,3.5529 3.4739096,2.85662 4.29671186,2.85662 L20.0936836,2.85662 C20.9175254,2.85662 21.6124633,3.5529 21.6124633,4.37632 L21.6124633,20.17938 L21.6124633,20.17938 Z M20.0936836,0.12116 L4.29671186,0.12116 C1.9579887,0.12116 0.043920904,2.0358 0.043920904,4.37632 L0.043920904,20.17938 C0.043920904,22.51964 1.9579887,24.43454 4.29671186,24.43454 L20.0936836,24.43454 C22.4329266,24.43454 24.3469944,22.51964 24.3469944,20.17938 L24.3469944,4.37632 C24.3469944,2.0358 22.4329266,0.12116 20.0936836,0.12116 L20.0936836,0.12116 Z"></path>
    </g>
</svg>