<?xml version="1.0" encoding="UTF-8" ?>
<!DOCTYPE svg PUBLIC "-//W3C//DTD SVG 1.1//EN" "http://www.w3.org/Graphics/SVG/1.1/DTD/svg11.dtd">
<svg width="1813pt" height="421pt" viewBox="0 0 1813 421" version="1.1" xmlns="http://www.w3.org/2000/svg">
<g id="#00188fff">
<path fill="#00188f" opacity="1.00" d=" M 1218.50 6.57 C 1225.38 5.13 1232.58 5.51 1239.38 7.23 C 1239.62 12.58 1239.44 17.93 1239.51 23.28 C 1233.13 20.06 1225.04 19.17 1218.63 22.74 C 1213.55 25.60 1211.31 31.48 1210.61 36.98 C 1209.91 44.48 1210.29 52.04 1210.35 59.57 C 1224.65 59.41 1238.95 59.54 1253.25 59.49 C 1253.26 50.75 1253.23 42.01 1253.26 33.27 C 1259.10 31.45 1264.89 29.44 1270.76 27.69 C 1270.74 38.29 1270.75 48.89 1270.76 59.49 C 1279.67 59.52 1288.59 59.47 1297.51 59.52 C 1297.49 64.43 1297.50 69.34 1297.49 74.25 C 1288.59 74.25 1279.69 74.27 1270.79 74.23 C 1270.70 95.14 1270.78 116.05 1270.75 136.96 C 1270.91 142.40 1271.91 148.91 1276.95 152.06 C 1283.31 155.63 1291.45 154.73 1297.54 150.97 C 1297.48 155.89 1297.46 160.81 1297.55 165.73 C 1290.38 169.48 1281.89 169.80 1274.05 168.57 C 1267.06 167.48 1260.43 163.31 1257.20 156.90 C 1254.35 151.40 1253.36 145.13 1253.25 138.99 C 1253.21 117.41 1253.31 95.82 1253.21 74.23 C 1238.89 74.29 1224.57 74.23 1210.25 74.25 C 1210.24 105.09 1210.26 135.92 1210.24 166.75 C 1204.43 166.76 1198.61 166.72 1192.81 166.78 C 1192.67 135.94 1192.79 105.09 1192.75 74.25 C 1186.75 74.25 1180.75 74.26 1174.76 74.24 C 1174.73 69.36 1174.78 64.48 1174.71 59.59 C 1180.68 59.41 1186.67 59.49 1192.66 59.56 C 1193.19 49.50 1191.64 39.17 1194.56 29.36 C 1197.72 18.24 1207.13 9.00 1218.50 6.57 Z" />
<path fill="#00188f" opacity="1.00" d=" M 677.44 13.63 C 684.02 11.45 691.90 15.96 692.42 23.09 C 693.66 30.70 685.74 37.41 678.41 35.42 C 672.33 34.44 668.51 27.87 669.92 22.01 C 670.63 18.14 673.68 14.78 677.44 13.63 Z" />
<path fill="#00188f" opacity="1.00" d=" M 182.67 14.11 C 185.89 14.89 189.10 15.72 192.29 16.65 C 192.19 109.12 192.28 201.58 192.24 294.04 C 190.00 294.79 187.79 295.70 185.46 296.13 C 124.58 301.89 64.52 322.85 15.32 359.56 C 11.59 360.51 10.30 364.90 6.51 365.65 C 6.72 365.95 7.15 366.53 7.36 366.82 C 9.11 365.79 11.07 365.06 12.58 363.67 C 16.24 362.44 19.60 360.51 23.11 358.95 C 63.67 340.71 107.15 329.32 151.20 323.64 C 168.39 321.51 185.71 320.28 203.04 320.53 C 234.36 321.49 265.88 324.49 296.16 332.87 C 298.60 332.23 301.05 331.61 303.50 330.98 C 303.49 289.12 303.52 247.26 303.48 205.40 C 328.58 182.44 354.58 160.24 376.96 134.53 C 379.01 135.63 381.05 136.76 383.05 137.95 C 382.93 210.64 383.04 283.34 383.00 356.04 C 382.98 359.85 383.13 363.67 382.81 367.47 C 379.74 368.11 376.72 370.63 373.54 369.50 C 286.86 339.83 193.04 332.58 102.52 345.77 C 70.76 350.50 39.21 357.37 8.86 367.98 C 7.33 368.38 5.78 368.66 4.20 368.83 C 4.33 359.56 4.18 350.29 4.26 341.02 C 4.10 339.72 5.31 338.93 6.02 338.04 C 60.67 281.03 105.97 215.10 139.73 143.71 C 152.61 116.37 163.70 88.15 172.27 59.15 C 176.55 44.35 180.43 29.38 182.67 14.11 Z" />
<path fill="#00188f" opacity="1.00" d=" M 618.81 16.53 C 626.30 16.51 633.79 16.41 641.29 16.58 C 641.19 66.64 641.28 116.69 641.24 166.75 C 635.24 166.75 629.24 166.76 623.25 166.75 C 623.25 139.86 623.25 112.96 623.25 86.07 C 623.07 69.65 623.34 53.21 624.69 36.84 C 621.93 49.75 615.50 61.37 610.40 73.43 C 596.59 104.54 582.82 135.68 568.95 166.77 C 566.03 166.74 563.12 166.74 560.21 166.79 C 543.12 128.83 526.18 90.81 509.13 52.84 C 506.80 47.74 505.76 42.20 504.26 36.83 C 505.29 48.86 504.95 60.95 505.00 73.01 C 504.99 104.26 505.02 135.51 504.98 166.76 C 499.33 166.75 493.67 166.74 488.02 166.77 C 487.97 116.68 488.01 66.59 488.00 16.50 C 495.77 16.49 503.55 16.52 511.32 16.49 C 527.06 52.19 542.78 87.91 558.47 123.63 C 560.82 128.75 562.45 134.14 564.58 139.35 C 570.78 121.38 579.48 104.45 587.06 87.05 C 597.62 63.53 608.28 40.06 618.81 16.53 Z" />
<path fill="#00188f" opacity="1.00" d=" M 746.52 59.61 C 760.91 55.32 777.10 55.61 790.76 62.20 C 790.76 68.16 790.71 74.13 790.79 80.10 C 781.30 73.53 769.38 70.17 757.91 72.34 C 746.69 74.17 737.22 82.31 732.42 92.43 C 728.06 101.29 727.40 111.44 728.26 121.14 C 729.23 129.96 732.62 138.77 739.10 145.01 C 747.29 153.28 759.84 155.83 771.04 153.89 C 778.15 152.75 784.69 149.41 790.52 145.27 C 790.48 150.84 790.50 156.42 790.50 161.99 C 778.65 168.94 764.29 170.63 750.87 168.51 C 737.08 166.20 724.39 157.63 717.54 145.38 C 709.13 130.84 708.37 112.95 712.26 96.90 C 716.36 79.75 729.46 64.71 746.52 59.61 Z" />
<path fill="#00188f" opacity="1.00" d=" M 910.58 57.81 C 925.12 55.48 941.24 56.72 953.56 65.51 C 965.34 73.81 971.82 87.92 973.36 101.97 C 975.20 117.71 973.41 134.80 964.12 148.10 C 956.92 158.82 945.22 166.25 932.50 168.37 C 917.73 170.78 901.40 169.19 889.05 160.09 C 876.89 151.34 869.84 136.78 868.67 122.03 C 867.22 105.85 869.79 88.27 880.23 75.27 C 887.61 65.79 898.80 59.74 910.58 57.81 M 912.54 72.72 C 901.59 75.01 892.72 83.68 889.16 94.15 C 885.50 105.05 885.29 117.06 887.82 128.24 C 890.33 138.79 897.80 148.38 908.14 152.16 C 916.83 155.33 926.66 155.27 935.38 152.25 C 943.93 149.22 950.32 141.71 953.17 133.23 C 956.53 123.29 956.80 112.50 955.36 102.17 C 954.03 93.10 950.21 83.89 942.77 78.17 C 934.34 71.55 922.73 70.58 912.54 72.72 Z" />
<path fill="#00188f" opacity="1.00" d=" M 995.29 68.29 C 1001.43 61.78 1010.10 58.10 1018.92 57.16 C 1028.87 56.06 1039.29 57.36 1048.29 61.90 C 1048.20 67.71 1048.27 73.52 1048.24 79.32 C 1039.76 73.46 1029.14 70.53 1018.88 72.14 C 1013.10 73.09 1007.33 76.89 1005.72 82.78 C 1004.27 88.52 1005.86 95.52 1011.07 98.88 C 1021.47 105.94 1034.42 108.56 1044.00 116.96 C 1056.32 127.04 1056.26 148.01 1044.75 158.68 C 1037.21 166.18 1026.31 169.17 1015.92 169.31 C 1006.02 169.69 995.89 167.86 987.22 162.94 C 987.30 156.68 987.17 150.41 987.30 144.15 C 995.53 151.01 1006.20 154.99 1016.96 154.49 C 1021.90 154.21 1027.22 153.40 1031.14 150.10 C 1036.99 144.84 1036.88 134.29 1030.75 129.28 C 1019.92 120.75 1005.43 118.29 995.31 108.72 C 989.50 103.56 987.21 95.51 987.46 87.95 C 987.23 80.67 990.15 73.43 995.29 68.29 Z" />
<path fill="#00188f" opacity="1.00" d=" M 1106.58 57.77 C 1120.87 55.56 1136.64 56.68 1148.84 65.15 C 1160.34 73.01 1167.05 86.37 1168.90 99.95 C 1170.89 114.66 1169.92 130.44 1162.66 143.68 C 1155.89 156.28 1143.37 165.63 1129.26 168.18 C 1113.13 171.12 1094.85 169.06 1082.11 157.90 C 1069.69 147.51 1063.83 130.95 1064.23 115.03 C 1063.80 100.50 1067.41 85.23 1077.06 74.01 C 1084.45 65.16 1095.27 59.59 1106.58 57.77 M 1110.28 72.32 C 1100.17 73.90 1091.21 80.69 1086.79 89.90 C 1081.59 100.79 1081.03 113.41 1082.95 125.17 C 1084.60 134.42 1089.43 143.41 1097.34 148.74 C 1105.34 154.24 1115.66 155.45 1125.07 153.85 C 1133.15 152.60 1140.79 148.00 1145.17 141.01 C 1151.22 131.57 1152.38 119.91 1151.88 108.95 C 1151.28 98.60 1148.63 87.55 1140.85 80.18 C 1132.98 72.30 1120.87 70.59 1110.28 72.32 Z" />
<path fill="#00188f" opacity="1.00" d=" M 843.63 60.74 C 850.52 56.78 859.00 56.82 866.51 58.84 C 866.51 64.86 866.47 70.88 866.53 76.91 C 860.41 73.34 852.67 72.50 846.01 74.95 C 840.03 77.20 835.72 82.39 832.90 87.94 C 829.52 94.77 828.10 102.43 827.99 110.01 C 827.99 128.93 828.02 147.85 827.98 166.76 C 822.18 166.76 816.38 166.70 810.58 166.80 C 810.39 131.04 810.55 95.27 810.50 59.50 C 816.33 59.50 822.16 59.50 828.00 59.50 C 828.05 66.85 827.87 74.19 828.12 81.53 C 830.73 73.15 835.81 65.12 843.63 60.74 Z" />
<path fill="#00188f" opacity="1.00" d=" M 672.00 59.50 C 677.83 59.50 683.66 59.50 689.49 59.50 C 689.47 95.26 689.57 131.03 689.44 166.79 C 683.63 166.72 677.82 166.75 672.02 166.76 C 671.98 131.01 672.01 95.26 672.00 59.50 Z" />
<path fill="#00188f" opacity="1.00" d=" M 264.32 126.31 C 273.46 109.92 281.69 93.01 288.75 75.62 C 291.41 76.51 294.08 77.40 296.75 78.30 C 296.79 159.86 296.68 241.43 296.80 323.00 C 291.59 323.84 286.23 325.85 280.99 324.11 C 250.34 317.73 218.88 315.61 187.62 316.40 C 129.37 317.99 70.94 331.65 19.63 359.71 C 17.47 360.89 15.41 362.33 12.94 362.86 C 15.63 359.16 19.88 357.14 23.55 354.60 C 74.57 322.67 134.06 305.15 194.00 301.59 C 195.75 301.59 197.24 300.59 198.76 299.84 C 198.74 271.60 198.74 243.36 198.76 215.11 C 224.60 188.74 246.21 158.42 264.32 126.31 Z" />
<path fill="#00188f" opacity="1.00" d=" M 1129.42 213.64 C 1133.55 212.55 1138.44 213.22 1141.42 216.52 C 1145.99 221.01 1145.51 229.53 1140.24 233.29 C 1134.87 237.69 1125.47 235.93 1122.77 229.32 C 1119.91 223.45 1123.08 215.52 1129.42 213.64 Z" />
<path fill="#00188f" opacity="1.00" d=" M 1428.68 221.77 C 1442.92 214.60 1459.32 212.93 1475.03 214.48 C 1483.23 215.16 1491.37 216.93 1499.00 220.07 C 1499.00 226.41 1498.98 232.75 1499.01 239.10 C 1480.93 229.12 1458.05 226.69 1438.89 235.03 C 1423.99 241.46 1413.27 255.34 1408.82 270.73 C 1403.53 289.91 1404.49 311.69 1414.86 329.05 C 1422.81 342.46 1437.45 351.28 1452.89 352.77 C 1468.71 354.31 1485.31 351.46 1498.97 343.09 C 1499.00 348.97 1499.03 354.86 1498.96 360.75 C 1487.80 366.29 1475.37 368.83 1462.98 369.22 C 1446.83 370.10 1430.04 366.83 1416.59 357.49 C 1401.40 347.32 1391.87 330.23 1388.66 312.48 C 1385.14 292.89 1387.10 271.93 1396.20 254.06 C 1403.11 240.12 1414.65 228.54 1428.68 221.77 Z" />
<path fill="#00188f" opacity="1.00" d=" M 489.02 216.23 C 504.33 216.31 519.64 216.16 534.95 216.31 C 552.97 216.88 571.92 220.33 586.50 231.64 C 598.85 241.08 605.90 255.98 608.28 271.09 C 611.30 290.17 610.06 310.65 600.79 327.93 C 594.55 340.07 584.41 350.02 572.35 356.37 C 559.09 363.51 543.90 366.47 528.93 366.51 C 515.62 366.49 502.31 366.51 489.00 366.50 C 489.02 316.41 488.97 266.32 489.02 216.23 M 506.72 232.57 C 506.79 271.79 506.73 311.02 506.76 350.24 C 522.70 349.85 539.18 351.91 554.55 346.54 C 569.84 341.80 582.50 329.44 587.40 314.17 C 592.06 299.61 592.17 283.67 588.48 268.89 C 585.13 255.19 575.21 243.22 562.03 238.00 C 544.56 230.52 525.20 232.81 506.72 232.57 Z" />
<path fill="#00188f" opacity="1.00" d=" M 1523.74 216.54 C 1539.17 216.45 1554.60 216.52 1570.03 216.50 C 1580.23 216.68 1590.83 218.75 1599.25 224.84 C 1606.34 229.75 1611.40 237.40 1613.27 245.82 C 1615.37 255.43 1614.68 265.75 1610.79 274.83 C 1605.37 286.90 1593.74 295.63 1580.84 298.20 C 1588.56 301.52 1593.02 309.11 1596.52 316.34 C 1604.40 333.18 1612.65 349.85 1620.37 366.76 C 1613.28 366.75 1606.19 366.74 1599.12 366.76 C 1593.78 354.48 1588.41 342.22 1583.09 329.93 C 1579.97 323.00 1577.49 315.50 1572.10 309.93 C 1568.29 305.70 1562.75 302.89 1557.00 302.99 C 1551.80 303.00 1546.62 302.93 1541.44 303.09 C 1541.51 324.33 1541.59 345.58 1541.41 366.82 C 1535.54 366.70 1529.69 366.73 1523.84 366.80 C 1523.62 316.71 1523.82 266.62 1523.74 216.54 M 1541.51 232.76 C 1541.52 250.76 1541.44 268.77 1541.55 286.78 C 1548.66 286.73 1555.79 286.75 1562.91 286.76 C 1571.04 287.11 1579.50 285.09 1585.85 279.82 C 1596.09 271.69 1598.73 255.87 1592.37 244.61 C 1587.63 236.52 1577.91 233.10 1568.96 232.79 C 1559.81 232.69 1550.66 232.78 1541.51 232.76 Z" />
<path fill="#00188f" opacity="1.00" d=" M 1772.19 216.44 C 1779.56 216.64 1786.94 216.32 1794.32 216.62 C 1794.15 266.66 1794.30 316.71 1794.24 366.75 C 1788.35 366.78 1782.47 366.68 1776.60 366.82 C 1776.37 340.57 1776.56 314.31 1776.50 288.06 C 1776.58 276.06 1776.22 264.04 1776.91 252.05 C 1777.08 246.93 1777.80 241.84 1777.66 236.72 C 1776.05 247.07 1771.03 256.36 1766.94 265.87 C 1752.09 299.47 1737.05 332.99 1722.31 366.64 C 1719.33 366.77 1716.35 366.78 1713.39 366.76 C 1696.34 328.73 1679.31 290.69 1662.28 252.66 C 1659.97 247.59 1659.03 242.07 1657.34 236.80 C 1658.49 247.49 1658.21 258.26 1658.25 268.99 C 1658.22 301.58 1658.31 334.18 1658.20 366.77 C 1652.47 366.73 1646.74 366.75 1641.02 366.76 C 1640.98 316.68 1641.01 266.59 1641.00 216.50 C 1648.79 216.46 1656.59 216.59 1664.39 216.43 C 1679.94 251.01 1694.97 285.85 1710.34 320.52 C 1713.03 326.68 1715.64 332.89 1717.49 339.36 C 1725.12 319.29 1734.58 299.98 1743.24 280.33 C 1752.95 259.06 1762.31 237.63 1772.19 216.44 Z" />
<path fill="#00188f" opacity="1.00" d=" M 768.56 258.37 C 778.55 255.82 789.74 256.05 798.98 260.98 C 805.94 264.65 810.76 271.39 813.49 278.63 C 816.27 286.07 817.01 294.10 817.01 301.99 C 816.97 323.58 817.04 345.17 816.98 366.77 C 811.17 366.75 805.37 366.71 799.57 366.80 C 799.38 344.91 799.60 323.02 799.46 301.14 C 798.94 293.09 797.44 284.37 791.71 278.28 C 785.34 271.30 774.62 270.44 766.01 273.04 C 753.49 277.14 745.64 290.16 745.30 302.97 C 745.15 324.23 745.34 345.50 745.21 366.77 C 739.39 366.73 733.57 366.76 727.76 366.75 C 727.73 331.01 727.77 295.27 727.74 259.53 C 733.59 259.50 739.44 259.43 745.29 259.58 C 745.20 265.48 745.29 271.39 745.22 277.30 C 750.45 268.49 758.51 261.09 768.56 258.37 Z" />
<path fill="#00188f" opacity="1.00" d=" M 861.93 259.86 C 873.06 256.67 885.09 255.46 896.34 258.75 C 903.56 260.82 910.16 265.52 913.83 272.15 C 917.63 278.75 919.01 286.47 919.25 294.01 C 919.25 318.25 919.26 342.50 919.24 366.75 C 913.51 366.76 907.78 366.72 902.05 366.79 C 901.93 361.18 902.05 355.58 901.97 349.98 C 897.70 356.81 892.04 363.11 884.50 366.31 C 876.13 369.93 866.60 370.05 857.79 368.21 C 847.50 365.87 838.20 358.09 835.63 347.63 C 833.39 338.24 834.16 327.70 839.31 319.35 C 843.28 312.84 850.06 308.55 857.16 306.14 C 864.20 303.57 871.72 302.91 879.09 301.85 C 886.74 300.78 894.38 299.68 902.04 298.65 C 901.71 291.04 900.74 282.59 895.02 276.97 C 890.05 272.12 882.66 271.26 876.05 271.84 C 864.60 272.59 853.71 277.52 845.00 284.87 C 844.97 278.90 845.07 272.94 844.93 266.98 C 849.99 263.37 856.05 261.61 861.93 259.86 M 872.82 316.81 C 866.88 318.04 860.34 319.44 856.08 324.11 C 850.03 332.10 850.86 345.69 860.01 351.09 C 871.90 358.29 888.74 353.73 896.25 342.25 C 902.57 333.75 902.18 322.72 901.99 312.67 C 892.25 313.96 882.52 315.32 872.82 316.81 Z" />
<path fill="#00188f" opacity="1.00" d=" M 978.73 260.85 C 990.48 254.86 1005.84 255.21 1016.46 263.45 C 1021.52 267.14 1024.75 272.70 1026.97 278.45 C 1031.10 271.37 1036.55 264.75 1044.00 261.00 C 1053.85 255.99 1065.73 255.60 1076.19 258.85 C 1084.39 261.47 1090.86 268.13 1093.91 276.10 C 1098.88 288.43 1097.87 301.99 1098.00 314.99 C 1097.99 332.25 1098.02 349.51 1097.98 366.76 C 1092.12 366.68 1086.26 366.90 1080.41 366.62 C 1080.62 350.06 1080.44 333.50 1080.50 316.95 C 1080.36 306.32 1081.31 295.36 1077.83 285.12 C 1076.17 280.02 1072.52 275.40 1067.38 273.53 C 1059.81 270.70 1050.58 270.86 1043.96 275.90 C 1037.05 281.22 1032.56 289.38 1031.11 297.93 C 1030.20 302.55 1030.55 307.28 1030.50 311.96 C 1030.47 330.23 1030.55 348.50 1030.46 366.77 C 1024.65 366.74 1018.83 366.74 1013.02 366.77 C 1012.97 347.52 1013.02 328.28 1013.00 309.03 C 1013.12 300.00 1013.26 290.40 1008.73 282.27 C 1002.17 269.97 983.36 268.27 973.58 277.58 C 966.29 284.24 963.22 294.33 963.02 303.97 C 962.96 324.90 963.04 345.83 962.98 366.77 C 957.13 366.69 951.28 366.87 945.44 366.65 C 945.59 330.94 945.45 295.22 945.50 259.50 C 951.33 259.49 957.16 259.50 963.00 259.50 C 963.01 265.13 962.96 270.76 963.03 276.40 C 966.97 270.11 971.97 264.19 978.73 260.85 Z" />
<path fill="#00188f" opacity="1.00" d=" M 1194.77 260.94 C 1210.13 255.13 1228.05 255.12 1243.00 262.25 C 1242.99 268.24 1243.00 274.23 1243.00 280.22 C 1235.37 275.02 1226.37 271.54 1217.04 271.72 C 1207.76 271.58 1198.38 275.12 1191.95 281.88 C 1183.75 289.96 1179.98 301.67 1179.97 313.01 C 1179.71 322.87 1181.77 333.17 1187.79 341.18 C 1193.22 348.62 1201.97 353.30 1211.09 354.20 C 1222.35 355.73 1233.80 351.86 1242.76 345.10 C 1242.74 350.68 1242.73 356.25 1242.78 361.83 C 1231.48 368.63 1217.79 370.40 1204.86 368.82 C 1191.06 367.01 1178.05 359.12 1170.71 347.20 C 1161.21 332.31 1160.26 313.38 1164.40 296.58 C 1168.27 280.86 1179.62 266.97 1194.77 260.94 Z" />
<path fill="#00188f" opacity="1.00" d=" M 1283.54 257.67 C 1294.52 255.73 1306.19 256.95 1316.29 261.78 C 1316.20 267.64 1316.27 273.50 1316.24 279.36 C 1308.15 273.51 1297.87 270.84 1287.97 271.97 C 1282.57 272.67 1277.11 275.57 1274.61 280.58 C 1272.63 284.78 1272.88 289.87 1274.86 294.04 C 1276.87 298.32 1281.42 300.42 1285.36 302.57 C 1294.81 307.21 1305.22 310.55 1313.05 317.89 C 1322.23 326.10 1323.48 340.63 1318.30 351.35 C 1313.27 361.14 1302.70 366.96 1292.10 368.60 C 1279.64 370.41 1266.27 369.23 1255.20 362.86 C 1255.29 356.60 1255.24 350.34 1255.23 344.09 C 1262.07 349.57 1270.29 353.56 1279.12 354.29 C 1285.49 354.81 1292.45 354.56 1298.00 351.00 C 1303.74 347.26 1304.91 338.91 1301.90 333.07 C 1299.84 329.13 1295.72 327.02 1292.04 324.89 C 1283.32 319.87 1273.36 317.03 1265.46 310.60 C 1254.88 302.67 1252.88 286.82 1258.31 275.34 C 1263.15 265.76 1273.19 259.60 1283.54 257.67 Z" />
<path fill="#00188f" opacity="1.00" d=" M 614.03 259.50 C 620.51 259.77 627.25 258.98 633.57 259.87 C 640.58 279.43 647.32 299.11 654.25 318.71 C 657.74 329.23 662.06 339.49 664.58 350.31 C 667.57 339.58 671.86 329.29 675.59 318.82 C 682.84 299.05 690.18 279.32 697.35 259.53 C 703.41 259.46 709.47 259.52 715.54 259.49 C 699.27 300.54 683.00 341.60 666.71 382.64 C 662.27 394.08 656.05 405.71 645.43 412.50 C 637.29 417.79 626.99 417.84 617.78 415.91 C 617.72 410.68 617.76 405.45 617.75 400.22 C 623.22 401.89 629.31 403.05 634.78 400.78 C 640.82 398.47 644.70 392.80 647.17 387.09 C 650.09 380.18 653.04 373.28 655.85 366.32 C 641.87 330.73 627.96 295.11 614.03 259.50 Z" />
<path fill="#00188f" opacity="1.00" d=" M 1124.20 259.57 C 1129.96 259.43 1135.73 259.52 1141.50 259.50 C 1141.55 295.22 1141.41 330.93 1141.57 366.65 C 1135.79 366.86 1130.02 366.71 1124.25 366.75 C 1124.22 331.02 1124.31 295.29 1124.20 259.57 Z" />
</g>
</svg>
