<?xml version="1.0" encoding="UTF-8" ?>
<!DOCTYPE svg PUBLIC "-//W3C//DTD SVG 1.1//EN" "http://www.w3.org/Graphics/SVG/1.1/DTD/svg11.dtd">
<svg width="740pt" height="134pt" viewBox="0 0 740 134" version="1.1" xmlns="http://www.w3.org/2000/svg">
<g id="#338899ff">
<path fill="#338899" opacity="1.00" d=" M 76.56 1.82 C 94.71 -0.54 113.79 1.55 130.27 9.86 C 143.13 16.24 154.31 26.71 159.95 40.07 C 166.21 54.47 165.15 71.48 158.34 85.50 C 150.30 102.18 135.65 115.01 119.14 122.98 C 97.59 133.34 72.26 136.07 49.15 129.70 C 32.08 124.97 15.94 114.42 7.33 98.62 C 0.70 86.82 -0.69 72.46 2.66 59.43 C 5.93 46.86 13.34 35.63 22.76 26.80 C 37.41 12.97 56.70 4.55 76.56 1.82 M 81.40 22.54 C 67.04 24.98 54.11 34.62 47.73 47.73 C 43.15 56.54 42.06 66.82 43.53 76.56 C 46.00 91.19 55.94 104.30 69.38 110.59 C 78.05 114.92 88.10 115.90 97.61 114.46 C 111.99 112.02 124.92 102.35 131.29 89.23 C 135.86 80.42 136.94 70.14 135.46 60.41 C 132.99 45.79 123.05 32.69 109.61 26.40 C 100.94 22.07 90.91 21.10 81.40 22.54 Z" />
</g>
<g id="#000000ff">
<path fill="#000000" opacity="1.00" d=" M 607.07 12.13 C 612.10 11.06 617.11 9.87 622.15 8.85 C 623.56 17.50 623.22 26.29 623.25 35.02 C 623.24 52.36 623.27 69.70 623.23 87.04 C 623.28 89.58 623.27 92.23 624.30 94.60 C 625.16 96.62 627.67 96.21 629.45 96.64 C 630.21 99.58 630.97 102.51 631.74 105.45 C 625.94 107.05 619.00 107.98 613.80 104.29 C 608.84 100.51 608.42 93.77 608.29 88.04 C 608.19 72.70 608.28 57.36 608.25 42.02 C 608.14 32.05 608.78 22.01 607.07 12.13 Z" />
<path fill="#000000" opacity="1.00" d=" M 644.42 10.59 C 650.62 7.85 658.19 13.18 657.55 19.97 C 657.84 27.39 648.18 32.27 642.38 27.68 C 636.35 23.63 637.48 13.02 644.42 10.59 Z" />
<path fill="#000000" opacity="1.00" d=" M 214.00 14.75 C 219.71 14.75 225.42 14.75 231.13 14.75 C 238.69 30.19 246.39 45.57 253.95 61.01 C 257.21 67.95 259.91 75.15 262.34 82.42 C 261.13 69.33 260.83 56.18 261.00 43.04 C 260.67 33.61 260.74 24.18 260.75 14.75 C 265.58 14.75 270.41 14.75 275.25 14.75 C 275.25 45.00 275.25 75.25 275.25 105.50 C 269.90 105.50 264.56 105.50 259.22 105.50 C 248.55 82.34 236.59 59.74 227.35 35.95 C 228.77 54.58 228.17 73.29 228.74 91.95 C 228.78 96.47 228.74 100.99 228.75 105.50 C 223.83 105.50 218.92 105.50 214.00 105.50 C 214.00 75.25 214.00 45.00 214.00 14.75 Z" />
<path fill="#000000" opacity="1.00" d=" M 475.50 105.50 C 475.50 75.25 475.49 45.00 475.50 14.75 C 485.32 14.76 495.14 14.74 504.96 14.74 C 512.85 14.80 521.19 17.40 526.53 23.46 C 535.21 33.61 534.37 50.49 524.90 59.87 C 521.19 63.59 516.02 65.36 510.87 65.72 C 516.12 70.80 519.99 77.07 523.87 83.20 C 528.39 90.63 532.98 98.02 537.45 105.48 C 531.39 105.52 525.35 105.49 519.30 105.51 C 513.37 95.28 508.15 84.58 501.14 75.01 C 498.29 71.33 495.28 67.25 490.56 65.95 C 490.43 79.14 490.54 92.32 490.50 105.50 C 485.50 105.50 480.50 105.50 475.50 105.50 M 490.50 27.01 C 490.50 36.50 490.50 46.00 490.50 55.49 C 496.43 55.42 502.52 55.96 508.28 54.26 C 517.13 51.19 519.15 38.24 513.52 31.49 C 507.36 25.79 498.20 27.22 490.50 27.01 Z" />
<path fill="#000000" opacity="1.00" d=" M 679.47 43.63 C 689.50 34.99 706.16 34.86 715.61 44.50 C 713.18 47.77 710.73 51.02 708.29 54.27 C 705.02 51.73 701.38 48.95 696.99 49.21 C 691.77 49.06 687.28 53.11 685.96 58.01 C 683.68 66.01 683.74 74.56 684.69 82.76 C 685.33 88.21 688.33 94.20 694.12 95.50 C 700.37 97.15 706.16 93.33 710.56 89.31 C 712.81 92.34 715.16 95.32 717.45 98.33 C 712.32 103.45 705.49 107.08 698.11 107.02 C 690.08 107.62 681.45 105.27 676.02 99.05 C 669.32 91.43 667.70 80.78 668.00 70.97 C 668.27 60.92 671.55 50.29 679.47 43.63 Z" />
<path fill="#000000" opacity="1.00" d=" M 294.26 46.19 C 304.57 33.71 326.90 34.49 335.99 48.02 C 341.34 56.34 341.30 66.70 341.25 76.25 C 328.13 76.26 315.00 76.25 301.88 76.25 C 302.04 81.56 302.74 87.38 306.53 91.43 C 310.32 95.67 316.52 96.40 321.85 95.58 C 326.69 94.90 330.90 92.21 334.69 89.27 C 336.55 92.33 338.48 95.35 340.39 98.39 C 333.82 103.73 325.59 107.28 317.01 107.05 C 308.08 107.49 298.79 103.91 293.30 96.69 C 286.50 88.08 285.28 76.47 286.25 65.89 C 286.81 58.70 289.37 51.58 294.26 46.19 M 306.55 51.60 C 302.92 55.23 302.35 60.65 301.97 65.51 C 310.12 65.48 318.27 65.52 326.42 65.48 C 325.88 60.55 325.35 55.01 321.54 51.38 C 317.55 47.38 310.47 47.64 306.55 51.60 Z" />
<path fill="#000000" opacity="1.00" d=" M 347.46 39.88 C 352.30 39.24 357.13 38.54 361.98 37.91 C 365.52 54.52 369.80 70.99 372.52 87.77 C 375.28 71.19 380.65 55.23 384.87 39.00 C 389.64 39.00 394.41 39.00 399.19 39.00 C 403.12 55.33 407.73 71.51 410.87 88.02 C 413.37 71.52 417.53 55.33 420.93 39.00 C 425.98 39.00 431.03 39.00 436.09 39.00 C 429.90 61.26 423.61 83.49 417.41 105.74 C 412.86 105.75 408.31 105.75 403.77 105.74 C 399.67 89.53 394.82 73.49 391.47 57.10 C 388.21 73.52 383.26 89.53 379.16 105.75 C 374.61 105.75 370.06 105.75 365.52 105.75 C 359.51 83.79 353.49 61.83 347.46 39.88 Z" />
<path fill="#000000" opacity="1.00" d=" M 549.19 46.23 C 559.51 33.71 581.84 34.47 590.95 48.04 C 596.33 56.34 596.24 66.72 596.26 76.25 C 583.13 76.26 570.01 76.25 556.88 76.25 C 557.05 81.57 557.65 87.48 561.57 91.48 C 565.37 95.68 571.53 96.40 576.85 95.58 C 581.65 94.87 585.87 92.25 589.60 89.27 C 591.49 92.32 593.44 95.33 595.37 98.36 C 588.83 103.78 580.53 107.25 571.95 107.05 C 563.75 107.41 555.24 104.49 549.67 98.31 C 542.89 91.05 540.71 80.70 540.97 71.03 C 540.94 62.20 543.08 52.90 549.19 46.23 M 561.07 52.06 C 557.77 55.70 557.37 60.84 556.88 65.49 C 565.05 65.50 573.21 65.51 581.38 65.48 C 580.84 60.56 580.28 55.08 576.56 51.41 C 572.43 47.19 564.91 47.69 561.07 52.06 Z" />
<path fill="#000000" opacity="1.00" d=" M 640.50 40.02 C 645.41 39.13 650.32 38.23 655.24 37.37 C 655.27 60.08 655.24 82.79 655.25 105.50 C 650.33 105.50 645.41 105.50 640.50 105.50 C 640.50 83.67 640.50 61.85 640.50 40.02 Z" />
<path fill="#000000" opacity="1.00" d=" M 726.43 87.64 C 732.86 85.30 740.20 91.26 739.02 98.07 C 738.90 105.67 728.76 109.58 723.21 104.74 C 717.29 100.27 719.12 89.53 726.43 87.64 M 726.23 90.11 C 722.92 91.80 721.25 96.08 722.53 99.57 C 723.68 103.30 728.17 105.98 731.90 104.20 C 736.03 103.16 737.66 97.77 736.11 94.13 C 734.79 90.24 729.90 88.20 726.23 90.11 Z" />
<path fill="#000000" opacity="1.00" d=" M 726.01 91.41 C 728.38 91.81 731.72 90.57 733.14 93.13 C 733.78 95.03 732.62 96.73 731.67 98.27 C 732.16 99.37 733.46 100.41 732.70 101.70 C 730.42 103.52 729.61 99.01 728.27 97.67 C 728.25 99.28 728.24 100.89 728.23 102.51 C 727.67 102.51 726.56 102.51 726.01 102.50 C 725.99 98.81 725.99 95.11 726.01 91.41 M 728.43 92.93 C 728.39 93.80 728.31 95.54 728.26 96.42 C 729.27 95.97 730.27 95.50 731.26 95.00 C 730.40 94.19 729.41 93.56 728.43 92.93 Z" />
</g>
<g id="#99ddddff">
<path fill="#99dddd" opacity="1.00" d=" M 81.40 22.54 C 90.91 21.10 100.94 22.07 109.61 26.40 C 123.05 32.69 132.99 45.79 135.46 60.41 C 136.94 70.14 135.86 80.42 131.29 89.23 C 124.92 102.35 111.99 112.02 97.61 114.46 C 88.10 115.90 78.05 114.92 69.38 110.59 C 55.94 104.30 46.00 91.19 43.53 76.56 C 42.06 66.82 43.15 56.54 47.73 47.73 C 54.11 34.62 67.04 24.98 81.40 22.54 M 77.47 39.61 C 63.73 41.76 53.04 55.26 54.25 69.14 C 54.84 84.78 70.42 97.72 85.91 95.27 C 101.09 93.66 112.92 78.11 110.15 63.04 C 108.17 47.97 92.43 36.55 77.47 39.61 Z" />
</g>
</svg>
