<?xml version="1.0" encoding="UTF-8" ?>
<!DOCTYPE svg PUBLIC "-//W3C//DTD SVG 1.1//EN" "http://www.w3.org/Graphics/SVG/1.1/DTD/svg11.dtd">
<svg width="531pt" height="184pt" viewBox="0 0 531 184" version="1.1" xmlns="http://www.w3.org/2000/svg">
<g id="#dc3c03ff">
<path fill="#dc3c03" opacity="1.00" d=" M 42.54 62.61 C 60.28 55.93 78.00 49.16 95.81 42.65 C 105.40 45.63 115.05 48.37 124.73 51.02 C 124.92 78.46 124.72 105.90 124.83 133.33 C 116.17 135.78 107.47 138.10 98.82 140.59 C 97.24 140.97 95.53 141.73 93.94 140.90 C 79.89 135.69 65.84 130.47 51.78 125.30 C 48.60 124.24 45.50 122.96 42.54 121.40 C 42.59 101.81 42.59 82.21 42.54 62.61 M 60.60 66.61 C 60.60 82.69 60.64 98.78 60.58 114.86 C 54.93 117.21 49.05 119.03 43.59 121.81 C 60.82 124.68 78.21 126.53 95.48 129.25 C 95.50 105.56 95.50 81.88 95.48 58.20 C 83.86 61.07 72.20 63.72 60.60 66.61 Z" />
<path fill="#dc3c03" opacity="1.00" d=" M 225.52 62.46 C 229.12 58.10 235.16 57.77 240.33 58.66 C 240.35 60.68 240.37 62.71 240.40 64.74 C 237.08 64.14 232.60 63.15 230.37 66.51 C 227.94 70.34 228.97 75.16 228.76 79.45 C 234.26 79.47 239.76 79.47 245.26 79.45 C 245.30 73.73 244.40 67.14 248.65 62.56 C 252.25 58.14 258.33 57.74 263.55 58.65 C 263.58 60.68 263.60 62.71 263.64 64.75 C 260.33 64.16 255.82 63.13 253.61 66.48 C 251.20 70.35 252.48 75.17 252.17 79.47 C 255.44 79.46 258.70 79.45 261.97 79.45 C 261.93 81.40 261.90 83.35 261.89 85.30 C 258.64 85.28 255.40 85.27 252.17 85.27 C 252.19 97.39 252.16 109.51 252.18 121.63 C 249.86 121.65 247.55 121.67 245.24 121.68 C 245.29 109.55 245.24 97.43 245.26 85.30 C 239.76 85.27 234.26 85.27 228.75 85.30 C 228.78 97.42 228.73 109.55 228.78 121.67 C 226.56 121.67 224.35 121.67 222.14 121.66 C 222.20 109.55 222.14 97.44 222.17 85.33 C 219.69 85.29 217.21 85.27 214.74 85.26 C 214.73 83.33 214.72 81.41 214.72 79.48 C 217.20 79.47 219.69 79.45 222.17 79.43 C 222.26 73.69 221.12 67.00 225.52 62.46 Z" />
<path fill="#dc3c03" opacity="1.00" d=" M 268.02 67.02 C 265.64 63.80 268.57 59.97 272.03 59.44 C 274.04 60.40 275.61 61.95 276.55 63.98 C 276.08 68.02 270.75 70.64 268.02 67.02 Z" />
<path fill="#dc3c03" opacity="1.00" d=" M 173.60 62.90 C 182.16 60.35 192.12 61.12 199.40 66.61 C 206.69 71.98 210.31 81.19 210.44 90.05 C 210.73 98.08 208.96 106.50 203.95 112.95 C 193.91 125.84 171.79 126.19 161.37 113.60 C 156.62 107.90 154.42 100.35 154.54 93.00 C 154.38 85.56 156.25 77.88 160.74 71.85 C 163.87 67.54 168.57 64.54 173.60 62.90 M 176.44 68.72 C 171.60 70.22 167.50 73.72 165.15 78.19 C 161.07 85.81 160.76 95.19 163.67 103.27 C 165.79 109.24 170.77 114.31 177.01 115.83 C 184.29 117.65 192.93 115.84 197.80 109.83 C 201.97 104.91 203.15 98.25 203.27 91.99 C 203.07 85.76 201.89 79.14 197.75 74.24 C 192.76 68.10 183.77 66.43 176.44 68.72 Z" />
<path fill="#dc3c03" opacity="1.00" d=" M 374.62 64.82 C 380.25 61.83 386.88 60.76 393.15 62.04 C 398.17 63.11 402.87 66.82 404.10 71.96 C 405.18 76.74 404.36 82.25 400.99 85.98 C 398.75 88.50 395.55 89.79 392.50 91.00 C 397.95 91.12 403.30 94.29 405.56 99.33 C 408.37 106.34 405.74 115.23 399.19 119.21 C 391.30 124.18 380.80 123.68 372.51 119.91 C 372.44 117.39 372.43 114.87 372.40 112.35 C 378.46 116.95 387.16 118.50 394.13 115.17 C 401.00 111.93 401.74 100.82 395.35 96.74 C 390.32 93.46 384.05 94.23 378.35 94.15 C 378.30 92.20 378.26 90.24 378.24 88.29 C 383.17 88.26 388.49 88.65 392.95 86.13 C 397.95 83.38 398.80 76.30 396.25 71.60 C 394.02 67.77 389.09 67.02 385.04 67.32 C 381.19 67.52 377.73 69.38 374.59 71.46 C 374.61 69.25 374.62 67.03 374.62 64.82 Z" />
<path fill="#dc3c03" opacity="1.00" d=" M 427.31 64.27 C 433.38 60.61 440.95 61.06 447.55 62.92 C 447.58 65.14 447.59 67.37 447.61 69.59 C 441.71 66.68 433.86 65.99 428.62 70.63 C 422.38 76.26 420.69 85.16 420.61 93.21 C 422.23 90.70 423.92 88.04 426.63 86.56 C 433.73 82.65 443.85 84.74 448.25 91.74 C 453.58 100.19 451.96 112.71 444.01 119.01 C 439.52 122.66 433.26 123.48 427.73 122.18 C 421.76 120.59 417.51 115.26 415.66 109.57 C 413.11 101.69 413.18 93.16 414.59 85.07 C 416.08 76.95 419.96 68.62 427.31 64.27 M 427.46 91.70 C 419.39 95.78 419.41 107.76 425.31 113.69 C 429.32 118.23 437.47 117.99 441.22 113.22 C 445.33 108.15 445.36 100.37 441.95 94.93 C 438.91 90.29 432.20 89.19 427.46 91.70 Z" />
<path fill="#dc3c03" opacity="1.00" d=" M 459.09 92.29 C 459.37 82.35 460.58 72.47 460.85 62.53 C 470.02 62.47 479.18 62.52 488.35 62.50 C 488.35 64.53 488.35 66.56 488.36 68.59 C 481.18 68.61 474.00 68.58 466.83 68.61 C 466.51 74.38 466.16 80.15 465.56 85.90 C 472.18 85.57 479.58 85.54 485.03 89.92 C 494.75 97.63 492.49 115.35 481.14 120.45 C 473.87 123.72 464.98 123.62 457.72 120.35 C 457.75 117.96 457.75 115.57 457.75 113.18 C 463.68 116.79 471.60 118.50 478.00 115.11 C 485.77 111.16 486.41 98.38 478.77 93.95 C 472.78 90.68 465.59 91.53 459.09 92.29 Z" />
<path fill="#dc3c03" opacity="1.00" d=" M 286.02 87.03 C 291.95 78.28 304.38 76.31 313.65 80.45 C 313.63 82.77 313.62 85.09 313.65 87.41 C 308.39 83.90 300.96 82.79 295.54 86.56 C 287.77 92.13 286.65 104.30 292.03 111.88 C 297.04 118.54 307.36 118.15 313.58 113.43 C 313.54 115.63 313.52 117.84 313.49 120.05 C 306.01 123.77 296.17 124.05 289.42 118.64 C 280.19 111.21 279.68 96.45 286.02 87.03 Z" />
<path fill="#dc3c03" opacity="1.00" d=" M 324.77 83.80 C 331.32 76.87 343.94 76.32 350.46 83.54 C 354.98 88.64 355.45 95.83 355.25 102.31 C 345.25 102.34 335.25 102.29 325.24 102.34 C 325.55 107.48 327.37 113.29 332.44 115.59 C 338.97 118.36 346.77 116.66 352.30 112.41 C 352.27 114.57 352.26 116.73 352.25 118.89 C 346.23 122.67 338.73 123.56 331.85 122.12 C 325.67 120.64 320.99 115.33 319.42 109.29 C 317.12 100.66 318.24 90.38 324.77 83.80 M 331.24 86.26 C 327.80 88.60 326.30 92.69 325.30 96.53 C 333.05 96.59 340.81 96.58 348.56 96.54 C 347.98 93.71 347.77 90.63 346.02 88.22 C 342.87 83.46 335.61 83.04 331.24 86.26 Z" />
<path fill="#dc3c03" opacity="1.00" d=" M 268.23 121.67 C 268.26 107.60 268.24 93.52 268.24 79.45 C 270.45 79.45 272.67 79.46 274.88 79.47 C 274.83 93.54 274.85 107.60 274.87 121.66 C 272.66 121.66 270.44 121.67 268.23 121.67 Z" />
</g>
</svg>
