<?xml version="1.0" encoding="UTF-8" standalone="no"?>
<svg width="456px" height="123px" viewBox="0 0 456 123" version="1.1" xmlns="http://www.w3.org/2000/svg" xmlns:xlink="http://www.w3.org/1999/xlink" xmlns:sketch="http://www.bohemiancoding.com/sketch/ns">
    <!-- Generator: Sketch 3.2 (9961) - http://www.bohemiancoding.com/sketch -->
    <title>Page-1</title>
    <desc>Created with Sketch.</desc>
    <defs></defs>
    <g id="Page-1" stroke="none" stroke-width="1" fill="none" fill-rule="evenodd" sketch:type="MSPage">
        <g sketch:type="MSLayerGroup">
            <path d="M56.16,9.47 C78.3,6.47 100.42,3.33 122.55,0.26 C122.55,19.43 122.54,38.6 122.56,57.77 C100.38,57.82 78.21,58.4 56.03,58.24 C55.63,44.16 55.99,30.05 55.84,15.96 C55.79,13.79 55.88,11.62 56.16,9.47 L56.16,9.47 L56.16,9.47 Z" id="Shape" fill="#00A7E7" sketch:type="MSShapeGroup"></path>
            <path d="M0.25,17.33 C16.93,14.9 33.64,12.62 50.34,10.34 C50.33,26.34 50.35,42.34 50.33,58.34 C33.65,58.49 16.96,58.45 0.28,58.69 C0.24,44.9 0.3,31.12 0.25,17.33 L0.25,17.33 L0.25,17.33 Z" id="Shape" fill="#00A7E7" sketch:type="MSShapeGroup"></path>
            <path d="M222.67,44.86 C222.02,43.12 223.86,42.33 224.97,41.52 C225.84,42.11 226.7,42.7 227.57,43.3 C227.54,43.89 227.48,45.08 227.45,45.67 C226.15,47.13 222.84,47.27 222.67,44.86 L222.67,44.86 L222.67,44.86 Z" id="Shape" fill="#000000" sketch:type="MSShapeGroup"></path>
            <path d="M316.53,43.43 C317.3,41.03 321.3,41.56 321.32,44.14 C321.86,45.85 319.86,46.37 318.82,47.14 C317.49,46.44 315.65,45.21 316.53,43.43 L316.53,43.43 L316.53,43.43 Z" id="Shape" fill="#000000" sketch:type="MSShapeGroup"></path>
            <path d="M170.51,43.32 C171.89,43.33 173.28,43.35 174.67,43.37 C178.6,53.71 182.54,64.05 186.62,74.33 C185.6,74.42 183.58,74.61 182.57,74.7 C181.06,72.05 180.19,69.12 179.2,66.25 C174.75,66.06 170.3,66.09 165.86,66.23 C164.99,69.1 164.01,71.95 162.75,74.68 C161.37,74.57 159.99,74.4 158.62,74.19 C162.77,63.97 166.47,53.58 170.51,43.32 L170.51,43.32 L170.51,43.32 Z M172.27,48.31 C170.89,53.04 169,57.59 167.52,62.29 C170.83,62.34 174.14,62.39 177.45,62.34 C176.03,57.56 174.28,52.88 172.27,48.31 L172.27,48.31 L172.27,48.31 Z" id="Shape" fill="#000000" sketch:type="MSShapeGroup"></path>
            <path d="M287.17,43.38 C292.46,43.48 297.89,42.73 303.06,44.14 C308.63,45.64 312.51,51.29 312.26,56.98 L311.78,57.47 C313.44,62.77 310.3,68.9 305.76,71.93 C300.26,75.66 293.26,74.44 287.02,74.32 C287.28,64.01 287,53.69 287.17,43.38 L287.17,43.38 L287.17,43.38 Z M291.15,46.93 C291.17,54.93 291.23,62.93 291.15,70.93 C293.75,70.91 296.36,71.04 298.96,70.75 C303.3,70.03 307.29,66.55 307.94,62.09 C308.68,57.73 308.33,52.38 304.6,49.41 C300.83,46.44 295.67,46.8 291.15,46.93 L291.15,46.93 L291.15,46.93 Z" id="Shape" fill="#000000" sketch:type="MSShapeGroup"></path>
            <path d="M209.84,46.99 C210.94,46.53 212.03,46.06 213.13,45.59 C213.4,45.83 213.93,46.31 214.2,46.55 C214.19,48.43 214.18,50.31 214.19,52.2 C215.97,52.22 217.76,52.26 219.55,52.31 C219.48,53.35 219.42,54.39 219.36,55.43 C217.51,55.41 215.66,55.43 213.82,55.5 C213.86,59.96 213.61,64.43 213.9,68.88 C214.03,70.76 215.89,71.63 217.22,72.63 C217.71,72.34 218.71,71.75 219.2,71.45 C221.2,76.63 212.72,76.08 211.11,72.82 C208.97,67.3 210.18,61.16 209.77,55.36 C208.93,55.35 207.26,55.34 206.42,55.33 C206.39,54.31 206.36,53.28 206.34,52.26 C207.2,52.25 208.92,52.23 209.79,52.23 C209.8,50.48 209.82,48.74 209.84,46.99 L209.84,46.99 L209.84,46.99 Z" id="Shape" fill="#000000" sketch:type="MSShapeGroup"></path>
            <path d="M383.35,46.96 C384.62,46.6 386.06,44.88 387.24,46.31 C387.35,48.28 387.29,50.25 387.32,52.23 C389.13,52.23 390.94,52.25 392.76,52.29 C392.7,53.35 392.65,54.41 392.6,55.48 C390.83,55.43 389.04,55.39 387.28,55.38 C387.27,60.3 387.27,65.23 387.31,70.15 C387.97,70.83 388.65,71.51 389.33,72.18 C390.18,71.94 391.89,71.46 392.74,71.21 C394.24,76.98 385.07,76.15 383.82,71.95 C382.62,66.6 384.05,60.99 383.06,55.64 C381.92,55.4 380.77,55.32 379.61,55.4 C379.51,54.4 379.42,53.4 379.34,52.4 C380.63,52.31 381.92,52.22 383.22,52.13 C383.3,50.41 383.34,48.68 383.35,46.96 L383.35,46.96 L383.35,46.96 Z" id="Shape" fill="#000000" sketch:type="MSShapeGroup"></path>
            <path d="M365.47,53.75 C368.7,51.43 373.03,50.98 376.76,52.19 C378.72,52.91 378.19,55.12 377.62,56.63 C375.4,55.1 372.64,54.77 370.05,55.42 C363.38,57.58 363.04,69.15 369.8,71.39 C372.61,72.56 375.52,71.12 378.2,70.26 C378.1,71.17 377.89,72.98 377.79,73.89 C375.78,74.57 373.73,75.53 371.57,75.01 C366.92,75.63 362.34,71.85 361.42,67.36 C360.45,62.59 361.32,56.81 365.47,53.75 L365.47,53.75 L365.47,53.75 Z" id="Shape" fill="#000000" sketch:type="MSShapeGroup"></path>
            <path d="M425.5,53.77 C427.22,53.61 428.34,51.68 430.18,51.69 C432.54,51.22 433.84,53.51 435.49,54.72 L434.13,52.18 C435.17,52.22 437.25,52.3 438.29,52.33 C440.65,58.32 442.65,64.44 444.78,70.52 C446.87,64.45 449.12,58.43 451.41,52.43 C452.7,51.9 454.08,52.36 455.38,52.65 C451.72,61.32 448.42,70.14 444.89,78.86 C443.69,81.62 441.5,84.94 438.02,84.24 C436.1,84.84 433.92,83.73 435.1,81.49 C439.67,83.08 442,77.73 442.54,74.13 C440.52,67.83 437.32,61.91 435.68,55.5 C435.06,55.18 433.82,54.54 433.2,54.21 L432.68,55.67 C429.43,54.31 425.91,56.51 425.39,59.89 C424.85,64.68 425.34,69.53 425.19,74.34 C423.86,74.41 422.53,74.46 421.21,74.52 C421.06,67.05 421.06,59.57 421.24,52.11 C422.74,52.4 424.94,51.7 425.5,53.77 L425.5,53.77 L425.5,53.77 Z" id="Shape" fill="#000000" sketch:type="MSShapeGroup"></path>
            <path d="M192.43,53.61 C195.95,51.35 200.73,50.76 204.51,52.72 C205.24,53.78 204.53,55.29 204.58,56.52 C201.28,54.87 196.81,54.21 193.98,57.1 C191.46,60.19 190.96,64.84 192.83,68.38 C193.83,70.24 195.88,71.09 197.55,72.22 C197.6,72.06 197.7,71.75 197.74,71.6 C200.18,72.36 202.51,71.1 204.67,70.12 C204.69,71.3 204.71,72.49 204.71,73.68 C200.78,75.8 195.5,75.94 191.91,73.06 C185.82,68.41 186.55,58.1 192.43,53.61 L192.43,53.61 L192.43,53.61 Z" id="Shape" fill="#000000" sketch:type="MSShapeGroup"></path>
            <path d="M223.3,52.21 C224.67,52.45 227.6,51.47 227.14,53.9 C227.14,60.68 227.14,67.46 227.13,74.24 C225.86,74.18 223.94,75.32 223.15,73.93 C223.21,66.69 223.03,59.44 223.3,52.21 L223.3,52.21 L223.3,52.21 Z" id="Shape" fill="#000000" sketch:type="MSShapeGroup"></path>
            <path d="M229.87,52.28 C231.19,52.28 232.53,52.28 233.86,52.29 C236.14,58.36 238.2,64.51 240.29,70.65 C241.89,64.35 244.55,58.38 246.69,52.25 C247.69,52.28 249.71,52.34 250.72,52.36 C247.78,59.7 244.79,67.03 241.99,74.43 L237.96,74.43 C235.43,66.99 232.13,59.81 229.87,52.28 L229.87,52.28 L229.87,52.28 Z" id="Shape" fill="#000000" sketch:type="MSShapeGroup"></path>
            <path d="M254.27,55.27 C256.02,52.85 258.97,51.95 261.72,51.24 L261.19,52.45 C261.98,50.79 263.55,53.52 264.54,51.91 C270.25,53 271.6,59.4 271.52,64.34 C266.15,64.6 260.78,64.39 255.42,64.51 C255.93,67.08 256.8,70.12 259.46,71.23 C263,72.65 266.86,71.44 269.86,69.37 C269.73,70.69 269.85,72.07 269.37,73.33 C267.23,74.49 264.68,75.7 262.31,74.52 C259.91,76.13 257.06,74.3 255.04,72.9 C250.69,68.25 250.41,60.29 254.27,55.27 L254.27,55.27 L254.27,55.27 Z M256.03,61.19 C259.9,60.95 263.88,61.64 267.67,60.64 C266.91,58.39 266.04,55.53 263.3,55.09 C259.57,54.15 255.93,57.47 256.03,61.19 L256.03,61.19 L256.03,61.19 Z" id="Shape" fill="#000000" sketch:type="MSShapeGroup"></path>
            <path d="M316.74,52.47 C318.04,52.37 319.35,52.26 320.67,52.17 C320.77,59.64 320.9,67.12 320.64,74.59 C319.45,74.57 318.27,74.55 317.1,74.53 C316.42,67.2 317.07,59.82 316.74,52.47 L316.74,52.47 L316.74,52.47 Z" id="Shape" fill="#000000" sketch:type="MSShapeGroup"></path>
            <path d="M330.58,55.71 C331.92,53.65 333.71,52.02 336.19,51.5 L336.2,52.19 C338.85,50.51 338.68,53.95 338.77,55.7 C336.16,54.93 333.02,55.21 331.77,57.99 C329.46,63.11 330.87,68.95 330.52,74.39 C329.38,74.46 328.25,74.54 327.12,74.62 C326.48,67.26 326.52,59.73 327.13,52.36 C327.95,52.32 329.59,52.23 330.41,52.18 C330.45,53.06 330.54,54.83 330.58,55.71 L330.58,55.71 L330.58,55.71 Z" id="Shape" fill="#000000" sketch:type="MSShapeGroup"></path>
            <path d="M343.44,53.54 C347.47,50.3 354.55,50.98 357.15,55.71 C358.87,58.3 358.52,61.53 358.68,64.48 C353.46,64.43 348.24,64.56 343.03,64.38 C342.47,69.21 347.19,72.6 351.68,71.99 C353.55,71.23 355.38,70.41 357.23,69.59 C357.84,72.04 357.08,73.57 354.97,74.2 C349.81,76.42 342.58,75.27 340.14,69.66 C338.06,64.37 338.56,57.17 343.44,53.54 L343.44,53.54 L343.44,53.54 Z M343.04,60.95 C346.99,61.11 351.16,61.8 354.98,60.5 C354.15,58.21 353.14,54.71 349.98,55.15 C346.36,54.46 343.57,57.65 343.04,60.95 L343.04,60.95 L343.04,60.95 Z" id="Shape" fill="#000000" sketch:type="MSShapeGroup"></path>
            <path d="M396.8,55.81 C398.97,52.71 402.83,51.6 406.44,51.35 C406.51,51.7 406.66,52.4 406.73,52.75 L406.67,51.5 C408.96,51.76 411.41,52.26 413.13,53.92 C417.39,57.81 417.66,64.57 415.4,69.58 C411.9,77.25 398.95,77.06 395.7,69.26 C394.02,64.98 394.13,59.68 396.8,55.81 L396.8,55.81 L396.8,55.81 Z M400.08,57.82 C397.9,60.94 398.14,65.28 399.72,68.6 C401.11,71.1 404.04,71.64 406.59,72.16 C413.98,70.73 414.97,59.56 409.28,55.69 C406.26,54.49 401.92,54.77 400.08,57.82 L400.08,57.82 L400.08,57.82 Z" id="Shape" fill="#000000" sketch:type="MSShapeGroup"></path>
            <path d="M0.24,105.07 C0.4,91.26 0.06,77.45 0.42,63.64 C17.06,63.84 33.7,63.8 50.33,64.15 C50.34,80.09 50.34,96.02 50.33,111.96 C33.6,109.94 16.93,107.42 0.24,105.07 L0.24,105.07 L0.24,105.07 Z" id="Shape" fill="#00A7E7" sketch:type="MSShapeGroup"></path>
            <path d="M55.99,64.25 C78.15,64.23 100.32,64.45 122.48,64.54 C122.67,83.66 122.45,102.79 122.6,121.91 C100.35,119.33 78.18,115.89 55.99,112.82 C55.87,96.64 55.72,80.43 55.99,64.25 L55.99,64.25 L55.99,64.25 Z" id="Shape" fill="#00A7E7" sketch:type="MSShapeGroup"></path>
            <path d="M127.08,116.13 C129.51,114.9 132.44,115.91 135.08,115.71 C135.91,117.08 136.03,119.29 137.86,119.71 C138.31,117.96 138.69,115.95 140.49,115.1 C140.24,117.36 141.91,120.95 139.61,122.28 C139.6,121.44 139.56,119.76 139.55,118.92 C138.28,119.54 138.27,122.17 136.66,121.7 C136.18,121.02 135.24,119.65 134.77,118.96 C134.74,119.81 134.7,121.49 134.67,122.33 C132.4,121.19 134.16,117.97 133.68,116.03 C129.65,115.82 131.01,119.79 130.71,122.38 C127.87,121.02 131.61,115.74 127.08,116.13 L127.08,116.13 L127.08,116.13 Z" id="Shape" fill="#00A7E7" sketch:type="MSShapeGroup"></path>
            <text id="RMS" sketch:type="MSTextLayer" font-family="Proxima Nova" font-size="24" font-weight="normal" fill="#000000">
                <tspan x="407" y="116">RMS</tspan>
            </text>
        </g>
    </g>
</svg>