<?xml version="1.0" encoding="UTF-8" standalone="no"?>
<svg width="171px" height="60px" viewBox="0 0 171 60" version="1.1" xmlns="http://www.w3.org/2000/svg" xmlns:xlink="http://www.w3.org/1999/xlink" xmlns:sketch="http://www.bohemiancoding.com/sketch/ns">
    <!-- Generator: Sketch 3.2 (9961) - http://www.bohemiancoding.com/sketch -->
    <title>logo</title>
    <desc>Created with Sketch.</desc>
    <defs></defs>
    <g id="Page-1" stroke="none" stroke-width="1" fill="none" fill-rule="evenodd" sketch:type="MSPage">
        <g id="logo" sketch:type="MSLayerGroup" transform="translate(-1.000000, 0.000000)">
            <g id="Group" sketch:type="MSShapeGroup">
                <path d="M83.542,15.501 L89.651,15.513 C92.735,5.197 97.425,0.046 103.097,0.046 C107.62,0.046 110.117,2.737 110.117,4.683 C110.117,5.593 109.528,6.18 108.554,6.18 C105.818,6.18 106.088,1.408 102.515,1.408 C98.609,1.408 96.499,6.112 93.892,15.492 L99.353,15.502 L98.963,17.023 L93.418,17.023 L86.341,40.285 C82.82,51.769 79.234,59.041 70.362,59.041 C66.388,59.041 63.516,57.224 63.516,54.562 C63.516,53.326 64.43,52.416 65.668,52.416 C66.972,52.416 67.754,53.262 67.754,54.754 C67.754,55.145 67.622,55.598 67.622,56.053 C67.622,56.826 68.732,57.674 70.622,57.674 C76.101,57.674 78.709,51.315 82.299,39.567 L89.245,17.024 L83.18,17.024 L83.542,15.501" id="Shape" fill="#000000"></path>
                <path d="M107.136,35.908 C104.732,35.908 103.246,34.937 102.072,33.262 C100.433,30.918 100.124,28.981 100.124,26.129 C100.124,22.257 100.845,20.169 102.837,18.132 C104.066,16.807 105.399,16.501 106.779,16.501 C109.392,16.501 113.535,20.066 113.535,25.719 C113.534,31.17 111.028,35.908 107.136,35.908 M106.522,37.438 C112.819,37.438 117.833,31.786 117.833,26.231 C117.833,22.919 116.655,20.273 114.354,17.927 C112.819,16.401 110,14.97 107.188,14.97 C105.497,14.97 102.989,15.38 100.33,17.416 C97.309,19.762 95.93,23.019 95.93,25.618 C95.93,29.235 96.389,31.121 98.742,33.922 C100.89,36.47 104.065,37.438 106.522,37.438" id="Shape" fill="#000000"></path>
                <path d="M122.54,23.277 C122.54,20.004 121.576,19.445 121.065,19.253 C120.692,19.116 119.871,18.952 119.725,18.896 C119.578,18.842 119.313,18.743 119.313,18.542 L119.313,18.233 C119.313,18.028 119.457,17.841 119.725,17.775 C120.204,17.658 122.587,16.622 124.788,15.178 C125.18,14.923 125.864,14.668 125.864,15.584 L126.122,19.1 L126.324,19.1 C127.858,16.759 130.264,14.668 132.467,14.668 C134.206,14.668 135.076,15.739 135.076,16.911 C135.076,18.385 133.847,19.406 132.928,19.406 C132.366,19.406 131.854,19.201 131.444,19 C131.035,18.743 130.423,18.59 129.756,18.59 C128.938,18.59 127.606,19.1 126.735,20.729 C126.425,21.293 126.222,22.207 126.222,22.36 L126.222,33.06 C126.222,34.636 126.58,35.146 127.657,35.146 L130.062,35.146 C130.368,35.146 130.418,35.299 130.418,35.605 L130.418,36.521 C130.418,36.829 130.365,36.98 130.161,36.98 C129.853,36.98 127.502,36.829 124.738,36.829 C121.56,36.829 119.415,36.98 119.107,36.98 C118.9,36.98 118.798,36.877 118.798,36.47 L118.798,35.605 C118.798,35.249 118.9,35.146 119.36,35.146 L121.356,35.146 C122.123,35.146 122.481,34.838 122.481,34.179 C122.533,32.496 122.533,30.713 122.533,28.066 L122.533,23.278 L122.54,23.278 L122.54,23.277 Z" id="Shape" fill="#000000"></path>
                <path d="M138.112,24.499 C138.112,27.25 139.34,30.354 140.721,32.243 C142.409,34.432 144.563,34.839 146.295,34.839 C148.857,34.839 150.19,34.282 151.928,32.651 C152.031,32.548 152.188,32.5 152.342,32.651 L152.85,33.16 C153.055,33.362 153.108,33.514 152.85,33.823 C151.368,35.504 148.09,37.44 144.611,37.44 C141.897,37.44 139.034,36.832 136.676,33.873 C134.781,31.379 134.37,29.242 134.37,26.948 C134.37,20.988 138.569,14.977 145.325,14.977 C150.645,14.977 152.285,18.031 152.285,19.103 C152.233,20.276 151.469,20.885 150.393,20.885 C149.21,20.885 148.34,20.224 147.576,18.846 C146.449,16.758 145.375,16.605 144.145,16.605 C141.233,16.603 138.112,19.253 138.112,24.499" id="Shape" fill="#000000"></path>
                <path d="M157.561,21.75 C158.53,17.98 160.682,16.502 162.932,16.502 C166.258,16.502 166.87,19.866 166.87,21.037 C166.87,21.495 166.463,21.75 165.492,21.75 L157.561,21.75 L157.561,21.75 Z M169.996,23.277 C170.813,23.277 171.434,23.176 171.434,22.462 C171.434,20.476 169.791,14.971 163.908,14.971 C161.348,14.971 158.789,15.431 156.591,17.674 C153.877,20.373 153.368,23.787 153.368,25.771 C153.368,29.337 153.827,31.221 155.62,33.82 C157.512,36.57 160.735,37.437 163.655,37.437 C168.208,37.437 170.868,33.921 171.79,31.884 C172.047,31.322 171.945,31.167 171.79,31.12 L171.123,30.763 C170.975,30.71 170.768,30.81 170.664,31.015 C169.794,32.701 167.596,34.482 164.473,34.482 C160.376,34.482 157.202,30.711 157.202,25.719 C157.202,24.551 157.253,23.735 157.358,23.277 L169.996,23.277 L169.996,23.277 Z" id="Shape" fill="#000000"></path>
                <path d="M2.186,35.959 C1.931,35.81 1.931,35.5 1.878,35.246 L1.01,30.408 C0.957,30.154 1.11,30.053 1.317,30.002 L1.982,29.845 C2.187,29.797 2.336,29.897 2.444,30.154 L3.721,32.648 C4.746,34.534 5.461,35.81 8.175,35.81 C9.964,35.81 12.219,34.741 12.219,32.343 C12.219,30.051 11.093,28.728 7.252,27.655 C4.232,26.789 1.211,25.213 1.211,21.189 C1.211,17.674 4.539,14.974 8.378,14.974 C10.834,14.974 12.163,15.586 13.087,16.044 C13.853,16.401 13.957,16.654 14.008,16.96 L14.775,20.527 C14.775,20.732 14.671,20.882 14.416,20.985 L13.804,21.19 C13.599,21.242 13.498,21.19 13.342,20.933 L11.603,18.592 C10.988,17.624 10.017,16.604 8.02,16.604 C6.076,16.604 4.08,17.777 4.08,19.97 C4.08,22.922 6.486,23.485 8.992,24.196 C12.729,25.264 15.083,26.792 15.136,30.717 C15.083,34.843 11.707,37.443 7.356,37.443 C4.847,37.439 2.801,36.42 2.186,35.959" id="Shape" fill="#A79F9D"></path>
                <path d="M42.553,21.646 C42.553,24.293 42.553,31.99 42.605,33.563 C42.657,34.432 42.862,35.143 43.935,35.143 L46.241,35.143 C46.701,35.143 46.802,35.298 46.802,35.604 L46.802,36.467 C46.802,36.772 46.701,36.977 46.498,36.977 C46.14,36.977 43.884,36.828 40.712,36.828 C37.438,36.828 36.976,36.977 36.514,36.977 C36.257,36.977 36.155,36.772 36.155,36.467 L36.155,35.604 C36.155,35.248 36.259,35.143 36.822,35.143 L37.696,35.143 C38.258,35.143 38.77,34.787 38.821,33.872 C38.875,32.29 38.875,23.534 38.875,20.575 L38.875,17.364 C38.875,13.749 38.821,9.114 38.719,7.791 C38.552,4.958 38.67,4.952 36.52,4.58 C35.98,4.487 35.332,4.419 35.137,4.379 C34.94,4.339 34.828,4.227 34.828,4.122 L34.828,3.718 C34.828,3.566 34.981,3.465 35.29,3.361 C37.559,2.602 39.395,1.831 41.277,0.409 C41.719,0.076 42.045,0 42.35,0 C42.708,0 42.812,0.253 42.76,0.918 C42.709,3.717 42.555,14.313 42.555,17.112 L42.555,21.646 L42.553,21.646 L42.553,21.646 Z" id="Shape" fill="#A79F9D"></path>
                <path d="M51.273,21.75 C52.245,17.98 54.394,16.502 56.645,16.502 C59.973,16.502 60.586,19.866 60.586,21.037 C60.586,21.495 60.177,21.75 59.204,21.75 L51.273,21.75 L51.273,21.75 Z M63.709,23.277 C64.526,23.277 65.144,23.176 65.144,22.462 C65.144,20.476 63.502,14.971 57.617,14.971 C55.06,14.971 52.5,15.431 50.3,17.674 C47.586,20.373 47.074,23.787 47.074,25.771 C47.074,29.337 47.536,31.221 49.327,33.82 C51.222,36.57 54.444,37.437 57.364,37.437 C61.917,37.437 64.579,33.921 65.501,31.884 C65.759,31.322 65.653,31.167 65.501,31.12 L64.834,30.763 C64.683,30.71 64.478,30.81 64.376,31.015 C63.502,32.701 61.304,34.482 58.182,34.482 C54.088,34.482 50.913,30.711 50.913,25.719 C50.913,24.551 50.963,23.735 51.066,23.277 L63.709,23.277 L63.709,23.277 Z" id="Shape" fill="#A79F9D"></path>
                <path d="M68.519,35.959 C68.262,35.81 68.262,35.5 68.214,35.246 L67.34,30.408 C67.289,30.154 67.444,30.053 67.65,30.002 L68.317,29.845 C68.52,29.797 68.674,29.897 68.775,30.154 L70.056,32.648 C71.079,34.534 71.794,35.81 74.508,35.81 C76.3,35.81 78.55,34.741 78.55,32.343 C78.55,30.051 77.424,28.728 73.585,27.655 C70.567,26.789 67.549,25.213 67.549,21.189 C67.549,17.674 70.874,14.974 74.709,14.974 C77.167,14.974 78.501,15.586 79.418,16.044 C80.188,16.401 80.29,16.654 80.341,16.96 L81.108,20.527 C81.108,20.732 81.007,20.882 80.753,20.985 L80.139,21.19 C79.931,21.242 79.831,21.19 79.677,20.933 L77.936,18.592 C77.323,17.624 76.349,16.604 74.353,16.604 C72.409,16.604 70.411,17.777 70.411,19.97 C70.411,22.922 72.817,23.485 75.327,24.196 C79.062,25.264 81.418,26.792 81.467,30.718 C81.418,34.843 78.038,37.443 73.689,37.443 C71.18,37.439 69.135,36.42 68.519,35.959" id="Shape" fill="#A79F9D"></path>
                <path d="M28.483,32.193 C28.483,33.57 25.77,35.216 24.286,35.144 C22.75,35.066 21.625,34.097 21.625,32.208 C21.625,27.982 26.641,27.21 28.483,25.926 L28.483,32.193 L28.483,32.193 Z M32.219,28.254 L32.219,20.26 C32.219,18.885 32.168,17.712 31.093,16.591 C30.377,15.892 29.404,15.133 26.999,15.013 C24.695,14.9 22.904,15.659 20.753,16.828 C18.654,17.944 17.223,19.812 17.223,21.443 C17.223,22.612 17.631,23.092 18.452,23.134 C20.546,23.237 21.161,22.146 21.161,20.363 C21.161,19.447 20.703,18.66 21.418,18.031 C22.136,17.405 23.723,16.736 24.746,16.788 C26.232,16.861 27.254,17.371 27.819,18.058 C28.383,18.749 28.431,20.076 28.534,20.948 L28.534,24.404 C27.718,25.079 25.055,26.169 22.75,27.075 C18.708,28.658 17.632,30.641 17.632,32.983 C17.632,36.194 19.476,37.303 20.704,37.366 C21.829,37.423 22.75,37.466 23.724,37.208 C26.027,36.561 27.718,35.569 28.789,34.352 L28.893,34.356 C29.353,36.466 30.683,37.414 32.526,37.414 C34.745,37.414 35.599,35.856 36.006,35.11 C36.313,34.617 36.21,34.36 36.056,34.201 L35.543,33.766 C35.338,33.602 35.236,33.698 35.033,33.944 C34.776,34.289 34.571,34.66 33.754,34.623 C32.833,34.576 32.219,34.168 32.219,31.266 L32.219,28.254 L32.219,28.254 Z" id="Shape" fill="#A79F9D"></path>
            </g>
            <text id="SANDBOX" sketch:type="MSTextLayer" font-family="Proxima Nova" font-size="14" font-weight="526" fill="#000000">
                <tspan x="105" y="56">SANDBOX</tspan>
            </text>
        </g>
    </g>
</svg>