<?xml version="1.0" encoding="UTF-8" standalone="no"?>
<svg width="744px" height="369px" viewBox="0 0 744 369" version="1.1" xmlns="http://www.w3.org/2000/svg" xmlns:xlink="http://www.w3.org/1999/xlink" xmlns:sketch="http://www.bohemiancoding.com/sketch/ns">
    <!-- Generator: Sketch 3.2 (9961) - http://www.bohemiancoding.com/sketch -->
    <title>logo</title>
    <desc>Created with Sketch.</desc>
    <defs></defs>
    <g id="Page-1" stroke="none" stroke-width="1" fill="none" fill-rule="evenodd" sketch:type="MSPage">
        <g id="logo" sketch:type="MSLayerGroup" transform="translate(-1.000000, -1.000000)">
            <g id="Page-1" sketch:type="MSShapeGroup">
                <g id="logo">
                    <g id="layer1" transform="translate(0.201300, 0.914300)">
                        <path d="M0.79872,367.97237 L376.11906,367.97237 L744.1658,0.0857 L0.79872,0.0857 L0.79872,367.97237" id="path25030" fill="#014185"></path>
                        <path d="M441.58191,69.22901 L368.84541,69.21447 L368.84541,243.22927 L304.83729,69.21447 L242.2839,69.21447 L187.00416,214.74566 C181.18524,178.08646 143.36226,165.41576 112.81293,155.93092 C93.90144,149.5592 72.08049,140.19074 73.53522,129.94944 C73.53522,121.45382 83.71833,113.65647 105.53928,114.82025 C120.08658,115.56216 133.17915,116.76959 159.36429,129.25117 L185.54943,84.92555 C160.81902,72.93858 128.81496,65.35943 102.62982,65.33034 L102.62982,65.33034 C70.62576,65.33034 44.44062,75.39707 28.43859,92.08282 C18.25548,103.69157 10.98183,118.42798 10.98183,134.7646 C10.98183,157.24018 19.71021,173.18402 35.71224,185.88381 C51.71427,196.57608 69.17103,203.54423 86.62779,208.65034 C106.99401,214.94932 122.99604,220.40456 122.99604,232.10058 C122.99604,236.42113 121.54131,240.3489 118.63185,243.50567 C112.81293,248.72815 105.53928,250.70658 93.90144,250.95389 C73.53522,251.33211 58.98792,248.08807 34.25751,233.6426 L10.98183,278.52102 C35.71224,292.42824 64.80684,300.60382 93.90144,300.60382 L98.26563,300.57473 C122.99604,300.10921 144.81699,292.76283 160.81902,279.4084 C162.27375,278.62285 162.27375,277.89548 163.72848,277.16812 L156.45483,296.70514 L223.37241,296.70514 L233.55552,262.83903 C245.19336,266.73771 258.28593,269.00708 272.83323,269.00708 C287.38053,269.00708 299.01837,266.81044 310.65621,263.11543 L322.29405,296.70514 L429.94407,296.70514 L429.94407,226.45623 L454.67448,226.45623 C511.40895,226.45623 544.86774,197.34708 544.86774,148.52635 C544.86774,94.17763 512.86368,69.22901 441.58191,69.22901 L441.58191,69.22901 L441.58191,69.22901 Z M272.83323,218.20791 C264.10485,218.20791 256.8312,216.69499 249.55755,214.04739 L272.83323,140.84537 L296.10891,214.28014 C288.83526,216.78228 281.56161,218.20791 272.83323,218.20791 L272.83323,218.20791 L272.83323,218.20791 Z M445.9461,176.10803 L429.94407,176.10803 L429.94407,117.08963 L445.9461,117.08963 C467.76705,117.08963 485.22381,124.23235 485.22381,146.30061 C485.22381,168.9944 467.76705,176.10803 445.9461,176.10803 L445.9461,176.10803 L445.9461,176.10803 Z" id="path25032" fill="#FFFFFF"></path>
                        <path d="M467.76705,344.46393 C467.76705,333.21887 476.49543,324.65051 486.67854,324.65051 C496.86165,324.65051 505.59003,333.21887 505.59003,344.46393 C505.59003,356.13086 496.86165,364.5392 486.67854,364.5392 C476.49543,364.5392 467.76705,356.13086 467.76705,344.46393 L467.76705,344.46393 L467.76705,344.46393 Z M486.67854,368.52516 C499.77111,368.52516 511.40895,358.32751 511.40895,344.46393 C511.40895,330.80401 499.77111,320.76638 486.67854,320.76638 C473.58597,320.76638 461.94813,330.80401 461.94813,344.46393 C461.94813,358.32751 473.58597,368.52516 486.67854,368.52516 L486.67854,368.52516 L486.67854,368.52516 Z M482.31435,346.45691 L486.67854,346.45691 L493.95219,358.32751 L498.31638,358.32751 L491.04273,346.22415 C493.95219,345.72954 498.31638,343.59109 498.31638,338.7032 C498.31638,333.21887 493.95219,330.80401 488.13327,330.80401 L477.95016,330.80401 L477.95016,358.32751 L482.31435,358.32751 L482.31435,346.45691 L482.31435,346.45691 Z M482.31435,342.90737 L482.31435,334.30991 L488.13327,334.30991 C489.588,334.30991 493.95219,334.97909 493.95219,338.45589 C493.95219,342.63097 489.588,342.90737 486.67854,342.90737 L482.31435,342.90737 L482.31435,342.90737 Z" id="path25034" fill="#014185"></path>
                    </g>
                </g>
            </g>
        </g>
    </g>
</svg>