<?xml version="1.0" encoding="UTF-8" ?>
<!DOCTYPE svg PUBLIC "-//W3C//DTD SVG 1.1//EN" "http://www.w3.org/Graphics/SVG/1.1/DTD/svg11.dtd">
<svg width="2058pt" height="654pt" viewBox="0 0 2058 654" version="1.1" xmlns="http://www.w3.org/2000/svg">
<g id="#0072c6ff">
<path fill="#0072c6" opacity="1.00" d=" M 151.00 187.98 C 219.24 175.77 287.48 163.61 355.72 151.41 C 355.79 268.30 355.74 385.20 355.75 502.09 C 287.48 490.00 219.25 477.72 151.00 465.58 C 151.01 373.05 150.99 280.51 151.00 187.98 M 219.16 267.21 C 210.73 277.06 208.16 290.82 209.76 303.42 C 211.06 314.39 217.12 324.40 225.49 331.45 C 233.12 337.97 242.80 341.87 249.57 349.43 C 254.66 355.11 255.95 364.66 250.88 370.75 C 246.82 375.64 239.81 376.06 233.98 375.08 C 224.32 373.67 216.03 367.68 209.72 360.49 C 209.80 370.60 209.71 380.71 209.77 390.82 C 219.19 398.04 231.36 400.55 243.02 400.42 C 251.20 400.19 259.63 398.34 266.28 393.35 C 274.69 387.30 279.49 377.27 280.66 367.14 C 282.35 355.37 280.32 342.62 273.09 332.94 C 266.73 324.84 258.08 318.99 249.36 313.73 C 244.70 310.83 239.92 307.72 236.76 303.15 C 233.04 296.89 233.17 287.87 238.62 282.62 C 243.22 278.19 250.14 277.80 256.14 278.55 C 263.47 279.31 270.32 282.60 276.01 287.19 C 275.99 277.14 276.00 267.10 276.01 257.05 C 266.51 253.10 256.03 252.70 245.91 253.54 C 235.74 254.61 225.70 259.18 219.16 267.21 Z" />
<path fill="#0072c6" opacity="1.00" d=" M 375.51 210.23 C 382.47 203.28 392.29 199.17 402.19 200.05 C 416.31 200.85 428.83 211.81 432.25 225.42 C 433.64 230.52 433.79 235.89 432.89 241.10 C 455.72 250.55 474.16 269.72 482.96 292.79 C 492.96 290.89 503.75 293.79 511.28 300.67 C 523.22 310.89 526.37 329.40 519.13 343.23 C 512.65 356.31 497.25 364.18 482.85 361.13 C 474.09 384.11 455.72 403.33 432.91 412.65 C 434.96 423.92 431.44 436.19 423.18 444.24 C 414.64 453.02 401.03 456.25 389.43 452.36 C 384.11 450.61 379.25 447.52 375.48 443.37 C 375.50 427.28 375.52 411.19 375.47 395.10 C 382.05 388.21 391.48 383.95 401.09 384.49 C 410.14 384.72 418.55 389.26 424.70 395.73 C 443.92 388.15 459.34 372.00 466.33 352.59 C 460.63 346.72 456.50 339.12 455.76 330.88 C 454.34 320.00 458.77 309.03 466.38 301.33 C 459.35 281.87 443.88 265.62 424.58 258.05 C 419.06 264.33 411.22 268.54 402.86 269.34 C 392.71 270.47 382.51 266.15 375.48 258.91 C 375.54 242.68 375.46 226.46 375.51 210.23 Z" />
<path fill="#0072c6" opacity="1.00" d=" M 754.24 210.01 C 762.32 209.99 770.41 210.00 778.50 210.00 C 778.50 242.41 778.52 274.82 778.49 307.22 C 786.05 294.72 797.62 284.00 812.10 280.41 C 825.01 277.25 839.14 277.59 851.53 282.69 C 862.36 287.19 870.36 296.92 874.15 307.86 C 878.05 318.46 878.84 329.86 879.00 341.05 C 878.99 371.45 879.01 401.85 879.00 432.25 C 870.91 432.25 862.83 432.25 854.75 432.24 C 854.75 404.49 854.75 376.74 854.76 348.98 C 854.56 338.01 854.12 326.64 849.33 316.55 C 846.00 309.34 839.83 303.24 832.11 300.99 C 820.30 297.31 806.55 299.06 796.66 306.73 C 784.92 315.63 778.61 330.43 778.50 344.97 C 778.50 374.06 778.51 403.16 778.49 432.25 C 770.41 432.25 762.33 432.25 754.25 432.25 C 754.24 358.17 754.26 284.09 754.24 210.01 Z" />
<path fill="#0072c6" opacity="1.00" d=" M 1619.44 213.49 C 1628.35 210.31 1639.36 216.42 1640.36 226.05 C 1642.01 234.50 1635.45 243.13 1626.99 244.09 C 1619.36 245.43 1610.80 240.59 1609.23 232.77 C 1606.97 224.96 1611.59 215.87 1619.44 213.49 Z" />
<path fill="#0072c6" opacity="1.00" d=" M 642.22 224.04 C 655.38 218.63 669.91 217.89 683.97 218.76 C 694.58 219.41 705.48 220.85 715.01 225.86 C 714.98 235.19 715.00 244.52 715.01 253.84 C 701.80 243.49 684.41 240.07 667.96 241.01 C 656.97 241.60 645.70 245.97 638.71 254.73 C 631.48 263.92 631.49 277.01 635.43 287.57 C 640.75 298.89 652.26 305.21 662.42 311.58 C 678.95 321.24 696.45 330.11 709.83 344.14 C 719.02 353.60 724.29 366.78 723.78 380.01 C 723.99 394.14 718.74 408.60 708.15 418.21 C 695.54 430.06 677.97 434.97 661.04 435.79 C 647.39 436.86 633.76 434.19 620.76 430.20 C 615.79 428.60 610.79 426.85 606.45 423.88 C 606.58 414.04 606.41 404.21 606.54 394.38 C 618.08 404.44 632.94 410.13 647.88 412.72 C 659.05 414.28 670.83 413.58 681.35 409.28 C 688.27 406.34 693.90 400.44 696.08 393.19 C 699.18 382.78 697.84 370.71 691.03 362.01 C 685.50 355.09 678.03 350.11 670.73 345.24 C 658.06 336.71 644.07 330.21 631.97 320.82 C 623.14 314.05 614.62 306.01 610.55 295.41 C 605.89 283.42 605.60 269.82 609.34 257.54 C 614.20 241.94 627.31 230.00 642.22 224.04 Z" />
<path fill="#0072c6" opacity="1.00" d=" M 1301.24 222.01 C 1314.49 221.99 1327.73 222.01 1340.98 222.00 C 1356.02 222.11 1371.37 221.09 1386.03 225.22 C 1400.36 228.94 1413.75 237.60 1421.44 250.46 C 1429.89 264.65 1431.37 282.04 1428.88 298.10 C 1426.40 314.08 1417.10 328.66 1404.01 338.07 C 1394.59 345.08 1383.33 349.33 1371.81 351.32 C 1356.67 353.82 1341.27 352.36 1326.00 352.75 C 1325.99 379.25 1326.01 405.75 1326.00 432.25 C 1317.74 432.25 1309.49 432.25 1301.25 432.25 C 1301.24 362.17 1301.26 292.09 1301.24 222.01 M 1326.00 244.50 C 1326.00 273.17 1326.00 301.83 1326.00 330.50 C 1342.41 330.04 1359.33 332.13 1375.26 327.13 C 1384.70 324.15 1393.46 318.12 1398.39 309.39 C 1403.93 299.49 1404.89 287.59 1403.17 276.55 C 1401.79 267.74 1397.49 259.12 1390.17 253.79 C 1380.71 246.72 1368.52 244.86 1357.01 244.51 C 1346.67 244.48 1336.33 244.51 1326.00 244.50 Z" />
<path fill="#0072c6" opacity="1.00" d=" M 1846.26 245.37 C 1854.34 242.82 1862.38 240.14 1870.47 237.60 C 1870.54 252.40 1870.47 267.20 1870.50 282.00 C 1883.08 282.00 1895.66 281.99 1908.25 282.00 C 1908.24 288.92 1908.25 295.83 1908.25 302.75 C 1895.66 302.76 1883.08 302.74 1870.51 302.76 C 1870.49 331.84 1870.51 360.92 1870.49 390.00 C 1870.67 395.94 1871.43 402.18 1874.64 407.33 C 1877.66 412.15 1883.44 414.30 1888.89 414.75 C 1895.66 415.64 1902.65 413.90 1908.26 410.02 C 1908.24 416.99 1908.23 423.96 1908.26 430.92 C 1899.57 435.36 1889.49 436.24 1879.90 435.44 C 1871.58 434.78 1863.03 431.97 1857.14 425.82 C 1849.33 418.07 1846.74 406.66 1846.26 396.02 C 1846.23 364.93 1846.26 333.85 1846.24 302.76 C 1837.57 302.74 1828.91 302.76 1820.25 302.75 C 1820.24 295.83 1820.25 288.92 1820.24 282.01 C 1828.91 281.98 1837.57 282.01 1846.25 282.00 C 1846.25 269.79 1846.23 257.58 1846.26 245.37 Z" />
<path fill="#0072c6" opacity="1.00" d=" M 943.13 282.33 C 959.31 277.83 976.99 276.51 993.08 282.09 C 1004.57 286.06 1013.89 295.45 1017.91 306.92 C 1022.74 319.36 1022.35 332.91 1022.25 346.03 C 1022.25 374.77 1022.25 403.51 1022.24 432.25 C 1014.16 432.25 1006.08 432.25 998.00 432.25 C 997.97 424.33 998.04 416.42 997.97 408.50 C 992.02 418.76 983.34 427.89 972.10 432.24 C 959.91 437.01 946.13 437.06 933.59 433.62 C 920.00 429.83 908.30 418.88 904.99 404.98 C 902.41 393.94 903.01 381.94 907.44 371.45 C 910.86 363.19 917.34 356.47 925.08 352.10 C 933.56 347.21 943.20 344.71 952.83 343.32 C 967.90 341.18 982.98 339.14 998.05 336.95 C 997.86 326.93 996.50 316.09 989.82 308.14 C 984.32 301.50 975.32 298.97 966.97 299.22 C 949.14 298.92 931.75 306.10 918.24 317.54 C 918.25 309.18 918.25 300.82 918.25 292.46 C 925.74 287.40 934.53 284.82 943.13 282.33 M 955.42 362.65 C 947.02 364.52 937.44 366.79 932.32 374.37 C 928.37 380.75 927.77 388.74 928.94 396.01 C 930.61 404.73 938.05 411.33 946.36 413.74 C 955.80 416.47 966.24 415.42 975.09 411.20 C 985.63 405.81 993.56 395.64 996.41 384.17 C 998.86 375.13 997.75 365.69 998.00 356.46 C 983.81 358.57 969.56 360.26 955.42 362.65 Z" />
<path fill="#0072c6" opacity="1.00" d=" M 1168.50 292.40 C 1179.90 283.34 1194.41 278.18 1209.00 278.48 C 1222.42 278.16 1236.31 281.55 1247.03 289.91 C 1257.88 298.27 1264.99 310.76 1268.19 323.96 C 1271.56 336.77 1271.33 350.11 1271.24 363.25 C 1235.89 363.28 1200.53 363.19 1165.18 363.29 C 1165.79 375.08 1167.85 387.35 1174.87 397.15 C 1181.67 407.07 1193.09 413.14 1204.89 414.59 C 1224.72 417.44 1245.24 411.04 1260.77 398.58 C 1260.72 406.21 1260.78 413.84 1260.74 421.47 C 1247.02 431.55 1229.77 435.39 1213.01 435.93 C 1198.93 436.52 1184.27 434.34 1172.04 426.96 C 1159.76 419.64 1150.74 407.57 1145.90 394.23 C 1140.60 379.80 1139.57 364.18 1140.49 348.95 C 1142.24 327.54 1151.49 306.03 1168.50 292.40 M 1184.55 307.56 C 1173.74 316.07 1167.58 329.32 1165.63 342.74 C 1192.52 342.77 1219.40 342.75 1246.28 342.75 C 1246.23 331.43 1243.77 319.47 1236.30 310.62 C 1229.96 302.91 1219.82 299.14 1210.00 299.22 C 1200.88 298.86 1191.64 301.77 1184.55 307.56 Z" />
<path fill="#0072c6" opacity="1.00" d=" M 1499.15 279.13 C 1516.95 277.20 1536.02 278.79 1551.53 288.49 C 1568.09 298.71 1578.38 316.97 1581.55 335.88 C 1584.51 353.97 1584.07 373.06 1577.68 390.40 C 1570.79 409.16 1555.66 425.02 1536.61 431.51 C 1520.41 437.01 1502.53 437.42 1485.99 433.19 C 1468.38 428.70 1453.23 416.26 1444.77 400.26 C 1435.93 384.09 1434.35 365.04 1435.92 346.97 C 1437.42 330.45 1443.17 313.92 1454.39 301.46 C 1465.65 288.48 1482.23 280.99 1499.15 279.13 M 1501.52 299.75 C 1488.93 301.35 1477.17 308.51 1470.21 319.16 C 1460.96 333.14 1459.32 350.71 1460.65 367.03 C 1461.87 382.24 1468.36 397.86 1481.27 406.75 C 1491.24 413.93 1504.08 416.07 1516.13 414.96 C 1525.88 414.15 1535.68 410.61 1542.75 403.66 C 1550.37 396.55 1554.65 386.55 1556.69 376.47 C 1558.86 365.19 1558.94 353.56 1557.36 342.21 C 1555.44 328.26 1549.08 314.00 1536.87 306.19 C 1526.49 299.46 1513.53 298.27 1501.52 299.75 Z" />
<path fill="#0072c6" opacity="1.00" d=" M 1713.59 291.66 C 1721.72 284.36 1732.26 279.86 1743.13 278.79 C 1754.99 277.68 1767.61 278.84 1777.97 285.19 C 1789.50 292.17 1796.37 304.87 1799.16 317.74 C 1802.16 330.61 1801.41 343.89 1801.50 356.99 C 1801.49 382.08 1801.51 407.16 1801.49 432.25 C 1793.41 432.25 1785.33 432.25 1777.25 432.25 C 1777.24 403.49 1777.26 374.73 1777.24 345.97 C 1776.94 334.98 1775.87 323.48 1770.25 313.77 C 1766.35 306.87 1759.46 301.80 1751.70 300.17 C 1742.61 298.21 1732.70 299.06 1724.41 303.42 C 1709.73 311.12 1701.26 327.63 1701.02 343.90 C 1700.97 373.35 1701.02 402.80 1701.00 432.25 C 1692.91 432.25 1684.83 432.25 1676.75 432.24 C 1676.75 382.16 1676.75 332.08 1676.75 282.00 C 1684.83 281.99 1692.91 282.00 1701.00 282.00 C 1701.01 290.43 1700.98 298.86 1701.01 307.30 C 1704.57 301.62 1708.51 296.09 1713.59 291.66 Z" />
<path fill="#0072c6" opacity="1.00" d=" M 1102.09 286.13 C 1112.18 278.56 1125.97 277.94 1137.74 281.38 C 1137.77 289.84 1137.73 298.30 1137.76 306.76 C 1130.44 301.81 1120.96 300.82 1112.46 302.55 C 1102.24 304.79 1094.73 313.25 1090.24 322.27 C 1084.51 333.94 1083.14 347.19 1083.50 360.03 C 1083.49 384.10 1083.51 408.17 1083.49 432.25 C 1075.41 432.25 1067.33 432.25 1059.25 432.25 C 1059.24 382.17 1059.26 332.09 1059.24 282.01 C 1067.33 281.99 1075.41 282.00 1083.50 282.00 C 1083.52 292.47 1083.46 302.94 1083.53 313.41 C 1087.05 302.87 1092.83 292.63 1102.09 286.13 Z" />
<path fill="#0072c6" opacity="1.00" d=" M 1612.24 282.01 C 1620.32 281.99 1628.41 282.00 1636.50 282.01 C 1636.49 332.09 1636.51 382.17 1636.49 432.25 C 1628.41 432.25 1620.33 432.25 1612.25 432.25 C 1612.24 382.17 1612.26 332.09 1612.24 282.01 Z" />
</g>
</svg>
