<?xml version="1.0" encoding="UTF-8" standalone="no"?>
<svg width="399px" height="120px" viewBox="0 0 399 120" version="1.1" xmlns="http://www.w3.org/2000/svg" xmlns:xlink="http://www.w3.org/1999/xlink" xmlns:sketch="http://www.bohemiancoding.com/sketch/ns">
    <!-- Generator: Sketch 3.0.3 (7892) - http://www.bohemiancoding.com/sketch -->
    <title>slack logo color </title>
    <desc>Created with Sketch.</desc>
    <defs></defs>
    <g id="Page-1" stroke="none" stroke-width="1" fill="none" fill-rule="evenodd" sketch:type="MSPage">
        <g id="slack-logo-color-" sketch:type="MSLayerGroup">
            <path d="M141.82,47.425 C141.82,35.572 150.462,27.295 166.168,27.295 C175.75,27.295 183.592,30.355 187.84,33.353 C188.447,33.781 189.533,34.819 188.882,36.749 C188.049,38.829 186.52,41.957 185.423,43.989 C184.785,45.171 183.155,45.017 182.32,44.594 C179.293,43.061 174.33,40.465 169.771,39.988 C168.651,39.87 167.477,39.806 166.295,39.837 C162.278,39.928 158.924,41.322 157.742,44.385 C157.505,44.994 157.376,45.603 157.361,46.205 C157.251,50.243 162.869,51.702 169.676,52.871 C182.331,55.04 191.904,58.75 191.904,71.774 C191.904,82.834 183.113,92.83 165.89,92.525 C154.537,92.294 146.48,88.458 142.164,84.735 C142.018,84.609 140.375,82.934 141.255,80.923 C142.264,78.332 143.965,75.362 145.3,73.786 C146.041,72.774 148,72.612 149.018,73.244 C152.576,75.454 158.432,79 165.182,79.235 C165.715,79.254 166.242,79.258 166.761,79.244 C172.832,79.096 176.506,76.793 176.429,72.917 C176.363,69.499 171.549,67.503 163.884,66.059 C151.656,63.754 141.82,59.724 141.82,47.425 M224.205,37.154 C228.237,33.546 236.231,27.93 248.971,28.226 C265.781,28.576 274.665,36.458 275.492,55.313 C275.832,63.089 275.268,84.776 275.133,90.18 C275.113,90.955 274.852,91.49 273.805,91.512 C271.039,91.623 264.641,91.579 261.701,91.542 C260.22,91.47 260.047,90.733 260.028,89.963 C260.016,89.46 259.972,87.965 259.941,86.748 C259.926,86.101 259.317,86.12 259.162,86.286 C255.217,90.497 248.759,92.53 241.891,92.53 C231.453,92.53 221.047,86.389 221.078,74.227 C221.109,61.772 229.939,55.628 239.642,54.182 C245.854,53.255 252.856,54.079 258.159,56.186 C258.498,56.32 259.19,56.125 259.197,55.643 C259.219,54.057 259.143,51.032 258.838,49.599 C258.059,45.946 255.011,43.007 248.609,42.215 C247.291,42.053 245.966,41.999 244.637,42.105 C239.548,42.505 233.425,46.473 230.889,47.958 C230.293,48.307 229.357,48.052 229.056,47.662 C227.576,45.752 223.855,40.158 223.563,39.265 C223.271,38.373 223.685,37.623 224.205,37.154 L224.205,37.154 Z M252.893,64.303 C244.271,64.414 236.366,66.772 236.137,73.51 C236.135,78.856 240.474,81.481 246.56,81.139 C252.398,80.577 256.853,78.043 258.814,74.684 C259.541,73.439 259.65,68.777 259.606,66.785 C259.597,66.363 258.758,65.56 258.391,65.406 C256.559,64.634 255.204,64.396 252.893,64.303 L252.893,64.303 Z M281.035,60.338 C280.936,42.968 293.037,28.313 312.691,28.185 C324.953,28.105 333.863,33.664 335.435,36.287 C335.754,36.901 335.59,37.417 335.367,38.036 C334.33,40.227 331.707,44.462 329.838,46.862 C329.042,47.884 328.178,47.008 327.174,46.34 C324.388,44.485 319.095,42.214 313.884,42.215 C304.432,42.216 297.394,48.698 297.472,60.621 C297.546,72.064 304.288,78.351 313.917,78.581 C318.951,78.706 323.828,75.813 326.451,73.444 C327.277,72.725 328.129,73.085 329.07,73.819 C330.919,75.708 333.568,78.624 335.037,80.631 C336,81.746 335.28,82.836 334.934,83.275 C330.947,88.321 323.247,92.567 313.058,92.623 C291.72,92.773 281.135,77.771 281.035,60.338 M382.887,91.842 C383.889,91.768 394.576,90.293 397.856,89.542 C398.671,89.355 398.959,88.671 398.506,87.993 C396.673,85.246 391.856,77.445 386.813,70.461 C382.174,64.041 377.282,58.392 375.7,56.221 C375.315,55.692 375.336,55.172 375.756,54.762 C378.765,51.818 391.35,39.48 396.081,34.384 C397.914,32.402 396.813,31.55 395.258,31.086 C392.252,30.19 387.391,29.074 384.625,28.491 C383.461,28.245 382.057,28.331 381.037,29.379 C376.305,33.79 361.867,48.281 357.559,52.613 C356.781,53.395 356.331,53.22 356.326,52.104 C356.291,43.752 356.125,7.998 355.828,2.115 C355.806,1.338 354.871,0.748 354.344,0.721 C351.634,0.58 344.787,0.539 342.089,0.697 C341.333,0.783 340.611,1.553 340.545,2.204 C339.923,11.608 340.808,80.64 341.179,90.297 C341.205,90.995 341.725,91.536 342.388,91.575 C345.08,91.732 351.736,91.722 354.846,91.664 C356.376,91.664 356.563,90.588 356.563,90.588 L356.794,72.063 C356.794,72.063 356.952,71.24 357.206,70.967 C358.301,69.789 361.333,66.539 362.627,65.283 C362.938,64.981 363.428,65.003 363.743,65.429 C365.279,67.5 369.659,74.237 373.719,80.251 C377.448,85.776 380.93,90.682 381.173,91.028 C381.736,91.827 382.393,91.86 382.887,91.842 M201.117,91.778 C202.057,91.81 209.188,91.803 212.348,91.798 C213.413,91.818 213.966,91.013 214.001,90.302 C214.671,76.763 214.385,12.299 213.962,2.12 C213.926,1.239 213.549,0.909 212.948,0.829 C210.236,0.466 202.53,0.551 200.061,1.197 C199.576,1.324 199.294,1.69 199.276,2.163 C198.671,28.4 199.079,88.891 199.207,90.037 C199.335,91.183 199.933,91.738 201.117,91.778" id="Fill-3" fill="#443642" sketch:type="MSShapeGroup"></path>
            <path d="M10.258,64.859 C5.863,64.892 2.14,62.273 0.768,58.186 C0.715,58.027 0.669,57.872 0.625,57.72 C-0.871,52.484 2.03,47.008 7.23,45.255 L90.613,17.32 C91.627,17.029 92.648,16.881 93.659,16.874 C98.17,16.838 101.996,19.515 103.403,23.69 L103.527,24.093 C105.086,29.545 101.211,34.413 96.568,35.973 C96.564,35.975 95.721,36.262 13.646,64.282 C12.535,64.658 11.396,64.849 10.258,64.859" id="Fill-8" fill="#70CADB" sketch:type="MSShapeGroup"></path>
            <path d="M24.157,105.867 C19.729,105.899 15.992,103.317 14.636,99.289 C14.586,99.134 14.537,98.979 14.494,98.825 C12.977,93.527 15.874,87.994 21.09,86.237 L104.478,58.045 C105.554,57.686 106.667,57.5 107.785,57.491 C112.227,57.457 116.129,60.17 117.506,64.245 L117.634,64.67 C118.438,67.484 117.963,70.651 116.363,73.148 C115.168,75.007 111.404,76.642 111.404,76.642 L27.698,105.261 C26.533,105.651 25.343,105.856 24.157,105.867" id="Fill-9" fill="#E01765" sketch:type="MSShapeGroup"></path>
            <path d="M93.572,106.043 C89.125,106.079 85.186,103.272 83.77,99.067 L55.94,16.402 L55.801,15.937 C54.294,10.667 57.192,5.168 62.391,3.415 C63.43,3.065 64.506,2.882 65.588,2.873 C67.196,2.861 68.752,3.223 70.217,3.947 C72.667,5.167 74.5,7.267 75.375,9.86 L103.203,92.518 L103.284,92.783 C104.846,98.256 101.953,103.759 96.756,105.509 C95.725,105.854 94.653,106.035 93.572,106.043" id="Fill-10" fill="#E8A723" sketch:type="MSShapeGroup"></path>
            <path d="M52.205,119.969 C47.758,120.003 43.816,117.197 42.398,112.986 L14.575,30.323 C14.527,30.17 14.48,30.02 14.435,29.863 C12.931,24.593 15.821,19.093 21.018,17.34 C22.053,16.995 23.124,16.814 24.205,16.805 C28.652,16.771 32.592,19.577 34.01,23.784 L61.834,106.449 C61.886,106.595 61.933,106.753 61.975,106.906 C63.482,112.179 60.59,117.682 55.386,119.435 C54.353,119.78 53.284,119.96 52.205,119.969" id="Fill-11" fill="#3EB890" sketch:type="MSShapeGroup"></path>
            <path d="M79.852,87.429 L99.257,80.794 L92.914,61.955 L73.486,68.522 L79.852,87.429" id="Fill-12" fill="#CC1F27" sketch:type="MSShapeGroup"></path>
            <path d="M38.549,101.551 L57.952,94.917 L51.562,75.935 L32.138,82.502 L38.549,101.551" id="Fill-13" fill="#361238" sketch:type="MSShapeGroup"></path>
            <path d="M66.037,46.396 C74.762,43.418 80.994,41.29 85.444,39.771 L79.176,21.151 L59.732,27.665 L66.037,46.396" id="Fill-14" fill="#65863A" sketch:type="MSShapeGroup"></path>
            <path d="M24.73,60.498 C31.891,58.054 38.334,55.854 44.137,53.873 L37.791,35.017 L18.348,41.53 L24.73,60.498" id="Fill-15" fill="#1A937D" sketch:type="MSShapeGroup"></path>
        </g>
    </g>
</svg>