<?xml version="1.0" encoding="UTF-8" ?>
<!DOCTYPE svg PUBLIC "-//W3C//DTD SVG 1.1//EN" "http://www.w3.org/Graphics/SVG/1.1/DTD/svg11.dtd">
<svg width="194pt" height="44pt" viewBox="0 0 194 44" version="1.1" xmlns="http://www.w3.org/2000/svg">
<g id="#ea8923ff">
<path fill="#ea8923" opacity="1.00" d=" M 70.66 0.00 L 73.50 0.00 C 74.31 1.15 75.93 2.37 75.23 3.97 C 74.67 6.67 70.47 7.08 69.32 4.60 C 68.18 2.99 69.68 1.25 70.66 0.00 Z" />
<path fill="#ea8923" opacity="1.00" d=" M 3.81 10.88 C 7.76 8.47 13.41 8.09 17.32 10.74 C 19.12 12.09 18.14 13.94 17.01 15.33 C 14.12 13.82 10.74 12.24 7.46 13.57 C 5.91 13.99 5.32 15.57 5.55 17.04 C 9.34 19.93 14.86 19.25 18.38 22.64 C 21.29 25.52 20.22 30.90 16.60 32.69 C 11.52 35.28 4.45 35.37 0.00 31.45 L 0.00 28.98 C 0.44 28.57 1.33 27.74 1.77 27.32 C 4.77 29.90 8.93 31.26 12.80 29.98 C 14.66 29.54 16.49 26.97 14.54 25.50 C 10.75 23.23 5.74 23.61 2.33 20.57 C -0.62 17.89 0.49 12.75 3.81 10.88 Z" />
<path fill="#ea8923" opacity="1.00" d=" M 29.44 10.98 C 32.76 9.25 36.72 8.20 40.30 9.83 C 45.08 11.72 46.85 17.31 46.63 22.05 C 46.67 26.52 44.54 31.26 40.34 33.22 C 36.71 35.16 32.48 34.43 28.68 33.48 C 28.69 36.99 28.85 40.53 28.24 44.00 L 24.15 44.00 C 23.31 39.04 23.68 34.00 23.62 29.00 C 23.69 22.46 23.44 15.92 23.84 9.38 C 25.81 9.51 27.73 9.97 29.44 10.98 M 30.17 16.10 C 28.13 20.13 28.83 24.82 28.68 29.17 C 32.15 29.99 36.55 31.30 39.42 28.38 C 42.10 25.15 42.07 20.22 40.47 16.51 C 38.68 12.60 32.15 12.12 30.17 16.10 Z" />
<path fill="#ea8923" opacity="1.00" d=" M 55.59 11.90 C 58.11 9.45 62.41 7.82 65.41 10.39 C 67.00 11.50 65.73 13.40 65.46 14.81 C 62.52 12.94 58.05 13.00 56.48 16.58 C 54.16 22.02 55.94 28.17 55.09 33.89 C 53.57 33.54 50.79 34.95 50.36 32.73 C 49.98 25.80 50.22 18.84 50.23 11.90 C 49.77 8.43 55.28 8.79 55.59 11.90 Z" />
<path fill="#ea8923" opacity="1.00" d=" M 85.91 11.88 C 90.45 7.21 99.90 8.35 101.73 15.08 C 102.84 21.26 102.28 27.64 102.08 33.88 C 100.54 33.57 97.84 34.92 97.38 32.71 C 96.66 27.24 97.87 21.61 96.71 16.20 C 95.13 12.00 88.39 12.62 86.70 16.46 C 84.54 21.56 86.26 27.27 85.45 32.61 C 85.22 34.74 82.51 34.05 81.06 33.81 C 80.23 32.01 80.56 29.96 80.48 28.04 C 80.60 21.89 80.27 15.73 80.73 9.59 C 82.82 9.41 85.39 9.25 85.91 11.88 Z" />
<path fill="#ea8923" opacity="1.00" d=" M 69.68 11.93 C 68.82 8.88 74.64 8.41 74.56 11.31 C 74.90 16.86 74.57 22.43 74.71 27.99 C 74.57 29.94 75.08 32.14 73.90 33.87 C 72.56 33.93 71.22 33.95 69.88 33.90 C 69.41 26.59 69.63 19.25 69.68 11.93 Z" />
<path fill="#ea8923" opacity="1.00" d=" M 107.76 12.71 C 112.30 8.99 118.70 9.33 124.10 10.55 C 125.64 9.38 128.24 8.89 129.17 11.10 C 129.46 13.71 129.73 16.35 129.57 18.98 C 128.60 22.79 124.52 24.59 120.97 25.17 C 116.59 25.78 111.65 25.79 107.83 23.26 C 104.36 20.86 104.46 15.21 107.76 12.71 M 109.48 17.93 C 110.12 19.41 111.51 20.34 113.05 20.65 C 117.32 21.54 122.57 21.66 125.59 17.94 C 123.28 14.41 118.74 14.30 114.98 14.73 C 112.87 15.04 110.10 15.50 109.48 17.93 Z" />
<path fill="#ea8923" opacity="1.00" d=" M 124.62 26.71 C 125.58 24.80 127.59 23.85 129.19 22.57 C 129.77 24.99 130.74 27.85 128.96 30.03 C 125.64 34.04 119.92 34.80 115.02 34.58 C 111.68 34.28 107.54 33.25 106.08 29.86 C 105.29 28.02 107.04 26.99 108.15 25.88 C 111.50 29.93 117.26 29.97 121.99 28.97 C 123.34 28.90 124.06 27.78 124.62 26.71 Z" />
<path fill="#ea8923" opacity="1.00" d=" M 124.53 36.06 C 125.60 34.15 127.71 33.27 129.43 32.07 C 130.07 34.77 130.55 38.10 128.11 40.08 C 123.54 43.92 116.85 44.46 111.25 42.98 C 108.68 42.20 105.31 40.21 106.08 37.04 C 106.71 36.30 107.44 35.64 108.14 34.97 C 111.51 39.01 117.27 39.06 122.01 38.06 C 123.22 37.98 123.94 36.98 124.53 36.06 Z" />
</g>
<g id="#f8b715ff">
<path fill="#f8b715" opacity="1.00" d=" M 138.15 11.18 C 142.65 8.32 149.25 8.05 153.47 11.54 C 155.35 13.11 154.08 15.50 152.26 16.39 C 149.32 13.05 143.54 11.93 140.30 15.42 C 137.63 18.89 137.55 24.31 140.12 27.85 C 143.28 31.67 149.68 30.77 152.39 26.84 C 154.41 27.63 155.71 30.05 153.84 31.77 C 147.96 36.88 136.74 34.77 133.99 27.12 C 132.08 21.70 133.02 14.53 138.15 11.18 Z" />
<path fill="#f8b715" opacity="1.00" d=" M 163.68 10.98 C 168.07 7.94 174.27 8.79 177.27 13.36 C 179.57 10.43 183.13 8.27 186.98 9.21 C 191.15 9.56 193.70 13.51 194.00 17.40 L 194.00 33.71 C 192.45 33.82 190.89 33.95 189.34 33.79 C 188.16 28.12 189.55 22.24 188.51 16.55 C 187.69 12.17 180.66 12.39 179.40 16.37 C 177.63 22.16 179.05 28.32 178.18 34.25 C 176.78 34.12 175.40 33.95 174.02 33.72 C 172.13 27.84 174.70 21.25 172.49 15.40 C 170.59 12.02 164.81 13.00 163.80 16.65 C 161.99 22.16 163.70 28.08 162.53 33.69 C 160.89 34.19 157.55 34.68 158.00 32.01 C 157.78 24.51 157.69 16.97 158.16 9.47 C 160.12 9.47 161.99 9.97 163.68 10.98 Z" />
</g>
</svg>
