<?xml version="1.0" encoding="UTF-8" standalone="no"?>
<svg width="528px" height="130px" viewBox="0 0 528 130" version="1.1" xmlns="http://www.w3.org/2000/svg" xmlns:xlink="http://www.w3.org/1999/xlink" xmlns:sketch="http://www.bohemiancoding.com/sketch/ns">
    <!-- Generator: Sketch 3.2 (9961) - http://www.bohemiancoding.com/sketch -->
    <title>#4c9cd4ff</title>
    <desc>Created with Sketch.</desc>
    <defs></defs>
    <g id="Page-1" stroke="none" stroke-width="1" fill="none" fill-rule="evenodd" sketch:type="MSPage">
        <g id="#4c9cd4ff" sketch:type="MSLayerGroup" fill="#4C9CD4">
            <path d="M8.29,0.44 C31.87,0.24 55.46,0.41 79.05,0.35 C82.85,0.02 86.54,2.48 87.78,6.05 C88.34,9.02 88.08,12.05 88.12,15.05 C88.06,50.39 88.14,85.74 88.08,121.08 C88.22,125.38 84.38,129.44 80,129.21 C56.33,129.27 32.65,129.29 8.98,129.2 C4.03,129.52 0.23,124.65 0.55,119.96 C0.59,82.97 0.53,45.98 0.58,8.99 C0.51,4.76 3.9,0.55 8.29,0.44 L8.29,0.44 Z M27.89,7.38 C26.05,10.61 31.01,10.28 32.98,10.36 C42.67,9.89 52.51,11.25 62.09,9.54 C61.53,8.23 60.83,6.5 59.03,6.85 C50.68,6.68 42.33,6.9 33.98,6.75 C31.95,6.84 29.8,6.54 27.89,7.38 L27.89,7.38 Z M7.78,17.25 C7.82,47.73 7.83,78.21 7.78,108.69 C32.31,108.79 56.84,108.71 81.37,108.74 C81.35,78.29 81.28,47.84 81.41,17.39 C56.87,17.18 32.33,17.21 7.78,17.25 L7.78,17.25 Z M34.48,116.37 C34.27,117.03 33.85,118.34 33.64,119 C33.86,119.71 34.3,121.13 34.51,121.84 C40.58,122.65 46.76,122.46 52.85,122.18 C55.23,121.77 54.49,119.06 54.87,117.34 C54.47,116.86 53.66,115.89 53.26,115.4 C47.04,115.48 40.39,113.93 34.48,116.37 L34.48,116.37 Z" id="Shape" sketch:type="MSShapeGroup"></path>
            <path d="M105.34,16.17 C106.9,16.17 108.46,16.17 110.02,16.16 C112.98,26.77 115.98,37.37 118.76,48.02 C119.07,44.34 120.12,40.8 121.16,37.28 C123.29,30.24 125.13,23.12 127.29,16.1 C128.64,16.15 130,16.2 131.35,16.25 C134.04,26.75 137.36,37.1 139.65,47.7 C141.98,37.1 145.03,26.66 147.76,16.15 C149.3,16.16 150.86,16.17 152.41,16.17 C148.96,28.38 145.6,40.61 142.12,52.81 C140.44,52.78 138.77,52.77 137.1,52.75 C134.39,42.77 131.3,32.88 128.99,22.8 C126.84,32.93 123.63,42.8 120.9,52.78 C119.26,52.79 117.62,52.8 115.99,52.81 C112.36,40.62 108.84,28.4 105.34,16.17 L105.34,16.17 Z" id="Shape" sketch:type="MSShapeGroup"></path>
            <path d="M154.27,16.2 C158.06,16.19 161.84,16.18 165.63,16.17 C165.64,17.39 165.64,18.6 165.65,19.82 C164.49,19.82 163.32,19.83 162.17,19.83 C162.2,29.59 162.18,39.34 162.18,49.1 C163.34,49.13 164.5,49.16 165.67,49.19 C165.67,50.39 165.67,51.58 165.68,52.78 C161.88,52.77 158.08,52.78 154.28,52.79 C154.28,51.6 154.29,50.41 154.29,49.22 C155.45,49.19 156.61,49.16 157.78,49.14 C157.75,39.37 157.73,29.61 157.76,19.84 C156.6,19.84 155.45,19.83 154.29,19.82 C154.28,18.62 154.28,17.41 154.27,16.2 L154.27,16.2 Z" id="Shape" sketch:type="MSShapeGroup"></path>
            <path d="M171.83,16.15 C173.62,16.14 175.41,16.12 177.2,16.09 C183.89,26.28 190.52,36.51 196.92,46.87 C196.97,36.64 196.93,26.41 196.95,16.18 C198.41,16.18 199.87,16.17 201.33,16.17 C201.24,28.38 201.37,40.59 201.28,52.81 C199.54,52.8 197.81,52.79 196.08,52.8 C189.42,42.43 182.5,32.23 176.09,21.72 C176.19,32.09 176.09,42.46 176.11,52.83 C174.67,52.81 173.24,52.79 171.82,52.77 C171.8,40.56 171.76,28.36 171.83,16.15 L171.83,16.15 Z" id="Shape" sketch:type="MSShapeGroup"></path>
            <path d="M210.57,16.17 C218.82,16.45 228.45,14.81 235.21,20.73 C243.1,28.87 241.38,44.63 231.22,50.23 C224.94,53.83 217.44,52.53 210.55,52.8 C210.57,40.59 210.53,28.38 210.57,16.17 L210.57,16.17 Z M214.91,20.12 C214.9,29.71 214.91,39.3 214.91,48.89 C219.63,48.87 224.76,49.52 229.01,46.97 C236.34,42.59 237.29,31.72 232.93,24.96 C228.74,19.42 221.09,19.91 214.91,20.12 L214.91,20.12 Z" id="Shape" sketch:type="MSShapeGroup"></path>
            <path d="M256.37,16.64 C262.3,14.98 269.47,15.44 274.06,19.98 C280.46,26.14 280.71,36.57 277.35,44.33 C273.39,53.02 261.7,55.57 253.64,51.33 C240.81,44.25 242.24,21.4 256.37,16.64 L256.37,16.64 Z M258.27,20.2 C248.78,23.64 247.12,36.99 252.4,44.59 C256.54,50.87 266.69,51.06 271.52,45.53 C276.19,39.55 276,30.33 272.04,24.03 C269,19.79 263.04,18.65 258.27,20.2 L258.27,20.2 Z" id="Shape" sketch:type="MSShapeGroup"></path>
            <path d="M282.45,16.17 C284.01,16.16 285.58,16.15 287.14,16.15 C289.87,26.81 293.53,37.27 295.48,48.12 C297.9,37.36 301.54,26.93 304.23,16.25 C305.64,16.21 307.05,16.17 308.46,16.13 C311.15,26.65 314.37,37.03 316.76,47.63 C319.13,37.05 322.08,26.61 324.9,16.15 C326.42,16.16 327.95,16.17 329.48,16.18 C326.2,28.38 322.57,40.48 319.4,52.71 C317.66,52.74 315.92,52.76 314.18,52.79 C311.61,42.77 308.29,32.94 306.18,22.82 C303.95,32.91 300.68,42.74 298.09,52.75 C296.4,52.77 294.71,52.78 293.03,52.8 C289.53,40.58 285.92,28.4 282.45,16.17 L282.45,16.17 Z" id="Shape" sketch:type="MSShapeGroup"></path>
            <path d="M336.53,18.59 C341.49,14.75 348.33,15.54 354.07,16.77 C354.06,18.42 354.06,20.07 354.07,21.72 C349.91,19.7 344.93,18.61 340.54,20.58 C337.48,21.96 336.59,26.6 339.26,28.8 C343.36,32.25 348.96,33.44 352.8,37.27 C356.81,41 356.13,48.53 351.27,51.26 C346.78,53.82 341.23,53.57 336.33,52.51 C335.3,52.08 333.72,52.13 333.23,50.96 C333.08,49.44 333,47.91 332.99,46.38 C337.41,48.88 342.81,50.59 347.79,48.67 C351,47.47 352.03,42.92 349.66,40.44 C345.49,36.28 338.99,35.4 335.06,30.9 C331.86,27.38 332.71,21.33 336.53,18.59 L336.53,18.59 Z" id="Shape" sketch:type="MSShapeGroup"></path>
            <path d="M386.66,16.23 C388.09,16.19 389.53,16.15 390.98,16.1 C395.87,28.27 400.45,40.57 405.2,52.8 C403.57,52.79 401.95,52.78 400.33,52.77 C399.07,49.34 397.81,45.92 396.44,42.54 C391.33,42.59 386.23,42.59 381.13,42.56 C379.94,45.97 378.69,49.35 377.47,52.74 C375.87,52.77 374.28,52.81 372.7,52.84 C377.21,40.59 381.97,28.42 386.66,16.23 L386.66,16.23 Z M388.79,21.09 C387.01,27.05 384.58,32.78 382.59,38.67 C386.76,38.67 390.94,38.66 395.12,38.7 C392.99,32.83 390.57,27.07 388.79,21.09 L388.79,21.09 Z" id="Shape" sketch:type="MSShapeGroup"></path>
            <path d="M409.6,16.16 C418.53,16.27 427.46,16.07 436.39,16.26 C429.29,27.31 421.8,38.12 414.3,48.91 C421.36,48.93 428.42,48.92 435.47,48.94 C435.44,50.23 435.42,51.52 435.4,52.8 C426.04,52.59 416.67,53.12 407.34,52.51 C414.5,41.6 421.89,30.85 429.2,20.04 C422.65,20.1 416.1,20.07 409.55,20.06 C409.56,18.76 409.58,17.46 409.6,16.16 L409.6,16.16 Z" id="Shape" sketch:type="MSShapeGroup"></path>
            <path d="M441.14,16.15 C442.56,16.16 443.98,16.18 445.41,16.19 C445.44,23.13 445.42,30.07 445.4,37.01 C445.41,40.23 445.52,43.78 447.61,46.44 C451.94,51.76 462.71,50.05 463.65,42.68 C464.4,33.89 463.86,25.02 464.1,16.21 C465.54,16.17 466.97,16.13 468.42,16.09 C468.39,23.4 468.44,30.71 468.4,38.01 C468.36,42.36 467.56,47.2 464.15,50.23 C460.19,53.68 454.38,53.7 449.51,52.69 C444.31,51.46 441.36,46.12 441.22,41.08 C440.98,32.77 441.2,24.46 441.14,16.15 L441.14,16.15 Z" id="Shape" sketch:type="MSShapeGroup"></path>
            <path d="M477.3,16.18 C483.87,16.73 492.12,14.3 497.13,19.85 C501.61,25.35 498.35,34.21 491.56,35.91 C496.76,40.53 499.51,47.12 503.36,52.8 C501.62,52.78 499.89,52.77 498.17,52.77 C495.34,48.29 493.09,43.4 489.72,39.29 C487.77,36.87 484.35,37.46 481.63,37.2 C481.6,42.39 481.63,47.59 481.65,52.79 C480.19,52.79 478.73,52.8 477.28,52.81 C477.27,40.6 477.2,28.39 477.3,16.18 L477.3,16.18 Z M481.62,20.08 C481.63,24.54 481.63,29 481.62,33.46 C484.37,33.41 487.16,33.67 489.88,33.13 C494.66,31.83 496.26,24.73 492.49,21.52 C489.35,19.25 485.22,20.26 481.62,20.08 L481.62,20.08 Z" id="Shape" sketch:type="MSShapeGroup"></path>
            <path d="M508.53,16.16 C514.7,16.19 520.88,16.21 527.06,16.15 C527.05,17.45 527.05,18.75 527.06,20.06 C522.31,20.07 517.55,20.06 512.8,20.11 C512.86,24.12 512.85,28.12 512.84,32.12 C517.21,32.13 521.58,32.13 525.96,32.17 C525.91,33.49 525.87,34.8 525.84,36.12 C521.5,36.15 517.17,36.14 512.84,36.16 C512.84,40.4 512.86,44.64 512.82,48.89 C517.84,48.94 522.86,48.91 527.88,48.95 C527.82,50.23 527.78,51.52 527.74,52.8 C521.33,52.77 514.92,52.74 508.51,52.82 C508.5,40.6 508.49,28.38 508.53,16.16 L508.53,16.16 Z" id="Shape" sketch:type="MSShapeGroup"></path>
            <path d="M25.74,52.38 C31.78,48.8 37.81,45.22 43.93,41.78 C49.94,45.39 56.08,48.77 62.04,52.45 C56.07,56.07 49.96,59.46 43.95,63.01 C37.94,59.36 31.78,55.98 25.74,52.38 L25.74,52.38 Z" id="Shape" sketch:type="MSShapeGroup"></path>
            <path d="M25.46,56.19 C31.22,59.54 37.07,62.75 42.7,66.32 C42.62,73.11 42.81,79.91 42.58,86.7 C36.92,83.31 31.27,79.91 25.5,76.71 C25.45,69.87 25.49,63.03 25.46,56.19 L25.46,56.19 Z" id="Shape" sketch:type="MSShapeGroup"></path>
            <path d="M46.21,66.5 C51.93,62.99 57.78,59.73 63.54,56.29 C63.49,63.08 63.57,69.88 63.53,76.67 C57.74,80 52.01,83.43 46.22,86.76 C46.22,80 46.19,73.25 46.21,66.5 L46.21,66.5 Z" id="Shape" sketch:type="MSShapeGroup"></path>
            <path d="M185.96,76.8 C187.39,76.77 188.82,76.74 190.26,76.71 C190.19,82.41 190.39,88.11 190.12,93.81 C192.29,91.09 195.22,88.48 198.96,88.74 C203.23,88.44 207.43,91.16 208.76,95.25 C210.77,101.03 210.2,108.27 205.86,112.87 C201.52,117.21 193.39,116.81 190.07,111.41 C190.13,112.38 190.26,114.33 190.32,115.3 C188.87,115.26 187.42,115.22 185.97,115.19 C185.87,102.39 185.93,89.59 185.96,76.8 L185.96,76.8 Z M196.38,92.49 C192.94,93.17 190.49,96.5 190.33,99.92 C190.12,103.24 189.7,107.15 192.17,109.81 C195.08,113.45 201.54,112.81 203.8,108.77 C205.87,105.05 205.99,100.34 204.53,96.39 C203.25,93.27 199.61,91.61 196.38,92.49 L196.38,92.49 Z" id="Shape" sketch:type="MSShapeGroup"></path>
            <path d="M217.49,77.47 C220.74,75.94 223.07,81.44 219.55,82.58 C216.26,84.26 213.93,78.47 217.49,77.47 L217.49,77.47 Z" id="Shape" sketch:type="MSShapeGroup"></path>
            <path d="M229.22,76.8 C230.65,76.78 232.09,76.76 233.52,76.74 C233.48,89.58 233.46,102.43 233.52,115.27 C232.09,115.24 230.65,115.22 229.23,115.21 C229.28,102.41 229.26,89.61 229.22,76.8 L229.22,76.8 Z" id="Shape" sketch:type="MSShapeGroup"></path>
            <path d="M384.35,77.36 C387.72,76.17 389.44,81.99 385.79,82.72 C382.43,83.9 380.91,78.07 384.35,77.36 L384.35,77.36 Z" id="Shape" sketch:type="MSShapeGroup"></path>
            <path d="M285.77,80.74 C290.77,77.38 297.18,77.94 302.78,79.2 C302.79,80.86 302.8,82.52 302.82,84.19 C298.5,82.06 292.93,80.83 288.61,83.59 C285.81,85.28 285.81,89.73 288.37,91.64 C292.77,95.06 298.76,96.25 302.4,100.69 C305.62,104.71 304.43,111.42 299.83,113.87 C294.31,116.85 287.65,115.99 281.94,114 C281.93,112.32 281.91,110.64 281.89,108.96 C286.38,111.48 292.02,113.12 296.96,110.97 C300.34,109.51 300.54,104.37 297.72,102.24 C293.45,98.64 287.36,97.64 283.69,93.23 C280.56,89.5 281.67,83.3 285.77,80.74 L285.77,80.74 Z" id="Shape" sketch:type="MSShapeGroup"></path>
            <path d="M109.28,115.18 C109.43,103.01 109.3,90.84 109.36,78.67 C111.29,78.66 113.22,78.65 115.15,78.65 C119.42,88.6 123.98,98.44 128.09,108.47 C132.14,98.41 136.85,88.63 141.21,78.7 C143.04,78.69 144.87,78.69 146.7,78.69 C146.66,90.87 146.65,103.04 146.72,115.21 C145.24,115.22 143.77,115.22 142.3,115.24 C142.61,104.73 141.82,94.18 142.76,83.7 C141.02,89.07 138.45,94.1 136.2,99.26 C133.72,104.54 131.76,110.07 128.97,115.2 C128.52,115.2 127.6,115.21 127.15,115.21 C122.24,105.27 118,94.98 113.53,84.83 C113.83,94.97 113.57,105.11 113.69,115.24 C112.22,115.21 110.75,115.19 109.28,115.18 L109.28,115.18 Z" id="Shape" sketch:type="MSShapeGroup"></path>
            <path d="M161.43,89.65 C167.01,87.67 174.72,88.65 177.64,94.45 C180.72,100.67 179.98,109.66 173.85,113.8 C168.16,117.35 159.31,116.33 155.75,110.24 C151.74,103.51 153.61,92.75 161.43,89.65 L161.43,89.65 Z M164.42,92.59 C158.12,94.18 156.76,102.5 159.24,107.69 C161.4,113.08 169.86,113.79 173.2,109.2 C175.47,105.93 175.35,101.53 174.41,97.82 C173.35,93.54 168.47,91.35 164.42,92.59 L164.42,92.59 Z" id="Shape" sketch:type="MSShapeGroup"></path>
            <path d="M216.57,89.13 C217.97,89.15 219.37,89.16 220.77,89.18 C220.77,97.87 220.72,106.55 220.82,115.24 C219.38,115.24 217.95,115.25 216.52,115.26 C216.61,106.55 216.48,97.84 216.57,89.13 L216.57,89.13 Z" id="Shape" sketch:type="MSShapeGroup"></path>
            <path d="M243.97,92.03 C248.06,87.76 255.94,87.41 259.93,91.97 C262.67,95.06 262.81,99.39 262.99,103.3 C256.67,103.34 250.35,103.24 244.04,103.35 C244.68,106.13 245.27,109.41 247.98,110.96 C252.19,113.47 257.33,111.8 261.18,109.4 C261.17,110.39 261.17,112.36 261.17,113.34 C255.32,116.82 246.24,117.2 242.12,110.94 C238.77,105.17 239.08,96.86 243.97,92.03 L243.97,92.03 Z M247.2,94.13 C245.55,95.54 244.97,97.72 244.1,99.62 C248.99,99.8 253.9,99.77 258.79,99.68 C258.25,98.07 257.99,96.35 257.14,94.87 C255.04,91.54 249.88,91.58 247.2,94.13 L247.2,94.13 Z" id="Shape" sketch:type="MSShapeGroup"></path>
            <path d="M315.36,90.29 C320.09,87.39 327.7,88.37 330.32,93.69 C332.03,96.58 331.98,100.04 332.2,103.29 C325.86,103.35 319.52,103.21 313.18,103.39 C314.02,106.04 314.42,109.35 317.08,110.89 C321.24,113.48 326.45,111.87 330.25,109.4 C330.23,110.42 330.2,112.46 330.18,113.48 C324.44,116.63 315.89,117.2 311.62,111.39 C307.43,104.89 308.35,94.51 315.36,90.29 L315.36,90.29 Z M316.25,94.26 C314.67,95.68 314.16,97.8 313.43,99.7 C318.28,99.75 323.14,99.77 327.99,99.69 C327.49,98.04 327.15,96.31 326.28,94.8 C324.08,91.52 318.89,91.6 316.25,94.26 L316.25,94.26 Z" id="Shape" sketch:type="MSShapeGroup"></path>
            <path d="M338.13,89.18 C339.57,89.17 341.03,89.17 342.48,89.17 C342.4,90.91 342.31,92.66 342.19,94.4 C343.22,92.77 344.07,90.88 345.74,89.78 C347.45,88.44 349.74,88.96 351.75,88.82 C351.76,90.19 351.77,91.56 351.8,92.93 C348.56,91.97 344.62,92.9 343.43,96.39 C341.39,102.45 342.81,109.02 342.44,115.29 C340.99,115.24 339.54,115.21 338.09,115.18 C338.19,106.51 338.15,97.84 338.13,89.18 L338.13,89.18 Z" id="Shape" sketch:type="MSShapeGroup"></path>
            <path d="M354.38,89.14 C355.89,89.13 357.41,89.12 358.93,89.11 C361.56,96.54 364.51,103.88 366.6,111.49 C368.76,103.91 371.9,96.65 374.48,89.2 C375.98,89.18 377.48,89.17 378.99,89.15 C375.56,97.84 371.94,106.46 368.63,115.2 C367.17,115.21 365.71,115.22 364.26,115.23 C361.06,106.5 357.61,97.86 354.38,89.14 L354.38,89.14 Z" id="Shape" sketch:type="MSShapeGroup"></path>
            <path d="M383.13,89.18 C384.55,89.17 385.97,89.17 387.4,89.16 C387.42,97.87 387.4,106.57 387.41,115.27 C385.97,115.25 384.54,115.23 383.12,115.22 C383.18,106.54 383.17,97.86 383.13,89.18 L383.13,89.18 Z" id="Shape" sketch:type="MSShapeGroup"></path>
            <path d="M401.7,89.84 C405.48,88.14 409.78,88.66 413.64,89.82 C413.65,91.25 413.67,92.68 413.7,94.11 C410.91,92.87 407.8,91.66 404.74,92.71 C396.94,95.09 396.11,108 403.42,111.48 C406.85,112.98 410.63,111.86 413.75,110.15 C413.72,111.46 413.7,112.77 413.7,114.08 C409.23,116.23 403.63,116.59 399.36,113.78 C391.32,108.23 392.68,93.72 401.7,89.84 L401.7,89.84 Z" id="Shape" sketch:type="MSShapeGroup"></path>
            <path d="M420.21,94.32 C423.51,88.35 432.57,86.75 437.57,91.44 C440.68,94.53 441.01,99.18 440.98,103.32 C434.71,103.3 428.44,103.29 422.18,103.3 C422.85,106.26 423.55,109.92 426.66,111.29 C430.81,113.3 435.55,111.75 439.2,109.39 C439.11,110.83 439.02,112.27 438.96,113.71 C433.69,116.15 426.64,117.18 421.98,112.97 C417.13,108.24 416.95,99.99 420.21,94.32 L420.21,94.32 Z M426.32,93.3 C424.04,94.69 423.19,97.36 422.18,99.67 C427.11,99.78 432.04,99.78 436.97,99.63 C436.27,97.83 435.97,95.81 434.79,94.23 C432.71,91.89 428.91,91.78 426.32,93.3 L426.32,93.3 Z" id="Shape" sketch:type="MSShapeGroup"></path>
            <path d="M448.03,91.08 C451.72,87.91 457,88.59 461.36,89.7 C461.36,91.19 461.37,92.67 461.4,94.16 C458.32,92.74 454.51,91.26 451.34,93.25 C449.7,94.19 450.24,96.3 449.89,97.85 C453.24,100.11 457.34,100.99 460.56,103.46 C463.76,106.13 463.18,111.62 459.74,113.84 C455.53,116.59 450.05,116.15 445.55,114.38 C445.54,112.88 445.54,111.37 445.54,109.87 C448.79,111.84 452.89,113.03 456.58,111.55 C458.88,110.6 458.69,107.39 456.97,105.95 C454.12,103.99 450.53,103.4 447.79,101.27 C444.63,98.82 444.91,93.45 448.03,91.08 L448.03,91.08 Z" id="Shape" sketch:type="MSShapeGroup"></path>
        </g>
    </g>
</svg>