<?xml version="1.0" encoding="UTF-8" standalone="no"?>
<svg width="1377px" height="395px" viewBox="0 0 1377 395" version="1.1" xmlns="http://www.w3.org/2000/svg" xmlns:xlink="http://www.w3.org/1999/xlink" xmlns:sketch="http://www.bohemiancoding.com/sketch/ns">
    <!-- Generator: Sketch 3.2 (9961) - http://www.bohemiancoding.com/sketch -->
    <title>Group</title>
    <desc>Created with Sketch.</desc>
    <defs></defs>
    <g id="Page-1" stroke="none" stroke-width="1" fill="none" fill-rule="evenodd" sketch:type="MSPage">
        <g id="Group" sketch:type="MSLayerGroup" transform="translate(0.000000, -41.000000)">
            <path d="M3.75,263.97 C5.43,258.6 8.24,252.56 14.07,250.78 C16.44,249.74 18.48,251.86 20.51,252.79 C20.35,261.44 18.63,270.16 15.08,278.07 C12.81,283.2 7.63,287.06 1.86,286.59 C-0.51,279.06 1.72,271.29 3.75,263.97 L3.75,263.97 Z" id="Shape" fill="#FFFFFF" sketch:type="MSShapeGroup"></path>
            <g id="#4b0000ff" transform="translate(149.000000, 64.000000)" fill="#4B0000" sketch:type="MSShapeGroup">
                <path d="M20.03,45.11 C26.87,29.61 34.49,14.41 43.73,0.18 C63.27,16.47 82.07,33.66 99.69,52.03 C113.04,66.05 126.04,80.42 138.31,95.4 C168.74,132.92 195.98,173.52 214.77,218.2 C211.19,213.14 208.1,207.77 204.67,202.63 C194.64,186.65 183.86,171.14 172.71,155.92 C160.5,138.71 146.92,122.44 132.24,107.28 C126.21,100.55 119.34,94.62 112.4,88.86 C99.86,78.34 85.28,69.22 68.94,66.32 C55.64,63.82 41.68,68.44 31.62,77.27 C29.8,78.84 28.08,80.49 26.48,82.26 C23.62,85.36 20.79,88.51 18.49,92.06 C16.22,95.44 13.97,98.84 11.96,102.37 C9.06,102.63 8.02,105.59 6.58,107.64 C5,110.3 3.15,112.96 0.21,114.23 C-0.15,109.58 0.71,104.95 0.38,100.31 C5.55,81.49 12.35,63.07 20.03,45.11 L20.03,45.11 Z M37.47,13.51 C31.58,23.17 26.41,33.29 22.35,43.86 C21.42,46.36 20.8,49.02 19.35,51.29 C16.41,55.75 15.85,61.21 14.23,66.19 C12.13,75 8.69,83.75 9.4,92.96 C10.64,92.45 12.07,92.13 12.97,91.01 C19.28,83.63 26.02,76.33 34.5,71.39 C50.83,61.56 71.72,61.58 89,68.93 C105.68,76.03 117.54,90.3 130.24,102.66 C136.66,108.62 141.92,115.68 148.3,121.7 C153.69,128.22 159.62,134.29 165.92,139.93 C165.43,136.1 162.94,133.05 161.04,129.84 C149.86,111.9 136.59,95.35 122.2,79.9 C114.79,72.3 106.86,65.2 99.86,57.22 C95.85,52.89 92.57,47.88 88.16,43.95 C84.29,41.49 81.97,37.45 78.68,34.39 C75.78,31.56 73.63,28.06 70.52,25.46 C62.95,19.58 56.78,11.72 48.07,7.43 C43.33,5.95 40.01,10.24 37.47,13.51 L37.47,13.51 Z" id="Shape"></path>
            </g>
            <g id="#4d0000ff" transform="translate(88.000000, 68.000000)" fill="#4D0000" sketch:type="MSShapeGroup">
                <path d="M24.32,55.24 C34.75,36.28 46.31,17.88 59.54,0.75 C45.24,27.37 31.62,54.4 20.01,82.32 C16.95,89.36 14.27,96.57 11.56,103.75 C11.33,95.09 16.94,87.51 16.89,78.82 C11,84.47 7.96,92.22 4.33,99.34 C3.48,101 2.14,102.32 0.92,103.68 C7.68,87.07 15.74,70.99 24.32,55.24 L24.32,55.24 Z" id="Shape"></path>
                <path d="M127.17,109.96 C148.45,126.85 168.18,145.68 186.66,165.59 C188.44,167.52 190.12,169.55 191.78,171.61 C186.99,169.64 184.11,163.86 178.66,163.68 C177.91,166.9 180.02,169.72 181.3,172.5 C183.36,176.22 184.94,180.19 186,184.31 C178.38,169.9 168.78,156.63 158.28,144.19 C155.29,140.72 152.37,137.18 149.28,133.8 C142.06,125.71 134.52,117.92 127.17,109.96 L127.17,109.96 Z" id="Shape"></path>
            </g>
            <g id="#7c0000ff" transform="translate(158.000000, 71.000000)" fill="#7C0000" sketch:type="MSShapeGroup">
                <path d="M28.47,6.51 C31.01,3.24 34.33,-1.05 39.07,0.43 C47.78,4.72 53.95,12.58 61.52,18.46 C64.63,21.06 66.78,24.56 69.68,27.39 C72.97,30.45 75.29,34.49 79.16,36.95 C83.57,40.88 86.85,45.89 90.86,50.22 C97.86,58.2 105.79,65.3 113.2,72.9 C127.59,88.35 140.86,104.9 152.04,122.84 C153.94,126.05 156.43,129.1 156.92,132.93 C150.62,127.29 144.69,121.22 139.3,114.7 C132.92,108.68 127.66,101.62 121.24,95.66 C108.54,83.3 96.68,69.03 80,61.93 C62.72,54.58 41.83,54.56 25.5,64.39 C17.02,69.33 10.28,76.63 3.97,84.01 C3.07,85.13 1.64,85.45 0.4,85.96 C-0.31,76.75 3.13,68 5.23,59.19 C6.85,54.21 7.41,48.75 10.35,44.29 C11.8,42.02 12.42,39.36 13.35,36.86 C17.41,26.29 22.58,16.17 28.47,6.51 L28.47,6.51 Z M29,9.95 C23.62,18.88 18.62,28.3 15.67,38.3 C13.42,40.05 13.1,42.97 12.38,45.51 C11.54,49.29 10.28,53.11 10.64,57.02 C10.87,59.35 13.24,61.9 15.72,60.8 C26.06,58 36.33,54.64 47.03,53.51 C55.02,53.01 63.04,53.51 71.04,53.36 C74.27,53.06 77.96,52.52 80.27,49.99 C80.28,43.75 75.73,38.61 72.43,33.62 C70.77,31.76 69.59,28.59 66.72,28.59 C65.99,25.87 63.51,24.23 61.72,22.24 C54.98,15.64 48.31,8.63 40.03,3.95 C35.16,1.53 31.26,6.24 29,9.95 L29,9.95 Z" id="Shape"></path>
            </g>
            <g id="#c60000ff" transform="translate(173.000000, 74.000000)" fill="#C60000" sketch:type="MSShapeGroup">
                <path d="M14,6.95 C16.26,3.24 20.16,-1.47 25.03,0.95 C33.31,5.63 39.98,12.64 46.72,19.24 C48.51,21.23 50.99,22.87 51.72,25.59 C52.72,30.47 57.36,34.62 55.95,39.87 C54.04,44.51 48.47,45.64 44.02,46.21 C34.74,47.2 25.4,47.81 16.19,49.38 C11.41,49.89 6.28,51.16 1.68,49.25 C-1.22,45.18 1.45,39.89 0.67,35.3 C3.62,25.3 8.62,15.88 14,6.95 L14,6.95 Z M21.41,5.46 C18.73,6.11 17.3,8.69 15.83,10.77 C11.31,17.73 7.45,25.29 5.54,33.4 C5.48,36.25 4.21,40.12 6.78,42.22 C12.74,43.44 18.95,44.15 25,43.03 C31.59,42.36 38.82,42.51 44.41,38.38 C47.25,36.41 49.82,32.5 47.78,29.1 C43.93,20.92 37.33,14.24 30,9.08 C27.38,7.48 24.7,4.93 21.41,5.46 L21.41,5.46 Z" id="Shape"></path>
            </g>
            <path d="M237.28,201.8 C240.37,205.18 243.29,208.72 246.28,212.19 C245.61,213.14 244.96,214.09 244.34,215.04 C246.82,221.88 251.5,227.52 255.65,233.39 C261.91,242.17 268.58,250.68 274.16,259.93 C276.48,263.8 278.8,267.69 281.54,271.3 C282.51,274.57 283.11,277.94 283.49,281.34 C281.07,279.8 280.53,276.88 279.35,274.49 C269.91,255.87 256.47,239.72 243.57,223.43 C239.91,218.21 235.42,213.29 233.47,207.1 C232.42,204.33 235.42,203.01 237.28,201.8 L237.28,201.8 Z" id="Shape" fill="#E5E0E0" sketch:type="MSShapeGroup"></path>
            <path d="M135.35,107.35 C139.89,101.67 144.08,95.01 151.01,91.99 C154.53,90.33 158.01,94.65 157.41,98.01 C156.55,105.47 152.83,112.12 149.91,118.9 C133.44,153.67 116.83,188.79 107.56,226.31 C104.31,241.25 101.39,256.61 103.25,271.94 C103.48,276.97 104.64,281.93 106.51,286.6 C107.66,289.51 109.49,292.19 109.86,295.37 C107.74,294.31 105.71,293.1 103.77,291.75 C102.58,285.57 99.94,279.73 99.42,273.41 C97.56,262.29 99.17,251.03 100.87,240.01 C108,200.44 125.18,163.77 141.07,127.14 C143.66,120.73 147.02,114.27 146.66,107.15 C141.62,106.96 138.99,111.77 136.07,115.06 C124.04,131.04 114.66,148.81 105.75,166.67 C103.44,171.07 102.39,175.97 100.25,180.44 C98.07,185.04 96.01,189.69 94.08,194.4 C92.99,196.9 92.32,199.73 90.29,201.67 C92.8,191.53 96.19,181.63 99.56,171.75 C102.27,164.57 104.95,157.36 108.01,150.32 C108.47,150.29 109.38,150.24 109.84,150.21 C117.64,135.54 125.58,120.83 135.35,107.35 L135.35,107.35 Z" id="Shape" fill="#E8E3E3" sketch:type="MSShapeGroup"></path>
            <g id="#ef0000ff" transform="translate(178.000000, 79.000000)" fill="#EF0000" sketch:type="MSShapeGroup">
                <path d="M16.41,0.46 C19.7,-0.07 22.38,2.48 25,4.08 C32.33,9.24 38.93,15.92 42.78,24.1 C44.82,27.5 42.25,31.41 39.41,33.38 C33.82,37.51 26.59,37.36 20,38.03 C13.95,39.15 7.74,38.44 1.78,37.22 C-0.79,35.12 0.48,31.25 0.54,28.4 C2.45,20.29 6.31,12.73 10.83,5.77 C12.3,3.69 13.73,1.11 16.41,0.46 L16.41,0.46 Z M9.54,21.03 C9.9,21.55 10.62,22.6 10.98,23.12 C14.94,25.4 19.92,24.98 23.98,23.13 C24.34,22.61 25.07,21.56 25.44,21.04 C25.48,19.61 25.55,18.18 25.64,16.75 C24.29,14.54 22.36,12.84 20.23,11.44 C18.05,11.43 15.9,11.44 13.75,11.46 C10.69,13.68 8.71,17.17 9.54,21.03 L9.54,21.03 Z" id="Shape"></path>
            </g>
            <path d="M196.06,156.01 C205.81,149.22 218.38,145.84 230.11,148.5 C244.78,151.32 257.89,159.29 269.53,168.36 C284.68,180.14 298.03,193.99 310.6,208.44 C314.36,212.22 317.02,217.13 321.71,219.92 C332.86,235.14 343.64,250.65 353.67,266.63 C350.39,265.33 348.43,262.25 346.34,259.61 C328.27,235.91 310.81,211.52 289.5,190.55 C279.75,180.49 269.41,170.85 257.51,163.37 C248.58,157.79 238.96,152.85 228.44,151.23 C219.9,149.39 211.01,151.51 203.24,155.15 C190.39,161.91 181.29,173.89 174.25,186.27 C167.47,198.71 161.61,211.62 155.3,224.3 C154.07,226.91 152.26,229.18 150.17,231.14 C149.48,228.19 149.18,225.15 149.55,222.15 C151.22,205.69 155.01,189.51 160.08,173.79 C160.84,171.63 161.18,169.33 160.57,167.09 L160.96,166.37 C162.97,162.84 165.22,159.44 167.49,156.06 C168.07,158.31 167.62,160.58 166.8,162.71 C163.42,172.04 160.8,181.63 158.38,191.25 C155.64,197.21 154.88,203.93 155.91,210.39 C160.57,206.75 163.65,201.41 165.24,195.77 C173.46,181.14 182.06,165.91 196.06,156.01 L196.06,156.01 Z" id="Shape" fill="#C0B4B4" sketch:type="MSShapeGroup"></path>
            <path d="M244.34,215.04 C244.96,214.09 245.61,213.14 246.28,212.19 C256.78,224.63 266.38,237.9 274,252.31 C276.99,258.43 279.9,264.65 281.54,271.3 C278.8,267.69 276.48,263.8 274.16,259.93 C268.58,250.68 261.91,242.17 255.65,233.39 C251.5,227.52 246.82,221.88 244.34,215.04 L244.34,215.04 Z" id="Shape" fill="#CEC4C4" sketch:type="MSShapeGroup"></path>
            <path d="M331.47,308.1 C332.7,308.57 333.92,309.21 334.64,310.4 C339.52,317.34 343.69,324.75 348,332.06 C349.96,335.49 351.92,339.09 352.43,343.07 C351.72,348.78 346.4,352 341.34,353.4 C297.29,367.18 251.91,376.84 206.01,381.81 C197.21,382.9 188.31,383.07 179.53,384.26 C168.4,382.23 157,384.43 145.81,382.98 C138.22,381.84 129.95,383.35 122.94,379.69 C131.33,376.85 140.31,376.69 149.02,375.38 C175.8,372.43 202.65,368.89 228.7,361.8 C235.03,359.79 241.71,358.52 247.55,355.2 C246.87,354.98 245.51,354.53 244.84,354.31 C251.29,352.96 257.82,351.94 264.27,350.53 C247.58,361.07 227.87,364.67 209.13,369.85 C203.27,371.47 197.22,372.42 191.45,374.34 C189.96,374.68 189.31,376.14 188.57,377.29 C210.32,378.8 232.04,375.3 253.41,371.58 C282.48,366.32 311.23,359.28 339.42,350.44 C343.38,349.21 348.02,346.71 348.36,342.07 C347.71,337.18 344.74,333.07 342.56,328.77 C339.01,321.8 335.16,315 331.47,308.1 L331.47,308.1 Z" id="Shape" fill="#B2A3A3" sketch:type="MSShapeGroup"></path>
            <g id="#ff8888ff" transform="translate(187.000000, 90.000000)" fill="#FF8888" sketch:type="MSShapeGroup">
                <path d="M0.54,10.03 C-0.29,6.17 1.69,2.68 4.75,0.46 C6.9,0.44 9.05,0.43 11.23,0.44 C13.36,1.84 15.29,3.54 16.64,5.75 C16.55,7.18 16.48,8.61 16.44,10.04 C16.07,10.56 15.34,11.61 14.98,12.13 C10.92,13.98 5.94,14.4 1.98,12.12 C1.62,11.6 0.9,10.55 0.54,10.03 L0.54,10.03 Z M4.42,5.46 C4.28,7.21 3.79,9.57 5.79,10.49 C8.17,10.81 11.6,11.09 12.62,8.29 C13.33,6.08 11.77,4.59 10.3,3.27 C8.17,3.31 5.45,3.16 4.42,5.46 L4.42,5.46 Z" id="Shape"></path>
            </g>
            <g id="#ffd6d6ff" transform="translate(191.000000, 93.000000)" fill="#FFD6D6" sketch:type="MSShapeGroup">
                <path d="M0.42,2.46 C1.45,0.16 4.17,0.31 6.3,0.27 C7.77,1.59 9.33,3.08 8.62,5.29 C7.6,8.09 4.17,7.81 1.79,7.49 C-0.21,6.57 0.28,4.21 0.42,2.46 L0.42,2.46 Z" id="Shape"></path>
            </g>
            <g id="#a70000ff" transform="translate(168.000000, 99.000000)" fill="#A70000" sketch:type="MSShapeGroup">
                <path d="M56.72,0.59 C59.59,0.59 60.77,3.76 62.43,5.62 C65.73,10.61 70.28,15.75 70.27,21.99 C67.96,24.52 64.27,25.06 61.04,25.36 C53.04,25.51 45.02,25.01 37.03,25.51 C26.33,26.64 16.06,30 5.72,32.8 C3.24,33.9 0.87,31.35 0.64,29.02 C0.28,25.11 1.54,21.29 2.38,17.51 C3.1,14.97 3.42,12.05 5.67,10.3 C6.45,14.89 3.78,20.18 6.68,24.25 C11.28,26.16 16.41,24.89 21.19,24.38 C30.4,22.81 39.74,22.2 49.02,21.21 C53.47,20.64 59.04,19.51 60.95,14.87 C62.36,9.62 57.72,5.47 56.72,0.59 L56.72,0.59 Z" id="Shape"></path>
            </g>
            <g id="#c9bfbfff" transform="translate(86.000000, 107.000000)" fill="#C9BFBF" sketch:type="MSShapeGroup">
                <path d="M50.07,8.06 C52.99,4.77 55.62,-0.04 60.66,0.15 C61.02,7.27 57.66,13.73 55.07,20.14 C39.18,56.77 22,93.44 14.87,133.01 C13.17,144.03 11.56,155.29 13.42,166.41 C13.94,172.73 16.58,178.57 17.77,184.75 C15.62,183.26 13.65,181.55 11.77,179.76 C11.85,173.4 9.51,167.31 9.49,160.96 C8.53,130.62 18.58,101.41 28.39,73.13 C33.17,58.9 40.33,45.48 43.72,30.79 C42.4,31.4 40.88,31.78 40.01,33 C34.34,40.1 30.61,48.44 26.19,56.31 C16.79,74.25 8.69,92.86 1.54,111.79 C1.19,111.97 0.49,112.33 0.14,112.51 C1.44,106.55 2.38,100.48 4.29,94.67 C6.32,92.73 6.99,89.9 8.08,87.4 C10.01,82.69 12.07,78.04 14.25,73.44 C16.39,68.97 17.44,64.07 19.75,59.67 C28.66,41.81 38.04,24.04 50.07,8.06 L50.07,8.06 Z" id="Shape"></path>
            </g>
            <g id="#e9e4e4ff" transform="translate(47.000000, 114.000000)" fill="#E9E4E4" sketch:type="MSShapeGroup">
                <path d="M203.16,0.86 C206.85,3.42 209.65,7.04 212.92,10.1 C219.84,16.52 225.33,24.29 232.41,30.56 C257.17,57.92 280.22,86.96 299.9,118.23 C308.39,132.08 317.02,145.99 323.13,161.09 C325.25,166.08 327.31,171.51 326.34,177.01 C325.38,179.44 322.33,180.4 320.08,179.25 C314.25,176.48 310.82,170.78 306.91,165.95 C290.23,142.78 274.39,118.91 255.59,97.36 C250.82,91.5 245.43,86.22 240.57,80.45 C227.84,68.06 214.55,55.73 198.51,47.73 C188.73,43.39 177.75,39.72 167.01,42.43 C158.85,43.7 151.81,48.45 145.96,54.04 C133.35,67.56 125.3,84.55 118.89,101.71 C115.15,111.17 112.36,120.98 108.52,130.41 C105.49,136.71 102.81,143.62 96.81,147.73 C90.87,142.05 92.5,133.34 92.5,125.99 C93.67,114.23 96.69,102.77 99.22,91.27 C99.68,89.62 99.39,87.94 99,86.32 C101.39,79.41 104.2,72.64 107.18,65.96 C107.95,68.25 107.75,70.66 107,72.93 C103.84,83.47 101.39,94.21 99.29,105 C98,114.6 96.12,124.5 98.54,134.08 C102.3,133.27 103.55,129.26 105.26,126.3 C113.14,110.17 118.6,92.95 126.89,77.01 C133.62,64.65 141.65,52.25 153.9,44.73 C162.01,39.74 172.01,37.47 181.42,39.4 C196.49,41.78 209.56,50.42 221.41,59.57 C237.83,72.77 251.93,88.53 265.18,104.84 C276.98,119.17 287.78,134.29 298.69,149.3 C303.18,155.69 308.03,161.85 313.45,167.47 C314.99,169.24 317.32,169.69 319.57,169.64 C320.33,162.56 317.16,155.95 314.29,149.7 C296.47,113.37 271.93,80.85 246.11,49.88 C244.57,47.94 242.78,46.06 240.31,45.4 C228.04,30.42 215.04,16.05 201.69,2.03 C202.05,1.74 202.79,1.15 203.16,0.86 L203.16,0.86 Z" id="Shape"></path>
                <path d="M174.11,189.37 C179.46,188.22 185.02,187.99 190.46,188.63 C193.06,189.02 196.02,191.51 195.43,194.34 C192.5,199.02 187.91,202.47 183.06,204.97 C175,209.21 166.17,211.58 157.64,214.61 C135.42,221.62 112.81,227.46 89.87,231.58 C71.72,234.62 53.45,237.43 35.02,237.79 C27.67,238.41 20.24,238.7 12.91,237.89 C8.44,237.55 4.2,234.88 2.02,230.98 C-0.49,225.79 0.18,219.72 1.55,214.32 C1.94,212.75 3.98,212.52 5.35,212.94 L5.97,213.13 C5.29,218.61 3.54,224.77 7.33,229.6 C12.42,234.66 20.36,234.63 27.07,234.28 C34.81,233.27 42.66,233.75 50.4,232.63 C78.38,230.02 106.09,224.7 133.17,217.2 C139.91,215.6 146.1,212.39 152.81,210.69 C158.41,209.14 163.48,206.2 168.66,203.62 C170.92,202.56 172.74,200.8 174.1,198.71 C166.43,197.04 158.67,198.3 150.97,198.92 C139.35,200.42 127.71,201.88 116.01,202.5 C110.43,202.35 104.59,203.36 99.34,201.01 C103.71,200.1 108.04,198.89 112.41,197.93 C119.97,199.58 127.61,197.55 135.1,196.47 C148.18,194.57 161.13,191.87 174.11,189.37 L174.11,189.37 Z" id="Shape"></path>
            </g>
            <path d="M180.62,141.27 C190.68,132.44 204.64,127.82 217.94,130.32 C234.28,133.22 248.86,142.34 261.4,152.86 C254.74,150.81 249.01,146.65 242.44,144.41 C235.85,142.18 229.01,140.26 221.99,140.42 C210.58,140.19 199.38,144.47 190.4,151.36 C185.49,155.32 180.77,159.5 176.3,163.95 C174.46,160.25 176.79,156.3 177.84,152.72 C178.91,148.96 181.8,145.33 180.62,141.27 L180.62,141.27 Z" id="Shape" fill="#614242" sketch:type="MSShapeGroup"></path>
            <path d="M282.07,346.46 C300.36,342.1 318.5,337.1 336.33,331.13 C336.91,334.01 338.53,336.49 339.62,339.18 C340.14,342.63 336.14,343.73 333.63,344.56 C314.32,350.49 294.71,355.44 274.99,359.78 C271.05,360.74 266.98,360.85 262.96,360.7 C268.76,355.18 277,352.87 282.07,346.46 L282.07,346.46 Z" id="Shape" fill="#614242" sketch:type="MSShapeGroup"></path>
            <g id="#a79696ff" transform="translate(85.000000, 137.000000)" fill="#A79696" sketch:type="MSShapeGroup">
                <path d="M41.01,3 C41.88,1.78 43.4,1.4 44.72,0.79 C41.33,15.48 34.17,28.9 29.39,43.13 C19.58,71.41 9.53,100.62 10.49,130.96 C10.51,137.31 12.85,143.4 12.77,149.76 L11.85,148.88 C11.15,148.02 10.45,147.16 9.79,146.3 C8.9,139.21 7.41,132.16 7.6,124.98 C8.22,105.23 12.86,85.91 17.73,66.84 C18.96,61.88 20.38,56.94 20.78,51.82 C16.95,55.7 15.18,60.94 12.66,65.65 C9.36,71.93 6.79,78.55 4.24,85.16 C3.37,87.02 2.75,89.43 0.51,90.07 C0.55,87.99 0.65,85.91 0.88,83.84 C0.94,83.51 1.08,82.84 1.14,82.51 C1.49,82.33 2.19,81.97 2.54,81.79 C9.69,62.86 17.79,44.25 27.19,26.31 C31.61,18.44 35.34,10.1 41.01,3 L41.01,3 Z" id="Shape"></path>
            </g>
            <path d="M190.4,151.36 C199.38,144.47 210.58,140.19 221.99,140.42 C229.01,140.26 235.85,142.18 242.44,144.41 C249.01,146.65 254.74,150.81 261.4,152.86 C268.34,158.62 275.21,164.55 281.24,171.28 C275.23,168.46 270.51,163.65 264.92,160.16 C251.99,151.38 237.09,143.5 221,144.35 C205.59,143.5 191.66,152.66 181.86,163.83 C177.36,168.24 174.31,174.16 168.69,177.32 C167.41,170.47 170.5,163.93 172.46,157.53 C173.72,153.85 175.7,150.27 175.48,146.26 C177.08,144.49 178.8,142.84 180.62,141.27 C181.8,145.33 178.91,148.96 177.84,152.72 C176.79,156.3 174.46,160.25 176.3,163.95 C180.77,159.5 185.49,155.32 190.4,151.36 L190.4,151.36 Z" id="Shape" fill="#775D5D" sketch:type="MSShapeGroup"></path>
            <g id="#988484ff" transform="translate(158.000000, 144.000000)" fill="#988484" sketch:type="MSShapeGroup">
                <path d="M23.86,19.83 C33.66,8.66 47.59,-0.5 63,0.35 C79.09,-0.5 93.99,7.38 106.92,16.16 C112.51,19.65 117.23,24.46 123.24,27.28 C137.92,42.44 151.5,58.71 163.71,75.92 C159.02,73.13 156.36,68.22 152.6,64.44 C140.03,49.99 126.68,36.14 111.53,24.36 C99.89,15.29 86.78,7.32 72.11,4.5 C60.38,1.84 47.81,5.22 38.06,12.01 C24.06,21.91 15.46,37.14 7.24,51.77 C5.07,54.23 2.88,56.67 0.65,59.07 C0.64,55.13 0.56,51.19 0.38,47.25 C2.8,37.63 5.42,28.04 8.8,18.71 C9.62,16.58 10.07,14.31 9.49,12.06 C11.79,8.51 14.62,5.36 17.48,2.26 C17.7,6.27 15.72,9.85 14.46,13.53 C12.5,19.93 9.41,26.47 10.69,33.32 C16.31,30.16 19.36,24.24 23.86,19.83 L23.86,19.83 Z" id="Shape"></path>
            </g>
            <g id="#780000ff" transform="translate(51.000000, 146.000000)" fill="#780000" sketch:type="MSShapeGroup">
                <path d="M41.33,21.34 C44.96,14.22 48,6.47 53.89,0.82 C53.94,9.51 48.33,17.09 48.56,25.75 C45.19,35.63 41.8,45.53 39.29,55.67 C37.38,61.48 36.44,67.55 35.14,73.51 C35.08,73.84 34.94,74.51 34.88,74.84 C33.24,82.88 32.57,91.09 32.65,99.29 C32.64,109.31 34.19,119.58 38.51,128.7 C39.95,131.74 41.64,134.68 43.79,137.3 C44.45,138.16 45.15,139.02 45.85,139.88 C48.29,145.01 53.28,148.14 57.99,150.96 C68.07,156.62 79.37,160.46 91.02,160.62 C93.97,160.6 96.98,160.74 99.76,161.89 C97.31,162.96 94.78,163.81 92.15,164.3 C79.68,166.83 67.31,169.96 54.68,171.67 C41.55,173.66 28.25,174.04 15.04,175.31 C11.69,175.47 8.31,175.58 4.99,175.11 C2.05,174.89 0.04,171.86 0.34,169.07 C0.76,161.38 0.47,153.62 1.72,146 C2.48,141.34 2.81,136.47 5.22,132.28 C5.22,134.35 5.27,136.42 5.21,138.49 C2.98,143.7 3.56,149.49 3.91,154.99 C4.23,159.25 5.85,164.22 10.34,165.71 C24.05,171.2 39.13,169.06 53.4,167.61 C59.43,166.62 66.15,166.52 71.04,162.33 C67.05,158.15 62.14,154.9 56.67,153.02 C48.47,146.95 40.75,139.67 36.73,130.09 C29.69,113.82 29.13,95.35 32.16,78.08 C32.94,72.55 34.56,67.12 34.52,61.5 C35.71,57.53 36.85,53.55 37.76,49.51 C39.31,44.92 41.17,39.28 38.34,34.82 C36.6,35.42 34.89,36 33.16,36.56 C34.77,32.96 35.98,29.12 37.92,25.68 C39.14,24.32 40.48,23 41.33,21.34 L41.33,21.34 Z" id="Shape"></path>
            </g>
            <path d="M203.24,155.15 C211.01,151.51 219.9,149.39 228.44,151.23 C238.96,152.85 248.58,157.79 257.51,163.37 C269.41,170.85 279.75,180.49 289.5,190.55 C310.81,211.52 328.27,235.91 346.34,259.61 C348.43,262.25 350.39,265.33 353.67,266.63 C357.1,271.77 360.19,277.14 363.77,282.2 C344.98,237.52 317.74,196.92 287.31,159.4 C289.78,160.06 291.57,161.94 293.11,163.88 C318.93,194.85 343.47,227.37 361.29,263.7 C364.16,269.95 367.33,276.56 366.57,283.64 C364.32,283.69 361.99,283.24 360.45,281.47 C355.03,275.85 350.18,269.69 345.69,263.3 C334.78,248.29 323.98,233.17 312.18,218.84 C298.93,202.53 284.83,186.77 268.41,173.57 C256.56,164.42 243.49,155.78 228.42,153.4 C219.01,151.47 209.01,153.74 200.9,158.73 C188.65,166.25 180.62,178.65 173.89,191.01 C165.6,206.95 160.14,224.17 152.26,240.3 C150.55,243.26 149.3,247.27 145.54,248.08 C143.12,238.5 145,228.6 146.29,219 C148.39,208.21 150.84,197.47 154,186.93 C154.75,184.66 154.95,182.25 154.18,179.96 C156.08,175.56 158.32,171.32 160.57,167.09 C161.18,169.33 160.84,171.63 160.08,173.79 C155.01,189.51 151.22,205.69 149.55,222.15 C149.18,225.15 149.48,228.19 150.17,231.14 C152.26,229.18 154.07,226.91 155.3,224.3 C161.61,211.62 167.47,198.71 174.25,186.27 C181.29,173.89 190.39,161.91 203.24,155.15 L203.24,155.15 Z" id="Shape" fill="#D5CCCC" sketch:type="MSShapeGroup"></path>
            <path d="M121.42,320.01 C123.48,319.66 125.56,319.3 127.65,318.98 C135.73,322.11 144.44,322.49 152.91,323.84 C155.36,324.09 157.39,325.54 159.28,327.03 C154.53,330.67 148.53,331.75 142.85,333.05 C122.42,337.05 101.72,340.03 80.91,340.86 C74.84,341.26 68.07,342.76 62.49,339.65 C58.08,337.06 59.59,331.41 59.6,327.22 C58.73,326.82 57.88,326.43 57.03,326.06 L58.26,326.06 C58.94,326.06 60.31,326.05 60.99,326.04 C61.82,326.61 62.67,327.18 63.53,327.75 C62.56,330.97 61.62,335.5 65.42,337.28 C76.7,338.23 87.99,336.82 99.26,336.14 C112.15,334.65 125.07,333.18 137.79,330.51 C140.15,330.08 142.22,328.82 144.01,327.24 C136.67,324.19 128.33,324.12 121.42,320.01 L121.42,320.01 Z" id="Shape" fill="#816969" sketch:type="MSShapeGroup"></path>
            <g id="#310000ff" transform="translate(43.000000, 164.000000)" fill="#310000" sketch:type="MSShapeGroup">
                <path d="M106.38,0.31 C106.71,4.95 105.85,9.58 106.21,14.23 C109.15,12.96 111,10.3 112.58,7.64 C114.02,5.59 115.06,2.63 117.96,2.37 L117.57,3.09 C115.32,7.32 113.08,11.56 111.18,15.96 C108.2,22.64 105.39,29.41 103,36.32 C97.21,53 92.2,69.96 88.25,87.16 C88.42,77.65 90.71,68.34 92.19,58.98 C95.96,39.22 100.32,19.5 106.38,0.31 L106.38,0.31 Z" id="Shape"></path>
                <path d="M5.3,135.3 C6.75,142.16 2.57,148.85 4.3,155.62 C5.58,160.47 11.16,161.06 15.26,162.06 L14.03,162.06 C12.96,161.96 10.83,161.76 9.76,161.66 C9.67,161.84 9.48,162.2 9.39,162.38 L9.27,162.59 C6.2,162.07 3.09,162.06 0.02,161.74 C1.7,152.92 3.04,144.01 5.3,135.3 L5.3,135.3 Z" id="Shape"></path>
            </g>
            <g id="#952121ff" transform="translate(82.000000, 180.000000)" fill="#952121" sketch:type="MSShapeGroup">
                <path d="M2.16,2.56 C3.89,2 5.6,1.42 7.34,0.82 C10.17,5.28 8.31,10.92 6.76,15.51 C6.67,11.69 6.52,7.88 6.31,4.07 C4.49,5.21 2.72,6.4 0.97,7.61 L0.63,6.65 C0.97,5.28 1.51,3.95 1.99,2.62 L2.16,2.56 L2.16,2.56 Z" id="Shape"></path>
            </g>
            <g id="#bb5959ff" transform="translate(74.000000, 184.000000)" fill="#BB5959" sketch:type="MSShapeGroup">
                <path d="M8.97,3.61 C10.72,2.4 12.49,1.21 14.31,0.07 C14.52,3.88 14.67,7.69 14.76,11.51 C13.85,15.55 12.71,19.53 11.52,23.5 C10.43,26.41 9.35,29.33 8.2,32.21 C8.79,27.63 10,23.16 11.02,18.66 C11.95,15.45 12.91,12.05 12.19,8.69 C9.92,7.13 8.22,9.51 7.22,11.24 C4.87,15.3 2.92,19.75 2.62,24.49 C2.37,26.38 2.23,28.29 2.19,30.19 C1.71,29.38 0.74,27.76 0.26,26.95 C0.25,26.08 0.27,25.2 0.31,24.33 C2.71,16.9 5.76,9.63 8.49,2.29 L8.63,2.65 L8.97,3.61 L8.97,3.61 Z" id="Shape"></path>
            </g>
            <g id="#8b7575ff" transform="translate(83.000000, 188.000000)" fill="#8B7575" sketch:type="MSShapeGroup">
                <path d="M14.66,14.65 C17.18,9.94 18.95,4.7 22.78,0.82 C22.38,5.94 20.96,10.88 19.73,15.84 C14.86,34.91 10.22,54.23 9.6,73.98 C9.41,81.16 10.9,88.21 11.79,95.3 C9.64,92.68 7.95,89.74 6.51,86.7 C7.97,81.18 6.39,75.55 6.97,69.97 C7.39,64.3 7.43,58.6 8.29,52.96 C8.76,50.25 8.3,47.53 7.17,45.05 C4.66,48.94 2.71,53.15 0.65,57.29 C0.57,49.09 1.24,40.88 2.88,32.84 C2.65,34.91 2.55,36.99 2.51,39.07 C4.75,38.43 5.37,36.02 6.24,34.16 C8.79,27.55 11.36,20.93 14.66,14.65 L14.66,14.65 Z" id="Shape"></path>
            </g>
            <path d="M232.77,356.44 C236.78,355.73 240.8,354.97 244.84,354.31 C245.51,354.53 246.87,354.98 247.55,355.2 C241.71,358.52 235.03,359.79 228.7,361.8 C202.65,368.89 175.8,372.43 149.02,375.38 C140.31,376.69 131.33,376.85 122.94,379.69 C129.95,383.35 138.22,381.84 145.81,382.98 C157,384.43 168.4,382.23 179.53,384.26 C173.87,386.08 167.87,385.38 162.04,385.53 C155.67,385.43 149.3,385.72 142.95,385.32 C134.04,384.27 124.89,384.64 116.24,381.96 C114.6,381.61 113.51,380.35 112.67,379.02 C117.87,376.85 123.49,376.22 129.03,375.43 C155.35,372.19 181.93,370.42 207.87,364.7 C217.45,362.58 227.21,360.84 236.34,357.16 C235.45,356.98 233.66,356.62 232.77,356.44 L232.77,356.44 Z" id="Shape" fill="#C7BDBD" sketch:type="MSShapeGroup"></path>
            <g id="#ae9f9fff" transform="translate(155.000000, 191.000000)" fill="#AE9F9F" sketch:type="MSShapeGroup">
                <path d="M0.91,19.39 C-0.12,12.93 0.64,6.21 3.38,0.25 C3.56,4.19 3.64,8.13 3.65,12.07 C5.88,9.67 8.07,7.23 10.24,4.77 C8.65,10.41 5.57,15.75 0.91,19.39 L0.91,19.39 Z" id="Shape"></path>
            </g>
            <g id="#d69090ff" transform="translate(76.000000, 192.000000)" fill="#D69090" sketch:type="MSShapeGroup">
                <path d="M5.22,3.24 C6.22,1.51 7.92,-0.87 10.19,0.69 C10.91,4.05 9.95,7.45 9.02,10.66 L8.58,11.89 C8.1,9.55 7.6,7.22 7.09,4.9 C3.85,8.08 3.05,12.77 0.62,16.49 C0.92,11.75 2.87,7.3 5.22,3.24 L5.22,3.24 Z" id="Shape"></path>
            </g>
            <g id="#ebbabaff" transform="translate(76.000000, 196.000000)" fill="#EBBABA" sketch:type="MSShapeGroup">
                <path d="M0.62,12.49 C3.05,8.77 3.85,4.08 7.09,0.9 C7.6,3.22 8.1,5.55 8.58,7.89 C7.3,11.51 6.29,15.21 5.22,18.89 C4.02,19.6 2.83,20.31 1.66,21.03 C1.15,20.09 0.65,19.14 0.19,18.19 C0.23,16.29 0.37,14.38 0.62,12.49 L0.62,12.49 Z" id="Shape"></path>
            </g>
            <g id="#de4848ff" transform="translate(73.000000, 202.000000)" fill="#DE4848" sketch:type="MSShapeGroup">
                <path d="M11.58,1.89 L12.02,0.66 C11,5.16 9.79,9.63 9.2,14.21 C8.47,16.07 7.6,17.86 6.76,19.66 C5.6,21.19 4.32,22.62 3.04,24.03 C2.57,23.26 2.12,22.48 1.7,21.7 C1.41,21.05 0.83,19.76 0.54,19.11 C0.16,15.71 0.28,12.25 1.26,8.95 C1.47,12.25 1.82,15.55 2.42,18.81 C6.02,19.4 7.44,15.72 8.22,12.89 C9.29,9.21 10.3,5.51 11.58,1.89 L11.58,1.89 Z" id="Shape"></path>
            </g>
            <g id="#af0000ff" transform="translate(56.000000, 207.000000)" fill="#AF0000" sketch:type="MSShapeGroup">
                <path d="M26.2,9.21 C27.35,6.33 28.43,3.41 29.52,0.5 C29.56,6.12 27.94,11.55 27.16,17.08 C24.13,34.35 24.69,52.82 31.73,69.09 C35.75,78.67 43.47,85.95 51.67,92.02 C54.08,94.97 59.05,96.89 58.52,101.32 C47.13,105.42 34.85,104.62 22.98,104.5 C15.82,103.93 8.18,102.25 2.69,97.33 C-0.96,91.43 0.88,84.06 0.21,77.49 C0.27,75.42 0.22,73.35 0.22,71.28 C3.43,50.66 10.81,31 16.16,10.89 C16.61,11.96 17.07,13.04 17.54,14.11 C17.83,14.76 18.41,16.05 18.7,16.7 C15.23,24.78 13.72,33.5 10.88,41.79 C7.06,53.15 5.14,65.04 4.49,76.97 C4.22,81.87 6.69,86.53 10.59,89.42 C16.71,94.75 25.32,95 33.01,94.46 C35.46,94.38 37.67,93.22 39.87,92.22 C36.87,83.69 30.86,76.59 27.86,68.05 C24.58,58.59 23.17,48.59 22.46,38.64 C21.86,30.6 23.49,22.67 23.76,14.66 C24.6,12.86 25.47,11.07 26.2,9.21 L26.2,9.21 Z" id="Shape"></path>
            </g>
            <g id="#540000ff" transform="translate(46.000000, 208.000000)" fill="#540000" sketch:type="MSShapeGroup">
                <path d="M28.31,0.33 C28.27,1.2 28.25,2.08 28.26,2.95 C27.28,6.25 27.16,9.71 27.54,13.11 C27.07,12.04 26.61,10.96 26.16,9.89 C20.81,30 13.43,49.66 10.22,70.28 C7.81,74.47 7.48,79.34 6.72,84 C5.47,91.62 5.76,99.38 5.34,107.07 C5.04,109.86 7.05,112.89 9.99,113.11 C13.31,113.58 16.69,113.47 20.04,113.31 C33.25,112.04 46.55,111.66 59.68,109.67 C72.31,107.96 84.68,104.83 97.15,102.3 C99.78,101.81 102.31,100.96 104.76,99.89 C101.98,98.74 98.97,98.6 96.02,98.62 C84.37,98.46 73.07,94.62 62.99,88.96 C58.28,86.14 53.29,83.01 50.85,77.88 L51.77,78.76 C53.65,80.55 55.62,82.26 57.77,83.75 C59.71,85.1 61.74,86.31 63.86,87.37 C74.43,92.61 86.36,94.2 98.03,94.49 C113.12,94.72 128.13,92.6 142.94,89.85 C144.45,89.68 145.98,89.53 147.52,89.41 C147.59,90.97 147.68,92.54 147.79,94.11 C136.39,97.6 124.95,100.93 113.41,103.93 C109.04,104.89 104.71,106.1 100.34,107.01 C97.22,107.66 94.14,108.41 91.05,109.05 C87.89,109.57 84.78,110.37 81.65,110.98 C79.56,111.3 77.48,111.66 75.42,112.01 C55.48,115.61 35.27,117.94 14.99,118.04 C14.31,118.05 12.94,118.06 12.26,118.06 C8.16,117.06 2.58,116.47 1.3,111.62 C-0.43,104.85 3.75,98.16 2.3,91.3 C8.58,60.4 17.71,30.05 28.31,0.33 L28.31,0.33 Z" id="Shape"></path>
                <path d="M166.11,84.83 C174.42,82.57 182.73,80.19 191.14,78.28 C183.38,81.42 175.58,84.47 167.71,87.31 C167.31,86.69 166.51,85.45 166.11,84.83 L166.11,84.83 Z" id="Shape"></path>
            </g>
            <g id="#de8181ff" transform="translate(74.000000, 210.000000)" fill="#DE8181" sketch:type="MSShapeGroup">
                <path d="M0.26,0.95 C0.74,1.76 1.71,3.38 2.19,4.19 C2.65,5.14 3.15,6.09 3.66,7.03 C4.83,6.31 6.02,5.6 7.22,4.89 C6.44,7.72 5.02,11.4 1.42,10.81 C0.82,7.55 0.47,4.25 0.26,0.95 L0.26,0.95 Z" id="Shape"></path>
            </g>
            <g id="#de0000ff" transform="translate(60.000000, 221.000000)" fill="#DE0000" sketch:type="MSShapeGroup">
                <path d="M16.04,5.03 C17.32,3.62 18.6,2.19 19.76,0.66 C19.49,8.67 17.86,16.6 18.46,24.64 C19.17,34.59 20.58,44.59 23.86,54.05 C26.86,62.59 32.87,69.69 35.87,78.22 C33.67,79.22 31.46,80.38 29.01,80.46 C21.32,81 12.71,80.75 6.59,75.42 C2.69,72.53 0.22,67.87 0.49,62.97 C1.14,51.04 3.06,39.15 6.88,27.79 C9.72,19.5 11.23,10.78 14.7,2.7 C15.12,3.48 15.57,4.26 16.04,5.03 L16.04,5.03 Z M8.38,34.33 C6.45,42.01 3.88,50.02 5.77,57.97 C6.47,64.81 13.84,71.19 20.75,68.78 C23.35,67.09 22.4,63.57 21.85,61.09 C20.43,56.02 19.68,50.8 18.13,45.78 C18.13,40.78 17.72,35.65 15.49,31.1 C15.3,28.29 14.63,25.55 13.66,22.92 C10.48,25.88 9.68,30.37 8.38,34.33 L8.38,34.33 Z" id="Shape"></path>
            </g>
            <g id="#6f0000ff" transform="translate(187.000000, 231.000000)" fill="#6F0000" sketch:type="MSShapeGroup">
                <path d="M79.66,0.68 C85.11,0.86 87.99,6.64 92.78,8.61 C105.05,21.87 116.61,35.82 126.99,50.61 C128.23,56.18 132.12,60.52 134.46,65.61 C138.29,72.87 141,80.7 145.36,87.69 C146.91,90.4 148.52,94.25 145.86,96.83 C141.66,100.95 135.37,101.37 129.99,102.99 C109.4,107.97 88.93,113.53 68.05,117.2 C47.26,121.52 26.4,127.38 4.97,126.32 C3.29,126.24 1.72,125.66 0.17,125.18 C4,121.11 10.21,121.81 14.44,118.34 C30.8,114.4 47.34,110.16 62.41,102.41 C73.45,96.8 84,89.24 90.58,78.52 C95.8,70.18 97.57,60.05 96.49,50.34 C96.11,46.94 95.51,43.57 94.54,40.3 C92.9,33.65 89.99,27.43 87,21.31 C85.94,17.19 84.36,13.22 82.3,9.5 C81.02,6.72 78.91,3.9 79.66,0.68 L79.66,0.68 Z M85.28,7.08 C84.9,12.02 87.64,16.27 89.52,20.61 C94.53,31.38 98.11,42.99 98.43,54.93 C98.45,64.86 95.68,74.71 90.69,83.28 C88.28,83.72 87.22,86.06 85.77,87.71 C79.06,95.48 71.17,102.45 61.8,106.83 C51.92,111.92 40.68,113.17 30.58,117.63 C27.32,118.88 23.46,119.02 20.93,121.68 C35.82,123.18 50.05,117.7 64.33,114.45 C85.93,109.19 108.02,105.14 128.71,96.75 C132.56,95.31 136.73,95.12 140.66,93.87 C138.04,86.74 138.08,78.95 135.1,71.93 C133.6,68.41 132.58,64.46 129.72,61.74 C128.84,57.92 126.28,54.8 124.38,51.46 C117.13,39.71 108.41,28.97 99.3,18.64 C95.3,14.14 90.96,9.34 85.28,7.08 L85.28,7.08 Z" id="Shape"></path>
            </g>
            <g id="#745959ff" transform="translate(83.000000, 233.000000)" fill="#745959" sketch:type="MSShapeGroup">
                <path d="M0.65,12.29 C2.71,8.15 4.66,3.94 7.17,0.05 C8.3,2.53 8.76,5.25 8.29,7.96 C7.43,13.6 7.39,19.3 6.97,24.97 C6.39,30.55 7.97,36.18 6.51,41.7 C2.19,32.58 0.64,22.31 0.65,12.29 L0.65,12.29 Z" id="Shape"></path>
            </g>
            <g id="#dfd8d8ff" transform="translate(86.000000, 233.000000)" fill="#DFD8D8" sketch:type="MSShapeGroup">
                <path d="M188.66,0.59 C191.6,-0.45 193.03,2.72 194.67,4.49 C196.56,7.31 200.26,8.04 202.11,10.92 C205.37,15.27 209.54,18.8 212.97,23 C233.17,45.96 251.92,70.42 266.68,97.27 C269.67,102.05 272.3,107.62 271.41,113.41 C270.25,118.6 265.66,122.37 260.7,123.75 C239.4,130.9 217.61,136.53 195.7,141.47 C162.71,147.93 129.47,153.88 95.88,155.72 C84.67,157.36 73.27,155.95 62,156.98 C53.99,157.49 45.89,157.84 37.94,156.58 C30.89,156.56 23.87,155.55 16.95,154.3 C11.05,152.98 4.62,151.08 0.83,146.04 C5.87,140.13 14.26,138.85 21.59,138.35 C28.67,137.01 35.91,137.92 43.01,136.58 C50.02,136.98 56.93,135.74 63.92,135.52 C81.01,134.28 98.04,132.01 115.01,129.49 C113.9,129.1 112.81,128.71 111.75,128.32 C123.45,126.91 135.13,125.37 146.77,123.44 C147.66,123.62 149.45,123.98 150.34,124.16 C141.21,127.84 131.45,129.58 121.87,131.7 C95.93,137.42 69.35,139.19 43.03,142.43 C37.49,143.22 31.87,143.85 26.67,146.02 C27.51,147.35 28.6,148.61 30.24,148.96 C38.89,151.64 48.04,151.27 56.95,152.32 C63.3,152.72 69.67,152.43 76.04,152.53 C81.87,152.38 87.87,153.08 93.53,151.26 C102.31,150.07 111.21,149.9 120.01,148.81 C165.91,143.84 211.29,134.18 255.34,120.4 C260.4,119 265.72,115.78 266.43,110.07 C265.92,106.09 263.96,102.49 262,99.06 C257.69,91.75 253.52,84.34 248.64,77.4 C247.92,76.21 246.7,75.57 245.47,75.1 C240.04,66.02 234.28,57.12 227.99,48.61 C217.61,33.82 206.05,19.87 193.78,6.61 C192.12,4.55 190.44,2.52 188.66,0.59 L188.66,0.59 Z" id="Shape"></path>
            </g>
            <g id="#a80000ff" transform="translate(259.000000, 238.000000)" fill="#A80000" sketch:type="MSShapeGroup">
                <path d="M13.28,0.08 C18.96,2.34 23.3,7.14 27.3,11.64 C36.41,21.97 45.13,32.71 52.38,44.46 C54.28,47.8 56.84,50.92 57.72,54.74 C58.47,60.54 62.63,65.98 60.86,71.97 C59.83,77.06 55.95,80.92 51.92,83.87 C42.98,90.06 32.39,93.1 22,95.84 C15.07,97.59 8.14,99.99 0.9,99.66 C2.78,94.94 7.07,91.96 10,87.97 C12.86,84.05 16.66,80.78 18.69,76.28 C23.68,67.71 26.45,57.86 26.43,47.93 C26.11,35.99 22.53,24.38 17.52,13.61 C15.64,9.27 12.9,5.02 13.28,0.08 L13.28,0.08 Z M23.23,15.09 C24.26,23.83 28.37,32.07 28.07,41 C28.1,45.99 27.54,51.06 28.53,56 L29.14,56.53 C27.15,62.6 26.17,68.97 23.71,74.9 C22.85,77.94 19.83,82.4 23.93,84.35 C29.7,84.66 35.08,81.73 40.04,79.1 C46.12,75.93 50.6,70.25 53.09,63.95 C54.86,57.09 51.66,50.34 48.65,44.35 C43.59,35.4 37.09,27.36 30.26,19.72 C28.31,17.67 26.14,15.55 23.23,15.09 L23.23,15.09 Z" id="Shape"></path>
            </g>
            <g id="#f70000ff" transform="translate(65.000000, 243.000000)" fill="#F70000" sketch:type="MSShapeGroup">
                <path d="M3.38,12.33 C4.68,8.37 5.48,3.88 8.66,0.92 C9.63,3.55 10.3,6.29 10.49,9.1 C8.94,9.43 6.83,9.24 6.31,11.14 C3.29,17.57 3.33,25.8 7.6,31.69 C8.71,31.52 9.86,31.41 10.98,31.14 C12.2,28.86 12.65,26.28 13.13,23.78 C14.68,28.8 15.43,34.02 16.85,39.09 C17.4,41.57 18.35,45.09 15.75,46.78 C8.84,49.19 1.47,42.81 0.77,35.97 C-1.12,28.02 1.45,20.01 3.38,12.33 L3.38,12.33 Z" id="Shape"></path>
            </g>
            <g id="#fe5b5bff" transform="translate(69.000000, 252.000000)" fill="#FE5B5B" sketch:type="MSShapeGroup">
                <path d="M2.31,2.14 C2.83,0.24 4.94,0.43 6.49,0.1 C8.72,4.65 9.13,9.78 9.13,14.78 C8.65,17.28 8.2,19.86 6.98,22.14 C5.86,22.41 4.71,22.52 3.6,22.69 C-0.67,16.8 -0.71,8.57 2.31,2.14 L2.31,2.14 Z M2.77,4.62 C2.44,8.7 1.59,13.05 3,16.99 C3.37,18.52 4.87,18.47 6.15,18.51 C7.89,13.94 7.78,8.98 6.26,4.37 C5.08,4.45 3.91,4.53 2.77,4.62 L2.77,4.62 Z" id="Shape"></path>
            </g>
            <g id="#d80000ff" transform="translate(280.000000, 253.000000)" fill="#D80000" sketch:type="MSShapeGroup">
                <path d="M2.23,0.09 C5.14,0.55 7.31,2.67 9.26,4.72 C16.09,12.36 22.59,20.4 27.65,29.35 C30.66,35.34 33.86,42.09 32.09,48.95 C29.6,55.25 25.12,60.93 19.04,64.1 C14.08,66.73 8.7,69.66 2.93,69.35 C-1.17,67.4 1.85,62.94 2.71,59.9 C5.17,53.97 6.15,47.6 8.14,41.53 C8.92,42.22 9.71,42.92 10.51,43.63 C9.93,47.01 9.23,50.51 9.94,53.94 C10.86,55.76 13.35,56.45 14.98,55.08 C22.11,50.41 27.58,41.21 24.51,32.61 C21.88,25.26 17.51,18.15 10.9,13.78 C9.93,15.92 9.93,18.26 9.9,20.57 C6.61,26.95 8.52,34.19 7.53,41 C6.54,36.06 7.1,30.99 7.07,26 C7.37,17.07 3.26,8.83 2.23,0.09 L2.23,0.09 Z" id="Shape"></path>
            </g>
            <g id="#feb1b1ff" transform="translate(71.000000, 256.000000)" fill="#FEB1B1" sketch:type="MSShapeGroup">
                <path d="M0.77,0.62 C1.91,0.53 3.08,0.45 4.26,0.37 C5.78,4.98 5.89,9.94 4.15,14.51 C2.87,14.47 1.37,14.52 1,12.99 C-0.41,9.05 0.44,4.7 0.77,0.62 L0.77,0.62 Z" id="Shape"></path>
            </g>
            <g id="#f40000ff" transform="translate(289.000000, 266.000000)" fill="#F40000" sketch:type="MSShapeGroup">
                <path d="M1.9,0.78 C8.51,5.15 12.88,12.26 15.51,19.61 C18.58,28.21 13.11,37.41 5.98,42.08 C4.35,43.45 1.86,42.76 0.94,40.94 C0.23,37.51 0.93,34.01 1.51,30.63 C4.92,29.68 7.38,26.91 8.25,23.5 C9.37,18 9.37,11.41 4.78,7.43 C3.47,7.47 2.18,7.52 0.9,7.57 C0.93,5.26 0.93,2.92 1.9,0.78 L1.9,0.78 Z" id="Shape"></path>
            </g>
            <g id="#f66161ff" transform="translate(287.000000, 273.000000)" fill="#F66161" sketch:type="MSShapeGroup">
                <path d="M2.9,0.57 C4.18,0.52 5.47,0.47 6.78,0.43 C11.37,4.41 11.37,11 10.25,16.5 C9.38,19.91 6.92,22.68 3.51,23.63 C2.71,22.92 1.92,22.22 1.14,21.53 L0.53,21 C1.52,14.19 -0.39,6.95 2.9,0.57 L2.9,0.57 Z M1.57,11.39 C1.49,12 1.34,13.24 1.26,13.86 C1.21,15.92 1.45,17.99 2.72,19.71 C3.6,19.7 5.37,19.7 6.25,19.69 C10.06,15.29 10.95,7.46 6.09,3.5 C2.47,3.33 0.95,8.37 1.57,11.39 L1.57,11.39 Z" id="Shape"></path>
            </g>
            <g id="#f99e9eff" transform="translate(288.000000, 276.000000)" fill="#F99E9E" sketch:type="MSShapeGroup">
                <path d="M0.57,8.39 C-0.05,5.37 1.47,0.33 5.09,0.5 C9.95,4.46 9.06,12.29 5.25,16.69 C4.37,16.7 2.6,16.7 1.72,16.71 C0.45,14.99 0.21,12.92 0.26,10.86 C1.53,11.99 2.59,14.05 4.62,13.71 C7.74,10.94 6.91,6.04 4.82,2.91 C3.16,4.53 1.63,6.31 0.57,8.39 L0.57,8.39 Z" id="Shape"></path>
            </g>
            <g id="#fcd0d0ff" transform="translate(288.000000, 278.000000)" fill="#FCD0D0" sketch:type="MSShapeGroup">
                <path d="M0.57,6.39 C1.63,4.31 3.16,2.53 4.82,0.91 C6.91,4.04 7.74,8.94 4.62,11.71 C2.59,12.05 1.53,9.99 0.26,8.86 C0.34,8.24 0.49,7 0.57,6.39 L0.57,6.39 Z" id="Shape"></path>
            </g>
            <g id="#4c0000ff" transform="translate(146.000000, 281.000000)" fill="#4C0000" sketch:type="MSShapeGroup">
                <path d="M167.99,0.61 C174.28,9.12 180.04,18.02 185.47,27.1 C189.16,34 193.01,40.8 196.56,47.77 C196.13,47.97 195.25,48.38 194.81,48.58 C193.77,48.99 192.73,49.37 191.69,49.72 L190.33,50.13 C172.5,56.1 154.36,61.1 136.07,65.46 C133,66.14 129.96,66.86 126.91,67.56 C124.4,68.04 121.92,68.57 119.46,69.21 L118.27,69.53 C111.82,70.94 105.29,71.96 98.84,73.31 C94.8,73.97 90.78,74.73 86.77,75.44 C75.13,77.37 63.45,78.91 51.75,80.32 C41.44,81.55 31.06,82.5 20.71,82.99 C15.69,80.52 10.04,81.05 4.71,80.08 C3.46,78.67 2.94,76.57 0.94,76 C19.22,74.28 37.42,71.83 55.44,68.34 C51.21,71.81 45,71.11 41.17,75.18 C42.72,75.66 44.29,76.24 45.97,76.32 C67.4,77.38 88.26,71.52 109.05,67.2 C129.93,63.53 150.4,57.97 170.99,52.99 C176.37,51.37 182.66,50.95 186.86,46.83 C189.52,44.25 187.91,40.4 186.36,37.69 C182,30.7 179.29,22.87 175.46,15.61 C173.12,10.52 169.23,6.18 167.99,0.61 L167.99,0.61 Z" id="Shape"></path>
            </g>
            <g id="#8f0000ff" transform="translate(54.000000, 284.000000)" fill="#8F0000" sketch:type="MSShapeGroup">
                <path d="M0.91,16.99 C0.56,11.49 -0.02,5.7 2.21,0.49 C2.88,7.06 1.04,14.43 4.69,20.33 C10.18,25.25 17.82,26.93 24.98,27.5 C36.85,27.62 49.13,28.42 60.52,24.32 C61.05,19.89 56.08,17.97 53.67,15.02 C59.14,16.9 64.05,20.15 68.04,24.33 C63.15,28.52 56.43,28.62 50.4,29.61 C36.13,31.06 21.05,33.2 7.34,27.71 C2.85,26.22 1.23,21.25 0.91,16.99 L0.91,16.99 Z" id="Shape"></path>
            </g>
            <g id="#b48f8fff" transform="translate(209.000000, 292.000000)" fill="#B48F8F" sketch:type="MSShapeGroup">
                <path d="M0.4,1.5 C1.03,1.27 2.31,0.81 2.95,0.58 L3.11,0.83 C3.51,1.45 4.31,2.69 4.71,3.31 L4.94,3.67 C3.39,3.99 1.85,4.33 0.34,4.67 C0.34,3.61 0.36,2.56 0.4,1.5 L0.4,1.5 Z" id="Shape"></path>
            </g>
            <g id="#860000ff" transform="translate(207.000000, 292.000000)" fill="#860000" sketch:type="MSShapeGroup">
                <path d="M109.72,0.74 C112.58,3.46 113.6,7.41 115.1,10.93 C118.08,17.95 118.04,25.74 120.66,32.87 C116.73,34.12 112.56,34.31 108.71,35.75 C88.02,44.14 65.93,48.19 44.33,53.45 C30.05,56.7 15.82,62.18 0.93,60.68 C3.46,58.02 7.32,57.88 10.58,56.63 C20.68,52.17 31.92,50.92 41.8,45.83 C51.17,41.45 59.06,34.48 65.77,26.71 C67.22,25.06 68.28,22.72 70.69,22.28 C68.66,26.78 64.86,30.05 62,33.97 C59.07,37.96 54.78,40.94 52.9,45.66 C60.14,45.99 67.07,43.59 74,41.84 C84.39,39.1 94.98,36.06 103.92,29.87 C107.95,26.92 111.83,23.06 112.86,17.97 C114.63,11.98 110.47,6.54 109.72,0.74 L109.72,0.74 Z" id="Shape"></path>
            </g>
            <g id="#ceb6b6ff" transform="translate(194.000000, 295.000000)" fill="#CEB6B6" sketch:type="MSShapeGroup">
                <path d="M0.03,1.68 C2.48,0.96 5.01,0.64 7.56,0.39 C7.53,1.7 7.53,3.02 7.54,4.34 C6.15,4.91 4.79,5.48 3.41,6 C3.44,4.74 3.48,3.48 3.55,2.22 C2.36,2.02 1.19,1.84 0.03,1.68 L0.03,1.68 Z" id="Shape"></path>
            </g>
            <g id="#8e5555ff" transform="translate(188.000000, 296.000000)" fill="#8E5555" sketch:type="MSShapeGroup">
                <path d="M0.94,1.85 C2.61,1.39 4.28,0.93 6.03,0.68 C7.19,0.84 8.36,1.02 9.55,1.22 C9.48,2.48 9.44,3.74 9.41,5 C8.17,5.36 6.99,5.73 5.79,6.11 C5.68,4.54 5.59,2.97 5.52,1.41 C3.98,1.53 2.45,1.68 0.94,1.85 L0.94,1.85 Z" id="Shape"></path>
            </g>
            <g id="#c8bebeff" transform="translate(51.000000, 311.000000)" fill="#C8BEBE" sketch:type="MSShapeGroup">
                <path d="M146.97,1.92 C154.67,1.3 162.43,0.04 170.1,1.71 C168.74,3.8 166.92,5.56 164.66,6.62 C159.48,9.2 154.41,12.14 148.81,13.69 C142.1,15.39 135.91,18.6 129.17,20.2 C102.09,27.7 74.38,33.02 46.4,35.63 C38.66,36.75 30.81,36.27 23.07,37.28 C16.36,37.63 8.42,37.66 3.33,32.6 C-0.46,27.77 1.29,21.61 1.97,16.13 C2.82,16.05 4.54,15.89 5.39,15.81 C4.96,20.65 3.04,26.35 6.42,30.58 C10.87,34.78 17.47,33.29 23,33.51 C30.37,33.84 37.64,32.44 44.99,32.37 C65.79,30.49 86.45,27.09 106.81,22.45 C117.49,20.03 128.19,16.75 137.53,10.9 C136.14,9.96 134.78,8.78 133.03,8.73 C124.01,7.77 115.04,10.23 106.01,9.27 C99.34,8.35 92.22,9.23 86.05,6.05 C89.14,5.41 92.22,4.66 95.34,4.01 C100.59,6.36 106.43,5.35 112.01,5.5 C123.71,4.88 135.35,3.42 146.97,1.92 L146.97,1.92 Z" id="Shape"></path>
            </g>
            <g id="#a18f8fff" transform="translate(52.000000, 317.000000)" fill="#A18F8F" sketch:type="MSShapeGroup">
                <path d="M75.65,1.98 C78.78,1.37 81.89,0.57 85.05,0.05 C91.22,3.23 98.34,2.35 105.01,3.27 C114.04,4.23 123.01,1.77 132.03,2.73 C133.78,2.78 135.14,3.96 136.53,4.9 C127.19,10.75 116.49,14.03 105.81,16.45 C85.45,21.09 64.79,24.49 43.99,26.37 C36.64,26.44 29.37,27.84 22,27.51 C16.47,27.29 9.87,28.78 5.42,24.58 C2.04,20.35 3.96,14.65 4.39,9.81 C3.54,9.89 1.82,10.05 0.97,10.13 L0.35,9.94 L0.39,9.38 C0.48,9.2 0.67,8.84 0.76,8.66 C1.83,8.76 3.96,8.96 5.03,9.06 C5.88,9.43 6.73,9.82 7.6,10.22 C7.59,14.41 6.08,20.06 10.49,22.65 C16.07,25.76 22.84,24.26 28.91,23.86 C49.72,23.03 70.42,20.05 90.85,16.05 C96.53,14.75 102.53,13.67 107.28,10.03 C105.39,8.54 103.36,7.09 100.91,6.84 C92.44,5.49 83.73,5.11 75.65,1.98 L75.65,1.98 Z" id="Shape"></path>
            </g>
            <g id="#634444ff" transform="translate(60.000000, 320.000000)" fill="#634444" sketch:type="MSShapeGroup">
                <path d="M0.99,6.04 C21.27,5.94 41.48,3.61 61.42,0.01 C68.33,4.12 76.67,4.19 84.01,7.24 C82.22,8.82 80.15,10.08 77.79,10.51 C65.07,13.18 52.15,14.65 39.26,16.14 C27.99,16.82 16.7,18.23 5.42,17.28 C1.62,15.5 2.56,10.97 3.53,7.75 C2.67,7.18 1.82,6.61 0.99,6.04 L0.99,6.04 Z" id="Shape"></path>
            </g>
            <g id="#958080ff" transform="translate(188.000000, 328.000000)" fill="#958080" sketch:type="MSShapeGroup">
                <path d="M154.56,0.77 C156.74,5.07 159.71,9.18 160.36,14.07 C160.02,18.71 155.38,21.21 151.42,22.44 C123.23,31.28 94.48,38.32 65.41,43.58 C44.04,47.3 22.32,50.8 0.57,49.29 C1.31,48.14 1.96,46.68 3.45,46.34 C9.22,44.42 15.27,43.47 21.13,41.85 C39.87,36.67 59.58,33.07 76.27,22.53 L77.46,22.21 C76.69,23.54 76.16,25.16 74.64,25.79 C63.06,32.01 50.41,35.79 38.12,40.3 C35.52,41.36 32.34,41.91 30.79,44.49 C40.99,45.05 51.21,43.7 61.28,42.17 C89.95,37.24 118.29,30.46 146.14,22.03 C150.22,20.78 155.26,19.77 157.34,15.54 C158.78,10.37 154.95,5.92 152.81,1.58 C153.25,1.38 154.13,0.97 154.56,0.77 L154.56,0.77 Z" id="Shape"></path>
            </g>
            <g id="#816868ff" transform="translate(218.000000, 329.000000)" fill="#816868" sketch:type="MSShapeGroup">
                <path d="M119.69,1.72 C120.73,1.37 121.77,0.99 122.81,0.58 C124.95,4.92 128.78,9.37 127.34,14.54 C125.26,18.77 120.22,19.78 116.14,21.03 C88.29,29.46 59.95,36.24 31.28,41.17 C21.21,42.7 10.99,44.05 0.79,43.49 C2.34,40.91 5.52,40.36 8.12,39.3 C20.41,34.79 33.06,31.01 44.64,24.79 C46.16,24.16 46.69,22.54 47.46,21.21 C49.92,20.57 52.4,20.04 54.91,19.56 C55.42,19.79 56.44,20.25 56.95,20.47 C50.72,25.49 43.3,28.64 36.23,32.23 C34.36,33.1 32.93,34.59 31.6,36.1 C39.38,37.34 47.09,35.15 54.69,33.72 C76.33,29.03 97.83,23.66 118.95,17 C121.32,16.16 123.92,14.67 124.46,11.99 C123.95,8.18 121.66,4.91 119.69,1.72 L119.69,1.72 Z" id="Shape"></path>
            </g>
            <g id="#6e5151ff" transform="translate(249.000000, 330.000000)" fill="#6E5151" sketch:type="MSShapeGroup">
                <path d="M87.33,1.13 L88.69,0.72 C90.66,3.91 92.95,7.18 93.46,10.99 C92.92,13.67 90.32,15.16 87.95,16 C66.83,22.66 45.33,28.03 23.69,32.72 C16.09,34.15 8.38,36.34 0.6,35.1 C1.93,33.59 3.36,32.1 5.23,31.23 C12.3,27.64 19.72,24.49 25.95,19.47 C25.44,19.25 24.42,18.79 23.91,18.56 C26.96,17.86 30,17.14 33.07,16.46 C28,22.87 19.76,25.18 13.96,30.7 C17.98,30.85 22.05,30.74 25.99,29.78 C45.71,25.44 65.32,20.49 84.63,14.56 C87.14,13.73 91.14,12.63 90.62,9.18 C89.53,6.49 87.91,4.01 87.33,1.13 L87.33,1.13 Z" id="Shape"></path>
            </g>
            <g id="#2b0000ff" transform="translate(67.000000, 357.000000)" fill="#2B0000" sketch:type="MSShapeGroup">
                <path d="M42,2.36 C54.67,1.85 67.31,0.98 79.94,0 C81.94,0.57 82.46,2.67 83.71,4.08 C89.04,5.05 94.69,4.52 99.71,6.99 C84.52,8.19 69.25,7.93 54.03,7.86 C36.04,7.8 18.17,5.67 0.32,3.7 C14.17,2.5 28.12,3.14 42,2.36 L42,2.36 Z" id="Shape"></path>
            </g>
            <text id="WS-FED" sketch:type="MSTextLayer" font-family="Arial" font-size="240" font-weight="normal" fill="#000000">
                <tspan x="442" y="217">WS-FED</tspan>
            </text>
            <text id="Web-App" sketch:type="MSTextLayer" font-family="Arial" font-size="130" font-weight="normal" fill="#000000">
                <tspan x="462" y="410">WEB APP</tspan>
            </text>
        </g>
    </g>
</svg>
