<?xml version="1.0" encoding="utf-8"?>
<!-- Generator: Adobe Illustrator 16.0.0, SVG Export Plug-In . SVG Version: 6.00 Build 0)  -->
<!DOCTYPE svg PUBLIC "-//W3C//DTD SVG 1.1//EN" "http://www.w3.org/Graphics/SVG/1.1/DTD/svg11.dtd">
<svg version="1.1" id="Layer_1" xmlns="http://www.w3.org/2000/svg" xmlns:xlink="http://www.w3.org/1999/xlink" x="0px" y="0px"
	 width="143.737px" height="33.26px" viewBox="0 0 143.737 33.26" enable-background="new 0 0 143.737 33.26" xml:space="preserve">
<g>
	<g>
		<g>
			<path fill="#78A300" d="M28.545,18.91c-1.416,0.794-2.957,1.172-4.473,1.172c-0.988,0-1.966-0.164-2.792-0.493
				c-1.51,1.363-3.134,2.316-3.953,2.76c1.185,1.879,3.069,3.325,5.397,3.905c0.72,0.18,1.442,0.264,2.152,0.264
				c1.592,0,3.124-0.436,4.426-1.137c0.192-0.744,0.289-1.509,0.289-2.282C29.591,21.677,29.251,20.24,28.545,18.91z"/>
		</g>
		<g>
			<path fill="#78A300" d="M27.023,7.713c-0.106-0.028-0.207-0.074-0.315-0.098l-0.002,0.012
				C26.816,7.647,26.915,7.689,27.023,7.713z"/>
			<path fill="#78A300" d="M26.7,7.699c-0.268,1.788-1.042,3.378-2.126,4.561c0.057,0.315,0.096,0.658,0.096,1.019
				c-0.004,2.091-1.084,3.91-2.432,5.375c0.386,0.048,0.775,0.074,1.162,0.074c1.921,0,3.858-0.616,5.498-1.893
				c1.893-1.485,3.032-3.581,3.361-5.716c-1.275-1.677-3.148-2.88-5.235-3.405c-0.108-0.023-0.207-0.066-0.317-0.085L26.7,7.699z"/>
		</g>
		<g>
			<path fill="#78A300" d="M25.277,6.17c0-2.408-0.949-4.59-2.432-6.17c-0.045,0-0.088,0-0.129,0c-2.13,0-3.996,0.757-5.688,2.288
				c1.616,1.719,2.198,3.899,2.198,6.078c0,0.176-0.006,0.35-0.011,0.52c0.364-0.092,0.733-0.136,1.095-0.136
				c0.026,0,0.057,0,0.096,0c1.391,0.027,2.793,0.719,3.597,2.021C24.809,9.423,25.277,7.854,25.277,6.17z"/>
		</g>
		<g>
			<path fill="#78A300" d="M9.207,0.159c-0.133,0-0.26,0-0.307-0.026C7.445,1.731,6.571,3.842,6.571,6.142
				c0,0.032,0,0.061-0.012,0.079c0.101,0,0.203-0.003,0.307-0.003c2.451,0,4.693,0.976,6.283,2.547
				c1.334,0.094,2.699,0.802,3.418,2.207c0.385-0.755,0.958-1.307,1.564-1.589c0-0.1,0.004-0.205,0.004-0.308
				c0-2.463-1.019-4.918-3.001-6.674C13.43,0.892,11.314,0.159,9.207,0.159z"/>
		</g>
		<g>
			<polygon fill="#78A300" points="11.983,8.937 11.981,8.937 11.981,8.938 			"/>
			<path fill="#78A300" d="M11.707,8.891C10.367,8.11,8.829,7.672,7.214,7.672c-0.518,0-1.045,0.045-1.567,0.14
				C3.273,8.237,1.289,9.558,0,11.293c0.35,2.148,1.485,4.17,3.318,5.6c1.338-1.796,3.214-2.956,5.154-3.329
				c0-0.09-0.004-0.192-0.004-0.289C8.464,10.843,9.976,9.335,11.707,8.891z"/>
		</g>
		<g>
			<path fill="#78A300" d="M3.854,18.931c-0.71,1.334-1.047,2.761-1.047,4.171c0,0.844,0.119,1.677,0.303,2.419
				c1.299,0.712,2.768,1.096,4.286,1.096c0.717,0,1.444-0.087,2.177-0.266c-0.225-0.811-0.333-1.62-0.333-2.423
				c0-1.91,0.606-3.743,1.68-5.261c-1.035-1.117-1.913-2.439-2.274-3.934C6.655,15.471,4.922,16.912,3.854,18.931z"/>
		</g>
		<g>
			<polygon fill="#78A300" points="11.406,27.231 11.404,27.231 11.308,27.276 11.312,27.276 			"/>
			<path fill="#78A300" d="M16.239,31.835c2.003-0.866,3.695-2.456,4.634-4.586c-2.283-0.946-3.971-2.723-4.824-4.772
				c-0.73-0.376-2.615-1.432-4.331-3.011c-0.649,1.26-0.995,2.664-0.995,4.095c0,1.213,0.241,2.447,0.778,3.627
				C12.484,29.393,14.25,30.996,16.239,31.835z"/>
			<polygon fill="#78A300" points="11.5,27.188 11.404,27.231 11.406,27.231 			"/>
		</g>
		<g>
			<path fill="#78A300" d="M45.033,20.967l-7.793,9.208h6.741c0.724,0,1.316,0.594,1.316,1.317c0,0.722-0.592,1.345-1.316,1.345
				h-9.8c-0.691,0-1.346-0.657-1.346-1.377c0-0.332,0.129-0.691,0.358-0.987l7.764-9.211h-6.776c-0.727,0-1.346-0.626-1.346-1.349
				s0.62-1.315,1.346-1.315h9.636c0.923,0,1.545,0.689,1.545,1.479C45.362,20.407,45.264,20.702,45.033,20.967z"/>
			<path fill="#78A300" d="M60.658,26.688c0,0,0,0-10.163,0c0.164,2.205,1.938,3.849,4.307,3.849c1.676,0,3.122-0.689,4.276-1.811
				c0.229-0.227,0.493-0.294,0.792-0.294c0.395,0,0.788,0.197,1.049,0.527c0.166,0.229,0.262,0.495,0.262,0.757
				c0,0.359-0.164,0.757-0.461,1.053c-1.376,1.476-3.717,2.467-6.017,2.467c-4.178,0-7.531-3.356-7.531-7.534
				c0-4.178,3.253-7.533,7.431-7.533c4.145,0,7.237,3.227,7.237,7.467C61.84,26.26,61.281,26.688,60.658,26.688z M54.604,20.869
				c-2.204,0-3.711,1.444-4.042,3.552c4.963,0,8.089,0,8.089,0C58.357,22.414,56.774,20.869,54.604,20.869z"/>
			<path fill="#78A300" d="M94.208,33.102c-0.886,0-1.612-0.723-1.612-1.609v-0.758c-0.917,1.58-2.658,2.501-4.701,2.501
				c-4.18,0-7.138-3.226-7.138-7.534c0-4.306,2.86-7.533,7.138-7.533c2.104,0,3.883,1.022,4.701,2.534V12.22
				c0-0.888,0.727-1.582,1.612-1.582c0.889,0,1.611,0.693,1.611,1.582v19.272C95.819,32.379,95.097,33.102,94.208,33.102z
				 M88.288,21.033c-2.629,0-4.308,2.104-4.308,4.668c0,2.564,1.679,4.673,4.308,4.673c2.635,0,4.308-2.01,4.308-4.673
				C92.595,23.037,90.922,21.033,88.288,21.033z"/>
			<path fill="#78A300" d="M112.183,26.688c0,0,0,0-10.168,0c0.168,2.205,1.944,3.849,4.312,3.849c1.674,0,3.123-0.689,4.276-1.811
				c0.23-0.227,0.495-0.294,0.786-0.294c0.394,0,0.793,0.197,1.055,0.527c0.163,0.229,0.264,0.495,0.264,0.757
				c0,0.359-0.168,0.757-0.462,1.053c-1.382,1.476-3.718,2.467-6.017,2.467c-4.179,0-7.533-3.356-7.533-7.534
				c0-4.178,3.254-7.533,7.434-7.533c4.14,0,7.237,3.227,7.237,7.467C113.367,26.26,112.806,26.688,112.183,26.688z M106.13,20.869
				c-2.205,0-3.718,1.444-4.045,3.552c4.966,0,8.09,0,8.09,0C109.878,22.414,108.297,20.869,106.13,20.869z"/>
			<path fill="#78A300" d="M121.387,33.235c-1.612,0-3.712-0.526-5.26-1.449c-0.494-0.294-0.793-0.757-0.793-1.25
				c0-0.162,0.066-0.329,0.133-0.493c0.199-0.46,0.562-0.757,1.023-0.757c0.197,0,0.461,0.066,0.653,0.199
				c1.219,0.722,2.631,1.15,4.05,1.15c1.609,0,3.354-0.461,3.354-1.743c0-0.989-0.887-1.35-4.246-2.5
				c-2.758-0.952-4.207-2.203-4.207-4.243c0-2.435,2.433-3.981,5.625-3.981c2.171,0,3.555,0.462,4.935,1.119
				c0.558,0.263,0.888,0.692,0.888,1.218c0,0.166-0.033,0.296-0.101,0.462c-0.198,0.525-0.693,0.854-1.249,0.854
				c-0.165,0-0.327-0.036-0.458-0.101c-1.187-0.557-2.436-0.886-3.754-0.886c-1.743,0-2.825,0.397-2.825,1.446
				c0,1.052,0.853,1.284,3.318,2.07c2.995,0.991,5.1,2.01,5.1,4.476C127.572,31.228,125.37,33.235,121.387,33.235z"/>
			<path fill="#78A300" d="M142.324,33.069c-0.431,0.032-0.859-0.164-1.153-0.494l-5.427-6.183l-1.644,1.285v3.814
				c0,0.887-0.693,1.609-1.583,1.609c-0.883,0-1.576-0.723-1.576-1.609V12.249c0-0.885,0.693-1.611,1.576-1.611
				c0.89,0,1.583,0.726,1.583,1.611v11.677l6.841-5.295c0.263-0.199,0.559-0.327,0.889-0.327c0.458,0,0.853,0.229,1.151,0.556
				c0.195,0.265,0.36,0.561,0.36,0.92c0,0.461-0.231,0.855-0.593,1.155l-4.638,3.648l5.268,6.053
				c0.225,0.263,0.358,0.626,0.358,0.987C143.737,32.411,143.11,33.036,142.324,33.069z"/>
			<path fill="#78A300" d="M71.393,18.104c-3.732,0-6.813,2.911-6.813,6.814v6.739c0,0.9,0.704,1.603,1.606,1.603
				c0.9,0,1.633-0.702,1.633-1.603v-6.639c0-2.237,1.236-3.953,3.574-3.998c2.342,0.045,3.575,1.761,3.575,3.998v6.639
				c0,0.9,0.737,1.603,1.637,1.603c0.901,0,1.6-0.702,1.6-1.603v-6.739C78.205,21.014,75.13,18.104,71.393,18.104z"/>
		</g>
	</g>
	<g>
		<path fill="#78A300" d="M140.208,12.205c0-0.878,0.681-1.566,1.566-1.566c0.887,0,1.567,0.688,1.567,1.566
			c0,0.886-0.681,1.575-1.567,1.575C140.889,13.78,140.208,13.091,140.208,12.205z M143.006,12.205c0-0.714-0.534-1.247-1.231-1.247
			s-1.23,0.533-1.23,1.247c0,0.722,0.533,1.255,1.23,1.255S143.006,12.927,143.006,12.205z M141.127,12.877v-1.361
			c0-0.115,0.073-0.189,0.197-0.189h0.565c0.394,0,0.615,0.206,0.615,0.534c0,0.238-0.115,0.394-0.296,0.484l0.247,0.451
			c0.024,0.042,0.032,0.082,0.032,0.124c0,0.09-0.082,0.172-0.181,0.172c-0.09,0-0.156-0.058-0.188-0.14l-0.303-0.55h-0.271
			c-0.024,0-0.024,0.017-0.024,0.033v0.443c0,0.132-0.082,0.214-0.196,0.214C141.2,13.091,141.127,13.009,141.127,12.877z
			 M142.128,11.86c0-0.123-0.083-0.197-0.263-0.197h-0.32c-0.024,0-0.024,0.008-0.024,0.033v0.328c0,0.025,0,0.033,0.024,0.033h0.32
			C142.045,12.057,142.128,12,142.128,11.86z"/>
	</g>
</g>
</svg>
