<?xml version="1.0" encoding="UTF-8" standalone="no"?>
<svg width="1100px" height="250px" viewBox="0 0 1100 250" version="1.1" xmlns="http://www.w3.org/2000/svg" xmlns:xlink="http://www.w3.org/1999/xlink" xmlns:sketch="http://www.bohemiancoding.com/sketch/ns">
    <!-- Generator: Sketch 3.1.1 (8761) - http://www.bohemiancoding.com/sketch -->
    <title>20ac0ec1-befc-4a09-b32d-41a378d4fefb</title>
    <desc>Created with Sketch.</desc>
    <defs></defs>
    <g id="Page-1" stroke="none" stroke-width="1" fill="none" fill-rule="evenodd" sketch:type="MSPage">
        <g id="20ac0ec1-befc-4a09-b32d-41a378d4fefb" sketch:type="MSLayerGroup" fill="#2D98FF">
            <path d="M0,0 L190.39,0 C202.01,1.85 212.85,8.95 218.49,19.38 C222.6,27.55 224.86,36.65 225.04,45.8 C175.71,98.59 126.37,151.36 77.06,204.16 C119.03,204.19 161.01,204.17 202.98,204.17 C215.05,204.03 226.68,210.79 233.4,220.67 C238.85,229.39 241.41,239.77 241.67,250 L43.46,250 C32.22,248.51 21.71,241.94 15.76,232.25 C10.9,223.75 8.54,213.92 8.41,204.15 C58.31,151.4 108.21,98.65 158.07,45.86 C118.38,45.84 78.7,45.84 39.01,45.86 C26.9,46.08 15.19,39.41 8.35,29.57 C2.98,21.32 0.47,11.43 0,1.67 L0,0 L0,0 Z" id="Shape" sketch:type="MSShapeGroup"></path>
            <path d="M340.47,0 L351.55,0 C379.53,1.51 407.01,12.23 428.03,30.85 C450.58,50.41 465.71,78.29 469.64,107.89 C473.69,136.77 467.24,167 451.6,191.62 C435.15,217.77 408.75,237.51 378.89,245.53 C370.14,248.03 361.08,249.14 352.05,250 L339.59,250 C330.68,249.14 321.76,248.07 313.12,245.63 C282.73,237.55 255.88,217.36 239.43,190.59 C224.09,165.92 217.92,135.76 222.15,107.03 C226.23,77.93 241.11,50.57 263.2,31.22 C284.38,12.32 312.18,1.4 340.47,0 L340.47,0 Z M334.48,46.72 C305.83,50.53 280.42,71.55 271.15,98.9 C264.4,118 265.42,139.69 273.95,158.06 C282.69,177.23 299.44,192.58 319.32,199.55 C336.33,205.65 355.42,205.62 372.42,199.53 C392.15,192.59 408.77,177.4 417.55,158.42 C425.44,141.61 427.08,121.98 422.13,104.09 C416.92,84.68 403.89,67.58 386.68,57.26 C371.21,47.83 352.4,44.08 334.48,46.72 L334.48,46.72 Z" id="Shape" sketch:type="MSShapeGroup"></path>
            <path d="M608.27,0 L618.5,0 C635.63,1.16 652.63,5.25 668.01,12.98 C699.27,28.36 723.49,57.38 732.78,90.99 C742.59,125.19 736.84,163.49 717.24,193.21 C699.09,221.21 669.34,241.42 636.52,247.65 C630.5,248.89 624.36,249.37 618.26,250 L605.66,250 C603.12,249.67 600.59,249.36 598.05,249.11 C566.4,245.65 536.51,229.3 516.28,204.75 C499.68,184.89 489.61,159.7 487.84,133.87 C485.99,108.37 492.16,82.33 505.44,60.47 C518.3,39.14 537.65,21.77 560.3,11.4 C575.33,4.43 591.75,0.74 608.27,0 L608.27,0 Z M604.18,46.32 C582.59,48.5 562.22,60.08 549.27,77.47 C538.36,91.82 532.71,110.04 533.45,128.04 C534.09,146.42 541.41,164.49 553.84,178.06 C565.76,191.35 582.34,200.37 599.99,203.12 C617.6,205.98 636.16,202.65 651.64,193.77 C667.86,184.55 680.66,169.44 686.93,151.86 C693.08,134.89 693.17,115.8 687.14,98.79 C681.84,83.49 671.61,69.99 658.43,60.6 C642.91,49.38 623.19,44.3 604.18,46.32 L604.18,46.32 Z" id="Shape" sketch:type="MSShapeGroup"></path>
            <path d="M754.16,0 L756.2,0 C771.63,2.78 787.09,7.46 800,16.64 C818.37,4.37 840.93,-1.69 862.96,0.71 C887.33,3.06 910.18,15.6 926.16,34 C937.33,21.3 951.62,11.27 967.63,5.7 C977.21,2.23 987.35,0.54 997.51,0 L1003.54,0 C1022.35,0.8 1041.01,6.7 1056.44,17.58 C1080.71,34.74 1098.12,62.49 1100,92.47 L1100,250 L1095.51,250 C1086.93,248.95 1077.91,248.11 1070.28,243.71 C1060.69,238.03 1054.11,227.23 1054.18,216 C1054.17,176.35 1054.17,136.7 1054.16,97.05 C1054.16,83.67 1046.91,71.46 1037.96,61.99 C1028.32,51.62 1014.26,45.53 1000.09,45.79 C985.5,45.84 971.11,52.58 961.77,63.78 C954,72.94 950,84.98 950,96.93 C949.85,147.96 949.75,198.98 949.59,250 L945.51,250 C936.48,248.9 926.87,248.02 919.04,242.95 C910.12,237.09 904.1,226.72 904.18,215.97 C904.17,176.33 904.17,136.7 904.16,97.06 C904.18,82.47 896.49,68.8 885.99,59.07 C874.31,48.24 857.37,43.58 841.77,46.74 C818.07,51.06 799.46,73.89 799.99,97.97 C800.01,135.3 799.98,172.64 799.99,209.97 C799.95,214.36 800.26,218.84 799.15,223.14 C796.67,233.14 789.29,241.87 779.71,245.75 C773.08,248.28 765.99,249.15 758.99,250 L754.05,250 C754.15,166.67 754.07,83.33 754.16,0 L754.16,0 Z" id="Shape" sketch:type="MSShapeGroup"></path>
        </g>
    </g>
</svg>